<?xml version="1.0" encoding="UTF-8" standalone="no"?>
<svg
   xmlns:dc="http://purl.org/dc/elements/1.1/"
   xmlns:cc="http://creativecommons.org/ns#"
   xmlns:rdf="http://www.w3.org/1999/02/22-rdf-syntax-ns#"
   xmlns:svg="http://www.w3.org/2000/svg"
   xmlns="http://www.w3.org/2000/svg"
   xmlns:xlink="http://www.w3.org/1999/xlink"
   xmlns:sodipodi="http://sodipodi.sourceforge.net/DTD/sodipodi-0.dtd"
   xmlns:inkscape="http://www.inkscape.org/namespaces/inkscape"
   version="1.1"
   width="48"
   height="48"
   id="svg4296"
   inkscape:version="0.92.2 (unknown)"
   sodipodi:docname="resizer-48.svg">
  <sodipodi:namedview
     pagecolor="#ffffff"
     bordercolor="#666666"
     borderopacity="1"
     objecttolerance="10"
     gridtolerance="10"
     guidetolerance="10"
     inkscape:pageopacity="0"
     inkscape:pageshadow="2"
     inkscape:window-width="2560"
     inkscape:window-height="2044"
     id="namedview71"
     showgrid="true"
     inkscape:zoom="16"
     inkscape:cx="40.812518"
     inkscape:cy="29.448883"
     inkscape:window-x="0"
     inkscape:window-y="60"
     inkscape:window-maximized="0"
     inkscape:current-layer="svg4296"
     showguides="true"
     inkscape:guide-bbox="true">
    <inkscape:grid
       type="xygrid"
       id="grid4218"
       empspacing="4" />
    <inkscape:grid
       type="xygrid"
       id="grid4220"
       spacingx="0.5"
       spacingy="0.5"
       color="#ff3fff"
       opacity="0.1254902"
       empcolor="#3fffff"
       empopacity="0.1254902"
       empspacing="2" />
    <sodipodi:guide
       position="-35,3"
       orientation="0,1"
       id="guide96"
       inkscape:locked="false"
       inkscape:label=""
       inkscape:color="rgb(0,0,255)" />
    <sodipodi:guide
       position="-23,24"
       orientation="0,1"
       id="guide98"
       inkscape:locked="false"
       inkscape:label=""
       inkscape:color="rgb(0,255,16)" />
    <sodipodi:guide
       position="-29,40"
       orientation="0,1"
       id="guide100"
       inkscape:locked="false"
       inkscape:label=""
       inkscape:color="rgb(255,3,0)" />
  </sodipodi:namedview>
  <defs
     id="defs4298">
    <linearGradient
       id="linearGradient4199">
      <stop
         offset="0"
         style="stop-color:#95a3ab;stop-opacity:1"
         id="stop4201" />
      <stop
         offset="0.26238"
         style="stop-color:#667885;stop-opacity:1"
         id="stop4203" />
      <stop
         offset="0.704952"
         style="stop-color:#485a6c;stop-opacity:1"
         id="stop4205" />
      <stop
         offset="1"
         style="stop-color:#273445;stop-opacity:1"
         id="stop4207" />
    </linearGradient>
    <linearGradient
       id="linearGradient3895">
      <stop
         id="stop3897"
         style="stop-color:#ffffff;stop-opacity:1"
         offset="0" />
      <stop
         id="stop3899"
         style="stop-color:#ffffff;stop-opacity:0.23529412"
         offset="0.05263157" />
      <stop
         id="stop3901"
         style="stop-color:#ffffff;stop-opacity:0.15686275"
         offset="0.95056331" />
      <stop
         id="stop3903"
         style="stop-color:#ffffff;stop-opacity:0.39215687"
         offset="1" />
    </linearGradient>
    <linearGradient
       id="linearGradient3688-166-749">
      <stop
         id="stop2883"
         style="stop-color:#181818;stop-opacity:1"
         offset="0" />
      <stop
         id="stop2885"
         style="stop-color:#181818;stop-opacity:0"
         offset="1" />
    </linearGradient>
    <linearGradient
       id="linearGradient3688-464-309">
      <stop
         id="stop2889"
         style="stop-color:#181818;stop-opacity:1"
         offset="0" />
      <stop
         id="stop2891"
         style="stop-color:#181818;stop-opacity:0"
         offset="1" />
    </linearGradient>
    <linearGradient
       id="linearGradient3702-501-757">
      <stop
         id="stop2895"
         style="stop-color:#181818;stop-opacity:0"
         offset="0" />
      <stop
         id="stop2897"
         style="stop-color:#181818;stop-opacity:1"
         offset="0.5" />
      <stop
         id="stop2899"
         style="stop-color:#181818;stop-opacity:0"
         offset="1" />
    </linearGradient>
    <linearGradient
       x1="23.99999"
       y1="4.9999938"
       x2="23.99999"
       y2="43"
       id="linearGradient3024"
       xlink:href="#linearGradient3895"
       gradientUnits="userSpaceOnUse"
       gradientTransform="translate(50.000004,1.0000062)" />
    <radialGradient
       cx="4.9929786"
       cy="43.5"
       r="2.5"
       fx="4.9929786"
       fy="43.5"
       id="radialGradient3038"
       xlink:href="#linearGradient3688-166-749"
       gradientUnits="userSpaceOnUse"
       gradientTransform="matrix(2.003784,0,0,1.4,27.98813,-17.4)" />
    <radialGradient
       cx="4.9929786"
       cy="43.5"
       r="2.5"
       fx="4.9929786"
       fy="43.5"
       id="radialGradient3040"
       xlink:href="#linearGradient3688-464-309"
       gradientUnits="userSpaceOnUse"
       gradientTransform="matrix(2.003784,0,0,1.4,-20.01187,-104.4)" />
    <linearGradient
       x1="25.058096"
       y1="47.027729"
       x2="25.058096"
       y2="39.999443"
       id="linearGradient3042"
       xlink:href="#linearGradient3702-501-757"
       gradientUnits="userSpaceOnUse" />
    <radialGradient
       cx="7.1183534"
       cy="9.9571075"
       r="12.671875"
       fx="7.1183534"
       fy="9.9571075"
       id="radialGradient3054-6"
       xlink:href="#linearGradient2867-449-88-871-390-598-476-591-434-148-57-177-8-3-3-6-4-8-8-8-5"
       gradientUnits="userSpaceOnUse"
       gradientTransform="matrix(0,9.1402449,-11.221301,0,186.56278,-77.887535)" />
    <linearGradient
       id="linearGradient2867-449-88-871-390-598-476-591-434-148-57-177-8-3-3-6-4-8-8-8-5">
      <stop
         id="stop3750-1-0-7-6-6-1-3-9-3"
         style="stop-color:#919caf;stop-opacity:1;"
         offset="0" />
      <stop
         id="stop3752-3-7-4-0-32-8-923-0-7"
         style="stop-color:#68758e;stop-opacity:1;"
         offset="0.26238" />
      <stop
         id="stop3754-1-8-5-2-7-6-7-1-9"
         style="stop-color:#485a6c;stop-opacity:1;"
         offset="0.704952" />
      <stop
         id="stop3756-1-6-2-6-6-1-96-6-0"
         style="stop-color:#444c5c;stop-opacity:1;"
         offset="1" />
    </linearGradient>
    <linearGradient
       x1="61.041145"
       y1="42.402573"
       x2="61.041145"
       y2="4.3380871"
       id="linearGradient3018-5"
       xlink:href="#linearGradient3680-6-6-6-3-7"
       gradientUnits="userSpaceOnUse"
       gradientTransform="translate(-32.172838,-13.166413)" />
    <linearGradient
       id="linearGradient3680-6-6-6-3-7">
      <stop
         id="stop3682-4-6-1-3-7"
         style="stop-color:#dcdcdc;stop-opacity:1"
         offset="0" />
      <stop
         id="stop3684-8-5-8-0-2"
         style="stop-color:#ffffff;stop-opacity:1"
         offset="1" />
    </linearGradient>
    <linearGradient
       x1="20"
       y1="26.000008"
       x2="20"
       y2="13.000008"
       id="linearGradient3018-5-0"
       xlink:href="#linearGradient3680-6-6-6-3-7-4"
       gradientUnits="userSpaceOnUse"
       gradientTransform="matrix(1,0,0,0.75,-33.981315,9.749994)" />
    <linearGradient
       id="linearGradient3680-6-6-6-3-7-4">
      <stop
         id="stop3682-4-6-1-3-7-0"
         style="stop-color:#dcdcdc;stop-opacity:1"
         offset="0" />
      <stop
         id="stop3684-8-5-8-0-2-5"
         style="stop-color:#ffffff;stop-opacity:1"
         offset="1" />
    </linearGradient>
    <linearGradient
       id="linearGradient3462">
      <stop
         id="stop3464"
         style="stop-color:#ffffff;stop-opacity:1"
         offset="0" />
      <stop
         id="stop3466"
         style="stop-color:#ffffff;stop-opacity:0.23529412"
         offset="0.03457849" />
      <stop
         id="stop3468"
         style="stop-color:#ffffff;stop-opacity:0.15686275"
         offset="0.96375686" />
      <stop
         id="stop3470"
         style="stop-color:#ffffff;stop-opacity:0.39215687"
         offset="1" />
    </linearGradient>
    <linearGradient
       id="linearGradient2867-449-88-871-390-598-476-591-434-148-57-177-8-3-3-6-4-8-8-8-5-7">
      <stop
         offset="0"
         style="stop-color:#505050;stop-opacity:1"
         id="stop3750-1-0-7-6-6-1-3-9-3-9" />
      <stop
         offset="0.26238"
         style="stop-color:#2b2b2b;stop-opacity:1"
         id="stop3752-3-7-4-0-32-8-923-0-7-0" />
      <stop
         offset="0.704952"
         style="stop-color:#0a0a0a;stop-opacity:1"
         id="stop3754-1-8-5-2-7-6-7-1-9-1" />
      <stop
         offset="1"
         style="stop-color:#000000;stop-opacity:1"
         id="stop3756-1-6-2-6-6-1-96-6-0-1" />
    </linearGradient>
    <linearGradient
       gradientTransform="matrix(0.08449704,0,0,0.01235294,-6.5396456,38.470822)"
       gradientUnits="userSpaceOnUse"
       xlink:href="#linearGradient5048"
       id="linearGradient19619"
       y2="609.50507"
       x2="302.85715"
       y1="366.64789"
       x1="302.85715" />
    <linearGradient
       id="linearGradient5048">
      <stop
         offset="0"
         style="stop-color:#000000;stop-opacity:0"
         id="stop5050" />
      <stop
         offset="0.5"
         style="stop-color:#000000;stop-opacity:1"
         id="stop5056" />
      <stop
         offset="1"
         style="stop-color:#000000;stop-opacity:0"
         id="stop5052" />
    </linearGradient>
    <radialGradient
       gradientTransform="matrix(-0.0289166,0,0,0.01235294,21.026894,38.470848)"
       gradientUnits="userSpaceOnUse"
       xlink:href="#linearGradient5060"
       id="radialGradient19616"
       fy="486.64789"
       fx="605.71429"
       r="117.14286"
       cy="486.64789"
       cx="605.71429" />
    <linearGradient
       id="linearGradient5060">
      <stop
         offset="0"
         style="stop-color:#000000;stop-opacity:1"
         id="stop5062" />
      <stop
         offset="1"
         style="stop-color:#000000;stop-opacity:0"
         id="stop5064" />
    </linearGradient>
    <radialGradient
       gradientTransform="matrix(0.02891661,0,0,0.01235294,26.973101,38.470848)"
       gradientUnits="userSpaceOnUse"
       xlink:href="#linearGradient5060"
       id="radialGradient19613"
       fy="486.64789"
       fx="605.71429"
       r="117.14286"
       cy="486.64789"
       cx="605.71429" />
    <linearGradient
       xlink:href="#linearGradient3462"
       id="linearGradient4088"
       gradientUnits="userSpaceOnUse"
       gradientTransform="matrix(1.1621621,0,0,0.91891888,-3.8918941,4.4459492)"
       x1="40.290417"
       y1="5.4143372"
       x2="40.290417"
       y2="42.437775" />
    <radialGradient
       xlink:href="#linearGradient4199"
       id="radialGradient4091"
       gradientUnits="userSpaceOnUse"
       gradientTransform="matrix(0,8.4371492,-12.947656,0,153.88012,-68.473106)"
       cx="7.1183534"
       cy="9.9571075"
       fx="7.1183534"
       fy="9.9571075"
       r="12.671875" />
    <linearGradient
       xlink:href="#linearGradient3680-6-6-6-3-7-4"
       id="linearGradient4115"
       gradientUnits="userSpaceOnUse"
       gradientTransform="matrix(1,0,0,0.75,-33.981315,8.2499944)"
       x1="59.485085"
       y1="37.291523"
       x2="59.485085"
       y2="1.7410491" />
    <radialGradient
       gradientTransform="matrix(1.0029371,0,0,0.06268357,-25.56856,41.465311)"
       gradientUnits="userSpaceOnUse"
       xlink:href="#linearGradient5060"
       id="radialGradient3814"
       fy="40.430397"
       fx="19.53446"
       r="23.929714"
       cy="40.430397"
       cx="19.53446" />
    <linearGradient
       gradientTransform="matrix(0.99682577,5.6082336e-4,2.043022e-4,0.71682639,91.087468,5.8428916)"
       gradientUnits="userSpaceOnUse"
       xlink:href="#linearGradient4623-7-15"
       id="linearGradient3185-6"
       y2="52.887863"
       x2="-76.844345"
       y1="6.6805849"
       x1="-76.834877" />
    <linearGradient
       id="linearGradient4623-7-15">
      <stop
         offset="0"
         style="stop-color:#000000;stop-opacity:0.27058825"
         id="stop4625-3-7" />
      <stop
         offset="1"
         style="stop-color:#000000;stop-opacity:0.368"
         id="stop4627-1-42" />
    </linearGradient>
    <linearGradient
       gradientTransform="matrix(1.1428545,0,0,0.69530686,-33.428509,9.2455819)"
       gradientUnits="userSpaceOnUse"
       xlink:href="#linearGradient3600-9-51"
       id="linearGradient3182-6"
       y2="47.013336"
       x2="25.132275"
       y1="0.98520643"
       x1="25.132275" />
    <linearGradient
       id="linearGradient3600-9-51">
      <stop
         offset="0"
         style="stop-color:#f4f4f4;stop-opacity:1"
         id="stop3602-0-0" />
      <stop
         offset="1"
         style="stop-color:#dbdbdb;stop-opacity:1"
         id="stop3604-9-04" />
    </linearGradient>
    <linearGradient
       gradientTransform="matrix(1.0540541,0,0,0.83783781,-31.297289,6.8915316)"
       gradientUnits="userSpaceOnUse"
       xlink:href="#linearGradient3977-7-61"
       id="linearGradient3174-3"
       y2="43"
       x2="23.99999"
       y1="5.5641499"
       x1="23.99999" />
    <linearGradient
       id="linearGradient3977-7-61">
      <stop
         offset="0"
         style="stop-color:#ffffff;stop-opacity:1"
         id="stop3979-6-49" />
      <stop
         offset="0.03626217"
         style="stop-color:#ffffff;stop-opacity:0.23529412"
         id="stop3981-3-78" />
      <stop
         offset="0.95056331"
         style="stop-color:#ffffff;stop-opacity:0.15686275"
         id="stop3983-8-86" />
      <stop
         offset="1"
         style="stop-color:#ffffff;stop-opacity:0.39215687"
         id="stop3985-2-07" />
    </linearGradient>
    <linearGradient
       gradientTransform="matrix(0.23682313,0,0,0.23897582,24.815171,18.241158)"
       gradientUnits="userSpaceOnUse"
       xlink:href="#linearGradient3825-5-8-9"
       id="linearGradient6790"
       y2="39.991924"
       x2="-96.557358"
       y1="110.92493"
       x1="-96.557358" />
    <linearGradient
       id="linearGradient3825-5-8-9">
      <stop
         offset="0"
         style="stop-color:#e89c42;stop-opacity:1"
         id="stop3827-2-3-55" />
      <stop
         offset="1"
         style="stop-color:#faca67;stop-opacity:1"
         id="stop3829-5-0-1" />
    </linearGradient>
    <linearGradient
       gradientTransform="matrix(0.23682313,0,0,0.23897582,24.815171,18.241158)"
       gradientUnits="userSpaceOnUse"
       xlink:href="#linearGradient3871-6-7"
       id="linearGradient6785"
       y2="38.561256"
       x2="-107.45584"
       y1="-37.385227"
       x1="-107.45584" />
    <linearGradient
       id="linearGradient3871-6-7">
      <stop
         offset="0"
         style="stop-color:#0b85e9;stop-opacity:1"
         id="stop3873-3-2" />
      <stop
         offset="1"
         style="stop-color:#69d1ef;stop-opacity:1"
         id="stop3875-4-0" />
    </linearGradient>
    <linearGradient
       gradientTransform="matrix(0.15260753,0.011922,-0.01258467,0.14528099,17.067821,24.419296)"
       gradientUnits="userSpaceOnUse"
       xlink:href="#linearGradient4470-86-9"
       id="linearGradient4478-4-9"
       y2="75.190559"
       x2="-208.49672"
       y1="88.750069"
       x1="-211.28862" />
    <linearGradient
       id="linearGradient4470-86-9">
      <stop
         offset="0"
         style="stop-color:#ec4502;stop-opacity:1"
         id="stop4472-0-4" />
      <stop
         offset="1"
         style="stop-color:#fe7617;stop-opacity:1"
         id="stop4474-9-9" />
    </linearGradient>
    <linearGradient
       gradientTransform="matrix(0.15070105,0,0,0.15182597,10.329191,21.187115)"
       gradientUnits="userSpaceOnUse"
       xlink:href="#linearGradient4574-39-1"
       id="linearGradient6598-5"
       y2="88.801025"
       x2="-175.25337"
       y1="113.97943"
       x1="-184.92441" />
    <linearGradient
       id="linearGradient4574-39-1">
      <stop
         offset="0"
         style="stop-color:#7a0f01;stop-opacity:1"
         id="stop4576-75-8" />
      <stop
         offset="1"
         style="stop-color:#d31807;stop-opacity:1"
         id="stop4578-96-3" />
    </linearGradient>
    <linearGradient
       id="linearGradient4316-5">
      <stop
         id="stop4318-1"
         style="stop-color:#ffffff;stop-opacity:1"
         offset="0" />
      <stop
         id="stop4320-9"
         style="stop-color:#ffffff;stop-opacity:0.23529412"
         offset="0.33799788" />
      <stop
         id="stop4322-42"
         style="stop-color:#ffffff;stop-opacity:0.15686275"
         offset="0.61996669" />
      <stop
         id="stop4324-9"
         style="stop-color:#ffffff;stop-opacity:0.39215687"
         offset="1" />
    </linearGradient>
    <linearGradient
       inkscape:collect="always"
       xlink:href="#linearGradient4220-7"
       id="linearGradient1298"
       gradientUnits="userSpaceOnUse"
       gradientTransform="matrix(0.4167904,0,0,0.41679043,38.59178,5.452318)"
       x1="0.97943717"
       y1="7.3122649"
       x2="0.97943717"
       y2="38.502998" />
    <linearGradient
       id="linearGradient4220-7">
      <stop
         id="stop4222-7"
         style="stop-color:#7a8498;stop-opacity:1"
         offset="0" />
      <stop
         id="stop4224-0"
         style="stop-color:#34405c;stop-opacity:1"
         offset="1" />
    </linearGradient>
    <linearGradient
       inkscape:collect="always"
       xlink:href="#linearGradient4220-7"
       id="linearGradient1298-6"
       gradientUnits="userSpaceOnUse"
       gradientTransform="matrix(0.4167904,0,0,0.41679043,-8.40822,-4.547682)"
       x1="91.566116"
       y1="16.542858"
       x2="91.566116"
       y2="48.631081" />
    <linearGradient
       inkscape:collect="always"
       xlink:href="#linearGradient4316-5"
       id="linearGradient1338-5"
       gradientUnits="userSpaceOnUse"
       gradientTransform="matrix(1.0918003,0,0,1.0918003,-16.539214,-12.552887)"
       x1="92.696327"
       y1="16.554602"
       x2="92.696327"
       y2="48.983677" />
  </defs>
  <metadata
     id="metadata4301">
    <rdf:RDF>
      <cc:Work
         rdf:about="">
        <dc:format>image/svg+xml</dc:format>
        <dc:type
           rdf:resource="http://purl.org/dc/dcmitype/StillImage" />
        <dc:title />
      </cc:Work>
    </rdf:RDF>
  </metadata>
  <g
     id="g614"
     transform="translate(27.999999,1.000369)">
    <path
       style="color:#000000;display:inline;overflow:visible;visibility:visible;opacity:0.2;fill:url(#radialGradient3814);fill-opacity:1;fill-rule:nonzero;stroke:none;stroke-width:0.99992174;marker:none;enable-background:accumulate"
       id="path5050-1"
       d="m 18.023277,43.999631 a 24.000001,1.5 0 0 1 -47.999996,0 24.000001,1.5 0 1 1 47.999996,0 z"
       inkscape:connector-curvature="0" />
    <path
       style="color:#000000;display:inline;overflow:visible;visibility:visible;fill:none;stroke:url(#linearGradient3185-6);stroke-width:0.99992186;stroke-linecap:butt;stroke-linejoin:round;stroke-miterlimit:4;stroke-dasharray:none;stroke-dashoffset:0;stroke-opacity:1;marker:none;enable-background:accumulate"
       id="rect6741-1-2-0-3"
       d="m 14.500041,43.499671 h -41.00008 v -33.00008 h 41.00008 z"
       inkscape:connector-curvature="0" />
    <path
       style="display:inline;fill:url(#linearGradient3182-6);fill-opacity:1;stroke:none"
       id="path4160-9-1"
       d="m -25.999999,10.999631 c 9.16603,0 39.99995,0.002 39.99995,0.002 l 5e-5,31.998 c 0,0 -26.66667,0 -40,0 0,-10.66666 0,-21.33332 0,-31.99997 z"
       inkscape:connector-curvature="0" />
    <path
       style="fill:none;stroke:url(#linearGradient3174-3);stroke-width:1;stroke-linecap:round;stroke-linejoin:miter;stroke-miterlimit:4;stroke-dasharray:none;stroke-dashoffset:0;stroke-opacity:1"
       id="rect6741-1-2-1"
       d="m 13.500001,42.499631 h -39 v -31 h 39 z"
       inkscape:connector-curvature="0" />
    <path
       style="color:#000000;display:inline;overflow:visible;visibility:visible;fill:url(#linearGradient6790);fill-opacity:1;fill-rule:nonzero;stroke:none;stroke-width:10;marker:none;enable-background:accumulate"
       id="rect3055-2-9-1"
       d="m -23.999999,12.999631 v 28 h 36 v -28 z"
       inkscape:connector-curvature="0" />
    <path
       style="color:#000000;display:inline;overflow:visible;visibility:visible;opacity:0.05;fill:#000000;fill-opacity:1;fill-rule:nonzero;stroke:none;stroke-width:6.62903976;marker:none;enable-background:accumulate"
       id="path5297"
       d="m -17.316385,30.378889 c -0.150379,-0.01138 -0.319456,1.99e-4 -0.489927,0.05771 -0.665408,0.224494 -0.741716,0.666737 -0.80113,0.878989 -0.05941,0.212252 -0.0717,0.377223 -0.08136,0.551276 -0.01932,0.348105 -0.0043,0.713997 0.01211,1.079644 0.01345,0.300339 0.02544,0.566911 0.03133,0.802329 -0.229457,0.0532 -0.482339,0.110335 -0.773557,0.172676 -0.364989,0.07814 -0.73397,0.156339 -1.074296,0.263452 -0.170162,0.05356 -0.330007,0.107609 -0.533091,0.223457 -0.101542,0.05792 -0.218491,0.126807 -0.355409,0.278476 -0.136918,0.151668 -0.302801,0.436899 -0.293358,0.781535 0.01844,0.672799 0.43518,0.876243 0.629171,0.995298 0.193992,0.119055 0.350465,0.179635 0.521592,0.241861 0.342256,0.124451 0.719796,0.225339 1.090723,0.322888 0.305709,0.0804 0.573529,0.156153 0.81127,0.223355 -0.01781,0.223909 -0.04243,0.471372 -0.07004,0.753273 -0.03477,0.354921 -0.0688,0.70925 -0.067,1.05061 9.01e-4,0.17068 0.0048,0.333437 0.05773,0.553 0.02645,0.109782 0.06216,0.235716 0.171246,0.406463 0.109089,0.170747 0.338012,0.412726 0.685558,0.510632 0.677118,0.190749 1.010082,-0.120417 1.189146,-0.259049 0.179063,-0.138632 0.289341,-0.267081 0.404572,-0.402616 0.23046,-0.271068 0.445236,-0.580359 0.657668,-0.885626 0.174715,-0.251069 0.330046,-0.473081 0.470696,-0.667125 0.218487,0.08502 0.458915,0.182844 0.73305,0.294947 0.343453,0.140449 0.690938,0.283666 1.032366,0.386891 0.170714,0.05161 0.330282,0.0978 0.565985,0.117348 0.11785,0.0098 0.259242,0.01848 0.463329,-0.02779 0.204087,-0.04628 0.51229,-0.181112 0.71726,-0.465032 0.39977,-0.55376 0.193534,-0.956541 0.110215,-1.161503 -0.08332,-0.204961 -0.174769,-0.341717 -0.274639,-0.487672 -0.199744,-0.291909 -0.444133,-0.58107 -0.683498,-0.86699 -0.19657,-0.234801 -0.366521,-0.443384 -0.516777,-0.629999 0.152712,-0.171547 0.323163,-0.358412 0.520059,-0.571853 0.246949,-0.267701 0.495172,-0.536164 0.704227,-0.813428 0.104528,-0.138632 0.203384,-0.272341 0.296016,-0.479657 0.04632,-0.103659 0.0966,-0.226202 0.113665,-0.425342 0.0171,-0.199138 -0.02267,-0.522549 -0.243128,-0.796022 -0.429824,-0.5332 -0.892258,-0.465256 -1.122633,-0.453363 -0.230375,0.01189 -0.398019,0.05166 -0.574932,0.09678 -0.353824,0.09023 -0.72097,0.217178 -1.081375,0.345171 -0.297081,0.105505 -0.558222,0.198072 -0.79214,0.276353 -0.123854,-0.190933 -0.257475,-0.405133 -0.4095,-0.649043 -0.190617,-0.30583 -0.383233,-0.612843 -0.595296,-0.887524 -0.106031,-0.137341 -0.203333,-0.265879 -0.381867,-0.413776 -0.08927,-0.07395 -0.198656,-0.159477 -0.392435,-0.236342 -0.09689,-0.03843 -0.231189,-0.07328 -0.381569,-0.08466 z m 1.738343,2.380043 c 0.0051,-7.4e-4 0.03564,0.0081 0.04253,0.0079 -0.01226,0.003 -0.04702,0.01264 -0.05403,0.01406 -0.01725,0.0035 -0.03015,-0.01594 0.0115,-0.02195 z m 0.63521,0.205029 c 0.05292,0.04207 0.04947,0.0609 0.03899,0.04875 -0.0047,-0.0055 -0.02954,-0.03663 -0.03899,-0.04875 z m -3.293343,0.661439 c 0.04271,-0.01926 0.04635,0.0066 0.0326,0.01169 -0.0072,0.0027 -0.04817,0.01282 -0.06396,0.01786 0.0062,-0.0037 0.02628,-0.02725 0.03137,-0.02954 z m -0.408456,0.502869 c -7.88e-4,0.01264 8.35e-4,0.04783 4.2e-5,0.05485 -0.0021,0.01891 -0.01895,0.0046 -4.2e-5,-0.05485 z m 5.401792,0.993343 c -0.0098,-0.01618 0.01321,-0.01332 0.03461,0.04384 -0.0072,-0.01069 -0.03091,-0.03776 -0.03461,-0.04384 z m 0.01648,0.641193 c -0.02554,0.05963 -0.04702,0.06516 -0.0381,0.05187 0.0041,-0.0061 0.02871,-0.0393 0.0381,-0.05187 z m -5.376892,1.047158 c 4.42e-4,0.0073 -8.83e-4,0.04815 -7.45e-4,0.06393 -0.01656,-0.06328 -2.52e-4,-0.07974 7.45e-4,-0.06393 z m 0.360137,0.553772 c 0.01156,0.0044 0.04482,0.015 0.05128,0.01771 0.01823,0.0077 0.0024,0.01773 -0.05128,-0.01771 z m 3.390654,0.598549 c 0.01343,-0.01421 0.01548,0.0093 -0.03771,0.04733 0.0095,-0.01095 0.03234,-0.04165 0.03771,-0.04733 z m -0.698826,0.196798 c 0.0078,0.0019 0.04828,0.01831 0.06519,0.02338 -0.0678,-0.0046 -0.08123,-0.02733 -0.06519,-0.02338 z"
       inkscape:connector-curvature="0" />
    <path
       style="color:#000000;display:inline;overflow:visible;visibility:visible;opacity:0.07000002;fill:#000000;fill-opacity:1;fill-rule:nonzero;stroke:none;stroke-width:10;marker:none;enable-background:accumulate"
       id="rect3055-2-6-9-0-6"
       d="m -23.999999,14.219188 v 15.527438 c 0.8041,0.215737 1.84683,0.392137 3.08863,0.392137 3.1662,0 2.71446,-1.073218 5.44092,-1.073218 2.72644,0 4.33236,1.754299 8.01818,1.754299 4.56532,0 5.61297,-2.827518 9.225,-2.827518 2.82047,0 3.03223,1.547912 6.13636,1.547912 2.09698,0 2.79339,-0.813178 4.09091,-1.341524 V 14.219188 Z"
       inkscape:connector-curvature="0" />
    <path
       style="fill:url(#linearGradient6785);fill-opacity:1;stroke:none"
       id="path3867-3-5-3"
       d="m -23.999999,12.999631 v 14.288943 c 0.53455,0.248706 1.21145,0.474693 1.94318,0.474693 1.67105,0 3.30524,-1.362162 6.09545,-1.362162 2.79022,0 4.88882,1.713022 8.40682,1.713022 3.518,0 4.30977,-2.476658 8.79546,-2.476658 4.48568,0 4.06388,1.56855 6.87272,1.56855 1.93479,0 2.76107,-0.681839 3.88637,-1.114496 V 12.999631 Z"
       inkscape:connector-curvature="0" />
    <path
       style="color:#000000;display:inline;overflow:visible;visibility:visible;opacity:0.1;fill:#ffffff;fill-opacity:1;fill-rule:nonzero;stroke:none;stroke-width:10;marker:none;enable-background:accumulate"
       id="path4213-1-6"
       d="m 1.240911,23.531294 c -2.35645,0 -3.83874,0.673262 -5.05228,1.300246 -1.21353,0.626983 -2.12904,1.176412 -3.74318,1.176412 -1.6588,0 -2.96983,-0.399909 -4.275,-0.825552 -1.30516,-0.425644 -2.61038,-0.88747 -4.13182,-0.88747 -1.49556,0 -2.69794,0.354952 -3.68181,0.701721 -0.98388,0.346767 -1.74585,0.660442 -2.41364,0.660442 -0.60463,0 -1.19401,-0.208571 -1.67727,-0.433415 a 0.6229208,0.6285327 0 0 0 -0.26591,-0.06192 v 2.703686 c 0.82828,0.209133 1.86731,0.371499 3.08863,0.371499 1.65285,0 2.49376,-0.304357 3.12955,-0.577888 0.63579,-0.27353 1.02914,-0.495331 2.31137,-0.495331 1.23082,0 2.2209,0.403081 3.43636,0.846191 1.21545,0.443111 2.64097,0.908109 4.58182,0.908109 2.41009,0 3.97897,-0.771287 5.27727,-1.485996 1.29830002,-0.714708 2.30278002,-1.341523 3.94773,-1.341523 1.2973,0 1.89993,0.332189 2.7,0.722359 0.80005,0.39017 1.78168,0.825553 3.43636,0.825553 2.10719,0 3.0308,-0.788867 4.09091,-1.279607 v -2.373465 a 0.6229208,0.6285327 0 0 0 -0.225,0.04127 c -1.23397,0.474437 -1.8716,1.073219 -3.66137,1.073219 -1.28952,0 -1.69197,-0.311728 -2.53636,-0.722359 -0.8444,-0.41063 -2.02157,-0.846192 -4.33636,-0.846192 z"
       inkscape:connector-curvature="0" />
    <path
       style="color:#000000;display:inline;overflow:visible;visibility:visible;opacity:0.3;fill:#ffffff;fill-opacity:1;fill-rule:nonzero;stroke:none;stroke-width:10;marker:none;enable-background:accumulate"
       id="rect3055-2-6-94-0-7"
       d="m 1.240911,24.65784 c -4.48569,0 -5.27746,2.476658 -8.79546,2.476658 -3.518,0 -5.6166,-1.713022 -8.40682,-1.713022 -2.79021,0 -4.4244,1.362162 -6.09545,1.362162 -0.73173,0 -1.40863,-0.225987 -1.94318,-0.474693 v 1.424079 c 0.8041,0.215737 1.84683,0.392137 3.08863,0.392137 3.1662,0 2.71446,-1.073218 5.44092,-1.073218 2.72644,0 4.33236,1.7543 8.01818,1.7543 4.56532,0 5.61297,-2.827519 9.225,-2.827519 2.82047,0 3.03223,1.547912 6.13636,1.547912 2.09698,0 2.79339,-0.813177 4.09091,-1.341523 v -1.073219 c -1.1253,0.432657 -1.95158,1.114496 -3.88637,1.114496 -2.80884,0 -2.38704,-1.56855 -6.87272,-1.56855 z"
       inkscape:connector-curvature="0" />
    <path
       style="color:#000000;display:inline;overflow:visible;visibility:visible;fill:#ffffff;fill-opacity:1;fill-rule:nonzero;stroke:none;stroke-width:10;marker:none;enable-background:accumulate"
       id="rect3055-2-6-8-5"
       d="m 1.240911,25.637469 c -4.48569,0 -5.27746,2.476658 -8.79546,2.476658 -3.518,0 -5.6166,-1.713022 -8.40682,-1.713022 -2.79021,0 -4.4244,1.362162 -6.09545,1.362162 -0.73173,0 -1.40863,-0.225987 -1.94318,-0.474693 v 1.424079 c 0.8041,0.215737 1.84683,0.392138 3.08863,0.392138 3.1662,0 2.71446,-1.073219 5.44092,-1.073219 2.72644,0 4.33236,1.7543 8.01818,1.7543 4.56532,0 5.61297,-2.827518 9.225,-2.827518 2.82047,0 3.03223,1.547911 6.13636,1.547911 2.09698,0 2.79339,-0.813177 4.09091,-1.341523 v -1.073219 c -1.1253,0.432657 -1.95158,1.114496 -3.88637,1.114496 -2.80884,0 -2.38704,-1.56855 -6.87272,-1.56855 z"
       inkscape:connector-curvature="0" />
    <path
       style="color:#000000;display:inline;overflow:visible;visibility:visible;opacity:0.3;fill:none;stroke:#000000;stroke-width:0.99999988;stroke-linecap:butt;stroke-linejoin:miter;stroke-miterlimit:4;stroke-dasharray:none;stroke-dashoffset:0;stroke-opacity:1;marker:none;enable-background:accumulate"
       id="path4160-62-8"
       d="m -23.499989,13.499646 c 8.02027,0 34.99994,0.0017 34.99994,0.0017 l 4e-5,26.998286 c 0,0 -23.33332,0 -34.99998,0 0,-9.000003 0,-18.000002 0,-27 z"
       inkscape:connector-curvature="0" />
    <path
       style="color:#000000;display:inline;overflow:visible;visibility:visible;opacity:0.15;fill:#000000;fill-opacity:1;fill-rule:nonzero;stroke:none;stroke-width:6.62903976;marker:none;enable-background:accumulate"
       id="path5640-3"
       d="m -17.436238,31.429941 c -0.366059,0.123499 0.06123,2.779771 -0.170472,3.076512 -0.223714,0.286518 -2.97622,0.576993 -2.966444,0.933798 0.01013,0.369534 2.800739,0.798876 3.025512,1.100231 0.217031,0.290974 -0.343678,2.875524 0.01581,2.976796 0.372317,0.104885 1.666208,-2.285438 2.036822,-2.395931 0.357847,-0.106686 2.763256,1.19401 2.975657,0.899795 0.219979,-0.304713 -1.768631,-2.208975 -1.764353,-2.578618 0.0041,-0.35691 2.05083,-2.134129 1.822611,-2.417236 -0.236362,-0.293208 -2.759541,0.915764 -3.12751,0.797805 -0.355292,-0.113896 -1.494187,-2.512398 -1.847636,-2.393152 z"
       inkscape:connector-curvature="0" />
    <path
       style="color:#000000;display:inline;overflow:visible;visibility:visible;fill:url(#linearGradient4478-4-9);fill-opacity:1;stroke:none;stroke-width:1.49402165;marker:none;enable-background:accumulate"
       id="path4468-6"
       d="m -17.437895,30.429342 c 0.35345,-0.119246 1.49562,2.281754 1.850914,2.39565 0.367969,0.11796 2.888802,-1.093705 3.125163,-0.800498 0.228219,0.283107 -1.817986,2.060055 -1.822119,2.416964 -0.0043,0.369644 1.984259,2.277038 1.764279,2.581749 -0.212401,0.294215 -2.619197,-1.00857 -2.977043,-0.901884 -0.370614,0.110493 -1.662463,2.500992 -2.03478,2.396108 -0.359491,-0.101272 0.199233,-2.683386 -0.0178,-2.97436 -0.224774,-0.301355 -3.011718,-0.731339 -3.021842,-1.100874 -0.0098,-0.356804 2.742331,-0.649852 2.966045,-0.936371 0.231696,-0.29674 -0.19888,-2.952984 0.167178,-3.076484 z"
       inkscape:connector-curvature="0" />
    <path
       style="opacity:0.5;fill:#9d0f06;fill-opacity:1;stroke:none"
       id="path4480-14"
       d="m -17.413939,30.424781 -0.10361,0.09963 c -7.4e-4,0.0023 -0.004,0.003 -0.004,0.0045 -0.20799,0.503328 0.12521,2.705925 -0.0848,2.974841 -0.009,0.01125 -0.0215,0.02671 -0.0377,0.03796 l 0.0848,0.05694 c 1.6984,0.5087 0.21182,-3.068201 0.16953,-3.169363 -0.008,-0.0015 -0.016,-0.0053 -0.0235,-0.0045 z"
       inkscape:connector-curvature="0" />
    <path
       style="opacity:0.75;fill:url(#linearGradient6598-5);fill-opacity:1;stroke:none"
       id="path4517-2"
       d="m -20.032369,34.381745 c -0.33411,0.003 -0.52745,0.01898 -0.52745,0.01898 v 0.0045 0.07592 c 0.19596,0.360184 2.79263,0.772283 3.00931,1.062783 0.21703,0.290973 -0.34065,2.873566 0.0188,2.974834 0.37231,0.104891 1.66385,-2.285507 2.03446,-2.396002 0.35561,-0.106016 2.73347,1.178866 2.97164,0.906214 l -0.004,-0.0045 c -2.00514,-2.458108 -6.05456,-2.655008 -7.50235,-2.642727 z"
       inkscape:connector-curvature="0" />
  </g>
  <path
     style="opacity:1;vector-effect:none;fill:url(#linearGradient1298);fill-opacity:1;stroke:none;stroke-width:0.79069769;stroke-linecap:butt;stroke-linejoin:miter;stroke-miterlimit:4;stroke-dasharray:none;stroke-dashoffset:0;stroke-opacity:1;marker:none"
     d="m 30.5,16.5 v 7 h 7 L 35,21 l 8,-8 2.5,2.5 v -7 h -7 L 41,11 33,19 Z"
     id="path1007"
     inkscape:connector-curvature="0"
     sodipodi:nodetypes="ccccccccccc" />
  <path
     sodipodi:nodetypes="ccccccccccc"
     inkscape:connector-curvature="0"
     id="path1189"
     d="m 30.5,16.5 v 7 h 7 L 35,21 l 8,-8 2.5,2.5 v -7 h -7 L 41,11 33,19 Z"
     style="opacity:0.3;vector-effect:none;fill:none;fill-opacity:1;stroke:#000000;stroke-width:1;stroke-linecap:butt;stroke-linejoin:miter;stroke-miterlimit:4;stroke-dasharray:none;stroke-dashoffset:0;stroke-opacity:1;marker:none;font-variant-east_asian:normal" />
</svg>
