<?xml version="1.0" encoding="UTF-8" standalone="no"?>
<svg
   xmlns:dc="http://purl.org/dc/elements/1.1/"
   xmlns:cc="http://creativecommons.org/ns#"
   xmlns:rdf="http://www.w3.org/1999/02/22-rdf-syntax-ns#"
   xmlns:svg="http://www.w3.org/2000/svg"
   xmlns="http://www.w3.org/2000/svg"
   xmlns:xlink="http://www.w3.org/1999/xlink"
   id="svg2453"
   height="24.000042"
   width="24.000042"
   version="1.0">
  <metadata
     id="metadata35">
    <rdf:RDF>
      <cc:Work
         rdf:about="">
        <dc:format>image/svg+xml</dc:format>
        <dc:type
           rdf:resource="http://purl.org/dc/dcmitype/StillImage" />
        <dc:title />
      </cc:Work>
    </rdf:RDF>
  </metadata>
  <defs
     id="defs2455">
    <linearGradient
       id="linearGradient4217">
      <stop
         id="stop4219"
         style="stop-color:#000000;stop-opacity:0.31764707"
         offset="0" />
      <stop
         id="stop4221"
         style="stop-color:#000000;stop-opacity:0.23921569"
         offset="1" />
    </linearGradient>
    <linearGradient
       id="linearGradient4324">
      <stop
         id="stop4326"
         style="stop-color:#ffffff;stop-opacity:1"
         offset="0" />
      <stop
         id="stop4328"
         style="stop-color:#ffffff;stop-opacity:0.23529412"
         offset="0" />
      <stop
         id="stop4330"
         style="stop-color:#ffffff;stop-opacity:0.15686275"
         offset="1" />
      <stop
         id="stop4332"
         style="stop-color:#ffffff;stop-opacity:0.39215687"
         offset="1" />
    </linearGradient>
    <radialGradient
       gradientTransform="matrix(0.01445833,0,0,0.00617648,13.486574,18.735459)"
       gradientUnits="userSpaceOnUse"
       xlink:href="#linearGradient5060"
       id="radialGradient19613"
       fy="486.64789"
       fx="605.71429"
       r="117.14286"
       cy="486.64789"
       cx="605.71429" />
    <linearGradient
       id="linearGradient5060">
      <stop
         offset="0"
         style="stop-color:#000000;stop-opacity:1"
         id="stop5062" />
      <stop
         offset="1"
         style="stop-color:#000000;stop-opacity:0"
         id="stop5064" />
    </linearGradient>
    <radialGradient
       gradientTransform="matrix(-0.01445832,0,0,0.00617648,10.513465,18.735459)"
       gradientUnits="userSpaceOnUse"
       xlink:href="#linearGradient5060"
       id="radialGradient19616"
       fy="486.64789"
       fx="605.71429"
       r="117.14286"
       cy="486.64789"
       cx="605.71429" />
    <linearGradient
       id="linearGradient5048">
      <stop
         offset="0"
         style="stop-color:#000000;stop-opacity:0"
         id="stop5050" />
      <stop
         offset="0.5"
         style="stop-color:#000000;stop-opacity:1"
         id="stop5056" />
      <stop
         offset="1"
         style="stop-color:#000000;stop-opacity:0"
         id="stop5052" />
    </linearGradient>
    <linearGradient
       gradientTransform="matrix(0.04224859,0,0,0.00617648,-3.2698284,18.735446)"
       gradientUnits="userSpaceOnUse"
       xlink:href="#linearGradient5048"
       id="linearGradient19619"
       y2="609.50507"
       x2="302.85715"
       y1="366.64789"
       x1="302.85715" />
    <linearGradient
       id="linearGradient3104">
      <stop
         offset="0"
         style="stop-color:#000000;stop-opacity:0.31764707"
         id="stop3106" />
      <stop
         offset="1"
         style="stop-color:#000000;stop-opacity:0.23921569"
         id="stop3108" />
    </linearGradient>
    <linearGradient
       id="linearGradient3600">
      <stop
         offset="0"
         style="stop-color:#f4f4f4;stop-opacity:1"
         id="stop3602" />
      <stop
         offset="1"
         style="stop-color:#dbdbdb;stop-opacity:1"
         id="stop3604" />
    </linearGradient>
    <linearGradient
       gradientTransform="matrix(0.51351353,0,0,0.4324324,-0.32432121,2.1216678)"
       gradientUnits="userSpaceOnUse"
       xlink:href="#linearGradient4324"
       id="linearGradient3138"
       y2="41.343742"
       x2="23.99999"
       y1="6.6562409"
       x1="23.99999" />
    <linearGradient
       gradientTransform="matrix(0.60000084,0,0,0.39111189,-2.400021,2.5134037)"
       gradientUnits="userSpaceOnUse"
       xlink:href="#linearGradient3600"
       id="linearGradient3141"
       y2="47.013336"
       x2="25.132275"
       y1="0.98520643"
       x1="25.132275" />
    <linearGradient
       gradientTransform="matrix(0.48449879,0,0,0.36602247,33.24617,2.0775167)"
       gradientUnits="userSpaceOnUse"
       xlink:href="#linearGradient4217"
       id="linearGradient3143"
       y2="2.9062471"
       x2="-51.786404"
       y1="50.786446"
       x1="-51.786404" />
    <linearGradient
       id="linearGradient4487">
      <stop
         offset="0"
         style="stop-color:#fafafa;stop-opacity:1"
         id="stop4489" />
      <stop
         offset="1"
         style="stop-color:#8cd5ff;stop-opacity:1"
         id="stop4491" />
    </linearGradient>
    <linearGradient
       gradientTransform="matrix(0.21144626,0,0,0.17552362,-23.407981,-22.438915)"
       gradientUnits="userSpaceOnUse"
       xlink:href="#linearGradient4487"
       id="linearGradient3077-9-7"
       y2="156.78416"
       x2="164.28023"
       y1="241.65149"
       x1="164.28023" />
    <linearGradient
       y2="20.822838"
       x2="27.161257"
       y1="-15.566356"
       x1="27.161257"
       gradientTransform="matrix(0.24732615,0,0,0.24732617,12.282311,7.3499671)"
       gradientUnits="userSpaceOnUse"
       id="linearGradient317"
       xlink:href="#linearGradient4220-7" />
    <linearGradient
       id="linearGradient4220-7">
      <stop
         offset="0"
         style="stop-color:#fff394;stop-opacity:1"
         id="stop4222-7" />
      <stop
         offset="1"
         style="stop-color:#f9c440;stop-opacity:1"
         id="stop4224-0" />
    </linearGradient>
    <linearGradient
       y2="47.013336"
       x2="25.132275"
       y1="0.98520643"
       x1="25.132275"
       gradientTransform="matrix(0.45369524,0,0,0.29501982,-1.4490431,7.1782327)"
       gradientUnits="userSpaceOnUse"
       id="linearGradient4212"
       xlink:href="#linearGradient3600" />
    <linearGradient
       y2="2.9062471"
       x2="-51.786404"
       y1="50.786446"
       x1="-51.786404"
       gradientTransform="matrix(0.36635748,0,0,0.27609461,25.505098,6.8494386)"
       gradientUnits="userSpaceOnUse"
       id="linearGradient4214"
       xlink:href="#linearGradient3104" />
    <linearGradient
       y2="41.343742"
       x2="23.99999"
       y1="6.6562409"
       x1="23.99999"
       gradientTransform="matrix(0.38826326,0,0,0.32622456,0.12133301,6.8818407)"
       gradientUnits="userSpaceOnUse"
       id="linearGradient4216"
       xlink:href="#linearGradient4324" />
    <linearGradient
       y2="156.78416"
       x2="164.28023"
       y1="241.65149"
       x1="164.28023"
       gradientTransform="matrix(0.15988671,0,0,0.13239932,-17.334373,-11.643565)"
       gradientUnits="userSpaceOnUse"
       id="linearGradient4218"
       xlink:href="#linearGradient4487" />
    <linearGradient
       gradientTransform="matrix(0.62500001,0,0,0.61908619,1.875,21.331174)"
       y2="55.952728"
       x2="29.9375"
       y1="32.890228"
       x1="29.9375"
       gradientUnits="userSpaceOnUse"
       id="linearGradient4556"
       xlink:href="#linearGradient4504" />
    <linearGradient
       id="linearGradient4504">
      <stop
         id="stop4506"
         offset="0"
         style="stop-color:#abacae;stop-opacity:1" />
      <stop
         id="stop4508"
         offset="1"
         style="stop-color:#7e8087;stop-opacity:1" />
    </linearGradient>
    <linearGradient
       gradientTransform="matrix(0.62500001,0,0,0.5925719,1.875,22.815975)"
       y2="55.99979"
       x2="31.875"
       y1="43.87479"
       x1="31.875"
       gradientUnits="userSpaceOnUse"
       id="linearGradient4558"
       xlink:href="#linearGradient4512" />
    <linearGradient
       id="linearGradient4512">
      <stop
         id="stop4514"
         offset="0"
         style="stop-color:#68b723;stop-opacity:1" />
      <stop
         id="stop4516"
         offset="1"
         style="stop-color:#d1ff82;stop-opacity:1" />
    </linearGradient>
    <linearGradient
       y2="55.952728"
       x2="29.9375"
       y1="32.890228"
       x1="29.9375"
       gradientTransform="matrix(0.62500001,0,0,0.72226723,1.875,15.553035)"
       gradientUnits="userSpaceOnUse"
       id="linearGradient4260"
       xlink:href="#linearGradient4504" />
    <linearGradient
       y2="55.99979"
       x2="31.875"
       y1="43.87479"
       x1="31.875"
       gradientTransform="matrix(0.62500001,0,0,0.6666434,1.875,18.667971)"
       gradientUnits="userSpaceOnUse"
       id="linearGradient4262"
       xlink:href="#linearGradient4512" />
  </defs>
  <g
     id="g4343">
    <g
       id="g4323">
      <rect
         width="20.400034"
         height="1.5000025"
         x="1.8000031"
         y="21.00004"
         id="rect2879"
         style="display:inline;overflow:visible;visibility:visible;opacity:0.075;fill:url(#linearGradient19619);fill-opacity:1;fill-rule:nonzero;stroke:none;stroke-width:1;marker:none" />
      <path
         d="m 1.8000031,21.000104 c 0,0 0,1.49992 0,1.49992 C 1.0554349,22.502848 0,22.163968 0,21.749968 c 0,-0.414 0.83088183,-0.749863 1.8000031,-0.749864 z"
         id="path2881"
         style="display:inline;overflow:visible;visibility:visible;opacity:0.075;fill:url(#radialGradient19616);fill-opacity:1;fill-rule:nonzero;stroke:none;stroke-width:1;marker:none" />
      <path
         d="m 22.200038,21.000104 c 0,0 0,1.49992 0,1.49992 0.744568,0.0028 1.800003,-0.336056 1.800003,-0.750056 0,-0.414 -0.830882,-0.749863 -1.800003,-0.749864 z"
         id="path2883"
         style="display:inline;overflow:visible;visibility:visible;opacity:0.075;fill:url(#radialGradient19613);fill-opacity:1;fill-rule:nonzero;stroke:none;stroke-width:1;marker:none" />
    </g>
    <g
       id="g4328"
       style="opacity:0.5">
      <path
         style="display:inline;fill:url(#linearGradient3141);fill-opacity:1;stroke:none;stroke-width:0.9999218;stroke-linecap:butt;stroke-linejoin:round;stroke-miterlimit:4;stroke-dasharray:none;stroke-dashoffset:0;stroke-opacity:1"
         id="path4160"
         d="m 2,4.0000645 c 4.8121841,0 19.999988,-2.25e-5 19.999988,-2.25e-5 l 2.4e-5,17 L 2,21.000042 2,4.0000195 Z" />
      <path
         style="fill:none;stroke:url(#linearGradient3138);stroke-width:1;stroke-linecap:round;stroke-linejoin:miter;stroke-miterlimit:4;stroke-dasharray:none;stroke-dashoffset:0;stroke-opacity:1"
         id="rect6741-1"
         d="m 21.5,20.500042 -19,0 0,-16 19,0 z" />
      <rect
         style="color:#000000;display:inline;overflow:visible;visibility:visible;fill:url(#linearGradient3077-9-7);fill-opacity:1;fill-rule:nonzero;stroke:none;stroke-width:1.00000072;stroke-linecap:round;stroke-linejoin:miter;stroke-miterlimit:4;stroke-dasharray:none;stroke-dashoffset:0;stroke-opacity:1;marker:none;enable-background:accumulate"
         id="rect3180-1"
         y="5.0000691"
         x="3"
         height="15"
         width="18" />
      <g
         transform="matrix(0.52941177,0,0,0.56249987,0.35294103,-11.499927)"
         id="g4293"
         style="">
        <path
           style="fill:url(#linearGradient4556);fill-opacity:1;fill-rule:evenodd;stroke:none;stroke-width:1px;stroke-linecap:butt;stroke-linejoin:miter;stroke-opacity:1"
           d="m 29.183655,40.001088 c -0.11759,-0.0062 -0.232177,0.01418 -0.436706,0.05986 -0.409058,0.09135 -1.029779,0.440874 -1.432343,0.745442 -0.402565,0.304567 -0.618024,0.817243 -0.96817,1.029745 -0.350145,0.212501 -0.711372,0.193307 -1.003876,0.282942 -0.292502,0.08963 -0.337673,0.0686 -0.752563,0.248934 -0.41489,0.180341 -1.127018,0.670386 -1.685029,0.923641 -0.55801,0.253257 -1.092335,0.320622 -1.647948,0.602612 -0.555613,0.281989 -1.193202,0.881118 -1.649323,1.10048 -0.456121,0.219363 -0.694592,0.321342 -1.002503,0.31967 -0.307911,-0.0017 -0.142736,0.0205 -0.752563,-0.247574 -0.609828,-0.268075 -2.09952,-1.156309 -2.796021,-1.562981 -0.696501,-0.406672 -1.02391,-0.707847 -1.39801,-0.851546 -0.3741,-0.143679 -0.41833,-0.180099 -0.752563,-0.142831 -0.334234,0.03727 -0.799944,0.312124 -1.146699,0.497869 -0.346752,0.185745 -0.493845,0.57887 -0.932464,0.603971 -0.438619,0.02511 -1.0526307,-0.652907 -1.3623051,-0.674707 -0.3096732,-0.0218 -0.1583175,0.02052 -0.32135,0.106103 -0.1630325,0.08558 -0.2867019,0.32328 -0.6097407,0.461141 -0.3230387,0.137857 -0.7848816,0.07993 -1.3265994,0.213564 -0.5417156,0.133636 -1.3437689,0.396832 -1.8992616,0.63934 -0.1138549,0.04971 -0.211739,0.106681 -0.3076171,0.164596 l 0,11.478646 33.9999999,0 0,-11.350778 c -0.180902,-0.137128 -0.612353,-0.277183 -1.005309,-0.541398 -0.784282,-0.527332 -2.458459,-1.707788 -3.225861,-2.05949 -0.767401,-0.351676 -0.887703,-0.392821 -1.182404,-0.355037 -0.2947,0.03778 -0.32228,0.236385 -0.465545,0.284302 -0.143266,0.04792 -0.0051,0.133703 -0.358429,0.03537 -0.353394,-0.09834 -0.948908,-0.779596 -1.470795,-1.10048 -0.521888,-0.320884 -1.20568,-0.703471 -1.647949,-0.816178 -0.221135,-0.05636 -0.342463,-0.08902 -0.460053,-0.09522 z"
           id="path4538" />
        <path
           id="path4540"
           d="m 29.101563,40.660156 c -0.350137,-0.0042 -0.272586,0.08658 -0.507813,0.175781 -0.235226,0.0892 -0.644231,0.18159 -0.898437,0.371094 -0.254206,0.189504 -0.405314,0.455325 -0.585938,0.722656 -0.180623,0.267331 -0.203721,0.651414 -0.488281,0.878906 -0.284559,0.227493 -0.804418,0.134543 -1.132812,0.332032 -0.328395,0.197488 -0.800782,0.742187 -0.78125,0.800781 0.01953,0.05859 -0.214844,1.503906 -0.46875,1.679688 -0.253907,0.175781 -0.93262,1.020268 -1.191407,1.484375 -0.258787,0.464106 -0.35556,0.890575 -0.429687,1.210937 C 22.54306,48.636768 22.539063,49 22.539063,49 c 0,0 0.186269,-0.691662 0.332031,-0.996094 0.145762,-0.304432 0.310659,-0.53468 0.527344,-0.820312 0.216684,-0.285633 0.722656,-0.742188 0.78125,-0.878907 0.05859,-0.136718 0.585565,-0.473883 0.761719,-0.800781 0.176153,-0.326898 0.02382,-0.799554 0.253906,-1.09375 0.230085,-0.294196 0.673488,-0.355173 0.996094,-0.507813 0.322605,-0.15264 0.628518,-0.390403 0.9375,-0.410156 0.308981,-0.01975 0.66944,-0.105156 0.800781,0.234375 0.131341,0.339531 -0.605469,1.09375 -0.703125,1.152344 -0.09766,0.05859 -0.543772,0.325275 -0.722656,0.605469 -0.178885,0.280194 -0.273438,0.9375 -0.273438,1.015625 0,0.07813 0.07813,0.78125 0.07813,0.78125 0,0 -0.0067,-0.642842 0.117188,-0.9375 0.123878,-0.294658 0.488281,-0.683594 0.605468,-0.761719 0.117188,-0.07813 0.761719,-0.507812 0.878907,-0.625 0.117187,-0.117187 0.820312,-0.566406 1.015625,-0.703125 0.195312,-0.136719 0.449218,-0.429688 0.722656,-0.585938 0.273437,-0.15625 0.488281,-0.585937 0.585937,-0.703125 0.09766,-0.117187 0.214844,-0.410156 0.566407,-0.3125 0.351562,0.09766 0.917968,0.488282 1.191406,0.703125 0.273437,0.214844 0.742187,0.566407 0.820312,0.839844 0.07813,0.273438 0.117188,0.410157 0.234375,0.78125 0.117188,0.371094 0.234376,0.898438 0.390626,1.09375 0.15625,0.195313 0.585937,0.507813 0.683593,0.566407 0.09766,0.05859 0.9375,0.488281 0.9375,0.488281 0,0 -0.721901,-0.604844 -0.976562,-0.957031 -0.254661,-0.352188 -0.449219,-0.878907 -0.546875,-1.113282 -0.09766,-0.234375 -0.175781,-0.78125 -0.273438,-0.917969 C 33.164063,44 32.96875,43.6875 32.910157,43.511718 32.851563,43.335937 32.734375,42.847656 32.558594,42.671875 32.382813,42.496093 31.914063,42.183593 31.71875,42.007812 31.523438,41.832031 30.761719,41.285156 30.566407,41.207031 30.371094,41.128906 29.4517,40.664369 29.101563,40.660156 Z"
           style="fill:#fafafa;fill-rule:evenodd;stroke:none;stroke-width:1px;stroke-linecap:butt;stroke-linejoin:miter;stroke-opacity:1" />
        <path
           id="path4542"
           d="m 33.867188,42.203125 c -0.154429,-0.02706 -0.221854,0.02976 -0.3125,0.09766 -0.09065,0.06789 -0.153821,0.165949 -0.195312,0.292969 -0.04149,0.12702 -0.07188,0.224416 -0.01953,0.449218 0.05234,0.224803 0.351563,0.761719 0.449219,0.820313 0.09766,0.05859 0.917969,0.683594 1.09375,0.820313 0.175781,0.136718 0.976563,0.820312 1.152344,0.9375 0.175781,0.117187 0.761719,0.644531 0.839844,0.839843 0.07813,0.195313 0.332031,0.625 0.46875,0.996094 0.136718,0.371094 0.390625,0.820313 0.449218,1.074219 0.05859,0.253906 0.175782,0.351562 0.15625,0.253906 -0.01953,-0.09766 -0.253906,-1.40625 -0.234375,-1.503906 0.01953,-0.09766 -0.01953,-0.761719 -0.09766,-0.917969 -0.07813,-0.15625 -0.351562,-0.703125 -0.410156,-0.9375 -0.05859,-0.234375 -0.3125,-0.78125 -0.3125,-0.878906 0,-0.09766 -0.175781,-0.332032 -0.292969,-0.488282 -0.117187,-0.15625 -0.490195,-0.411461 -0.703125,-0.566406 -0.21293,-0.154944 -0.253906,-0.117187 -0.566406,-0.371094 -0.3125,-0.253906 -0.878906,-0.449218 -0.976563,-0.546875 -0.09766,-0.09766 -0.333852,-0.344029 -0.488281,-0.371093 z"
           style="fill:#fafafa;fill-opacity:1;fill-rule:evenodd;stroke:none;stroke-width:1px;stroke-linecap:butt;stroke-linejoin:miter;stroke-opacity:1" />
        <path
           id="path4544"
           d="m 12.96875,43.375 c -0.37285,0.02484 -0.976562,0.429687 -1.09375,0.585937 -0.117187,0.15625 -0.520595,0.540572 -0.820312,0.859375 -0.299718,0.318803 -0.629395,0.741698 -0.976563,1.054688 -0.3471674,0.312989 -0.7538961,0.397424 -1.0937499,0.820312 -0.3398537,0.422889 -0.6523887,1.338467 -0.78125,1.71875 -0.1288613,0.380283 -0.1171875,0.507813 -0.1171875,0.507813 0,0 0.61381,-1.432118 0.9375,-1.796875 0.32369,-0.364757 0.46875,-0.429688 0.7421875,-0.507813 0.2734379,-0.07813 1.2499999,-0.859375 1.4453129,-1.015625 0.195312,-0.15625 0.78125,-0.507812 0.976562,-0.585937 0.195313,-0.07813 0.371149,-0.08098 0.664063,-0.117188 0.292913,-0.03621 0.748145,-0.07271 1.09375,-0.07813 0.345604,-0.0054 0.670096,-0.04288 0.976562,0.03906 0.306466,0.08194 0.820313,0.429687 0.820313,0.429687 0,0 -0.433967,-0.631898 -0.742188,-0.898437 -0.308221,-0.266539 -0.751825,-0.49796 -1.09375,-0.664063 -0.341924,-0.166102 -0.564649,-0.3764 -0.9375,-0.351562 z"
           style="fill:#fafafa;fill-rule:evenodd;stroke:none;stroke-width:1px;stroke-linecap:butt;stroke-linejoin:miter;stroke-opacity:1" />
        <path
           id="path4546"
           d="m 5.0000004,47.466666 c 0,0 1.2920649,-1.422222 2.109375,-1.422222 2.0094935,2.3913 2.570231,0.103733 4.2187496,0 4.736723,3.295149 9.82545,-0.443902 12.65625,-0.711112 2.009494,2.391301 2.570232,0.103733 4.21875,0 1.461219,0.01067 5.769641,1.387078 6.328126,1.422223 1.943083,-1.032751 2.434791,-2.007918 4.468749,0 l 0,9.244446 -33.9999996,0 z"
           style="color:#000000;clip-rule:nonzero;display:inline;overflow:visible;visibility:visible;opacity:0.8;isolation:auto;mix-blend-mode:normal;color-interpolation:sRGB;color-interpolation-filters:linearRGB;solid-color:#000000;solid-opacity:1;fill:#206b00;fill-opacity:1;fill-rule:nonzero;stroke:none;stroke-width:0.9999218;stroke-linecap:butt;stroke-linejoin:round;stroke-miterlimit:4;stroke-dasharray:none;stroke-dashoffset:0;stroke-opacity:1;marker:none;color-rendering:auto;image-rendering:auto;shape-rendering:auto;text-rendering:auto;enable-background:accumulate" />
        <path
           id="path4548"
           d="m 9.3750001,43.609375 c -0.2492669,0.01216 -0.6125562,0.576072 -1.1523437,0.722656 -0.5397876,0.146584 -0.7031251,1.464844 -0.7031251,1.464844 0,0 1.0816963,-1.004925 1.4257813,-1.210938 0.344085,-0.206012 0.6640625,-0.07813 0.859375,-0.07813 l 0.4687504,0 c 0,0 -0.239617,-0.356804 -0.3906254,-0.507812 C 9.7318045,43.848992 9.624267,43.597219 9.3750001,43.609375 Z"
           style="fill:#fafafa;fill-rule:evenodd;stroke:none;stroke-width:1px;stroke-linecap:butt;stroke-linejoin:miter;stroke-opacity:1" />
        <path
           id="path4550"
           d="m 5.0000004,50.074281 8.4374996,0 c 4.619896,0 12.772901,-1.205299 16.875,-1.185143 C 34.4146,48.909291 39,49.481709 39,49.481709 l 0,6.518292 -33.9999996,0 z"
           style="color:#000000;clip-rule:nonzero;display:inline;overflow:visible;visibility:visible;opacity:1;isolation:auto;mix-blend-mode:normal;color-interpolation:sRGB;color-interpolation-filters:linearRGB;solid-color:#000000;solid-opacity:1;fill:url(#linearGradient4558);fill-opacity:1;fill-rule:nonzero;stroke:none;stroke-width:0.9999218;stroke-linecap:butt;stroke-linejoin:round;stroke-miterlimit:4;stroke-dasharray:none;stroke-dashoffset:0;stroke-opacity:1;marker:none;color-rendering:auto;image-rendering:auto;shape-rendering:auto;text-rendering:auto;enable-background:accumulate" />
      </g>
      <rect
         style="color:#000000;display:inline;overflow:visible;visibility:visible;opacity:0.075;fill:none;fill-opacity:1;fill-rule:nonzero;stroke:#000000;stroke-width:1.00000072;stroke-linecap:round;stroke-linejoin:miter;stroke-miterlimit:4;stroke-dasharray:none;stroke-dashoffset:0;stroke-opacity:1;marker:none;enable-background:accumulate"
         id="rect3180"
         y="5.5000696"
         x="3.4998493"
         height="13.999999"
         width="17.000301" />
      <path
         d="m 1.4999609,3.5000577 c 4.8121841,0 21.0000541,0.0011 21.0000541,0.0011 l 2.4e-5,17.9989233 c 0,0 -14.0000513,0 -21.0000781,0 0,-6.000023 0,-12.0000459 0,-18.0000683 z"
         id="path4214"
         style="display:inline;fill:none;fill-opacity:1;stroke:url(#linearGradient3143);stroke-width:0.9999218;stroke-linecap:butt;stroke-linejoin:round;stroke-miterlimit:4;stroke-dasharray:none;stroke-dashoffset:0;stroke-opacity:1" />
    </g>
    <g
       id="g4292">
      <path
         d="m 2,8.9996441 c 3.63877,0 14.999991,8.297e-4 14.999991,8.297e-4 L 17.000009,21.000042 2,21.000042 2,8.9996101 Z"
         id="path4204"
         style="display:inline;fill:url(#linearGradient4212);fill-opacity:1;stroke:none;stroke-width:1.32399023;stroke-linecap:butt;stroke-linejoin:round;stroke-miterlimit:4;stroke-dasharray:none;stroke-dashoffset:0;stroke-opacity:1" />
      <path
         d="m 16.499388,20.500654 -13.9987762,0 0,-11.0012228 13.9987762,0 z"
         id="path4206"
         style="fill:none;stroke:url(#linearGradient4216);stroke-width:1;stroke-linecap:round;stroke-linejoin:miter;stroke-miterlimit:4;stroke-dasharray:none;stroke-dashoffset:0;stroke-opacity:1" />
      <rect
         width="12.999999"
         height="10"
         x="3"
         y="10.000042"
         id="rect4208"
         style="color:#000000;display:inline;overflow:visible;visibility:visible;fill:url(#linearGradient4218);fill-opacity:1;fill-rule:nonzero;stroke:none;stroke-width:1.00000072;stroke-linecap:round;stroke-linejoin:miter;stroke-miterlimit:4;stroke-dasharray:none;stroke-dashoffset:0;stroke-opacity:1;marker:none;enable-background:accumulate" />
      <path
         style="display:inline;fill:none;fill-opacity:1;stroke:url(#linearGradient4214);stroke-width:0.99992186;stroke-linecap:butt;stroke-linejoin:round;stroke-miterlimit:4;stroke-dasharray:none;stroke-dashoffset:0;stroke-opacity:1"
         id="path4223"
         d="m 1.4999582,8.4996441 c 3.6387699,0 16.0000328,8.297e-4 16.0000328,8.297e-4 l 1.8e-5,12.9996102 -16.0000508,0 0,-13.0004739 z" />
      <g
         id="g4244"
         transform="matrix(0.38235294,0,0,0.37499991,1.0882353,-0.99995504)">
        <path
           id="path4246"
           d="m 29.183655,37.334602 c -0.11759,-0.0072 -0.232177,0.01654 -0.436706,0.06984 -0.409058,0.106575 -1.029779,0.514353 -1.432343,0.869683 -0.402565,0.355328 -0.618024,0.95345 -0.96817,1.201369 -0.350145,0.247918 -0.711372,0.225525 -1.003876,0.330099 -0.292502,0.104568 -0.337673,0.08003 -0.752563,0.290423 -0.41489,0.210398 -1.127018,0.782117 -1.685029,1.077581 -0.55801,0.295467 -1.092335,0.374059 -1.647948,0.703047 -0.555613,0.328988 -1.193202,1.027971 -1.649323,1.283894 -0.456121,0.255923 -0.694592,0.374899 -1.002503,0.372948 -0.307911,-0.002 -0.142736,0.02392 -0.752563,-0.288836 -0.609828,-0.312754 -2.09952,-1.349027 -2.796021,-1.823478 -0.696501,-0.474451 -1.02391,-0.825822 -1.39801,-0.99347 -0.3741,-0.167626 -0.41833,-0.210116 -0.752563,-0.166637 -0.334234,0.04348 -0.799944,0.364145 -1.146699,0.580848 -0.346752,0.216702 -0.493845,0.675348 -0.932464,0.704632 -0.438619,0.0293 -1.0526307,-0.761724 -1.3623051,-0.787158 -0.3096732,-0.02543 -0.1583175,0.02394 -0.32135,0.123787 -0.1630325,0.09984 -0.2867019,0.37716 -0.6097407,0.537998 -0.3230387,0.160833 -0.7848816,0.09325 -1.3265994,0.249158 -0.5417156,0.155909 -1.3437689,0.462971 -1.8992616,0.745897 -0.1138549,0.05799 -0.211739,0.124461 -0.3076171,0.192028 l 0,13.391754 33.9999999,0 0,-13.242574 C 38.819098,42.597448 38.387647,42.43405 37.994691,42.1258 37.210409,41.510579 35.536232,40.13338 34.76883,39.723061 c -0.767401,-0.410288 -0.887703,-0.458291 -1.182404,-0.41421 -0.2947,0.04408 -0.32228,0.275783 -0.465545,0.331686 -0.143266,0.05591 -0.0051,0.155987 -0.358429,0.04126 -0.353394,-0.11473 -0.948908,-0.909529 -1.470795,-1.283893 -0.521888,-0.374365 -1.20568,-0.820717 -1.647949,-0.952208 -0.221135,-0.06575 -0.342463,-0.103857 -0.460053,-0.11109 z"
           style="fill:url(#linearGradient4260);fill-opacity:1;fill-rule:evenodd;stroke:none;stroke-width:1px;stroke-linecap:butt;stroke-linejoin:miter;stroke-opacity:1" />
        <path
           style="fill:#fafafa;fill-rule:evenodd;stroke:none;stroke-width:1px;stroke-linecap:butt;stroke-linejoin:miter;stroke-opacity:1"
           d="m 29.101563,38.666803 c -0.350137,-0.004 -0.272586,0.08305 -0.507813,0.168615 -0.235226,0.08556 -0.644231,0.174187 -0.898437,0.355966 -0.254206,0.181779 -0.405314,0.436764 -0.585938,0.693197 -0.180623,0.256433 -0.203721,0.624859 -0.488281,0.843077 -0.284559,0.218219 -0.804418,0.129058 -1.132812,0.318497 -0.328395,0.189437 -0.800782,0.711931 -0.78125,0.768136 0.01953,0.0562 -0.214844,1.442599 -0.46875,1.611215 -0.253907,0.168616 -0.93262,0.978677 -1.191407,1.423864 -0.258787,0.445187 -0.35556,0.854271 -0.429687,1.161573 -0.07413,0.307302 -0.07813,0.655727 -0.07813,0.655727 0,0 0.186269,-0.663466 0.332031,-0.955488 0.145762,-0.292022 0.310659,-0.512883 0.527344,-0.786872 0.216684,-0.273989 0.722656,-0.711932 0.78125,-0.843078 0.05859,-0.131144 0.585565,-0.454565 0.761719,-0.768136 0.176153,-0.313572 0.02382,-0.76696 0.253906,-1.049163 0.230085,-0.282203 0.673488,-0.340695 0.996094,-0.487112 0.322605,-0.146418 0.628518,-0.374488 0.9375,-0.393436 0.308981,-0.01895 0.66944,-0.100869 0.800781,0.224821 0.131341,0.325689 -0.605469,1.049162 -0.703125,1.105368 -0.09766,0.0562 -0.543772,0.312015 -0.722656,0.580787 -0.178885,0.268771 -0.273438,0.899282 -0.273438,0.974222 0,0.07494 0.07813,0.749402 0.07813,0.749402 0,0 -0.0067,-0.616636 0.117188,-0.899282 0.123878,-0.282646 0.488281,-0.655727 0.605468,-0.730667 0.117188,-0.07495 0.761719,-0.487111 0.878907,-0.599522 0.117187,-0.11241 0.820312,-0.543316 1.015625,-0.674462 0.195312,-0.131145 0.449218,-0.412171 0.722656,-0.562052 0.273437,-0.14988 0.488281,-0.562051 0.585937,-0.674462 0.09766,-0.11241 0.214844,-0.393436 0.566407,-0.299761 0.351562,0.09368 0.917968,0.468378 1.191406,0.674462 0.273437,0.206086 0.742187,0.543318 0.820312,0.805608 0.07813,0.262291 0.117188,0.393437 0.234375,0.749402 0.117188,0.355966 0.234376,0.861813 0.390626,1.049163 0.15625,0.187351 0.585937,0.487112 0.683593,0.543317 0.09766,0.0562 0.9375,0.468376 0.9375,0.468376 0,0 -0.721901,-0.580187 -0.976562,-0.918017 -0.254661,-0.337831 -0.449219,-0.843078 -0.546875,-1.067899 -0.09766,-0.224821 -0.175781,-0.749402 -0.273438,-0.880548 -0.09766,-0.131144 -0.292974,-0.430905 -0.351567,-0.599521 -0.05859,-0.168615 -0.175782,-0.636992 -0.351563,-0.805607 -0.175781,-0.168616 -0.644531,-0.468377 -0.839844,-0.636992 -0.195312,-0.168615 -0.957031,-0.693197 -1.152343,-0.768137 -0.195313,-0.07494 -1.114707,-0.52054 -1.464844,-0.524581 z"
           id="path4248" />
        <path
           style="fill:#fafafa;fill-opacity:1;fill-rule:evenodd;stroke:none;stroke-width:1px;stroke-linecap:butt;stroke-linejoin:miter;stroke-opacity:1"
           d="m 33.867188,40.146872 c -0.154429,-0.02596 -0.221854,0.02855 -0.3125,0.09368 -0.09065,0.06512 -0.153821,0.159184 -0.195312,0.281026 -0.04149,0.121842 -0.07188,0.215268 -0.01953,0.430905 0.05234,0.215639 0.351563,0.730668 0.449219,0.786873 0.09766,0.0562 0.917969,0.655727 1.09375,0.786873 0.175781,0.131144 0.976563,0.786871 1.152344,0.899282 0.175781,0.11241 0.761719,0.618257 0.839844,0.805607 0.07813,0.187351 0.332031,0.599521 0.46875,0.955488 0.136718,0.355966 0.390625,0.786872 0.449218,1.030428 0.05859,0.243555 0.175782,0.33723 0.15625,0.243555 -0.01953,-0.09368 -0.253906,-1.348924 -0.234375,-1.442599 0.01953,-0.09368 -0.01953,-0.730667 -0.09766,-0.880547 -0.07813,-0.149881 -0.351562,-0.674462 -0.410156,-0.899283 -0.05859,-0.22482 -0.3125,-0.749402 -0.3125,-0.843077 0,-0.09368 -0.175781,-0.318497 -0.292969,-0.468377 -0.117187,-0.14988 -0.490195,-0.394688 -0.703125,-0.543316 -0.21293,-0.148628 -0.253906,-0.11241 -0.566406,-0.355966 -0.3125,-0.243556 -0.878906,-0.430906 -0.976563,-0.524582 -0.09766,-0.09368 -0.333852,-0.330004 -0.488281,-0.355965 z"
           id="path4250" />
        <path
           style="fill:#fafafa;fill-rule:evenodd;stroke:none;stroke-width:1px;stroke-linecap:butt;stroke-linejoin:miter;stroke-opacity:1"
           d="m 12.96875,41.270975 c -0.37285,0.02383 -0.976562,0.412171 -1.09375,0.562051 -0.117187,0.149881 -0.520595,0.518536 -0.820312,0.824342 -0.299718,0.305807 -0.629395,0.711463 -0.976563,1.011694 -0.3471674,0.30023 -0.7538961,0.381223 -1.0937499,0.786871 -0.3398537,0.40565 -0.6523887,1.283904 -0.78125,1.648685 -0.1288613,0.364781 -0.1171875,0.487112 -0.1171875,0.487112 0,0 0.61381,-1.373737 0.9375,-1.723625 0.32369,-0.349888 0.46875,-0.412172 0.7421875,-0.487112 0.2734379,-0.07494 1.2499999,-0.824342 1.4453129,-0.974222 0.195312,-0.149881 0.78125,-0.487111 0.976562,-0.562052 0.195313,-0.07494 0.371149,-0.07768 0.664063,-0.11241 0.292913,-0.03473 0.748145,-0.06975 1.09375,-0.07494 0.345604,-0.0052 0.670096,-0.04113 0.976562,0.03747 0.306466,0.0786 0.820313,0.412171 0.820313,0.412171 0,0 -0.433967,-0.606138 -0.742188,-0.861812 -0.308221,-0.255673 -0.751825,-0.47766 -1.09375,-0.636992 -0.341924,-0.159331 -0.564649,-0.361056 -0.9375,-0.337231 z"
           id="path4252" />
        <path
           style="color:#000000;clip-rule:nonzero;display:inline;overflow:visible;visibility:visible;opacity:0.8;isolation:auto;mix-blend-mode:normal;color-interpolation:sRGB;color-interpolation-filters:linearRGB;solid-color:#000000;solid-opacity:1;fill:#206b00;fill-opacity:1;fill-rule:nonzero;stroke:none;stroke-width:0.9999218;stroke-linecap:butt;stroke-linejoin:round;stroke-miterlimit:4;stroke-dasharray:none;stroke-dashoffset:0;stroke-opacity:1;marker:none;color-rendering:auto;image-rendering:auto;shape-rendering:auto;text-rendering:auto;enable-background:accumulate"
           d="m 5.0000004,47.466666 c 0,0 1.2920649,-1.422222 2.109375,-1.422222 2.0094935,2.3913 2.570231,0.103733 4.2187496,0 4.736723,3.295149 9.82545,-0.443902 12.65625,-0.711112 2.009494,2.391301 2.570232,0.103733 4.21875,0 1.461219,0.01067 5.769641,1.387078 6.328126,1.422223 1.943083,-1.032751 2.434791,-2.007918 4.468749,0 l 0,9.244446 -33.9999996,0 z"
           id="path4254" />
        <path
           style="fill:#fafafa;fill-rule:evenodd;stroke:none;stroke-width:1px;stroke-linecap:butt;stroke-linejoin:miter;stroke-opacity:1"
           d="m 9.3750001,41.495796 c -0.2492669,0.01166 -0.6125562,0.552588 -1.1523437,0.693196 -0.5397876,0.140609 -0.7031251,1.40513 -0.7031251,1.40513 0,0 1.0816963,-0.963959 1.4257813,-1.161574 0.344085,-0.197614 0.6640625,-0.07494 0.859375,-0.07494 l 0.4687504,0 c 0,0 -0.239617,-0.342259 -0.3906254,-0.487111 C 9.7318045,41.725645 9.624267,41.484135 9.3750001,41.495796 Z"
           id="path4256" />
        <path
           style="color:#000000;clip-rule:nonzero;display:inline;overflow:visible;visibility:visible;opacity:1;isolation:auto;mix-blend-mode:normal;color-interpolation:sRGB;color-interpolation-filters:linearRGB;solid-color:#000000;solid-opacity:1;fill:url(#linearGradient4262);fill-opacity:1;fill-rule:nonzero;stroke:none;stroke-width:0.9999218;stroke-linecap:butt;stroke-linejoin:round;stroke-miterlimit:4;stroke-dasharray:none;stroke-dashoffset:0;stroke-opacity:1;marker:none;color-rendering:auto;image-rendering:auto;shape-rendering:auto;text-rendering:auto;enable-background:accumulate"
           d="m 5.0000004,49.333566 8.4374996,0 c 4.619896,0 12.772901,-1.355961 16.875,-1.333286 C 34.4146,48.022952 39,48.666922 39,48.666922 l 0,7.333079 -33.9999996,0 z"
           id="path4258" />
      </g>
      <rect
         width="11.998775"
         height="9.0012217"
         x="3.500612"
         y="10.499432"
         id="rect4210"
         style="color:#000000;display:inline;overflow:visible;visibility:visible;opacity:0.3;fill:none;fill-opacity:1;fill-rule:nonzero;stroke:#000000;stroke-width:1.00000072;stroke-linecap:round;stroke-linejoin:miter;stroke-miterlimit:4;stroke-dasharray:none;stroke-dashoffset:0;stroke-opacity:1;marker:none;enable-background:accumulate" />
    </g>
    <g
       transform="translate(-1.0000001,9.6800647e-5)"
       id="g4283">
      <path
         style="opacity:1;fill:url(#linearGradient317);fill-opacity:1;stroke:none;stroke-width:0.79069757;stroke-linecap:butt;stroke-linejoin:miter;stroke-miterlimit:4;stroke-dasharray:none;stroke-dashoffset:0;stroke-opacity:1;marker:none"
         d="m 12.5,9.5 0,5 5,0 -1.5,-1.5 6,-6 1.5,1.5 0,-5 -5,0 1.5,1.5 -6,6 z"
         id="path290" />
      <path
         id="path356"
         d="m 12.5,9.5 0,5 5,0 -1.5,-1.5 6,-6 1.5,1.5 0,-5 -5,0 1.5,1.5 -6,6 z"
         style="opacity:0.5;fill:none;fill-opacity:1;stroke:#ad5f00;stroke-width:1;stroke-linecap:butt;stroke-linejoin:miter;stroke-miterlimit:4;stroke-dasharray:none;stroke-dashoffset:0;stroke-opacity:1;marker:none" />
    </g>
  </g>
</svg>
