<?xml version="1.0" encoding="UTF-8" standalone="no"?>
<svg
   xmlns:dc="http://purl.org/dc/elements/1.1/"
   xmlns:cc="http://creativecommons.org/ns#"
   xmlns:rdf="http://www.w3.org/1999/02/22-rdf-syntax-ns#"
   xmlns:svg="http://www.w3.org/2000/svg"
   xmlns="http://www.w3.org/2000/svg"
   xmlns:xlink="http://www.w3.org/1999/xlink"
   version="1.0"
   width="128"
   height="128"
   id="svg2453">
  <metadata
     id="metadata35">
    <rdf:RDF>
      <cc:Work
         rdf:about="">
        <dc:format>image/svg+xml</dc:format>
        <dc:type
           rdf:resource="http://purl.org/dc/dcmitype/StillImage" />
        <dc:title />
      </cc:Work>
    </rdf:RDF>
  </metadata>
  <defs
     id="defs2455">
    <linearGradient
       id="linearGradient3104-6">
      <stop
         id="stop3106-3"
         style="stop-color:#000000;stop-opacity:0.31782946"
         offset="0" />
      <stop
         id="stop3108-9"
         style="stop-color:#000000;stop-opacity:0.24031007"
         offset="1" />
    </linearGradient>
    <linearGradient
       id="linearGradient3977-4">
      <stop
         id="stop3979-7"
         style="stop-color:#ffffff;stop-opacity:1"
         offset="0" />
      <stop
         id="stop3981-6"
         style="stop-color:#ffffff;stop-opacity:0.23529412"
         offset="0.00440002" />
      <stop
         id="stop3983-5"
         style="stop-color:#ffffff;stop-opacity:0.15686275"
         offset="1" />
      <stop
         id="stop3985-6"
         style="stop-color:#ffffff;stop-opacity:0.39215687"
         offset="1" />
    </linearGradient>
    <linearGradient
       id="linearGradient3600-9">
      <stop
         id="stop3602-3"
         style="stop-color:#f4f4f4;stop-opacity:1"
         offset="0" />
      <stop
         id="stop3604-7"
         style="stop-color:#dbdbdb;stop-opacity:1"
         offset="1" />
    </linearGradient>
    <linearGradient
       x1="-51.786404"
       y1="50.786446"
       x2="-51.786404"
       y2="2.9062471"
       id="linearGradient3163"
       xlink:href="#linearGradient3104-6"
       gradientUnits="userSpaceOnUse"
       gradientTransform="matrix(2.6993422,0,0,1.8911044,182.37115,16.150211)" />
    <linearGradient
       x1="23.99999"
       y1="5.7032809"
       x2="23.99999"
       y2="42.296783"
       id="linearGradient3166"
       xlink:href="#linearGradient3977-4"
       gradientUnits="userSpaceOnUse"
       gradientTransform="matrix(3.1081081,0,0,2.4594529,-10.594575,10.973049)" />
    <linearGradient
       x1="25.132275"
       y1="0.98520643"
       x2="25.132275"
       y2="47.013336"
       id="linearGradient3169"
       xlink:href="#linearGradient3600-9"
       gradientUnits="userSpaceOnUse"
       gradientTransform="matrix(3.3142782,0,0,1.9989954,-15.542692,18.957175)" />
    <linearGradient
       x1="164.28023"
       y1="241.65149"
       x2="164.28023"
       y2="156.78416"
       id="linearGradient3077-9"
       xlink:href="#linearGradient4785-3-8"
       gradientUnits="userSpaceOnUse"
       gradientTransform="matrix(1.2569307,0,0,0.97123067,-146.4808,-123.32904)" />
    <linearGradient
       id="linearGradient4785-3-8">
      <stop
         id="stop4787-5-5"
         style="stop-color:#fafafa;stop-opacity:1"
         offset="0" />
      <stop
         id="stop4789-1-1"
         style="stop-color:#8cd5ff;stop-opacity:1"
         offset="1" />
    </linearGradient>
    <linearGradient
       id="linearGradient3242-59-5">
      <stop
         id="stop3244-9-4"
         style="stop-color:#f8b17e;stop-opacity:1"
         offset="0" />
      <stop
         id="stop3246-7-4"
         style="stop-color:#e35d4f;stop-opacity:1"
         offset="0.26238" />
      <stop
         id="stop3248-87-0"
         style="stop-color:#c6262e;stop-opacity:1"
         offset="0.66093999" />
      <stop
         id="stop3250-2-0"
         style="stop-color:#690b54;stop-opacity:1"
         offset="1" />
    </linearGradient>
    <linearGradient
       x1="229.00999"
       y1="600.00897"
       x2="229.00999"
       y2="635.00897"
       id="linearGradient3243"
       xlink:href="#linearGradient3242-59-5"
       gradientUnits="userSpaceOnUse"
       gradientTransform="matrix(-1,0,0,-1,456.02,1228.029)" />
    <linearGradient
       id="linearGradient3702-501-757-0">
      <stop
         id="stop2895-0"
         style="stop-color:#181818;stop-opacity:0"
         offset="0" />
      <stop
         id="stop2897-2"
         style="stop-color:#181818;stop-opacity:1"
         offset="0.5" />
      <stop
         id="stop2899-6"
         style="stop-color:#181818;stop-opacity:0"
         offset="1" />
    </linearGradient>
    <linearGradient
       id="linearGradient3688-464-309-8">
      <stop
         id="stop2889-9"
         style="stop-color:#181818;stop-opacity:1"
         offset="0" />
      <stop
         id="stop2891-4"
         style="stop-color:#181818;stop-opacity:0"
         offset="1" />
    </linearGradient>
    <radialGradient
       r="35.338131"
       fy="93.467628"
       fx="-4.0287771"
       cy="93.467628"
       cx="-4.0287771"
       gradientTransform="matrix(1.7403296,0,0,0.16978827,71.011391,100.33998)"
       gradientUnits="userSpaceOnUse"
       id="radialGradient5448-5"
       xlink:href="#linearGradient3688-464-309-8" />
    <radialGradient
       cx="4.9929786"
       cy="43.5"
       r="2.5"
       fx="4.9929786"
       fy="43.5"
       id="radialGradient4093-8"
       xlink:href="#linearGradient3688-464-309-8"
       gradientUnits="userSpaceOnUse"
       gradientTransform="matrix(2.003784,0,0,1.4,27.98813,-17.4)" />
    <radialGradient
       cx="4.9929786"
       cy="43.5"
       r="2.5"
       fx="4.9929786"
       fy="43.5"
       id="radialGradient4095-5"
       xlink:href="#linearGradient3688-464-309-8"
       gradientUnits="userSpaceOnUse"
       gradientTransform="matrix(2.003784,0,0,1.4,-20.01187,-104.4)" />
    <linearGradient
       x1="25.058096"
       y1="47.027729"
       x2="25.058096"
       y2="39.999443"
       id="linearGradient4097-9"
       xlink:href="#linearGradient3702-501-757-0"
       gradientUnits="userSpaceOnUse" />
    <linearGradient
       y2="41.993629"
       x2="37.068718"
       y1="11.344401"
       x1="37.068718"
       gradientTransform="matrix(1.1541888,0,0,1.1541889,64.215699,11.906479)"
       gradientUnits="userSpaceOnUse"
       id="linearGradient1298"
       xlink:href="#linearGradient4220-7" />
    <linearGradient
       id="linearGradient4220-7">
      <stop
         offset="0"
         style="stop-color:#fff394;stop-opacity:1"
         id="stop4222-7" />
      <stop
         offset="1"
         style="stop-color:#f9c440;stop-opacity:1"
         id="stop4224-0" />
    </linearGradient>
    <linearGradient
       y2="47.013336"
       x2="25.132275"
       y1="0.98520643"
       x1="25.132275"
       gradientTransform="matrix(2.8875628,0,0,1.676465,-12.833437,34.695344)"
       gradientUnits="userSpaceOnUse"
       id="linearGradient4208"
       xlink:href="#linearGradient3600-9" />
    <linearGradient
       y2="156.78416"
       x2="164.28023"
       y1="241.65149"
       x1="164.28023"
       gradientTransform="matrix(1.0951001,0,0,0.81452623,-126.91318,-84.633523)"
       gradientUnits="userSpaceOnUse"
       id="linearGradient4210"
       xlink:href="#linearGradient4785-3-8" />
    <linearGradient
       y2="42.296783"
       x2="23.99999"
       y1="5.7032809"
       x1="23.99999"
       gradientTransform="matrix(2.7079372,0,0,2.0626294,-8.5223932,27.999427)"
       gradientUnits="userSpaceOnUse"
       id="linearGradient4212"
       xlink:href="#linearGradient3977-4" />
    <linearGradient
       y2="2.9062471"
       x2="-51.786404"
       y1="50.786446"
       x1="-51.786404"
       gradientTransform="matrix(2.3518002,0,0,1.5859818,159.59887,32.341273)"
       gradientUnits="userSpaceOnUse"
       id="linearGradient4214"
       xlink:href="#linearGradient3104-6" />
    <linearGradient
       gradientTransform="matrix(0.62500001,0,0,0.62634819,1.875,20.924502)"
       y2="55.952728"
       x2="29.9375"
       y1="32.890228"
       x1="29.9375"
       gradientUnits="userSpaceOnUse"
       id="linearGradient4556"
       xlink:href="#linearGradient4504" />
    <linearGradient
       id="linearGradient4504">
      <stop
         id="stop4506"
         offset="0"
         style="stop-color:#abacae;stop-opacity:1" />
      <stop
         id="stop4508"
         offset="1"
         style="stop-color:#7e8087;stop-opacity:1" />
    </linearGradient>
    <linearGradient
       gradientTransform="matrix(0.62500001,0,0,0.59952289,1.875,22.426719)"
       y2="55.99979"
       x2="31.875"
       y1="43.87479"
       x1="31.875"
       gradientUnits="userSpaceOnUse"
       id="linearGradient4558"
       xlink:href="#linearGradient4512" />
    <linearGradient
       id="linearGradient4512">
      <stop
         id="stop4514"
         offset="0"
         style="stop-color:#68b723;stop-opacity:1" />
      <stop
         id="stop4516"
         offset="1"
         style="stop-color:#d1ff82;stop-opacity:1" />
    </linearGradient>
    <linearGradient
       y2="55.952728"
       x2="29.9375"
       y1="32.890228"
       x1="29.9375"
       gradientTransform="matrix(0.62500001,0,0,0.61908619,1.875,21.331174)"
       gradientUnits="userSpaceOnUse"
       id="linearGradient4261"
       xlink:href="#linearGradient4504" />
    <linearGradient
       y2="55.99979"
       x2="31.875"
       y1="43.87479"
       x1="31.875"
       gradientTransform="matrix(0.62500001,0,0,0.61536313,1.875,21.539666)"
       gradientUnits="userSpaceOnUse"
       id="linearGradient4263"
       xlink:href="#linearGradient4512" />
  </defs>
  <g
     transform="matrix(2.711458,0,0,-2.71642,-554.23954,1739.9212)"
     id="layer12-33"
     style="color:#000000;display:inline;overflow:visible;visibility:visible;opacity:0.3;fill:#000000;fill-opacity:1;fill-rule:nonzero;stroke:none;stroke-width:1.0024693;marker:none;enable-background:accumulate" />
  <g
     transform="matrix(2.711458,0,0,-2.71642,-554.23954,1738.9212)"
     id="layer12"
     style="color:#000000;display:inline;overflow:visible;visibility:visible;fill:url(#linearGradient3243);fill-opacity:1;fill-rule:nonzero;stroke:none;marker:none;enable-background:accumulate" />
  <g
     id="g4305">
    <path
       style="color:#000000;display:inline;overflow:visible;visibility:visible;opacity:0.2;fill:url(#radialGradient5448-5);fill-opacity:1.0;fill-rule:nonzero;stroke:none;stroke-width:1;marker:none;enable-background:accumulate"
       id="path3041"
       d="m 125.5,116.20969 a 61.500002,6.0000004 0 0 1 -122.9999995,0 61.500002,6.0000004 0 1 1 122.9999995,0 z" />
    <g
       style="display:inline"
       id="g2036"
       transform="matrix(3.0249988,0,0,0.55555607,-8.6000014,93.098572)">
      <g
         style="opacity:0.4"
         id="g3712"
         transform="matrix(1.052632,0,0,1.285713,-1.263158,-13.42854)">
        <rect
           style="fill:url(#radialGradient4093-8);fill-opacity:1;stroke:none"
           id="rect2801-5"
           y="40"
           x="38"
           height="7"
           width="5" />
        <rect
           style="fill:url(#radialGradient4095-5);fill-opacity:1;stroke:none"
           id="rect3696-7"
           transform="scale(-1,-1)"
           y="-47"
           x="-10"
           height="7"
           width="5" />
        <rect
           style="fill:url(#linearGradient4097-9);fill-opacity:1;stroke:none"
           id="rect3700-7"
           y="40"
           x="10"
           height="7.0000005"
           width="28" />
      </g>
    </g>
    <g
       id="g4290"
       style="opacity:0.5">
      <path
         d="m 5.9999856,24.000032 c 26.5814884,0 115.9998644,0.0064 115.9998644,0.0064 l 1.4e-4,91.993658 c 0,0 -77.333336,0 -116.0000044,0 0,-30.6667 0,-61.332924 0,-91.999494 z"
         id="path4160-6"
         style="display:inline;fill:url(#linearGradient3169);fill-opacity:1;stroke:none" />
      <rect
         width="108"
         height="84"
         x="10"
         y="28"
         id="rect3180"
         style="color:#000000;display:inline;overflow:visible;visibility:visible;fill:url(#linearGradient3077-9);fill-opacity:1;fill-rule:nonzero;stroke:none;stroke-width:1.00000072;stroke-linecap:round;stroke-linejoin:miter;stroke-miterlimit:4;stroke-dasharray:none;stroke-dashoffset:0;stroke-opacity:1;marker:none;enable-background:accumulate" />
      <path
         d="m 121.5,115.5 -115.0000002,0 0,-91.000001 115.0000002,0 z"
         id="rect6741-1-8"
         style="fill:none;stroke:url(#linearGradient3166);stroke-width:0.99999994;stroke-linecap:round;stroke-linejoin:miter;stroke-miterlimit:4;stroke-dasharray:none;stroke-dashoffset:0;stroke-opacity:1" />
      <path
         d="m 5.4999611,23.499962 c 26.8106309,0 116.9999489,0.0063 116.9999489,0.0063 l 1.3e-4,92.993748 c 0,0 -78.000053,0 -117.0000791,0 0,-31.000113 0,-61.99991 0,-92.999659 z"
         id="path4160-6-1"
         style="display:inline;fill:none;stroke:url(#linearGradient3163);stroke-width:0.99992186;stroke-linecap:butt;stroke-linejoin:round;stroke-miterlimit:4;stroke-dasharray:none;stroke-dashoffset:0;stroke-opacity:1" />
      <g
         id="g4245"
         transform="matrix(3.1764706,0,0,3.2499993,-5.8823534,-69.999977)"
         style="">
        <path
           id="path4247"
           d="m 29.183655,40.001088 c -0.11759,-0.0062 -0.232177,0.01418 -0.436706,0.05986 -0.409058,0.09135 -1.029779,0.440874 -1.432343,0.745442 -0.402565,0.304567 -0.618024,0.817243 -0.96817,1.029745 -0.350145,0.212501 -0.711372,0.193307 -1.003876,0.282942 -0.292502,0.08963 -0.337673,0.0686 -0.752563,0.248934 -0.41489,0.180341 -1.127018,0.670386 -1.685029,0.923641 -0.55801,0.253257 -1.092335,0.320622 -1.647948,0.602612 -0.555613,0.281989 -1.193202,0.881118 -1.649323,1.10048 -0.456121,0.219363 -0.694592,0.321342 -1.002503,0.31967 -0.307911,-0.0017 -0.142736,0.0205 -0.752563,-0.247574 -0.609828,-0.268075 -2.09952,-1.156309 -2.796021,-1.562981 -0.696501,-0.406672 -1.02391,-0.707847 -1.39801,-0.851546 -0.3741,-0.143679 -0.41833,-0.180099 -0.752563,-0.142831 -0.334234,0.03727 -0.799944,0.312124 -1.146699,0.497869 -0.346752,0.185745 -0.493845,0.57887 -0.932464,0.603971 -0.438619,0.02511 -1.0526307,-0.652907 -1.3623051,-0.674707 -0.3096732,-0.0218 -0.1583175,0.02052 -0.32135,0.106103 -0.1630325,0.08558 -0.2867019,0.32328 -0.6097407,0.461141 -0.3230387,0.137857 -0.7848816,0.07993 -1.3265994,0.213564 -0.5417156,0.133636 -1.3437689,0.396832 -1.8992616,0.63934 -0.1138549,0.04971 -0.211739,0.106681 -0.3076171,0.164596 l 0,11.478646 33.9999999,0 0,-11.350778 c -0.180902,-0.137128 -0.612353,-0.277183 -1.005309,-0.541398 -0.784282,-0.527332 -2.458459,-1.707788 -3.225861,-2.05949 -0.767401,-0.351676 -0.887703,-0.392821 -1.182404,-0.355037 -0.2947,0.03778 -0.32228,0.236385 -0.465545,0.284302 -0.143266,0.04792 -0.0051,0.133703 -0.358429,0.03537 -0.353394,-0.09834 -0.948908,-0.779596 -1.470795,-1.10048 -0.521888,-0.320884 -1.20568,-0.703471 -1.647949,-0.816178 -0.221135,-0.05636 -0.342463,-0.08902 -0.460053,-0.09522 z"
           style="fill:url(#linearGradient4261);fill-opacity:1;fill-rule:evenodd;stroke:none;stroke-width:1px;stroke-linecap:butt;stroke-linejoin:miter;stroke-opacity:1" />
        <path
           style="fill:#fafafa;fill-rule:evenodd;stroke:none;stroke-width:1px;stroke-linecap:butt;stroke-linejoin:miter;stroke-opacity:1"
           d="m 29.101563,40.660156 c -0.350137,-0.0042 -0.272586,0.08658 -0.507813,0.175781 -0.235226,0.0892 -0.644231,0.18159 -0.898437,0.371094 -0.254206,0.189504 -0.405314,0.455325 -0.585938,0.722656 -0.180623,0.267331 -0.203721,0.651414 -0.488281,0.878906 -0.284559,0.227493 -0.804418,0.134543 -1.132812,0.332032 -0.328395,0.197488 -0.800782,0.742187 -0.78125,0.800781 0.01953,0.05859 -0.214844,1.503906 -0.46875,1.679688 -0.253907,0.175781 -0.93262,1.020268 -1.191407,1.484375 -0.258787,0.464106 -0.35556,0.890575 -0.429687,1.210937 C 22.54306,48.636768 22.539063,49 22.539063,49 c 0,0 0.186269,-0.691662 0.332031,-0.996094 0.145762,-0.304432 0.310659,-0.53468 0.527344,-0.820312 0.216684,-0.285633 0.722656,-0.742188 0.78125,-0.878907 0.05859,-0.136718 0.585565,-0.473883 0.761719,-0.800781 0.176153,-0.326898 0.02382,-0.799554 0.253906,-1.09375 0.230085,-0.294196 0.673488,-0.355173 0.996094,-0.507813 0.322605,-0.15264 0.628518,-0.390403 0.9375,-0.410156 0.308981,-0.01975 0.66944,-0.105156 0.800781,0.234375 0.131341,0.339531 -0.605469,1.09375 -0.703125,1.152344 -0.09766,0.05859 -0.543772,0.325275 -0.722656,0.605469 -0.178885,0.280194 -0.273438,0.9375 -0.273438,1.015625 0,0.07813 0.07813,0.78125 0.07813,0.78125 0,0 -0.0067,-0.642842 0.117188,-0.9375 0.123878,-0.294658 0.488281,-0.683594 0.605468,-0.761719 0.117188,-0.07813 0.761719,-0.507812 0.878907,-0.625 0.117187,-0.117187 0.820312,-0.566406 1.015625,-0.703125 0.195312,-0.136719 0.449218,-0.429688 0.722656,-0.585938 0.273437,-0.15625 0.488281,-0.585937 0.585937,-0.703125 0.09766,-0.117187 0.214844,-0.410156 0.566407,-0.3125 0.351562,0.09766 0.917968,0.488282 1.191406,0.703125 0.273437,0.214844 0.742187,0.566407 0.820312,0.839844 0.07813,0.273438 0.117188,0.410157 0.234375,0.78125 0.117188,0.371094 0.234376,0.898438 0.390626,1.09375 0.15625,0.195313 0.585937,0.507813 0.683593,0.566407 0.09766,0.05859 0.9375,0.488281 0.9375,0.488281 0,0 -0.721901,-0.604844 -0.976562,-0.957031 -0.254661,-0.352188 -0.449219,-0.878907 -0.546875,-1.113282 -0.09766,-0.234375 -0.175781,-0.78125 -0.273438,-0.917969 C 33.164063,44 32.96875,43.6875 32.910157,43.511718 32.851563,43.335937 32.734375,42.847656 32.558594,42.671875 32.382813,42.496093 31.914063,42.183593 31.71875,42.007812 31.523438,41.832031 30.761719,41.285156 30.566407,41.207031 30.371094,41.128906 29.4517,40.664369 29.101563,40.660156 Z"
           id="path4249" />
        <path
           style="fill:#fafafa;fill-opacity:1;fill-rule:evenodd;stroke:none;stroke-width:1px;stroke-linecap:butt;stroke-linejoin:miter;stroke-opacity:1"
           d="m 33.867188,42.203125 c -0.154429,-0.02706 -0.221854,0.02976 -0.3125,0.09766 -0.09065,0.06789 -0.153821,0.165949 -0.195312,0.292969 -0.04149,0.12702 -0.07188,0.224416 -0.01953,0.449218 0.05234,0.224803 0.351563,0.761719 0.449219,0.820313 0.09766,0.05859 0.917969,0.683594 1.09375,0.820313 0.175781,0.136718 0.976563,0.820312 1.152344,0.9375 0.175781,0.117187 0.761719,0.644531 0.839844,0.839843 0.07813,0.195313 0.332031,0.625 0.46875,0.996094 0.136718,0.371094 0.390625,0.820313 0.449218,1.074219 0.05859,0.253906 0.175782,0.351562 0.15625,0.253906 -0.01953,-0.09766 -0.253906,-1.40625 -0.234375,-1.503906 0.01953,-0.09766 -0.01953,-0.761719 -0.09766,-0.917969 -0.07813,-0.15625 -0.351562,-0.703125 -0.410156,-0.9375 -0.05859,-0.234375 -0.3125,-0.78125 -0.3125,-0.878906 0,-0.09766 -0.175781,-0.332032 -0.292969,-0.488282 -0.117187,-0.15625 -0.490195,-0.411461 -0.703125,-0.566406 -0.21293,-0.154944 -0.253906,-0.117187 -0.566406,-0.371094 -0.3125,-0.253906 -0.878906,-0.449218 -0.976563,-0.546875 -0.09766,-0.09766 -0.333852,-0.344029 -0.488281,-0.371093 z"
           id="path4251" />
        <path
           style="fill:#fafafa;fill-rule:evenodd;stroke:none;stroke-width:1px;stroke-linecap:butt;stroke-linejoin:miter;stroke-opacity:1"
           d="m 12.96875,43.375 c -0.37285,0.02484 -0.976562,0.429687 -1.09375,0.585937 -0.117187,0.15625 -0.520595,0.540572 -0.820312,0.859375 -0.299718,0.318803 -0.629395,0.741698 -0.976563,1.054688 -0.3471674,0.312989 -0.7538961,0.397424 -1.0937499,0.820312 -0.3398537,0.422889 -0.6523887,1.338467 -0.78125,1.71875 -0.1288613,0.380283 -0.1171875,0.507813 -0.1171875,0.507813 0,0 0.61381,-1.432118 0.9375,-1.796875 0.32369,-0.364757 0.46875,-0.429688 0.7421875,-0.507813 0.2734379,-0.07813 1.2499999,-0.859375 1.4453129,-1.015625 0.195312,-0.15625 0.78125,-0.507812 0.976562,-0.585937 0.195313,-0.07813 0.371149,-0.08098 0.664063,-0.117188 0.292913,-0.03621 0.748145,-0.07271 1.09375,-0.07813 0.345604,-0.0054 0.670096,-0.04288 0.976562,0.03906 0.306466,0.08194 0.820313,0.429687 0.820313,0.429687 0,0 -0.433967,-0.631898 -0.742188,-0.898437 -0.308221,-0.266539 -0.751825,-0.49796 -1.09375,-0.664063 -0.341924,-0.166102 -0.564649,-0.3764 -0.9375,-0.351562 z"
           id="path4253" />
        <path
           style="color:#000000;clip-rule:nonzero;display:inline;overflow:visible;visibility:visible;opacity:0.8;isolation:auto;mix-blend-mode:normal;color-interpolation:sRGB;color-interpolation-filters:linearRGB;solid-color:#000000;solid-opacity:1;fill:#206b00;fill-opacity:1;fill-rule:nonzero;stroke:none;stroke-width:0.9999218;stroke-linecap:butt;stroke-linejoin:round;stroke-miterlimit:4;stroke-dasharray:none;stroke-dashoffset:0;stroke-opacity:1;marker:none;color-rendering:auto;image-rendering:auto;shape-rendering:auto;text-rendering:auto;enable-background:accumulate"
           d="m 5.0000004,48.369231 c 0,0 1.2920649,-1.271795 2.109375,-1.271795 2.0094935,2.138374 2.570231,0.09277 4.2187496,0 4.736723,2.946624 9.82545,-0.396951 12.65625,-0.635899 2.009494,2.138376 2.570232,0.09277 4.21875,0 1.461219,0.0096 5.769641,1.240369 6.328126,1.271796 1.943083,-0.923518 2.434791,-1.795541 4.468749,0 l 0,8.266668 -33.9999996,0 z"
           id="path4255" />
        <path
           style="fill:#fafafa;fill-rule:evenodd;stroke:none;stroke-width:1px;stroke-linecap:butt;stroke-linejoin:miter;stroke-opacity:1"
           d="m 9.3750001,43.609375 c -0.2492669,0.01216 -0.6125562,0.576072 -1.1523437,0.722656 -0.5397876,0.146584 -0.7031251,1.464844 -0.7031251,1.464844 0,0 1.0816963,-1.004925 1.4257813,-1.210938 0.344085,-0.206012 0.6640625,-0.07813 0.859375,-0.07813 l 0.4687504,0 c 0,0 -0.239617,-0.356804 -0.3906254,-0.507812 C 9.7318045,43.848992 9.624267,43.597219 9.3750001,43.609375 Z"
           id="path4257" />
        <path
           style="color:#000000;clip-rule:nonzero;display:inline;overflow:visible;visibility:visible;opacity:1;isolation:auto;mix-blend-mode:normal;color-interpolation:sRGB;color-interpolation-filters:linearRGB;solid-color:#000000;solid-opacity:1;fill:url(#linearGradient4263);fill-opacity:1;fill-rule:nonzero;stroke:none;stroke-width:0.9999218;stroke-linecap:butt;stroke-linejoin:round;stroke-miterlimit:4;stroke-dasharray:none;stroke-dashoffset:0;stroke-opacity:1;marker:none;color-rendering:auto;image-rendering:auto;shape-rendering:auto;text-rendering:auto;enable-background:accumulate"
           d="m 5.0000004,49.846369 8.4374996,0 c 4.619896,0 12.772901,-1.251656 16.875,-1.230725 C 34.4146,48.636571 39,49.231005 39,49.231005 l 0,6.768996 -33.9999996,0 z"
           id="path4259" />
      </g>
      <rect
         style="color:#000000;display:inline;overflow:visible;visibility:visible;opacity:0.3;fill:none;fill-opacity:1;fill-rule:nonzero;stroke:#000000;stroke-width:1.00000072;stroke-linecap:round;stroke-linejoin:miter;stroke-miterlimit:4;stroke-dasharray:none;stroke-dashoffset:0;stroke-opacity:1;marker:none;enable-background:accumulate"
         id="rect4197"
         y="28.5"
         x="10.5"
         height="83"
         width="107" />
    </g>
    <g
       id="g4270">
      <path
         style="display:inline;fill:url(#linearGradient4208);fill-opacity:1;stroke:none"
         id="path4198"
         d="M 6,38.999763 C 29.159105,38.999763 107.00041,39 107.00041,39 L 107,116 6,116 6,39.000236 Z" />
      <rect
         style="color:#000000;display:inline;overflow:visible;visibility:visible;fill:url(#linearGradient4210);fill-opacity:1;fill-rule:nonzero;stroke:none;stroke-width:1.00000072;stroke-linecap:round;stroke-linejoin:miter;stroke-miterlimit:4;stroke-dasharray:none;stroke-dashoffset:0;stroke-opacity:1;marker:none;enable-background:accumulate"
         id="rect4200"
         y="43"
         x="10"
         height="69"
         width="93" />
      <path
         style="fill:none;stroke:url(#linearGradient4212);stroke-width:0.99999994;stroke-linecap:round;stroke-linejoin:miter;stroke-miterlimit:4;stroke-dasharray:none;stroke-dashoffset:0;stroke-opacity:1"
         id="path4202"
         d="m 106.5,115.5 -100,0 0,-76 100,1.04e-4 z" />
      <path
         style="display:inline;fill:none;stroke:url(#linearGradient4214);stroke-width:0.99992186;stroke-linecap:butt;stroke-linejoin:round;stroke-miterlimit:4;stroke-dasharray:none;stroke-dashoffset:0;stroke-opacity:1"
         id="path4204"
         d="M 5.4999611,38.499837 C 28.858706,38.499837 107.5,38.5 107.5,38.5 l 0,78.00001 -102.0000391,0 0,-77.999847 z" />
      <g
         transform="matrix(2.7352941,0,0,2.7798907,-3.6764726,-43.673893)"
         id="g4293">
        <path
           style="fill:url(#linearGradient4556);fill-opacity:1;fill-rule:evenodd;stroke:none;stroke-width:1px;stroke-linecap:butt;stroke-linejoin:miter;stroke-opacity:1"
           d="m 29.183655,39.813418 c -0.11759,-0.0063 -0.232177,0.01435 -0.436706,0.06056 -0.409058,0.09242 -1.029779,0.446045 -1.432343,0.754186 -0.402565,0.30814 -0.618024,0.826829 -0.96817,1.041824 -0.350145,0.214994 -0.711372,0.195575 -1.003876,0.286261 -0.292502,0.09068 -0.337673,0.0694 -0.752563,0.251854 -0.41489,0.182457 -1.127018,0.67825 -1.685029,0.934476 -0.55801,0.256227 -1.092335,0.324383 -1.647948,0.60968 -0.555613,0.285297 -1.193202,0.891454 -1.649323,1.113389 -0.456121,0.221936 -0.694592,0.325112 -1.002503,0.32342 -0.307911,-0.0017 -0.142736,0.02074 -0.752563,-0.250478 -0.609828,-0.27122 -2.09952,-1.169873 -2.796021,-1.581315 -0.696501,-0.411443 -1.02391,-0.71615 -1.39801,-0.861535 -0.3741,-0.145364 -0.41833,-0.182212 -0.752563,-0.144506 -0.334234,0.03771 -0.799944,0.315785 -1.146699,0.503709 -0.346752,0.187923 -0.493845,0.58566 -0.932464,0.611055 -0.438619,0.0254 -1.0526307,-0.660565 -1.3623051,-0.682621 -0.3096732,-0.02206 -0.1583175,0.02076 -0.32135,0.107348 -0.1630325,0.08658 -0.2867019,0.327072 -0.6097407,0.46655 -0.3230387,0.139474 -0.7848816,0.08087 -1.3265994,0.216069 -0.5417156,0.135204 -1.3437689,0.401487 -1.8992616,0.64684 -0.1138549,0.05029 -0.211739,0.107932 -0.3076171,0.166526 l 0,11.613293 33.9999999,0 0,-11.483925 c -0.180902,-0.138736 -0.612353,-0.280434 -1.005309,-0.547749 -0.784282,-0.533517 -2.458459,-1.72782 -3.225861,-2.083648 -0.767401,-0.355801 -0.887703,-0.397429 -1.182404,-0.359201 -0.2947,0.03822 -0.32228,0.239157 -0.465545,0.287637 -0.143266,0.04848 -0.0051,0.135271 -0.358429,0.03578 -0.353394,-0.09949 -0.948908,-0.78874 -1.470795,-1.113388 -0.521888,-0.324648 -1.20568,-0.711723 -1.647949,-0.825752 -0.221135,-0.05702 -0.342463,-0.09006 -0.460053,-0.09634 z"
           id="path4538" />
        <path
           id="path4540"
           d="m 29.101563,40.172184 c -0.350137,-0.0042 -0.272586,0.08589 -0.507813,0.174384 -0.235226,0.08849 -0.644231,0.180147 -0.898437,0.368145 -0.254206,0.187998 -0.405314,0.451706 -0.585938,0.716913 -0.180623,0.265206 -0.203721,0.646237 -0.488281,0.871921 -0.284559,0.225685 -0.804418,0.133474 -1.132812,0.329393 -0.328395,0.195919 -0.800782,0.736289 -0.78125,0.794418 0.01953,0.05812 -0.214844,1.491954 -0.46875,1.666339 -0.253907,0.174384 -0.93262,1.01216 -1.191407,1.472579 -0.258787,0.460418 -0.35556,0.883497 -0.429687,1.201314 -0.07413,0.317816 -0.07813,0.678161 -0.07813,0.678161 0,0 0.186269,-0.686165 0.332031,-0.988178 0.145762,-0.302013 0.310659,-0.530431 0.527344,-0.813793 0.216684,-0.283363 0.722656,-0.73629 0.78125,-0.871922 0.05859,-0.135632 0.585565,-0.470117 0.761719,-0.794418 0.176153,-0.3243 0.02382,-0.7932 0.253906,-1.085058 0.230085,-0.291858 0.673488,-0.35235 0.996094,-0.503777 0.322605,-0.151427 0.628518,-0.3873 0.9375,-0.406896 0.308981,-0.01959 0.66944,-0.104321 0.800781,0.232512 0.131341,0.336833 -0.605469,1.085058 -0.703125,1.143186 -0.09766,0.05812 -0.543772,0.32269 -0.722656,0.600658 -0.178885,0.277967 -0.273438,0.930049 -0.273438,1.007553 0,0.07751 0.07813,0.775042 0.07813,0.775042 0,0 -0.0067,-0.637733 0.117188,-0.93005 0.123878,-0.292316 0.488281,-0.678161 0.605468,-0.755665 0.117188,-0.07751 0.761719,-0.503777 0.878907,-0.620034 0.117187,-0.116255 0.820312,-0.561904 1.015625,-0.697537 0.195312,-0.135632 0.449218,-0.426273 0.722656,-0.581281 0.273437,-0.155009 0.488281,-0.581281 0.585937,-0.697538 0.09766,-0.116255 0.214844,-0.406896 0.566407,-0.310016 0.351562,0.09688 0.917968,0.484401 1.191406,0.697537 0.273437,0.213137 0.742187,0.561906 0.820312,0.83317 0.07813,0.271265 0.117188,0.406897 0.234375,0.775041 0.117188,0.368145 0.234376,0.891298 0.390626,1.085058 0.15625,0.193761 0.585937,0.503778 0.683593,0.561906 0.09766,0.05812 0.9375,0.484401 0.9375,0.484401 0,0 -0.721901,-0.600038 -0.976562,-0.949426 -0.254661,-0.349389 -0.449219,-0.871922 -0.546875,-1.104435 -0.09766,-0.232512 -0.175781,-0.775041 -0.273438,-0.910674 -0.09766,-0.135631 -0.292974,-0.445648 -0.351567,-0.620033 C 32.851562,42.8267 32.73437,42.3423 32.558589,42.167916 32.382808,41.99353 31.914058,41.683514 31.718745,41.50913 c -0.195312,-0.174384 -0.957031,-0.716913 -1.152343,-0.794417 -0.195313,-0.07751 -1.114707,-0.53835 -1.464844,-0.542529 z"
           style="fill:#fafafa;fill-rule:evenodd;stroke:none;stroke-width:1px;stroke-linecap:butt;stroke-linejoin:miter;stroke-opacity:1" />
        <path
           id="path4542"
           d="m 33.867188,41.702891 c -0.154429,-0.02685 -0.221854,0.02952 -0.3125,0.09688 -0.09065,0.06735 -0.153821,0.16463 -0.195312,0.29064 -0.04149,0.126011 -0.07188,0.222633 -0.01953,0.445648 0.05234,0.223017 0.351563,0.755666 0.449219,0.813794 0.09766,0.05813 0.917969,0.678162 1.09375,0.813794 0.175781,0.135632 0.976563,0.813793 1.152344,0.93005 0.175781,0.116256 0.761719,0.639409 0.839844,0.833169 0.07813,0.193761 0.332031,0.620033 0.46875,0.988178 0.136718,0.368145 0.390625,0.813794 0.449218,1.065682 0.05859,0.251888 0.175782,0.348768 0.15625,0.251888 -0.01953,-0.09688 -0.253906,-1.395074 -0.234375,-1.491954 0.01953,-0.09688 -0.01953,-0.755666 -0.09766,-0.910674 -0.07813,-0.155008 -0.351562,-0.697537 -0.410156,-0.93005 -0.05859,-0.232512 -0.3125,-0.775041 -0.3125,-0.871921 0,-0.09688 -0.175781,-0.329393 -0.292969,-0.484402 -0.117187,-0.155008 -0.490195,-0.408191 -0.703125,-0.561905 -0.21293,-0.153712 -0.253906,-0.116255 -0.566406,-0.368144 -0.3125,-0.251889 -0.878906,-0.445648 -0.976563,-0.542529 -0.09766,-0.09688 -0.333852,-0.341295 -0.488281,-0.368144 z"
           style="fill:#fafafa;fill-opacity:1;fill-rule:evenodd;stroke:none;stroke-width:1px;stroke-linecap:butt;stroke-linejoin:miter;stroke-opacity:1" />
        <path
           id="path4544"
           d="m 12.96875,42.865453 c -0.37285,0.02464 -0.976562,0.426272 -1.09375,0.58128 -0.117187,0.155009 -0.520595,0.536276 -0.820312,0.852546 -0.299718,0.316269 -0.629395,0.735804 -0.976563,1.046306 -0.3471674,0.310502 -0.7538961,0.394266 -1.0937499,0.813793 -0.3398537,0.419529 -0.6523887,1.327831 -0.78125,1.705091 -0.1288613,0.377261 -0.1171875,0.503778 -0.1171875,0.503778 0,0 0.61381,-1.420737 0.9375,-1.782595 0.32369,-0.361859 0.46875,-0.426274 0.7421875,-0.503778 0.2734379,-0.07751 1.2499999,-0.852545 1.4453129,-1.007554 0.195312,-0.155008 0.78125,-0.503776 0.976562,-0.58128 0.195313,-0.07751 0.371149,-0.08034 0.664063,-0.116257 0.292913,-0.03592 0.748145,-0.07213 1.09375,-0.07751 0.345604,-0.0054 0.670096,-0.04254 0.976562,0.03875 0.306466,0.08129 0.820313,0.426272 0.820313,0.426272 0,0 -0.433967,-0.626876 -0.742188,-0.891297 -0.308221,-0.264421 -0.751825,-0.494003 -1.09375,-0.658786 -0.341924,-0.164782 -0.564649,-0.373409 -0.9375,-0.348768 z"
           style="fill:#fafafa;fill-rule:evenodd;stroke:none;stroke-width:1px;stroke-linecap:butt;stroke-linejoin:miter;stroke-opacity:1" />
        <path
           id="path4546"
           d="m 5.0000004,48.517693 c 0,0 1.2920649,-1.247051 2.109375,-1.247051 2.0094935,2.096771 2.570231,0.09096 4.2187496,0 4.736723,2.889295 9.82545,-0.389228 12.65625,-0.623527 2.009494,2.096772 2.570232,0.09096 4.21875,0 1.461219,0.0094 5.769641,1.216236 6.328126,1.247052 1.943083,-0.90555 2.434791,-1.760608 4.468749,0 l 0,8.105834 -33.9999996,0 z"
           style="color:#000000;clip-rule:nonzero;display:inline;overflow:visible;visibility:visible;opacity:0.8;isolation:auto;mix-blend-mode:normal;color-interpolation:sRGB;color-interpolation-filters:linearRGB;solid-color:#000000;solid-opacity:1;fill:#206b00;fill-opacity:1;fill-rule:nonzero;stroke:none;stroke-width:0.9999218;stroke-linecap:butt;stroke-linejoin:round;stroke-miterlimit:4;stroke-dasharray:none;stroke-dashoffset:0;stroke-opacity:1;marker:none;color-rendering:auto;image-rendering:auto;shape-rendering:auto;text-rendering:auto;enable-background:accumulate" />
        <path
           id="path4548"
           d="m 9.3750001,43.097965 c -0.2492669,0.01206 -0.6125562,0.571494 -1.1523437,0.716913 -0.5397876,0.145419 -0.7031251,1.453203 -0.7031251,1.453203 0,0 1.0816963,-0.996939 1.4257813,-1.201314 0.344085,-0.204375 0.6640625,-0.07751 0.859375,-0.07751 l 0.4687504,0 c 0,0 -0.239617,-0.353968 -0.3906254,-0.503776 C 9.7318045,43.335678 9.624267,43.085906 9.3750001,43.097965 Z"
           style="fill:#fafafa;fill-rule:evenodd;stroke:none;stroke-width:1px;stroke-linecap:butt;stroke-linejoin:miter;stroke-opacity:1" />
        <path
           id="path4550"
           d="m 5.0000004,50.004771 8.4374996,0 c 4.619896,0 12.772901,-1.219437 16.875,-1.199045 C 34.4146,48.826115 39,49.405248 39,49.405248 l 0,6.594753 -33.9999996,0 z"
           style="color:#000000;clip-rule:nonzero;display:inline;overflow:visible;visibility:visible;opacity:1;isolation:auto;mix-blend-mode:normal;color-interpolation:sRGB;color-interpolation-filters:linearRGB;solid-color:#000000;solid-opacity:1;fill:url(#linearGradient4558);fill-opacity:1;fill-rule:nonzero;stroke:none;stroke-width:0.9999218;stroke-linecap:butt;stroke-linejoin:round;stroke-miterlimit:4;stroke-dasharray:none;stroke-dashoffset:0;stroke-opacity:1;marker:none;color-rendering:auto;image-rendering:auto;shape-rendering:auto;text-rendering:auto;enable-background:accumulate" />
      </g>
      <rect
         width="91.980743"
         height="68.018883"
         x="10.509624"
         y="43.490562"
         id="rect4206"
         style="color:#000000;display:inline;overflow:visible;visibility:visible;opacity:0.3;fill:none;fill-opacity:1;fill-rule:nonzero;stroke:#000000;stroke-width:1.00000072;stroke-linecap:round;stroke-linejoin:miter;stroke-miterlimit:4;stroke-dasharray:none;stroke-dashoffset:0;stroke-opacity:1;marker:none;enable-background:accumulate" />
    </g>
    <g
       transform="translate(-0.99999907,-1.0000599)"
       id="g4285">
      <path
         style="opacity:1;fill:url(#linearGradient1298);fill-opacity:1;stroke:none;stroke-width:0.79069769;stroke-linecap:butt;stroke-linejoin:miter;stroke-miterlimit:4;stroke-dasharray:none;stroke-dashoffset:0;stroke-opacity:1;marker:none"
         d="m 87.5,40.500061 0,20 19.99991,0 -6.99999,-7 0,0 16.0001,-16 6.99998,7 0,-20 -19.9999,0 6.99998,7 0,0 -16.000099,16 z"
         id="path1212" />
      <path
         id="path1282"
         d="m 87.5,40.500061 0,20 19.99991,0 -6.99999,-7 0,0 16.0001,-16 6.99998,7 0,-20 -19.9999,0 6.99998,7 0,0 -16.000099,16 z"
         style="opacity:0.5;fill:none;fill-opacity:1;stroke:#ad5f00;stroke-width:1;stroke-linecap:butt;stroke-linejoin:miter;stroke-miterlimit:4;stroke-dasharray:none;stroke-dashoffset:0;stroke-opacity:1;marker:none" />
    </g>
  </g>
</svg>
