<?xml version="1.0" encoding="UTF-8" standalone="no"?>
<svg
   xmlns:dc="http://purl.org/dc/elements/1.1/"
   xmlns:cc="http://creativecommons.org/ns#"
   xmlns:rdf="http://www.w3.org/1999/02/22-rdf-syntax-ns#"
   xmlns:svg="http://www.w3.org/2000/svg"
   xmlns="http://www.w3.org/2000/svg"
   xmlns:xlink="http://www.w3.org/1999/xlink"
   version="1.1"
   width="16"
   height="16"
   id="svg3810">
  <defs
     id="defs3812">
    <linearGradient
       x1="23.99999"
       y1="6.9230647"
       x2="23.99999"
       y2="35.384605"
       id="linearGradient3988"
       xlink:href="#linearGradient3977"
       gradientUnits="userSpaceOnUse"
       gradientTransform="matrix(0.24324324,0,0,0.35135133,2.1621636,0.567572)" />
    <linearGradient
       id="linearGradient3977">
      <stop
         id="stop3979"
         style="stop-color:#ffffff;stop-opacity:1"
         offset="0" />
      <stop
         id="stop3981"
         style="stop-color:#ffffff;stop-opacity:0.23529412"
         offset="0" />
      <stop
         id="stop3983"
         style="stop-color:#ffffff;stop-opacity:0.15686275"
         offset="1" />
      <stop
         id="stop3985"
         style="stop-color:#ffffff;stop-opacity:0.39215687"
         offset="1" />
    </linearGradient>
    <linearGradient
       id="linearGradient3600">
      <stop
         id="stop3602"
         style="stop-color:#f4f4f4;stop-opacity:1"
         offset="0" />
      <stop
         id="stop3604"
         style="stop-color:#dbdbdb;stop-opacity:1"
         offset="1" />
    </linearGradient>
    <linearGradient
       x1="25.132275"
       y1="0.98520643"
       x2="25.132275"
       y2="47.013336"
       id="linearGradient3806"
       xlink:href="#linearGradient3600"
       gradientUnits="userSpaceOnUse"
       gradientTransform="matrix(0.28571361,0,0,0.30419701,1.1428727,1.232605)" />
    <linearGradient
       id="linearGradient3104-9">
      <stop
         id="stop3106-5"
         style="stop-color:#000000;stop-opacity:0.33950618"
         offset="0" />
      <stop
         id="stop3108-5"
         style="stop-color:#000000;stop-opacity:0.24691358"
         offset="1" />
    </linearGradient>
    <linearGradient
       x1="-51.786404"
       y1="50.786446"
       x2="-51.786404"
       y2="2.9062471"
       id="linearGradient3019"
       xlink:href="#linearGradient3104-9"
       gradientUnits="userSpaceOnUse"
       gradientTransform="matrix(0.25378586,0,0,0.30501865,19.128979,0.314523)" />
    <linearGradient
       id="linearGradient4487">
      <stop
         id="stop4489"
         style="stop-color:#fafafa;stop-opacity:1"
         offset="0" />
      <stop
         id="stop4491"
         style="stop-color:#8cd5ff;stop-opacity:1"
         offset="1" />
    </linearGradient>
    <linearGradient
       x1="164.28023"
       y1="241.65149"
       x2="164.28023"
       y2="156.78416"
       id="linearGradient3077-9-7"
       xlink:href="#linearGradient4487"
       gradientUnits="userSpaceOnUse"
       gradientTransform="matrix(0.14096419,0,0,0.11701575,-15.605327,-15.292654)" />
    <linearGradient
       y2="50.280754"
       x2="-3.1630788"
       y1="107.46377"
       x1="-3.1630788"
       gradientTransform="matrix(-0.1923648,0,0,-0.19236481,10.391522,20.67225)"
       gradientUnits="userSpaceOnUse"
       id="linearGradient111"
       xlink:href="#linearGradient4220-7" />
    <linearGradient
       id="linearGradient4220-7">
      <stop
         offset="0"
         style="stop-color:#fff394;stop-opacity:1"
         id="stop4222-7" />
      <stop
         offset="1"
         style="stop-color:#f9c440;stop-opacity:1"
         id="stop4224-0" />
    </linearGradient>
    <linearGradient
       y2="47.013336"
       x2="25.132275"
       y1="0.98520643"
       x1="25.132275"
       gradientTransform="matrix(0.21933377,0,0,0.23284367,0.99353873,4.3446841)"
       gradientUnits="userSpaceOnUse"
       id="linearGradient4206"
       xlink:href="#linearGradient3600" />
    <linearGradient
       y2="35.384605"
       x2="23.99999"
       y1="6.9230647"
       x1="23.99999"
       gradientTransform="matrix(0.18673054,0,0,0.26893733,2.0080372,3.8356431)"
       gradientUnits="userSpaceOnUse"
       id="linearGradient4208"
       xlink:href="#linearGradient3977" />
    <linearGradient
       y2="2.9062471"
       x2="-51.786404"
       y1="50.786446"
       x1="-51.786404"
       gradientTransform="matrix(0.19482379,0,0,0.23347258,14.800933,3.6419501)"
       gradientUnits="userSpaceOnUse"
       id="linearGradient4210"
       xlink:href="#linearGradient3104-9" />
    <linearGradient
       y2="156.78416"
       x2="164.28023"
       y1="241.65149"
       x1="164.28023"
       gradientTransform="matrix(0.10821398,0,0,0.08956819,-11.863552,-8.3043618)"
       gradientUnits="userSpaceOnUse"
       id="linearGradient4212"
       xlink:href="#linearGradient4487" />
    <linearGradient
       gradientTransform="matrix(0.62500001,0,0,0.77385774,1.875,12.663966)"
       y2="55.952728"
       x2="29.9375"
       y1="32.890228"
       x1="29.9375"
       gradientUnits="userSpaceOnUse"
       id="linearGradient4556"
       xlink:href="#linearGradient4504" />
    <linearGradient
       id="linearGradient4504">
      <stop
         id="stop4506"
         offset="0"
         style="stop-color:#abacae;stop-opacity:1" />
      <stop
         id="stop4508"
         offset="1"
         style="stop-color:#7e8087;stop-opacity:1" />
    </linearGradient>
    <linearGradient
       gradientTransform="matrix(0.62500001,0,0,0.6666434,1.875,18.667971)"
       y2="55.99979"
       x2="31.875"
       y1="43.87479"
       x1="31.875"
       gradientUnits="userSpaceOnUse"
       id="linearGradient4558"
       xlink:href="#linearGradient4512" />
    <linearGradient
       id="linearGradient4512">
      <stop
         id="stop4514"
         offset="0"
         style="stop-color:#68b723;stop-opacity:1" />
      <stop
         id="stop4516"
         offset="1"
         style="stop-color:#d1ff82;stop-opacity:1" />
    </linearGradient>
  </defs>
  <metadata
     id="metadata3815">
    <rdf:RDF>
      <cc:Work
         rdf:about="">
        <dc:format>image/svg+xml</dc:format>
        <dc:type
           rdf:resource="http://purl.org/dc/dcmitype/StillImage" />
        <dc:title />
      </cc:Work>
    </rdf:RDF>
  </metadata>
  <g
     id="g4248">
    <g
       id="g4182"
       style="opacity:0.5">
      <path
         style="display:inline;fill:url(#linearGradient3806);fill-opacity:1;stroke:none"
         id="path4160"
         d="M 1,14 C 1,11.708493 1.0008904,2.000012 1.0008904,2.000012 L 15,2 15,14 Z" />
      <path
         style="fill:none;stroke:url(#linearGradient3988);stroke-width:1;stroke-linecap:round;stroke-linejoin:miter;stroke-miterlimit:4;stroke-dasharray:none;stroke-dashoffset:0;stroke-opacity:1"
         id="rect6741-1"
         d="m 14.5,2.5 0,11 -13,0 0,-11 z" />
      <path
         style="display:inline;fill:none;stroke:url(#linearGradient3019);stroke-width:0.99992192;stroke-linecap:butt;stroke-linejoin:round;stroke-miterlimit:4;stroke-dasharray:none;stroke-dashoffset:0;stroke-opacity:1"
         id="path4160-8"
         d="m 0.49997398,14.500038 c 0,-2.520676 9.54e-4,-13.000063 9.54e-4,-13.000063 l 14.99909802,-1.3e-5 0,13.000076 z" />
      <rect
         width="12"
         height="10"
         x="2"
         y="3"
         id="rect3180-1"
         style="color:#000000;display:inline;overflow:visible;visibility:visible;fill:url(#linearGradient3077-9-7);fill-opacity:1;fill-rule:nonzero;stroke:none;stroke-width:1.00000072;stroke-linecap:round;stroke-linejoin:miter;stroke-miterlimit:4;stroke-dasharray:none;stroke-dashoffset:0;stroke-opacity:1;marker:none;enable-background:accumulate" />
      <rect
         width="11.000024"
         height="8.9999504"
         x="2.4999883"
         y="3.5000248"
         id="rect3180"
         style="color:#000000;display:inline;overflow:visible;visibility:visible;opacity:0.2;fill:none;fill-opacity:1;fill-rule:nonzero;stroke:#000000;stroke-width:1.00000072;stroke-linecap:round;stroke-linejoin:miter;stroke-miterlimit:4;stroke-dasharray:none;stroke-dashoffset:0;stroke-opacity:1;marker:none;enable-background:accumulate" />
    </g>
    <g
       id="g4233">
      <path
         d="m 0.99965821,14 c 0,-2.117322 3.4177e-4,-8.9999954 3.4177e-4,-8.9999954 L 12,4.9999954 12,14 Z"
         id="path4196"
         style="display:inline;fill:url(#linearGradient4206);fill-opacity:1;stroke:none" />
      <path
         d="m 11.5,5.5 -0.02057,8 -9.9797104,0 0,-8 z"
         id="path4198"
         style="fill:none;stroke:url(#linearGradient4208);stroke-width:1;stroke-linecap:round;stroke-linejoin:miter;stroke-miterlimit:4;stroke-dasharray:none;stroke-dashoffset:0;stroke-opacity:1" />
      <path
         d="M 0.50000466,14.500069 C 0.50000466,12.57065 0.5,4.5000049 0.5,4.5000049 l 12,-9.9e-6 0,10.000074 z"
         id="path4200"
         style="display:inline;fill:none;stroke:url(#linearGradient4210);stroke-width:0.99992186;stroke-linecap:butt;stroke-linejoin:round;stroke-miterlimit:4;stroke-dasharray:none;stroke-dashoffset:0;stroke-opacity:1" />
      <rect
         style="color:#000000;display:inline;overflow:visible;visibility:visible;fill:url(#linearGradient4212);fill-opacity:1;fill-rule:nonzero;stroke:none;stroke-width:1.00000072;stroke-linecap:round;stroke-linejoin:miter;stroke-miterlimit:4;stroke-dasharray:none;stroke-dashoffset:0;stroke-opacity:1;marker:none;enable-background:accumulate"
         id="rect4202"
         y="6"
         x="2"
         height="6.9999995"
         width="9" />
      <g
         transform="matrix(0.26470588,0,0,0.24999994,0.67647062,-0.99999771)"
         id="g4293">
        <path
           style="fill:url(#linearGradient4556);fill-opacity:1;fill-rule:evenodd;stroke:none;stroke-width:1px;stroke-linecap:butt;stroke-linejoin:miter;stroke-opacity:1"
           d="m 29.183655,36.001359 c -0.11759,-0.0078 -0.232177,0.01772 -0.436706,0.07482 -0.409058,0.114187 -1.029779,0.551092 -1.432343,0.931802 -0.402565,0.380709 -0.618024,1.021554 -0.96817,1.287181 -0.350145,0.265627 -0.711372,0.241634 -1.003876,0.353678 -0.292502,0.112037 -0.337673,0.08575 -0.752563,0.311167 -0.41489,0.225427 -1.127018,0.837983 -1.685029,1.154552 -0.55801,0.316571 -1.092335,0.400777 -1.647948,0.753265 -0.555613,0.352486 -1.193202,1.101397 -1.649323,1.3756 -0.456121,0.274203 -0.694592,0.401677 -1.002503,0.399587 -0.307911,-0.0021 -0.142736,0.02562 -0.752563,-0.309467 -0.609828,-0.335094 -2.09952,-1.445387 -2.796021,-1.953727 -0.696501,-0.50834 -1.02391,-0.884808 -1.39801,-1.064432 -0.3741,-0.179599 -0.41833,-0.225124 -0.752563,-0.178539 -0.334234,0.04659 -0.799944,0.390155 -1.146699,0.622336 -0.346752,0.232182 -0.493845,0.723588 -0.932464,0.754964 -0.438619,0.03139 -1.0526307,-0.816134 -1.3623051,-0.843384 -0.3096732,-0.02725 -0.1583175,0.02565 -0.32135,0.132629 -0.1630325,0.106975 -0.2867019,0.4041 -0.6097407,0.576426 -0.3230387,0.172322 -0.7848816,0.09991 -1.3265994,0.266955 -0.5417156,0.167045 -1.3437689,0.49604 -1.8992616,0.799175 -0.1138549,0.06214 -0.211739,0.133352 -0.3076171,0.205745 l 0,14.348308 33.9999999,0 0,-14.188473 c -0.180902,-0.17141 -0.612353,-0.346478 -1.005309,-0.676747 -0.784282,-0.659165 -2.458459,-2.134735 -3.225861,-2.574363 -0.767401,-0.439595 -0.887703,-0.491026 -1.182404,-0.443796 -0.2947,0.04723 -0.32228,0.295481 -0.465545,0.355378 -0.143266,0.0599 -0.0051,0.167128 -0.358429,0.04421 -0.353394,-0.122925 -0.948908,-0.974495 -1.470795,-1.3756 -0.521888,-0.401105 -1.20568,-0.879339 -1.647949,-1.020222 -0.221135,-0.07045 -0.342463,-0.111275 -0.460053,-0.119025 z"
           id="path4538" />
        <path
           id="path4540"
           d="m 29.101563,37.660158 c -0.350137,-0.0042 -0.272586,0.08658 -0.507813,0.175781 -0.235226,0.0892 -0.644231,0.18159 -0.898437,0.371094 -0.254206,0.189504 -0.405314,0.455325 -0.585938,0.722656 -0.180623,0.267331 -0.203721,0.651414 -0.488281,0.878906 -0.284559,0.227493 -0.804418,0.134543 -1.132812,0.332032 -0.328395,0.197488 -0.800782,0.742187 -0.78125,0.800781 0.01953,0.05859 -0.214844,1.503906 -0.46875,1.679688 -0.253907,0.175781 -0.93262,1.020268 -1.191407,1.484375 -0.258787,0.464106 -0.35556,0.890575 -0.429687,1.210937 -0.07413,0.320362 -0.07813,0.683594 -0.07813,0.683594 0,0 0.186269,-0.691662 0.332031,-0.996094 0.145762,-0.304432 0.310659,-0.53468 0.527344,-0.820312 0.216684,-0.285633 0.722656,-0.742188 0.78125,-0.878907 0.05859,-0.136718 0.585565,-0.473883 0.761719,-0.800781 0.176153,-0.326898 0.02382,-0.799554 0.253906,-1.09375 0.230085,-0.294196 0.673488,-0.355173 0.996094,-0.507813 0.322605,-0.15264 0.628518,-0.390403 0.9375,-0.410156 0.308981,-0.01975 0.66944,-0.105156 0.800781,0.234375 0.131341,0.339531 -0.605469,1.09375 -0.703125,1.152344 -0.09766,0.05859 -0.543772,0.325275 -0.722656,0.605469 -0.178885,0.280194 -0.273438,0.9375 -0.273438,1.015625 0,0.07813 0.07813,0.78125 0.07813,0.78125 0,0 -0.0067,-0.642842 0.117188,-0.9375 0.123878,-0.294658 0.488281,-0.683594 0.605468,-0.761719 0.117188,-0.07813 0.761719,-0.507812 0.878907,-0.625 0.117187,-0.117187 0.820312,-0.566406 1.015625,-0.703125 0.195312,-0.136719 0.449218,-0.429688 0.722656,-0.585938 0.273437,-0.15625 0.488281,-0.585937 0.585937,-0.703125 0.09766,-0.117187 0.214844,-0.410156 0.566407,-0.3125 0.351562,0.09766 0.917968,0.488282 1.191406,0.703125 0.273437,0.214844 0.742187,0.566407 0.820312,0.839844 0.07813,0.273438 0.117188,0.410157 0.234375,0.78125 0.117188,0.371094 0.234376,0.898438 0.390626,1.09375 0.15625,0.195313 0.585937,0.507813 0.683593,0.566407 0.09766,0.05859 0.9375,0.488281 0.9375,0.488281 0,0 -0.721901,-0.604844 -0.976562,-0.957031 -0.254661,-0.352188 -0.449219,-0.878907 -0.546875,-1.113282 -0.09766,-0.234375 -0.175781,-0.78125 -0.273438,-0.917969 -0.09766,-0.136718 -0.292974,-0.449218 -0.351567,-0.625 -0.05859,-0.175781 -0.175782,-0.664062 -0.351563,-0.839843 -0.175781,-0.175782 -0.644531,-0.488282 -0.839844,-0.664063 -0.195312,-0.175781 -0.957031,-0.722656 -1.152343,-0.800781 -0.195313,-0.07813 -1.114707,-0.542662 -1.464844,-0.546875 z"
           style="fill:#fafafa;fill-rule:evenodd;stroke:none;stroke-width:1px;stroke-linecap:butt;stroke-linejoin:miter;stroke-opacity:1" />
        <path
           id="path4542"
           d="m 33.867188,39.203127 c -0.154429,-0.02706 -0.221854,0.02976 -0.3125,0.09766 -0.09065,0.06789 -0.153821,0.165949 -0.195312,0.292969 -0.04149,0.12702 -0.07188,0.224416 -0.01953,0.449218 0.05234,0.224803 0.351563,0.761719 0.449219,0.820313 0.09766,0.05859 0.917969,0.683594 1.09375,0.820313 0.175781,0.136718 0.976563,0.820312 1.152344,0.9375 0.175781,0.117187 0.761719,0.644531 0.839844,0.839843 0.07813,0.195313 0.332031,0.625 0.46875,0.996094 0.136718,0.371094 0.390625,0.820313 0.449218,1.074219 0.05859,0.253906 0.175782,0.351562 0.15625,0.253906 -0.01953,-0.09766 -0.253906,-1.40625 -0.234375,-1.503906 0.01953,-0.09766 -0.01953,-0.761719 -0.09766,-0.917969 -0.07813,-0.15625 -0.351562,-0.703125 -0.410156,-0.9375 -0.05859,-0.234375 -0.3125,-0.78125 -0.3125,-0.878906 0,-0.09766 -0.175781,-0.332032 -0.292969,-0.488282 -0.117187,-0.15625 -0.490195,-0.411461 -0.703125,-0.566406 -0.21293,-0.154944 -0.253906,-0.117187 -0.566406,-0.371094 -0.3125,-0.253906 -0.878906,-0.449218 -0.976563,-0.546875 -0.09766,-0.09766 -0.333852,-0.344029 -0.488281,-0.371093 z"
           style="fill:#fafafa;fill-opacity:1;fill-rule:evenodd;stroke:none;stroke-width:1px;stroke-linecap:butt;stroke-linejoin:miter;stroke-opacity:1" />
        <path
           id="path4544"
           d="m 12.96875,40.375002 c -0.37285,0.02484 -0.976562,0.429687 -1.09375,0.585937 -0.117187,0.15625 -0.520595,0.540572 -0.820312,0.859375 -0.299718,0.318803 -0.629395,0.741698 -0.976563,1.054688 -0.3471674,0.312989 -0.7538961,0.397424 -1.0937499,0.820312 -0.3398537,0.422889 -0.6523887,1.338467 -0.78125,1.71875 -0.1288613,0.380283 -0.1171875,0.507813 -0.1171875,0.507813 0,0 0.61381,-1.432118 0.9375,-1.796875 0.32369,-0.364757 0.46875,-0.429688 0.7421875,-0.507813 0.2734379,-0.07813 1.2499999,-0.859375 1.4453129,-1.015625 0.195312,-0.15625 0.78125,-0.507812 0.976562,-0.585937 0.195313,-0.07813 0.371149,-0.08098 0.664063,-0.117188 0.292913,-0.03621 0.748145,-0.07271 1.09375,-0.07813 0.345604,-0.0054 0.670096,-0.04288 0.976562,0.03906 0.306466,0.08194 0.820313,0.429687 0.820313,0.429687 0,0 -0.433967,-0.631898 -0.742188,-0.898437 -0.308221,-0.266539 -0.751825,-0.49796 -1.09375,-0.664063 -0.341924,-0.166102 -0.564649,-0.3764 -0.9375,-0.351562 z"
           style="fill:#fafafa;fill-rule:evenodd;stroke:none;stroke-width:1px;stroke-linecap:butt;stroke-linejoin:miter;stroke-opacity:1" />
        <path
           id="path4546"
           d="m 5.0000004,46.4 c 0,0 1.2920649,-1.600001 2.109375,-1.600001 2.0094935,2.690213 2.570231,0.1167 4.2187496,0 4.736723,3.707043 9.82545,-0.499389 12.65625,-0.800001 2.009494,2.690214 2.570232,0.1167 4.21875,0 1.461219,0.012 5.769641,1.560462 6.328126,1.600002 1.943083,-1.161846 2.434791,-2.258908 4.468749,0 l 0,10.400001 -33.9999996,0 z"
           style="color:#000000;clip-rule:nonzero;display:inline;overflow:visible;visibility:visible;opacity:0.8;isolation:auto;mix-blend-mode:normal;color-interpolation:sRGB;color-interpolation-filters:linearRGB;solid-color:#000000;solid-opacity:1;fill:#206b00;fill-opacity:1;fill-rule:nonzero;stroke:none;stroke-width:0.9999218;stroke-linecap:butt;stroke-linejoin:round;stroke-miterlimit:4;stroke-dasharray:none;stroke-dashoffset:0;stroke-opacity:1;marker:none;color-rendering:auto;image-rendering:auto;shape-rendering:auto;text-rendering:auto;enable-background:accumulate" />
        <path
           id="path4548"
           d="m 9.3750001,40.609377 c -0.2492669,0.01216 -0.6125562,0.576072 -1.1523437,0.722656 -0.5397876,0.146584 -0.7031251,1.464844 -0.7031251,1.464844 0,0 1.0816963,-1.004925 1.4257813,-1.210938 0.344085,-0.206012 0.6640625,-0.07813 0.859375,-0.07813 l 0.4687504,0 c 0,0 -0.239617,-0.356804 -0.3906254,-0.507812 C 9.7318045,40.848994 9.624267,40.597221 9.3750001,40.609377 Z"
           style="fill:#fafafa;fill-rule:evenodd;stroke:none;stroke-width:1px;stroke-linecap:butt;stroke-linejoin:miter;stroke-opacity:1" />
        <path
           id="path4550"
           d="m 5.0000004,49.333566 8.4374996,0 c 4.619896,0 12.772901,-1.355961 16.875,-1.333286 C 34.4146,48.022952 39,48.666922 39,48.666922 l 0,7.333079 -33.9999996,0 z"
           style="color:#000000;clip-rule:nonzero;display:inline;overflow:visible;visibility:visible;opacity:1;isolation:auto;mix-blend-mode:normal;color-interpolation:sRGB;color-interpolation-filters:linearRGB;solid-color:#000000;solid-opacity:1;fill:url(#linearGradient4558);fill-opacity:1;fill-rule:nonzero;stroke:none;stroke-width:0.9999218;stroke-linecap:butt;stroke-linejoin:round;stroke-miterlimit:4;stroke-dasharray:none;stroke-dashoffset:0;stroke-opacity:1;marker:none;color-rendering:auto;image-rendering:auto;shape-rendering:auto;text-rendering:auto;enable-background:accumulate" />
      </g>
      <rect
         style="color:#000000;display:inline;overflow:visible;visibility:visible;opacity:0.3;fill:none;fill-opacity:1;fill-rule:nonzero;stroke:#000000;stroke-width:1.00000072;stroke-linecap:round;stroke-linejoin:miter;stroke-miterlimit:4;stroke-dasharray:none;stroke-dashoffset:0;stroke-opacity:1;marker:none;enable-background:accumulate"
         id="rect4204"
         y="6.4992728"
         x="2.5007291"
         height="6.0014544"
         width="7.9985418" />
    </g>
    <g
       id="g4216"
       transform="translate(-0.499987,0.5)">
      <path
         style="opacity:1;fill:url(#linearGradient111);fill-opacity:1;stroke:none;stroke-width:0.79069763;stroke-linecap:butt;stroke-linejoin:miter;stroke-miterlimit:4;stroke-dasharray:none;stroke-dashoffset:0;stroke-opacity:1;marker:none"
         d="M 7.0000001,4.9999995 7.0000001,10 12,10 9.9999999,8.499999 14.499987,4.000001 l 1.5,2 0,-5 -5,0 2,1.5 -4.4999868,4.499998 z"
         id="path109" />
      <path
         id="path4214"
         d="M 7.0000001,4.9999995 7.0000001,10 12,10 9.9999999,8.499999 14.499987,4.000001 l 1.5,2 0,-5 -5,0 2,1.5 -4.4999868,4.499998 z"
         style="opacity:0.5;fill:none;fill-opacity:1;stroke:#ad5f00;stroke-width:1;stroke-linecap:butt;stroke-linejoin:miter;stroke-miterlimit:4;stroke-dasharray:none;stroke-dashoffset:0;stroke-opacity:1;marker:none" />
    </g>
  </g>
</svg>
