<?xml version="1.0" encoding="UTF-8" standalone="no"?>
<svg
   xmlns:dc="http://purl.org/dc/elements/1.1/"
   xmlns:cc="http://creativecommons.org/ns#"
   xmlns:rdf="http://www.w3.org/1999/02/22-rdf-syntax-ns#"
   xmlns:svg="http://www.w3.org/2000/svg"
   xmlns="http://www.w3.org/2000/svg"
   xmlns:xlink="http://www.w3.org/1999/xlink"
   version="1.0"
   width="32"
   height="32"
   id="svg2526">
  <metadata
     id="metadata58">
    <rdf:RDF>
      <cc:Work
         rdf:about="">
        <dc:format>image/svg+xml</dc:format>
        <dc:type
           rdf:resource="http://purl.org/dc/dcmitype/StillImage" />
        <dc:title />
      </cc:Work>
    </rdf:RDF>
  </metadata>
  <defs
     id="defs2528">
    <linearGradient
       id="linearGradient4229">
      <stop
         id="stop4231"
         style="stop-color:#fafafa;stop-opacity:1"
         offset="0" />
      <stop
         id="stop4233"
         style="stop-color:#8cd5ff;stop-opacity:1"
         offset="1" />
    </linearGradient>
    <linearGradient
       id="linearGradient5060">
      <stop
         id="stop5062"
         style="stop-color:#000000;stop-opacity:1"
         offset="0" />
      <stop
         id="stop5064"
         style="stop-color:#000000;stop-opacity:0"
         offset="1" />
    </linearGradient>
    <linearGradient
       id="linearGradient5048">
      <stop
         id="stop5050"
         style="stop-color:#000000;stop-opacity:0"
         offset="0" />
      <stop
         id="stop5056"
         style="stop-color:#000000;stop-opacity:1"
         offset="0.5" />
      <stop
         id="stop5052"
         style="stop-color:#000000;stop-opacity:0"
         offset="1" />
    </linearGradient>
    <linearGradient
       x1="302.85715"
       y1="366.64789"
       x2="302.85715"
       y2="609.50507"
       id="linearGradient3188"
       xlink:href="#linearGradient5048"
       gradientUnits="userSpaceOnUse"
       gradientTransform="matrix(0.05633073,0,0,0.01647059,-4.3595357,20.961096)" />
    <radialGradient
       cx="605.71429"
       cy="486.64789"
       r="117.14286"
       fx="605.71429"
       fy="486.64789"
       id="radialGradient3190"
       xlink:href="#linearGradient5060"
       gradientUnits="userSpaceOnUse"
       gradientTransform="matrix(-0.01927752,0,0,0.01647059,14.017952,20.961131)" />
    <radialGradient
       cx="605.71429"
       cy="486.64789"
       r="117.14286"
       fx="605.71429"
       fy="486.64789"
       id="radialGradient3192"
       xlink:href="#linearGradient5060"
       gradientUnits="userSpaceOnUse"
       gradientTransform="matrix(0.01927752,0,0,0.01647059,17.982045,20.961131)" />
    <linearGradient
       id="linearGradient3104-6">
      <stop
         id="stop3106-3"
         style="stop-color:#000000;stop-opacity:0.31782946"
         offset="0" />
      <stop
         id="stop3108-9"
         style="stop-color:#000000;stop-opacity:0.24031007"
         offset="1" />
    </linearGradient>
    <linearGradient
       id="linearGradient3977-8">
      <stop
         offset="0"
         style="stop-color:#ffffff;stop-opacity:1"
         id="stop3979-4" />
      <stop
         offset="0.03626217"
         style="stop-color:#ffffff;stop-opacity:0.23529412"
         id="stop3981-7" />
      <stop
         offset="0.95056331"
         style="stop-color:#ffffff;stop-opacity:0.15686275"
         id="stop3983-56" />
      <stop
         offset="1"
         style="stop-color:#ffffff;stop-opacity:0.39215687"
         id="stop3985-7" />
    </linearGradient>
    <linearGradient
       id="linearGradient3600-7">
      <stop
         offset="0"
         style="stop-color:#f4f4f4;stop-opacity:1"
         id="stop3602-2" />
      <stop
         offset="1"
         style="stop-color:#dbdbdb;stop-opacity:1"
         id="stop3604-8" />
    </linearGradient>
    <linearGradient
       xlink:href="#linearGradient3104-6"
       id="linearGradient3285"
       gradientUnits="userSpaceOnUse"
       gradientTransform="matrix(0.71521168,0,0,0.50836186,47.363354,2.5242162)"
       x1="-51.786404"
       y1="50.786446"
       x2="-51.786404"
       y2="2.9062471" />
    <linearGradient
       xlink:href="#linearGradient3977-8"
       id="linearGradient3296"
       gradientUnits="userSpaceOnUse"
       gradientTransform="matrix(0.7837838,0,0,0.6216216,-2.8108094,2.081085)"
       x1="23.99999"
       y1="5.5641499"
       x2="23.99999"
       y2="43" />
    <linearGradient
       xlink:href="#linearGradient3600-7"
       id="linearGradient3299"
       gradientUnits="userSpaceOnUse"
       gradientTransform="matrix(0.85714084,0,0,0.52148059,-4.5713851,3.6844634)"
       x1="25.132275"
       y1="0.98520643"
       x2="25.132275"
       y2="47.013336" />
    <linearGradient
       id="linearGradient4487">
      <stop
         offset="0"
         style="stop-color:#fafafa;stop-opacity:1"
         id="stop4489" />
      <stop
         offset="1"
         style="stop-color:#8cd5ff;stop-opacity:1"
         id="stop4491" />
    </linearGradient>
    <linearGradient
       gradientTransform="matrix(0.3289164,0,0,0.25743464,-39.079091,-34.243838)"
       gradientUnits="userSpaceOnUse"
       xlink:href="#linearGradient4229"
       id="linearGradient3077-9-7"
       y2="156.78416"
       x2="164.28023"
       y1="241.65149"
       x1="164.28023" />
    <linearGradient
       y2="33.43784"
       x2="8.0440083"
       y1="-15.081083"
       x1="8.0440083"
       gradientTransform="matrix(0.2885472,0,0,0.28854722,24.178924,8.8516047)"
       gradientUnits="userSpaceOnUse"
       id="linearGradient167"
       xlink:href="#linearGradient4220-7" />
    <linearGradient
       id="linearGradient4220-7">
      <stop
         offset="0"
         style="stop-color:#fff394;stop-opacity:1"
         id="stop4222-7" />
      <stop
         offset="1"
         style="stop-color:#f9c440;stop-opacity:1"
         id="stop4224-0" />
    </linearGradient>
    <linearGradient
       y2="47.013336"
       x2="25.132275"
       y1="0.98520643"
       x1="25.132275"
       gradientTransform="matrix(0.65561087,0,0,0.39795122,-3.3790027,9.799723)"
       gradientUnits="userSpaceOnUse"
       id="linearGradient4221"
       xlink:href="#linearGradient3600-7" />
    <linearGradient
       y2="43"
       x2="23.99999"
       y1="5.5641499"
       x1="23.99999"
       gradientTransform="matrix(0.59950145,0,0,0.47437063,-2.0323715,8.5761561)"
       gradientUnits="userSpaceOnUse"
       id="linearGradient4223"
       xlink:href="#linearGradient3977-8" />
    <linearGradient
       y2="2.9062471"
       x2="-51.786404"
       y1="50.786446"
       x1="-51.786404"
       gradientTransform="matrix(0.54705193,0,0,0.38794009,36.3449,8.9143175)"
       gradientUnits="userSpaceOnUse"
       id="linearGradient4225"
       xlink:href="#linearGradient3104-6" />
    <linearGradient
       y2="156.78416"
       x2="164.28023"
       y1="241.65149"
       x1="164.28023"
       gradientTransform="matrix(0.25158195,0,0,0.19645301,-29.773296,-19.144046)"
       gradientUnits="userSpaceOnUse"
       id="linearGradient4227"
       xlink:href="#linearGradient4487" />
    <linearGradient
       gradientTransform="matrix(0.62500001,0,0,0.61908619,1.875,21.331174)"
       y2="55.952728"
       x2="29.9375"
       y1="32.890228"
       x1="29.9375"
       gradientUnits="userSpaceOnUse"
       id="linearGradient4556"
       xlink:href="#linearGradient4504" />
    <linearGradient
       id="linearGradient4504">
      <stop
         id="stop4506"
         offset="0"
         style="stop-color:#abacae;stop-opacity:1" />
      <stop
         id="stop4508"
         offset="1"
         style="stop-color:#7e8087;stop-opacity:1" />
    </linearGradient>
    <linearGradient
       gradientTransform="matrix(0.62500001,0,0,0.66664339,1.875,18.667972)"
       y2="55.99979"
       x2="31.875"
       y1="43.87479"
       x1="31.875"
       gradientUnits="userSpaceOnUse"
       id="linearGradient4558"
       xlink:href="#linearGradient4512" />
    <linearGradient
       id="linearGradient4512">
      <stop
         id="stop4514"
         offset="0"
         style="stop-color:#68b723;stop-opacity:1" />
      <stop
         id="stop4516"
         offset="1"
         style="stop-color:#d1ff82;stop-opacity:1" />
    </linearGradient>
    <linearGradient
       y2="55.952728"
       x2="29.9375"
       y1="32.890228"
       x1="29.9375"
       gradientTransform="matrix(0.62500001,0,0,0.61908619,1.875,21.331174)"
       gradientUnits="userSpaceOnUse"
       id="linearGradient4261"
       xlink:href="#linearGradient4504" />
    <linearGradient
       y2="55.99979"
       x2="31.875"
       y1="43.87479"
       x1="31.875"
       gradientTransform="matrix(0.62500001,0,0,0.66664339,1.875,18.667972)"
       gradientUnits="userSpaceOnUse"
       id="linearGradient4263"
       xlink:href="#linearGradient4512" />
  </defs>
  <g
     id="g4305">
    <g
       id="g4197">
      <rect
         style="display:inline;overflow:visible;visibility:visible;fill:url(#linearGradient3188);fill-opacity:1;fill-rule:nonzero;stroke:none;stroke-width:1;marker:none;opacity:0.15"
         id="rect2879"
         y="27"
         x="2.4001522"
         height="3.9999995"
         width="27.199696" />
      <path
         style="display:inline;overflow:visible;visibility:visible;fill:url(#radialGradient3190);fill-opacity:1;fill-rule:nonzero;stroke:none;stroke-width:1;marker:none;opacity:0.15"
         id="path2881"
         d="m 2.4001523,27.000173 c 0,0 0,3.99978 0,3.99978 -0.9927447,0.0075 -2.3999731,-0.896148 -2.3999731,-2.000148 0,-1.103997 1.1078281,-1.99963 2.3999731,-1.999632 z" />
      <path
         style="display:inline;overflow:visible;visibility:visible;fill:url(#radialGradient3192);fill-opacity:1;fill-rule:nonzero;stroke:none;stroke-width:1;marker:none;opacity:0.15"
         id="path2883"
         d="m 29.599848,27.000173 c 0,0 0,3.99978 0,3.99978 0.992744,0.0075 2.399973,-0.896148 2.399973,-2.000148 0,-1.103997 -1.107828,-1.99963 -2.399973,-1.999632 z" />
    </g>
    <g
       id="g4270"
       style="opacity:0.5">
      <path
         d="m 0.99999685,4.9999981 c 6.87452305,0 29.99996415,0.00153 29.99996415,0.00153 l 3.6e-5,23.9984699 c 0,0 -19.999999,0 -30.00000015,0 0,-8 0,-16 0,-24.0000001 z"
         id="path4160"
         style="display:inline;fill:url(#linearGradient3299);fill-opacity:1;stroke:none" />
      <path
         d="m 30.499996,28.499998 -28.9999985,0 0,-23 28.9999985,0 z"
         id="rect6741-1"
         style="fill:none;stroke:url(#linearGradient3296);stroke-width:0.99999994;stroke-linecap:round;stroke-linejoin:round;stroke-miterlimit:4;stroke-dasharray:none;stroke-dashoffset:0;stroke-opacity:1" />
      <path
         d="m 0.4999577,4.499957 c 7.103685,0 31.0000463,0.00174 31.0000463,0.00174 l 3.2e-5,24.998342 c 0,0 -20.666718,0 -31.0000783,0 0,-8.33337 0,-16.666657 0,-24.9999301 z"
         id="path4160-6-1"
         style="display:inline;fill:none;stroke:url(#linearGradient3285);stroke-width:0.99992174;stroke-linecap:butt;stroke-linejoin:round;stroke-miterlimit:4;stroke-dasharray:none;stroke-dashoffset:0;stroke-opacity:1" />
      <rect
         width="28"
         height="22"
         x="1.9999967"
         y="6"
         id="rect3180-1"
         style="color:#000000;display:inline;overflow:visible;visibility:visible;fill:url(#linearGradient3077-9-7);fill-opacity:1;fill-rule:nonzero;stroke:none;stroke-width:1.00000072;stroke-linecap:round;stroke-linejoin:miter;stroke-miterlimit:4;stroke-dasharray:none;stroke-dashoffset:0;stroke-opacity:1;marker:none;enable-background:accumulate" />
      <g
         transform="matrix(0.82352941,0,0,0.8749998,-2.1176504,-20.999992)"
         id="g4293"
         style="">
        <path
           style="fill:url(#linearGradient4556);fill-opacity:1;fill-rule:evenodd;stroke:none;stroke-width:1px;stroke-linecap:butt;stroke-linejoin:miter;stroke-opacity:1"
           d="m 29.183655,40.001088 c -0.11759,-0.0062 -0.232177,0.01418 -0.436706,0.05986 -0.409058,0.09135 -1.029779,0.440874 -1.432343,0.745442 -0.402565,0.304567 -0.618024,0.817243 -0.96817,1.029745 -0.350145,0.212501 -0.711372,0.193307 -1.003876,0.282942 -0.292502,0.08963 -0.337673,0.0686 -0.752563,0.248934 -0.41489,0.180341 -1.127018,0.670386 -1.685029,0.923641 -0.55801,0.253257 -1.092335,0.320622 -1.647948,0.602612 -0.555613,0.281989 -1.193202,0.881118 -1.649323,1.10048 -0.456121,0.219363 -0.694592,0.321342 -1.002503,0.31967 -0.307911,-0.0017 -0.142736,0.0205 -0.752563,-0.247574 -0.609828,-0.268075 -2.09952,-1.156309 -2.796021,-1.562981 -0.696501,-0.406672 -1.02391,-0.707847 -1.39801,-0.851546 -0.3741,-0.143679 -0.41833,-0.180099 -0.752563,-0.142831 -0.334234,0.03727 -0.799944,0.312124 -1.146699,0.497869 -0.346752,0.185745 -0.493845,0.57887 -0.932464,0.603971 -0.438619,0.02511 -1.0526307,-0.652907 -1.3623051,-0.674707 -0.3096732,-0.0218 -0.1583175,0.02052 -0.32135,0.106103 -0.1630325,0.08558 -0.2867019,0.32328 -0.6097407,0.461141 -0.3230387,0.137857 -0.7848816,0.07993 -1.3265994,0.213564 -0.5417156,0.133636 -1.3437689,0.396832 -1.8992616,0.63934 -0.1138549,0.04971 -0.211739,0.106681 -0.3076171,0.164596 l 0,11.478646 33.9999999,0 0,-11.350778 c -0.180902,-0.137128 -0.612353,-0.277183 -1.005309,-0.541398 -0.784282,-0.527332 -2.458459,-1.707788 -3.225861,-2.05949 -0.767401,-0.351676 -0.887703,-0.392821 -1.182404,-0.355037 -0.2947,0.03778 -0.32228,0.236385 -0.465545,0.284302 -0.143266,0.04792 -0.0051,0.133703 -0.358429,0.03537 -0.353394,-0.09834 -0.948908,-0.779596 -1.470795,-1.10048 -0.521888,-0.320884 -1.20568,-0.703471 -1.647949,-0.816178 -0.221135,-0.05636 -0.342463,-0.08902 -0.460053,-0.09522 z"
           id="path4538" />
        <path
           id="path4540"
           d="m 29.101563,40.660156 c -0.350137,-0.0042 -0.272586,0.08658 -0.507813,0.175781 -0.235226,0.0892 -0.644231,0.18159 -0.898437,0.371094 -0.254206,0.189504 -0.405314,0.455325 -0.585938,0.722656 -0.180623,0.267331 -0.203721,0.651414 -0.488281,0.878906 -0.284559,0.227493 -0.804418,0.134543 -1.132812,0.332032 -0.328395,0.197488 -0.800782,0.742187 -0.78125,0.800781 0.01953,0.05859 -0.214844,1.503906 -0.46875,1.679688 -0.253907,0.175781 -0.93262,1.020268 -1.191407,1.484375 -0.258787,0.464106 -0.35556,0.890575 -0.429687,1.210937 C 22.54306,48.636768 22.539063,49 22.539063,49 c 0,0 0.186269,-0.691662 0.332031,-0.996094 0.145762,-0.304432 0.310659,-0.53468 0.527344,-0.820312 0.216684,-0.285633 0.722656,-0.742188 0.78125,-0.878907 0.05859,-0.136718 0.585565,-0.473883 0.761719,-0.800781 0.176153,-0.326898 0.02382,-0.799554 0.253906,-1.09375 0.230085,-0.294196 0.673488,-0.355173 0.996094,-0.507813 0.322605,-0.15264 0.628518,-0.390403 0.9375,-0.410156 0.308981,-0.01975 0.66944,-0.105156 0.800781,0.234375 0.131341,0.339531 -0.605469,1.09375 -0.703125,1.152344 -0.09766,0.05859 -0.543772,0.325275 -0.722656,0.605469 -0.178885,0.280194 -0.273438,0.9375 -0.273438,1.015625 0,0.07813 0.07813,0.78125 0.07813,0.78125 0,0 -0.0067,-0.642842 0.117188,-0.9375 0.123878,-0.294658 0.488281,-0.683594 0.605468,-0.761719 0.117188,-0.07813 0.761719,-0.507812 0.878907,-0.625 0.117187,-0.117187 0.820312,-0.566406 1.015625,-0.703125 0.195312,-0.136719 0.449218,-0.429688 0.722656,-0.585938 0.273437,-0.15625 0.488281,-0.585937 0.585937,-0.703125 0.09766,-0.117187 0.214844,-0.410156 0.566407,-0.3125 0.351562,0.09766 0.917968,0.488282 1.191406,0.703125 0.273437,0.214844 0.742187,0.566407 0.820312,0.839844 0.07813,0.273438 0.117188,0.410157 0.234375,0.78125 0.117188,0.371094 0.234376,0.898438 0.390626,1.09375 0.15625,0.195313 0.585937,0.507813 0.683593,0.566407 0.09766,0.05859 0.9375,0.488281 0.9375,0.488281 0,0 -0.721901,-0.604844 -0.976562,-0.957031 -0.254661,-0.352188 -0.449219,-0.878907 -0.546875,-1.113282 -0.09766,-0.234375 -0.175781,-0.78125 -0.273438,-0.917969 C 33.164063,44 32.96875,43.6875 32.910157,43.511718 32.851563,43.335937 32.734375,42.847656 32.558594,42.671875 32.382813,42.496093 31.914063,42.183593 31.71875,42.007812 31.523438,41.832031 30.761719,41.285156 30.566407,41.207031 30.371094,41.128906 29.4517,40.664369 29.101563,40.660156 Z"
           style="fill:#fafafa;fill-rule:evenodd;stroke:none;stroke-width:1px;stroke-linecap:butt;stroke-linejoin:miter;stroke-opacity:1" />
        <path
           id="path4542"
           d="m 33.867188,42.203125 c -0.154429,-0.02706 -0.221854,0.02976 -0.3125,0.09766 -0.09065,0.06789 -0.153821,0.165949 -0.195312,0.292969 -0.04149,0.12702 -0.07188,0.224416 -0.01953,0.449218 0.05234,0.224803 0.351563,0.761719 0.449219,0.820313 0.09766,0.05859 0.917969,0.683594 1.09375,0.820313 0.175781,0.136718 0.976563,0.820312 1.152344,0.9375 0.175781,0.117187 0.761719,0.644531 0.839844,0.839843 0.07813,0.195313 0.332031,0.625 0.46875,0.996094 0.136718,0.371094 0.390625,0.820313 0.449218,1.074219 0.05859,0.253906 0.175782,0.351562 0.15625,0.253906 -0.01953,-0.09766 -0.253906,-1.40625 -0.234375,-1.503906 0.01953,-0.09766 -0.01953,-0.761719 -0.09766,-0.917969 -0.07813,-0.15625 -0.351562,-0.703125 -0.410156,-0.9375 -0.05859,-0.234375 -0.3125,-0.78125 -0.3125,-0.878906 0,-0.09766 -0.175781,-0.332032 -0.292969,-0.488282 -0.117187,-0.15625 -0.490195,-0.411461 -0.703125,-0.566406 -0.21293,-0.154944 -0.253906,-0.117187 -0.566406,-0.371094 -0.3125,-0.253906 -0.878906,-0.449218 -0.976563,-0.546875 -0.09766,-0.09766 -0.333852,-0.344029 -0.488281,-0.371093 z"
           style="fill:#fafafa;fill-opacity:1;fill-rule:evenodd;stroke:none;stroke-width:1px;stroke-linecap:butt;stroke-linejoin:miter;stroke-opacity:1" />
        <path
           id="path4544"
           d="m 12.96875,43.375 c -0.37285,0.02484 -0.976562,0.429687 -1.09375,0.585937 -0.117187,0.15625 -0.520595,0.540572 -0.820312,0.859375 -0.299718,0.318803 -0.629395,0.741698 -0.976563,1.054688 -0.3471674,0.312989 -0.7538961,0.397424 -1.0937499,0.820312 -0.3398537,0.422889 -0.6523887,1.338467 -0.78125,1.71875 -0.1288613,0.380283 -0.1171875,0.507813 -0.1171875,0.507813 0,0 0.61381,-1.432118 0.9375,-1.796875 0.32369,-0.364757 0.46875,-0.429688 0.7421875,-0.507813 0.2734379,-0.07813 1.2499999,-0.859375 1.4453129,-1.015625 0.195312,-0.15625 0.78125,-0.507812 0.976562,-0.585937 0.195313,-0.07813 0.371149,-0.08098 0.664063,-0.117188 0.292913,-0.03621 0.748145,-0.07271 1.09375,-0.07813 0.345604,-0.0054 0.670096,-0.04288 0.976562,0.03906 0.306466,0.08194 0.820313,0.429687 0.820313,0.429687 0,0 -0.433967,-0.631898 -0.742188,-0.898437 -0.308221,-0.266539 -0.751825,-0.49796 -1.09375,-0.664063 -0.341924,-0.166102 -0.564649,-0.3764 -0.9375,-0.351562 z"
           style="fill:#fafafa;fill-rule:evenodd;stroke:none;stroke-width:1px;stroke-linecap:butt;stroke-linejoin:miter;stroke-opacity:1" />
        <path
           id="path4546"
           d="m 5.0000004,47.771428 c 0,0 1.2920649,-1.371428 2.109375,-1.371428 2.0094935,2.305896 2.570231,0.100028 4.2187496,0 4.736723,3.177465 9.82545,-0.428049 12.65625,-0.685716 2.009494,2.305898 2.570232,0.100029 4.21875,0 1.461219,0.01029 5.769641,1.33754 6.328126,1.37143 1.943083,-0.995867 2.434791,-1.936206 4.468749,0 l 0,8.914287 -33.9999996,0 z"
           style="color:#000000;clip-rule:nonzero;display:inline;overflow:visible;visibility:visible;opacity:0.8;isolation:auto;mix-blend-mode:normal;color-interpolation:sRGB;color-interpolation-filters:linearRGB;solid-color:#000000;solid-opacity:1;fill:#206b00;fill-opacity:1;fill-rule:nonzero;stroke:none;stroke-width:0.9999218;stroke-linecap:butt;stroke-linejoin:round;stroke-miterlimit:4;stroke-dasharray:none;stroke-dashoffset:0;stroke-opacity:1;marker:none;color-rendering:auto;image-rendering:auto;shape-rendering:auto;text-rendering:auto;enable-background:accumulate" />
        <path
           id="path4548"
           d="m 9.3750001,43.609375 c -0.2492669,0.01216 -0.6125562,0.576072 -1.1523437,0.722656 -0.5397876,0.146584 -0.7031251,1.464844 -0.7031251,1.464844 0,0 1.0816963,-1.004925 1.4257813,-1.210938 0.344085,-0.206012 0.6640625,-0.07813 0.859375,-0.07813 l 0.4687504,0 c 0,0 -0.239617,-0.356804 -0.3906254,-0.507812 C 9.7318045,43.848992 9.624267,43.597219 9.3750001,43.609375 Z"
           style="fill:#fafafa;fill-rule:evenodd;stroke:none;stroke-width:1px;stroke-linecap:butt;stroke-linejoin:miter;stroke-opacity:1" />
        <path
           id="path4550"
           d="m 5.0000004,49.333566 8.4374996,0 c 4.619896,0 12.772901,-1.355961 16.875,-1.333286 C 34.4146,48.022952 39,48.666922 39,48.666922 l 0,7.333079 -33.9999996,0 z"
           style="color:#000000;clip-rule:nonzero;display:inline;overflow:visible;visibility:visible;opacity:1;isolation:auto;mix-blend-mode:normal;color-interpolation:sRGB;color-interpolation-filters:linearRGB;solid-color:#000000;solid-opacity:1;fill:url(#linearGradient4558);fill-opacity:1;fill-rule:nonzero;stroke:none;stroke-width:0.9999218;stroke-linecap:butt;stroke-linejoin:round;stroke-miterlimit:4;stroke-dasharray:none;stroke-dashoffset:0;stroke-opacity:1;marker:none;color-rendering:auto;image-rendering:auto;shape-rendering:auto;text-rendering:auto;enable-background:accumulate" />
      </g>
      <rect
         width="27.000135"
         height="21"
         x="2.499929"
         y="6.5000005"
         id="rect3180"
         style="color:#000000;display:inline;overflow:visible;visibility:visible;opacity:0.3;fill:none;fill-opacity:1;fill-rule:nonzero;stroke:#000000;stroke-width:1.00000072;stroke-linecap:round;stroke-linejoin:miter;stroke-miterlimit:4;stroke-dasharray:none;stroke-dashoffset:0;stroke-opacity:1;marker:none;enable-background:accumulate" />
    </g>
    <g
       id="g4290">
      <path
         style="display:inline;fill:url(#linearGradient4221);fill-opacity:1;stroke:none"
         id="path4211"
         d="m 1,11.999792 c 5.2581931,0 22.999986,4.16e-4 22.999986,4.16e-4 L 24.000014,29 1,29 Z" />
      <path
         style="fill:none;stroke:url(#linearGradient4223);stroke-width:1;stroke-linecap:round;stroke-linejoin:round;stroke-miterlimit:4;stroke-dasharray:none;stroke-dashoffset:0;stroke-opacity:1"
         id="path4213"
         d="m 23.5,28.5 -22,0 0,-16 22,0 z" />
      <path
         style="display:inline;fill:none;stroke:url(#linearGradient4225);stroke-width:0.9999218;stroke-linecap:butt;stroke-linejoin:round;stroke-miterlimit:4;stroke-dasharray:none;stroke-dashoffset:0;stroke-opacity:1"
         id="path4215"
         d="M 0.49997182,11.499942 C 5.9334466,11.499942 24.499988,11.5 24.499988,11.5 l 2.4e-5,18.000053 -24.00004018,0 0,-17.999995 z" />
      <rect
         style="color:#000000;display:inline;overflow:visible;visibility:visible;fill:url(#linearGradient4227);fill-opacity:1;fill-rule:nonzero;stroke:none;stroke-width:1.00000072;stroke-linecap:round;stroke-linejoin:miter;stroke-miterlimit:4;stroke-dasharray:none;stroke-dashoffset:0;stroke-opacity:1;marker:none;enable-background:accumulate"
         id="rect4217"
         y="13"
         x="1.9999999"
         height="15"
         width="21" />
      <g
         id="g4245"
         transform="matrix(0.61764706,0,0,0.62499986,-1.0882352,-6.9999955)">
        <path
           id="path4247"
           d="m 29.183655,40.001088 c -0.11759,-0.0062 -0.232177,0.01418 -0.436706,0.05986 -0.409058,0.09135 -1.029779,0.440874 -1.432343,0.745442 -0.402565,0.304567 -0.618024,0.817243 -0.96817,1.029745 -0.350145,0.212501 -0.711372,0.193307 -1.003876,0.282942 -0.292502,0.08963 -0.337673,0.0686 -0.752563,0.248934 -0.41489,0.180341 -1.127018,0.670386 -1.685029,0.923641 -0.55801,0.253257 -1.092335,0.320622 -1.647948,0.602612 -0.555613,0.281989 -1.193202,0.881118 -1.649323,1.10048 -0.456121,0.219363 -0.694592,0.321342 -1.002503,0.31967 -0.307911,-0.0017 -0.142736,0.0205 -0.752563,-0.247574 -0.609828,-0.268075 -2.09952,-1.156309 -2.796021,-1.562981 -0.696501,-0.406672 -1.02391,-0.707847 -1.39801,-0.851546 -0.3741,-0.143679 -0.41833,-0.180099 -0.752563,-0.142831 -0.334234,0.03727 -0.799944,0.312124 -1.146699,0.497869 -0.346752,0.185745 -0.493845,0.57887 -0.932464,0.603971 -0.438619,0.02511 -1.0526307,-0.652907 -1.3623051,-0.674707 -0.3096732,-0.0218 -0.1583175,0.02052 -0.32135,0.106103 -0.1630325,0.08558 -0.2867019,0.32328 -0.6097407,0.461141 -0.3230387,0.137857 -0.7848816,0.07993 -1.3265994,0.213564 -0.5417156,0.133636 -1.3437689,0.396832 -1.8992616,0.63934 -0.1138549,0.04971 -0.211739,0.106681 -0.3076171,0.164596 l 0,11.478646 33.9999999,0 0,-11.350778 c -0.180902,-0.137128 -0.612353,-0.277183 -1.005309,-0.541398 -0.784282,-0.527332 -2.458459,-1.707788 -3.225861,-2.05949 -0.767401,-0.351676 -0.887703,-0.392821 -1.182404,-0.355037 -0.2947,0.03778 -0.32228,0.236385 -0.465545,0.284302 -0.143266,0.04792 -0.0051,0.133703 -0.358429,0.03537 -0.353394,-0.09834 -0.948908,-0.779596 -1.470795,-1.10048 -0.521888,-0.320884 -1.20568,-0.703471 -1.647949,-0.816178 -0.221135,-0.05636 -0.342463,-0.08902 -0.460053,-0.09522 z"
           style="fill:url(#linearGradient4261);fill-opacity:1;fill-rule:evenodd;stroke:none;stroke-width:1px;stroke-linecap:butt;stroke-linejoin:miter;stroke-opacity:1" />
        <path
           style="fill:#fafafa;fill-rule:evenodd;stroke:none;stroke-width:1px;stroke-linecap:butt;stroke-linejoin:miter;stroke-opacity:1"
           d="m 29.101563,40.660156 c -0.350137,-0.0042 -0.272586,0.08658 -0.507813,0.175781 -0.235226,0.0892 -0.644231,0.18159 -0.898437,0.371094 -0.254206,0.189504 -0.405314,0.455325 -0.585938,0.722656 -0.180623,0.267331 -0.203721,0.651414 -0.488281,0.878906 -0.284559,0.227493 -0.804418,0.134543 -1.132812,0.332032 -0.328395,0.197488 -0.800782,0.742187 -0.78125,0.800781 0.01953,0.05859 -0.214844,1.503906 -0.46875,1.679688 -0.253907,0.175781 -0.93262,1.020268 -1.191407,1.484375 -0.258787,0.464106 -0.35556,0.890575 -0.429687,1.210937 C 22.54306,48.636768 22.539063,49 22.539063,49 c 0,0 0.186269,-0.691662 0.332031,-0.996094 0.145762,-0.304432 0.310659,-0.53468 0.527344,-0.820312 0.216684,-0.285633 0.722656,-0.742188 0.78125,-0.878907 0.05859,-0.136718 0.585565,-0.473883 0.761719,-0.800781 0.176153,-0.326898 0.02382,-0.799554 0.253906,-1.09375 0.230085,-0.294196 0.673488,-0.355173 0.996094,-0.507813 0.322605,-0.15264 0.628518,-0.390403 0.9375,-0.410156 0.308981,-0.01975 0.66944,-0.105156 0.800781,0.234375 0.131341,0.339531 -0.605469,1.09375 -0.703125,1.152344 -0.09766,0.05859 -0.543772,0.325275 -0.722656,0.605469 -0.178885,0.280194 -0.273438,0.9375 -0.273438,1.015625 0,0.07813 0.07813,0.78125 0.07813,0.78125 0,0 -0.0067,-0.642842 0.117188,-0.9375 0.123878,-0.294658 0.488281,-0.683594 0.605468,-0.761719 0.117188,-0.07813 0.761719,-0.507812 0.878907,-0.625 0.117187,-0.117187 0.820312,-0.566406 1.015625,-0.703125 0.195312,-0.136719 0.449218,-0.429688 0.722656,-0.585938 0.273437,-0.15625 0.488281,-0.585937 0.585937,-0.703125 0.09766,-0.117187 0.214844,-0.410156 0.566407,-0.3125 0.351562,0.09766 0.917968,0.488282 1.191406,0.703125 0.273437,0.214844 0.742187,0.566407 0.820312,0.839844 0.07813,0.273438 0.117188,0.410157 0.234375,0.78125 0.117188,0.371094 0.234376,0.898438 0.390626,1.09375 0.15625,0.195313 0.585937,0.507813 0.683593,0.566407 0.09766,0.05859 0.9375,0.488281 0.9375,0.488281 0,0 -0.721901,-0.604844 -0.976562,-0.957031 -0.254661,-0.352188 -0.449219,-0.878907 -0.546875,-1.113282 -0.09766,-0.234375 -0.175781,-0.78125 -0.273438,-0.917969 C 33.164063,44 32.96875,43.6875 32.910157,43.511718 32.851563,43.335937 32.734375,42.847656 32.558594,42.671875 32.382813,42.496093 31.914063,42.183593 31.71875,42.007812 31.523438,41.832031 30.761719,41.285156 30.566407,41.207031 30.371094,41.128906 29.4517,40.664369 29.101563,40.660156 Z"
           id="path4249" />
        <path
           style="fill:#fafafa;fill-opacity:1;fill-rule:evenodd;stroke:none;stroke-width:1px;stroke-linecap:butt;stroke-linejoin:miter;stroke-opacity:1"
           d="m 33.867188,42.203125 c -0.154429,-0.02706 -0.221854,0.02976 -0.3125,0.09766 -0.09065,0.06789 -0.153821,0.165949 -0.195312,0.292969 -0.04149,0.12702 -0.07188,0.224416 -0.01953,0.449218 0.05234,0.224803 0.351563,0.761719 0.449219,0.820313 0.09766,0.05859 0.917969,0.683594 1.09375,0.820313 0.175781,0.136718 0.976563,0.820312 1.152344,0.9375 0.175781,0.117187 0.761719,0.644531 0.839844,0.839843 0.07813,0.195313 0.332031,0.625 0.46875,0.996094 0.136718,0.371094 0.390625,0.820313 0.449218,1.074219 0.05859,0.253906 0.175782,0.351562 0.15625,0.253906 -0.01953,-0.09766 -0.253906,-1.40625 -0.234375,-1.503906 0.01953,-0.09766 -0.01953,-0.761719 -0.09766,-0.917969 -0.07813,-0.15625 -0.351562,-0.703125 -0.410156,-0.9375 -0.05859,-0.234375 -0.3125,-0.78125 -0.3125,-0.878906 0,-0.09766 -0.175781,-0.332032 -0.292969,-0.488282 -0.117187,-0.15625 -0.490195,-0.411461 -0.703125,-0.566406 -0.21293,-0.154944 -0.253906,-0.117187 -0.566406,-0.371094 -0.3125,-0.253906 -0.878906,-0.449218 -0.976563,-0.546875 -0.09766,-0.09766 -0.333852,-0.344029 -0.488281,-0.371093 z"
           id="path4251" />
        <path
           style="fill:#fafafa;fill-rule:evenodd;stroke:none;stroke-width:1px;stroke-linecap:butt;stroke-linejoin:miter;stroke-opacity:1"
           d="m 12.96875,43.375 c -0.37285,0.02484 -0.976562,0.429687 -1.09375,0.585937 -0.117187,0.15625 -0.520595,0.540572 -0.820312,0.859375 -0.299718,0.318803 -0.629395,0.741698 -0.976563,1.054688 -0.3471674,0.312989 -0.7538961,0.397424 -1.0937499,0.820312 -0.3398537,0.422889 -0.6523887,1.338467 -0.78125,1.71875 -0.1288613,0.380283 -0.1171875,0.507813 -0.1171875,0.507813 0,0 0.61381,-1.432118 0.9375,-1.796875 0.32369,-0.364757 0.46875,-0.429688 0.7421875,-0.507813 0.2734379,-0.07813 1.2499999,-0.859375 1.4453129,-1.015625 0.195312,-0.15625 0.78125,-0.507812 0.976562,-0.585937 0.195313,-0.07813 0.371149,-0.08098 0.664063,-0.117188 0.292913,-0.03621 0.748145,-0.07271 1.09375,-0.07813 0.345604,-0.0054 0.670096,-0.04288 0.976562,0.03906 0.306466,0.08194 0.820313,0.429687 0.820313,0.429687 0,0 -0.433967,-0.631898 -0.742188,-0.898437 -0.308221,-0.266539 -0.751825,-0.49796 -1.09375,-0.664063 -0.341924,-0.166102 -0.564649,-0.3764 -0.9375,-0.351562 z"
           id="path4253" />
        <path
           style="color:#000000;clip-rule:nonzero;display:inline;overflow:visible;visibility:visible;opacity:0.8;isolation:auto;mix-blend-mode:normal;color-interpolation:sRGB;color-interpolation-filters:linearRGB;solid-color:#000000;solid-opacity:1;fill:#206b00;fill-opacity:1;fill-rule:nonzero;stroke:none;stroke-width:0.9999218;stroke-linecap:butt;stroke-linejoin:round;stroke-miterlimit:4;stroke-dasharray:none;stroke-dashoffset:0;stroke-opacity:1;marker:none;color-rendering:auto;image-rendering:auto;shape-rendering:auto;text-rendering:auto;enable-background:accumulate"
           d="m 5.0000004,48.32 c 0,0 1.2920649,-1.28 2.109375,-1.28 2.0094935,2.15217 2.570231,0.09336 4.2187496,0 4.736723,2.965634 9.82545,-0.399512 12.65625,-0.640001 2.009494,2.152171 2.570232,0.09336 4.21875,0 1.461219,0.0096 5.769641,1.24837 6.328126,1.280001 1.943083,-0.929476 2.434791,-1.807126 4.468749,0 l 0,8.320001 -33.9999996,0 z"
           id="path4255" />
        <path
           style="fill:#fafafa;fill-rule:evenodd;stroke:none;stroke-width:1px;stroke-linecap:butt;stroke-linejoin:miter;stroke-opacity:1"
           d="m 9.3750001,43.609375 c -0.2492669,0.01216 -0.6125562,0.576072 -1.1523437,0.722656 -0.5397876,0.146584 -0.7031251,1.464844 -0.7031251,1.464844 0,0 1.0816963,-1.004925 1.4257813,-1.210938 0.344085,-0.206012 0.6640625,-0.07813 0.859375,-0.07813 l 0.4687504,0 c 0,0 -0.239617,-0.356804 -0.3906254,-0.507812 C 9.7318045,43.848992 9.624267,43.597219 9.3750001,43.609375 Z"
           id="path4257" />
        <path
           style="color:#000000;clip-rule:nonzero;display:inline;overflow:visible;visibility:visible;opacity:1;isolation:auto;mix-blend-mode:normal;color-interpolation:sRGB;color-interpolation-filters:linearRGB;solid-color:#000000;solid-opacity:1;fill:url(#linearGradient4263);fill-opacity:1;fill-rule:nonzero;stroke:none;stroke-width:0.9999218;stroke-linecap:butt;stroke-linejoin:round;stroke-miterlimit:4;stroke-dasharray:none;stroke-dashoffset:0;stroke-opacity:1;marker:none;color-rendering:auto;image-rendering:auto;shape-rendering:auto;text-rendering:auto;enable-background:accumulate"
           d="m 5.0000004,49.333566 8.4374996,0 c 4.619896,0 12.772901,-1.355961 16.875,-1.333286 C 34.4146,48.022952 39,48.666922 39,48.666922 l 0,7.333079 -33.9999996,0 z"
           id="path4259" />
      </g>
      <rect
         style="color:#000000;display:inline;overflow:visible;visibility:visible;opacity:0.3;fill:none;fill-opacity:1;fill-rule:nonzero;stroke:#000000;stroke-width:1.0000006;stroke-linecap:round;stroke-linejoin:miter;stroke-miterlimit:4;stroke-dasharray:none;stroke-dashoffset:0;stroke-opacity:1;marker:none;enable-background:accumulate"
         id="rect4219"
         y="13.499423"
         x="2.5005777"
         height="14.001153"
         width="19.998844" />
    </g>
    <g
       transform="translate(-3.1006474e-6,-3.8910197e-6)"
       id="g4237">
      <path
         id="path107"
         d="m 17.5,12.5 0,6 6,0 -2,-2 8,-7.9999999 2,1.9999999 0,-6 -6,1e-7 2,2 L 19.5,14.5 Z"
         style="opacity:1;fill:url(#linearGradient167);fill-opacity:1;stroke:none;stroke-width:0.79069769;stroke-linecap:butt;stroke-linejoin:miter;stroke-miterlimit:4;stroke-dasharray:none;stroke-dashoffset:0;stroke-opacity:1;marker:none" />
      <path
         style="opacity:0.5;fill:none;fill-opacity:1;stroke:#ad5f00;stroke-width:0.99999994;stroke-linecap:butt;stroke-linejoin:miter;stroke-miterlimit:4;stroke-dasharray:none;stroke-dashoffset:0;stroke-opacity:1;marker:none"
         d="m 17.5,12.5 0,6 6,0 -2,-2 8,-7.9999999 2,1.9999999 0,-6 -6,1e-7 2,2 L 19.5,14.5 Z"
         id="path205" />
    </g>
  </g>
</svg>
