<?xml version="1.0" encoding="UTF-8" standalone="no"?>
<svg
   xmlns:dc="http://purl.org/dc/elements/1.1/"
   xmlns:cc="http://creativecommons.org/ns#"
   xmlns:rdf="http://www.w3.org/1999/02/22-rdf-syntax-ns#"
   xmlns:svg="http://www.w3.org/2000/svg"
   xmlns="http://www.w3.org/2000/svg"
   xmlns:xlink="http://www.w3.org/1999/xlink"
   xmlns:sodipodi="http://sodipodi.sourceforge.net/DTD/sodipodi-0.dtd"
   xmlns:inkscape="http://www.inkscape.org/namespaces/inkscape"
   id="svg2453"
   height="128.00006"
   width="128.00006"
   version="1.0"
   inkscape:version="0.92.2 (unknown)"
   sodipodi:docname="resizer-128.svg">
  <sodipodi:namedview
     pagecolor="#ffffff"
     bordercolor="#666666"
     borderopacity="1"
     objecttolerance="10"
     gridtolerance="10"
     guidetolerance="10"
     inkscape:pageopacity="0"
     inkscape:pageshadow="2"
     inkscape:window-width="2885"
     inkscape:window-height="2044"
     id="namedview72"
     showgrid="true"
     inkscape:zoom="8"
     inkscape:cx="114.19481"
     inkscape:cy="76.614456"
     inkscape:window-x="227"
     inkscape:window-y="60"
     inkscape:window-maximized="0"
     inkscape:current-layer="layer2"
     inkscape:snap-smooth-nodes="false"
     showguides="true"
     inkscape:guide-bbox="true"
     inkscape:snap-grids="true"
     inkscape:object-nodes="true">
    <inkscape:grid
       type="xygrid"
       id="grid4272"
       empspacing="4"
       enabled="true" />
    <inkscape:grid
       type="xygrid"
       id="grid4274"
       empspacing="2"
       spacingx="0.5"
       spacingy="0.5"
       color="#ff3fff"
       opacity="0.1254902"
       empcolor="#3fffff"
       empopacity="0.1254902" />
    <sodipodi:guide
       position="-14,9"
       orientation="0,1"
       id="guide1065"
       inkscape:locked="false"
       inkscape:label=""
       inkscape:color="rgb(0,0,255)" />
    <sodipodi:guide
       position="-4,104"
       orientation="0,1"
       id="guide1067"
       inkscape:locked="false"
       inkscape:label=""
       inkscape:color="rgb(255,0,2)" />
    <sodipodi:guide
       position="-10,64"
       orientation="0,1"
       id="guide1069"
       inkscape:locked="false"
       inkscape:label=""
       inkscape:color="rgb(0,255,35)" />
  </sodipodi:namedview>
  <metadata
     id="metadata35">
    <rdf:RDF>
      <cc:Work
         rdf:about="">
        <dc:format>image/svg+xml</dc:format>
        <dc:type
           rdf:resource="http://purl.org/dc/dcmitype/StillImage" />
        <dc:title />
      </cc:Work>
    </rdf:RDF>
  </metadata>
  <defs
     id="defs2455">
    <linearGradient
       id="linearGradient3462">
      <stop
         offset="0"
         style="stop-color:#ffffff;stop-opacity:1"
         id="stop3464" />
      <stop
         offset="0.03457849"
         style="stop-color:#ffffff;stop-opacity:0.23529412"
         id="stop3466" />
      <stop
         offset="0.96375686"
         style="stop-color:#ffffff;stop-opacity:0.15686275"
         id="stop3468" />
      <stop
         offset="1"
         style="stop-color:#ffffff;stop-opacity:0.39215687"
         id="stop3470" />
    </linearGradient>
    <linearGradient
       y2="42.703293"
       x2="8.915328"
       y1="5.2966995"
       x1="8.915328"
       gradientTransform="matrix(3.1081078,0,0,2.4594594,36.290198,11.973044)"
       gradientUnits="userSpaceOnUse"
       id="linearGradient3133"
       xlink:href="#linearGradient3462" />
    <radialGradient
       r="12.671875"
       fy="9.9571075"
       fx="7.1183534"
       cy="9.9571075"
       cx="7.1183534"
       gradientTransform="matrix(0,21.795969,-33.663904,0,401.68831,-174.34713)"
       gradientUnits="userSpaceOnUse"
       id="radialGradient3136"
       xlink:href="#linearGradient4215-8-4-07-7" />
    <linearGradient
       id="linearGradient4011-9-9-70-61-7">
      <stop
         id="stop4013-5-4-3-8-3"
         style="stop-color:#ffffff;stop-opacity:1;"
         offset="0" />
      <stop
         offset="0.507761"
         style="stop-color:#ffffff;stop-opacity:0.23529412;"
         id="stop4015-1-5-70-9-5" />
      <stop
         id="stop4017-7-0-13-0-1"
         style="stop-color:#ffffff;stop-opacity:0.15686275;"
         offset="0.83456558" />
      <stop
         id="stop4019-1-12-7-0-7"
         style="stop-color:#ffffff;stop-opacity:0.39215687;"
         offset="1" />
    </linearGradient>
    <linearGradient
       id="linearGradient4215-8-4-07-7">
      <stop
         style="stop-color:#2b3235;stop-opacity:1"
         offset="0"
         id="stop4217-1-2-1-2" />
      <stop
         style="stop-color:#374044;stop-opacity:1"
         offset="1"
         id="stop4219-3-4-0-96" />
    </linearGradient>
    <linearGradient
       xlink:href="#linearGradient4011-9-9-70-61-7"
       id="linearGradient14699-5"
       gradientUnits="userSpaceOnUse"
       gradientTransform="matrix(-0.37837833,0,0,0.37837833,38.14241,1.4053485)"
       x1="71.204407"
       y1="6.2375584"
       x2="71.204407"
       y2="44.340794" />
    <linearGradient
       xlink:href="#linearGradient4215-8-4-07-7"
       id="linearGradient14702-5"
       gradientUnits="userSpaceOnUse"
       gradientTransform="matrix(-0.41176471,0,0,0.41176471,24.17647,-2.9999995)"
       x1="38.976662"
       y1="59.967686"
       x2="38.976662"
       y2="8.0928917" />
    <clipPath
       id="clipPath10561"
       clipPathUnits="userSpaceOnUse">
      <rect
         ry="1.5"
         y="-111.00006"
         x="12"
         height="3"
         width="104"
         id="rect10563"
         style="opacity:0.4;fill:#ffffff;fill-opacity:1;stroke:none;stroke-width:2;stroke-linecap:round;stroke-linejoin:round;stroke-miterlimit:4;stroke-dasharray:none;stroke-opacity:1" />
    </clipPath>
    <radialGradient
       cx="7.4956999"
       cy="8.4497995"
       r="20"
       id="radialGradient3164-9"
       gradientUnits="userSpaceOnUse"
       gradientTransform="matrix(1.273594e-7,3.2957553,-5.3809239,0,77.467708,-19.382411)">
      <stop
         id="stop3244-8"
         style="stop-color:#f8b17e;stop-opacity:1"
         offset="0" />
      <stop
         id="stop3246-4"
         style="stop-color:#e35d4f;stop-opacity:1"
         offset="0.26238" />
      <stop
         id="stop3248-9"
         style="stop-color:#c6262e;stop-opacity:1"
         offset="0.66093999" />
      <stop
         id="stop3250-3"
         style="stop-color:#690b54;stop-opacity:1"
         offset="1" />
    </radialGradient>
    <radialGradient
       r="12.671875"
       fy="9.9571075"
       fx="6.2001843"
       cy="9.9571075"
       cx="6.7304144"
       gradientTransform="matrix(0,25.083279,-30.794253,0,372.81657,-199.0918)"
       gradientUnits="userSpaceOnUse"
       id="radialGradient5004-8"
       xlink:href="#radialGradient3164-9" />
    <linearGradient
       id="linearGradient3811">
      <stop
         id="stop3813"
         style="stop-color:#000000;stop-opacity:1"
         offset="0" />
      <stop
         id="stop3815"
         style="stop-color:#000000;stop-opacity:0"
         offset="1" />
    </linearGradient>
    <linearGradient
       id="linearGradient3702-501-757-0">
      <stop
         id="stop2895-0"
         style="stop-color:#181818;stop-opacity:0"
         offset="0" />
      <stop
         id="stop2897-2"
         style="stop-color:#181818;stop-opacity:1"
         offset="0.5" />
      <stop
         id="stop2899-6"
         style="stop-color:#181818;stop-opacity:0"
         offset="1" />
    </linearGradient>
    <linearGradient
       x1="25.058096"
       y1="47.027729"
       x2="25.058096"
       y2="39.999443"
       id="linearGradient4097"
       xlink:href="#linearGradient3702-501-757-0"
       gradientUnits="userSpaceOnUse" />
    <linearGradient
       id="linearGradient3688-464-309-8">
      <stop
         id="stop2889-9"
         style="stop-color:#181818;stop-opacity:1"
         offset="0" />
      <stop
         id="stop2891-4"
         style="stop-color:#181818;stop-opacity:0"
         offset="1" />
    </linearGradient>
    <radialGradient
       cx="4.9929786"
       cy="43.5"
       r="2.5"
       fx="4.9929786"
       fy="43.5"
       id="radialGradient4095"
       xlink:href="#linearGradient3688-464-309-8"
       gradientUnits="userSpaceOnUse"
       gradientTransform="matrix(2.003784,0,0,1.4,-20.01187,-104.4)" />
    <linearGradient
       id="linearGradient3688-166-749-5">
      <stop
         id="stop2883-0"
         style="stop-color:#181818;stop-opacity:1"
         offset="0" />
      <stop
         id="stop2885-5"
         style="stop-color:#181818;stop-opacity:0"
         offset="1" />
    </linearGradient>
    <radialGradient
       cx="4.9929786"
       cy="43.5"
       r="2.5"
       fx="4.9929786"
       fy="43.5"
       id="radialGradient4093"
       xlink:href="#linearGradient3688-166-749-5"
       gradientUnits="userSpaceOnUse"
       gradientTransform="matrix(2.003784,0,0,1.4,27.98813,-17.4)" />
    <radialGradient
       r="35.338131"
       fy="93.467628"
       fx="-4.0287771"
       cy="93.467628"
       cx="-4.0287771"
       gradientTransform="matrix(1.7403296,0,0,0.16978827,71.011392,101.13029)"
       gradientUnits="userSpaceOnUse"
       id="radialGradient5448"
       xlink:href="#linearGradient3811" />
    <radialGradient
       gradientTransform="matrix(0,25.083279,-30.794253,0,360.31658,-223.5918)"
       gradientUnits="userSpaceOnUse"
       xlink:href="#linearGradient2867-449-88-871-390-598-476-591-434-148-57-177-8-3-3-6-4-8-8-8-5"
       id="radialGradient3395"
       fy="9.9571075"
       fx="6.2001843"
       r="12.671875"
       cy="9.9571075"
       cx="6.7304144" />
    <linearGradient
       id="linearGradient2867-449-88-871-390-598-476-591-434-148-57-177-8-3-3-6-4-8-8-8-5">
      <stop
         offset="0"
         style="stop-color:#95a3ab;stop-opacity:1"
         id="stop3750-1-0-7-6-6-1-3-9-3" />
      <stop
         offset="0.26238"
         style="stop-color:#667885;stop-opacity:1"
         id="stop3752-3-7-4-0-32-8-923-0-7" />
      <stop
         offset="0.704952"
         style="stop-color:#485a6c;stop-opacity:1"
         id="stop3754-1-8-5-2-7-6-7-1-9" />
      <stop
         offset="1"
         style="stop-color:#273445;stop-opacity:1"
         id="stop3756-1-6-2-6-6-1-96-6-0" />
    </linearGradient>
    <linearGradient
       y2="42.437775"
       x2="40.290417"
       y1="5.4143372"
       x1="40.290417"
       gradientTransform="matrix(3.1081078,0,0,2.4594594,-16.594599,-13.027017)"
       gradientUnits="userSpaceOnUse"
       id="linearGradient3133-3"
       xlink:href="#linearGradient3462" />
    <radialGradient
       cx="19.53446"
       cy="40.430397"
       r="23.929714"
       fx="19.53446"
       fy="40.430397"
       id="radialGradient3846"
       xlink:href="#linearGradient3811"
       gradientUnits="userSpaceOnUse"
       gradientTransform="matrix(2.4655539,0,0,0.16715632,10.836681,112.24187)" />
    <linearGradient
       x1="-76.834877"
       y1="6.6805849"
       x2="-76.844345"
       y2="52.887863"
       id="linearGradient5168"
       xlink:href="#linearGradient4623-7-1"
       gradientUnits="userSpaceOnUse"
       gradientTransform="matrix(2.6500948,0.00149554,5.4314426e-4,1.9115384,321.11034,18.081973)" />
    <linearGradient
       id="linearGradient4623-7-1">
      <stop
         id="stop4625-3-5"
         style="stop-color:#000000;stop-opacity:0.27058825"
         offset="0" />
      <stop
         id="stop4627-1-0"
         style="stop-color:#000000;stop-opacity:0.368"
         offset="1" />
    </linearGradient>
    <linearGradient
       x1="25.132275"
       y1="0.98520643"
       x2="25.132275"
       y2="47.013336"
       id="linearGradient5165"
       xlink:href="#linearGradient3600-9-4"
       gradientUnits="userSpaceOnUse"
       gradientTransform="matrix(3.0857075,0,0,1.8903662,-11.056922,26.231272)" />
    <linearGradient
       id="linearGradient3600-9-4">
      <stop
         id="stop3602-0-5"
         style="stop-color:#f4f4f4;stop-opacity:1"
         offset="0" />
      <stop
         id="stop3604-9-98"
         style="stop-color:#dbdbdb;stop-opacity:1"
         offset="1" />
    </linearGradient>
    <linearGradient
       x1="41.19519"
       y1="5.5395665"
       x2="41.19519"
       y2="42.37582"
       id="linearGradient5157"
       xlink:href="#linearGradient3977-7-8"
       gradientUnits="userSpaceOnUse"
       gradientTransform="matrix(2.891892,0,0,2.3243242,-6.40539,18.72469)" />
    <linearGradient
       id="linearGradient3977-7-8">
      <stop
         id="stop3979-6-0"
         style="stop-color:#ffffff;stop-opacity:1"
         offset="0" />
      <stop
         id="stop3981-3-70"
         style="stop-color:#ffffff;stop-opacity:0.23529412"
         offset="0.00515018" />
      <stop
         id="stop3983-8-2"
         style="stop-color:#ffffff;stop-opacity:0.15686275"
         offset="0.99146652" />
      <stop
         id="stop3985-2-7"
         style="stop-color:#ffffff;stop-opacity:0.39215687"
         offset="1" />
    </linearGradient>
    <linearGradient
       x1="-96.557358"
       y1="110.92493"
       x2="-96.557358"
       y2="39.991924"
       id="linearGradient5351"
       xlink:href="#linearGradient3825-5-8-1"
       gradientUnits="userSpaceOnUse"
       gradientTransform="matrix(0.63152836,0,0,0.6401138,145.17377,51.03989)" />
    <linearGradient
       id="linearGradient3825-5-8-1">
      <stop
         id="stop3827-2-3-5"
         style="stop-color:#e89c42;stop-opacity:1"
         offset="0" />
      <stop
         id="stop3829-5-0-5"
         style="stop-color:#faca67;stop-opacity:1"
         offset="1" />
    </linearGradient>
    <linearGradient
       x1="-107.45584"
       y1="-37.385227"
       x2="-107.45584"
       y2="38.561256"
       id="linearGradient5346"
       xlink:href="#linearGradient3871-6-7"
       gradientUnits="userSpaceOnUse"
       gradientTransform="matrix(0.63152836,0,0,0.6401138,145.17377,51.03989)" />
    <linearGradient
       id="linearGradient3871-6-7">
      <stop
         id="stop3873-3-2"
         style="stop-color:#0b85e9;stop-opacity:1"
         offset="0" />
      <stop
         id="stop3875-4-0"
         style="stop-color:#69d1ef;stop-opacity:1"
         offset="1" />
    </linearGradient>
    <linearGradient
       gradientTransform="matrix(0.4098604,0.03221134,-0.03379884,0.39252612,124.95362,67.52802)"
       x1="-211.28862"
       y1="88.750069"
       x2="-208.49672"
       y2="75.190559"
       id="linearGradient5192-6"
       xlink:href="#linearGradient4470-8-1"
       gradientUnits="userSpaceOnUse" />
    <linearGradient
       id="linearGradient4470-8-1">
      <stop
         id="stop4472-33-4"
         style="stop-color:#ec4502;stop-opacity:1"
         offset="0" />
      <stop
         id="stop4474-2-1"
         style="stop-color:#fe7617;stop-opacity:1"
         offset="1" />
    </linearGradient>
    <linearGradient
       x1="-184.92441"
       y1="113.97943"
       x2="-175.25337"
       y2="88.801025"
       id="linearGradient5194-7"
       xlink:href="#linearGradient4574-1-9"
       gradientUnits="userSpaceOnUse"
       gradientTransform="matrix(0.40474014,0,0,0.4102096,106.85556,58.79519)" />
    <linearGradient
       id="linearGradient4574-1-9">
      <stop
         id="stop4576-8-3"
         style="stop-color:#7a0f01;stop-opacity:1"
         offset="0" />
      <stop
         id="stop4578-4-4"
         style="stop-color:#d31807;stop-opacity:1"
         offset="1" />
    </linearGradient>
    <linearGradient
       x1="61.998196"
       y1="133.73186"
       x2="50.634743"
       y2="118.53167"
       id="linearGradient6278"
       xlink:href="#linearGradient6272"
       gradientUnits="userSpaceOnUse"
       gradientTransform="translate(-3.0000003,-66.999928)"
       spreadMethod="reflect" />
    <linearGradient
       id="linearGradient6272">
      <stop
         id="stop6274"
         style="stop-color:#ffffff;stop-opacity:1"
         offset="0" />
      <stop
         id="stop6276"
         style="stop-color:#ffffff;stop-opacity:0.54320985"
         offset="1" />
    </linearGradient>
    <linearGradient
       x1="61.998196"
       y1="138.73186"
       x2="67.634743"
       y2="121.53167"
       id="linearGradient6393"
       xlink:href="#linearGradient6272"
       gradientUnits="userSpaceOnUse"
       gradientTransform="translate(-3.0000003,-66.999928)"
       spreadMethod="reflect" />
    <linearGradient
       x1="91.566116"
       y1="16.542858"
       x2="91.566116"
       y2="48.631081"
       id="linearGradient4092"
       xlink:href="#linearGradient4220-7"
       gradientUnits="userSpaceOnUse"
       gradientTransform="matrix(1.1541889,0,0,1.1541889,83.215684,52.40648)" />
    <linearGradient
       id="linearGradient4220-7">
      <stop
         id="stop4222-7"
         style="stop-color:#7a8498;stop-opacity:1"
         offset="0" />
      <stop
         id="stop4224-0"
         style="stop-color:#34405c;stop-opacity:1"
         offset="1" />
    </linearGradient>
    <linearGradient
       x1="92.696327"
       y1="16.554602"
       x2="92.696327"
       y2="48.983677"
       id="linearGradient4088"
       xlink:href="#linearGradient4316-5"
       gradientUnits="userSpaceOnUse"
       gradientTransform="matrix(1.0918003,0,0,1.0918003,52.460786,13.447173)" />
    <linearGradient
       id="linearGradient4316-5">
      <stop
         id="stop4318-1"
         style="stop-color:#ffffff;stop-opacity:1"
         offset="0" />
      <stop
         id="stop4320-9"
         style="stop-color:#ffffff;stop-opacity:0.23529412"
         offset="0.33799788" />
      <stop
         id="stop4322-42"
         style="stop-color:#ffffff;stop-opacity:0.15686275"
         offset="0.61996669" />
      <stop
         id="stop4324-9"
         style="stop-color:#ffffff;stop-opacity:0.39215687"
         offset="1" />
    </linearGradient>
    <linearGradient
       x1="91.566116"
       y1="16.542858"
       x2="91.566116"
       y2="48.631081"
       id="linearGradient4092-3"
       xlink:href="#linearGradient4220-7"
       gradientUnits="userSpaceOnUse"
       gradientTransform="matrix(1.1541889,0,0,1.1541889,-87.784314,-19.084977)" />
    <linearGradient
       inkscape:collect="always"
       xlink:href="#linearGradient4220-7"
       id="linearGradient1370"
       gradientUnits="userSpaceOnUse"
       gradientTransform="matrix(1.1541889,0,0,1.1541889,79.215684,52.40648)"
       x1="91.566116"
       y1="16.542858"
       x2="91.566116"
       y2="48.631081" />
    <clipPath
       clipPathUnits="userSpaceOnUse"
       id="clipPath1520">
      <rect
         style="opacity:1;vector-effect:none;fill:#ff0000;fill-opacity:1;stroke:none;stroke-width:0.78099543;stroke-linecap:butt;stroke-linejoin:miter;stroke-miterlimit:4;stroke-dasharray:none;stroke-dashoffset:0;stroke-opacity:1;marker:none"
         id="rect1522"
         width="80"
         height="60"
         x="16"
         y="51.000061" />
    </clipPath>
    <linearGradient
       x1="91.566116"
       y1="16.542858"
       x2="91.566116"
       y2="48.631081"
       id="linearGradient4092-9"
       xlink:href="#linearGradient4220-7"
       gradientUnits="userSpaceOnUse"
       gradientTransform="matrix(1.1541889,0,0,1.1541889,-48.159316,5.593919)" />
    <radialGradient
       cx="19.53446"
       cy="40.430397"
       r="23.929714"
       fx="19.53446"
       fy="40.430397"
       id="radialGradient3846-3"
       xlink:href="#linearGradient3811"
       gradientUnits="userSpaceOnUse"
       gradientTransform="matrix(2.4655539,0,0,0.16715632,59.211714,83.992625)" />
    <linearGradient
       x1="-76.834877"
       y1="6.6805849"
       x2="-76.844345"
       y2="52.887863"
       id="linearGradient5168-6"
       xlink:href="#linearGradient4623-7-1"
       gradientUnits="userSpaceOnUse"
       gradientTransform="matrix(2.6500948,0.00149554,5.4314426e-4,1.9115384,370.48532,-10.167278)" />
    <linearGradient
       x1="25.132275"
       y1="0.98520643"
       x2="25.132275"
       y2="47.013336"
       id="linearGradient5165-3"
       xlink:href="#linearGradient3600-9-4"
       gradientUnits="userSpaceOnUse"
       gradientTransform="matrix(3.0857075,0,0,1.8903662,38.318056,-2.0179792)" />
    <linearGradient
       x1="41.19519"
       y1="5.5395665"
       x2="41.19519"
       y2="42.37582"
       id="linearGradient5157-2"
       xlink:href="#linearGradient3977-7-8"
       gradientUnits="userSpaceOnUse"
       gradientTransform="matrix(2.891892,0,0,2.3243242,42.969588,-9.5245611)" />
    <linearGradient
       x1="-96.557358"
       y1="110.92493"
       x2="-96.557358"
       y2="39.991924"
       id="linearGradient5351-0"
       xlink:href="#linearGradient3825-5-8-1"
       gradientUnits="userSpaceOnUse"
       gradientTransform="matrix(0.63152836,0,0,0.6401138,194.54875,22.790639)" />
    <linearGradient
       x1="-107.45584"
       y1="-37.385227"
       x2="-107.45584"
       y2="38.561256"
       id="linearGradient5346-6"
       xlink:href="#linearGradient3871-6-7"
       gradientUnits="userSpaceOnUse"
       gradientTransform="matrix(0.63152836,0,0,0.6401138,194.54875,22.790639)" />
    <linearGradient
       x1="-211.28862"
       y1="88.750069"
       x2="-208.49672"
       y2="75.190559"
       id="linearGradient5192-6-2"
       xlink:href="#linearGradient4470-8-1"
       gradientUnits="userSpaceOnUse"
       gradientTransform="matrix(0.4098604,0.03221134,-0.03379884,0.39252612,174.32859,39.278769)" />
    <linearGradient
       x1="-184.92441"
       y1="113.97943"
       x2="-175.25337"
       y2="88.801025"
       id="linearGradient5194-7-8"
       xlink:href="#linearGradient4574-1-9"
       gradientUnits="userSpaceOnUse"
       gradientTransform="matrix(0.40474014,0,0,0.4102096,156.23053,30.545939)" />
    <linearGradient
       x1="61.998196"
       y1="133.73186"
       x2="50.634743"
       y2="118.53167"
       id="linearGradient6278-2"
       xlink:href="#linearGradient6272"
       gradientUnits="userSpaceOnUse"
       gradientTransform="translate(46.374977,-95.249175)"
       spreadMethod="reflect" />
    <linearGradient
       x1="61.998196"
       y1="138.73186"
       x2="67.634743"
       y2="121.53167"
       id="linearGradient6393-3"
       xlink:href="#linearGradient6272"
       gradientUnits="userSpaceOnUse"
       gradientTransform="translate(46.374977,-95.249175)"
       spreadMethod="reflect" />
    <radialGradient
       cx="19.53446"
       cy="40.430397"
       r="23.929714"
       fx="19.53446"
       fy="40.430397"
       id="radialGradient3846-5"
       xlink:href="#linearGradient3811"
       gradientUnits="userSpaceOnUse"
       gradientTransform="matrix(2.4655539,0,0,0.16715632,9.815799,111.84989)" />
    <linearGradient
       x1="-76.834877"
       y1="6.6805849"
       x2="-76.844345"
       y2="52.887863"
       id="linearGradient5168-9"
       xlink:href="#linearGradient4623-7-1"
       gradientUnits="userSpaceOnUse"
       gradientTransform="matrix(2.6500948,0.00149554,5.4314426e-4,1.9115384,321.08941,17.689994)" />
    <linearGradient
       x1="25.132275"
       y1="0.98520643"
       x2="25.132275"
       y2="47.013336"
       id="linearGradient5165-8"
       xlink:href="#linearGradient3600-9-4"
       gradientUnits="userSpaceOnUse"
       gradientTransform="matrix(3.0857075,0,0,1.8903662,-11.077856,25.839293)" />
    <linearGradient
       x1="41.19519"
       y1="5.5395665"
       x2="41.19519"
       y2="42.37582"
       id="linearGradient5157-3"
       xlink:href="#linearGradient3977-7-8"
       gradientUnits="userSpaceOnUse"
       gradientTransform="matrix(2.891892,0,0,2.3243242,-6.426327,18.332711)" />
    <linearGradient
       x1="-96.557358"
       y1="110.92493"
       x2="-96.557358"
       y2="39.991924"
       id="linearGradient5351-3"
       xlink:href="#linearGradient3825-5-8-1"
       gradientUnits="userSpaceOnUse"
       gradientTransform="matrix(0.63152836,0,0,0.6401138,145.15284,50.647911)" />
    <linearGradient
       x1="-107.45584"
       y1="-37.385227"
       x2="-107.45584"
       y2="38.561256"
       id="linearGradient5346-4"
       xlink:href="#linearGradient3871-6-7"
       gradientUnits="userSpaceOnUse"
       gradientTransform="matrix(0.63152836,0,0,0.6401138,145.15284,50.647911)" />
    <linearGradient
       x1="-211.28862"
       y1="88.750069"
       x2="-208.49672"
       y2="75.190559"
       id="linearGradient5192-6-4"
       xlink:href="#linearGradient4470-8-1"
       gradientUnits="userSpaceOnUse"
       gradientTransform="matrix(0.4098604,0.03221134,-0.03379884,0.39252612,124.93268,67.136041)" />
    <linearGradient
       x1="-184.92441"
       y1="113.97943"
       x2="-175.25337"
       y2="88.801025"
       id="linearGradient5194-7-3"
       xlink:href="#linearGradient4574-1-9"
       gradientUnits="userSpaceOnUse"
       gradientTransform="matrix(0.40474014,0,0,0.4102096,106.83462,58.403211)" />
    <linearGradient
       x1="61.998196"
       y1="133.73186"
       x2="50.634743"
       y2="118.53167"
       id="linearGradient6278-0"
       xlink:href="#linearGradient6272"
       gradientUnits="userSpaceOnUse"
       gradientTransform="translate(-3.020937,-67.391903)"
       spreadMethod="reflect" />
    <linearGradient
       x1="61.998196"
       y1="138.73186"
       x2="67.634743"
       y2="121.53167"
       id="linearGradient6393-2"
       xlink:href="#linearGradient6272"
       gradientUnits="userSpaceOnUse"
       gradientTransform="translate(-3.020937,-67.391903)"
       spreadMethod="reflect" />
    <linearGradient
       inkscape:collect="always"
       xlink:href="#linearGradient4220-7"
       id="linearGradient1571-4"
       gradientUnits="userSpaceOnUse"
       gradientTransform="matrix(1.1541888,0,0,1.1541889,-87.784301,-19.093578)"
       x1="91.566116"
       y1="16.542858"
       x2="91.566116"
       y2="48.631081" />
    <linearGradient
       inkscape:collect="always"
       xlink:href="#linearGradient4220-7"
       id="linearGradient1298"
       gradientUnits="userSpaceOnUse"
       gradientTransform="matrix(1.1541888,0,0,1.1541889,64.215699,11.906479)"
       x1="37.068718"
       y1="11.344401"
       x2="37.068718"
       y2="41.993629" />
    <linearGradient
       x1="92.696327"
       y1="16.554602"
       x2="92.696327"
       y2="48.983677"
       id="linearGradient4088-9"
       xlink:href="#linearGradient4316-5"
       gradientUnits="userSpaceOnUse"
       gradientTransform="matrix(1.0918003,0,0,1.0918003,-82.539212,-17.553135)" />
  </defs>
  <g
     inkscape:groupmode="layer"
     id="layer3"
     inkscape:label="reference"
     style="display:inline" />
  <g
     inkscape:groupmode="layer"
     id="layer1"
     inkscape:label="picture"
     style="display:inline">
    <path
       inkscape:connector-curvature="0"
       style="display:inline;color:#000000;overflow:visible;visibility:visible;opacity:0.2;fill:url(#radialGradient3846-5);fill-opacity:1;fill-rule:nonzero;stroke:none;stroke-width:0.99992174;marker:none;enable-background:accumulate"
       id="path5050-4"
       d="m 116.97906,118.60807 a 59.000002,4.0000031 0 0 1 -117.999997,0 59.000002,4.0000031 0 1 1 117.999997,0 z" />
    <g
       style="display:inline"
       id="g1195"
       transform="translate(0.02088193,0.39198011)">
      <path
         d="M 117.47915,118.10812 H 8.479079 V 30.107875 H 117.47915 Z"
         id="rect6741-1-2-0-1"
         style="color:#000000;display:inline;overflow:visible;visibility:visible;fill:none;stroke:url(#linearGradient5168-9);stroke-width:0.99992186;stroke-linecap:butt;stroke-linejoin:round;stroke-miterlimit:4;stroke-dasharray:none;stroke-dashoffset:0;stroke-opacity:1;marker:none;enable-background:accumulate"
         inkscape:connector-curvature="0" />
      <path
         d="m 8.979119,30.608104 c 24.748282,0 107.999871,0.0054 107.999871,0.0054 l 1.2e-4,86.994576 c 0,0 -71.999986,0 -107.999992,0 0,-28.999967 0,-57.999949 0,-86.999941 z"
         id="path4160-9-6"
         style="display:inline;fill:url(#linearGradient5165-8);fill-opacity:1;stroke:none"
         inkscape:connector-curvature="0" />
      <path
         d="M 116.47906,117.11645 H 9.479063 V 31.116473 H 116.47906 Z"
         id="rect6741-1-2-83"
         style="fill:none;stroke:url(#linearGradient5157-3);stroke-width:0.99999994;stroke-linecap:round;stroke-linejoin:miter;stroke-miterlimit:4;stroke-dasharray:none;stroke-dashoffset:0;stroke-opacity:1"
         inkscape:connector-curvature="0" />
      <path
         d="M 14.979063,36.608101 V 111.60809 H 110.97906 V 36.608101 Z"
         id="rect3055-2-9-2"
         style="color:#000000;display:inline;overflow:visible;visibility:visible;fill:url(#linearGradient5351-3);fill-opacity:1;fill-rule:nonzero;stroke:none;stroke-width:10;marker:none;enable-background:accumulate"
         inkscape:connector-curvature="0" />
      <path
         d="m 14.979063,36.874891 v 43.525802 c 2.2182,0.55868 4.97926,0.99508 8.23636,0.99508 4.43124,0 6.75498,-0.81346 8.45454,-1.54791 1.69958,-0.73445 2.66276,-1.32678 6.05456,-1.32678 3.23728,0 5.86366,1.07814 9.10908,2.26658 3.24544,1.18845 7.06392,2.43244 12.27274,2.43244 6.470139,0 10.66028,-2.06328 14.12726,-3.98035 3.46696,-1.91706 6.14084,-3.59336 10.472739,-3.59336 3.421181,0 4.955181,0.83342 7.090901,1.8796 2.135697,1.04619 4.825457,2.26659 9.272717,2.26659 5.59534,0 8.15014,-2.06662 10.9091,-3.37224 V 36.874891 Z"
         id="path4084-9-2"
         style="color:#000000;display:inline;overflow:visible;visibility:visible;opacity:0.05;fill:#000000;fill-opacity:1;fill-rule:nonzero;stroke:none;stroke-width:10;marker:none;enable-background:accumulate"
         inkscape:connector-curvature="0" />
      <path
         d="m 14.979063,37.875061 v 41.591352 c 2.14426,0.57787 4.92488,1.05037 8.23636,1.05037 8.4432,0 7.23856,-2.87469 14.5091,-2.87469 7.27052,0 11.55298,4.69901 21.38182,4.69901 12.17418,0 14.967919,-7.57371 24.599999,-7.57371 7.521261,0 8.08594,4.14619 16.363618,4.14619 5.59196,0 7.44904,-2.17815 10.9091,-3.59336 V 37.875061 Z"
         id="rect3055-2-6-9-0-5"
         style="color:#000000;display:inline;overflow:visible;visibility:visible;opacity:0.15;fill:#000000;fill-opacity:1;fill-rule:nonzero;stroke:none;stroke-width:10;marker:none;enable-background:accumulate"
         inkscape:connector-curvature="0" />
      <path
         d="m 14.979063,36.608101 v 38.273962 c 1.42546,0.66618 3.23054,1.2715 5.18182,1.2715 4.45614,0 8.81396,-3.64865 16.25454,-3.64865 7.440579,0 13.036839,4.58845 22.418179,4.58845 9.381341,0 11.49272,-6.633912 23.45456,-6.633912 11.961798,0 10.836998,4.201482 18.327258,4.201482 5.15944,0 7.36284,-1.82636 10.36364,-2.98526 V 36.608101 Z"
         id="path3867-3-5-1"
         style="fill:url(#linearGradient5346-4);fill-opacity:1;stroke:none"
         inkscape:connector-curvature="0" />
      <path
         d="m 82.288162,69.032361 c -6.283879,0 -10.23664,1.80338 -13.472739,3.482802 -3.2361,1.67942 -5.677441,3.1511 -9.981821,3.1511 -4.423479,0 -7.919559,-1.07118 -11.399999,-2.2113 -3.480441,-1.14011 -6.96102,-2.377152 -11.01818,-2.377152 -3.988161,0 -7.194521,0.950762 -9.81818,1.879612 -2.62366,0.92884 -4.65558,1.76904 -6.43636,1.76904 -1.61236,0 -3.18402,-0.55867 -4.47272,-1.16093 a 1.6611221,1.6835697 0 0 0 -0.7091,-0.16585 v 7.24201 c 2.20876,0.56018 4.9795,0.99509 8.23636,0.99509 4.4076,0 6.65002,-0.81524 8.34546,-1.54792 1.69544,-0.73266 2.74436,-1.32678 6.16364,-1.32678 3.2822,0 5.9224,1.07969 9.16364,2.26659 3.2412,1.1869 7.04258,2.43243 12.21818,2.43243 6.42692,0 10.61058,-2.06594 14.07272,-3.98034 3.46214,-1.9144 6.14076,-3.59337 10.52728,-3.59337 3.45948,0 5.06648,0.88979 7.2,1.93489 2.133477,1.0451 4.751157,2.2113 9.163617,2.2113 5.61918,0 8.08214,-2.11303 10.9091,-3.42751 v -6.357502 a 1.6611221,1.6835697 0 0 0 -0.6,0.11055 c -3.29058,1.270822 -4.99094,2.874702 -9.76364,2.874702 -3.43872,0 -4.51192,-0.83499 -6.76364,-1.93489 -2.251717,-1.099902 -5.390857,-2.266592 -11.563617,-2.266592 z"
         id="path4213-1-3"
         style="color:#000000;display:inline;overflow:visible;visibility:visible;opacity:0.1;fill:#ffffff;fill-opacity:1;fill-rule:nonzero;stroke:none;stroke-width:10;marker:none;enable-background:accumulate"
         inkscape:connector-curvature="0" />
      <path
         d="m 82.288162,69.691311 c -11.96184,0 -14.073219,6.633902 -23.45456,6.633902 -9.38134,0 -14.9776,-4.58845 -22.418179,-4.58845 -7.440581,0 -11.798401,3.64865 -16.25454,3.64865 -1.95128,0 -3.75636,-0.60532 -5.181821,-1.2715 v 3.8145 c 2.14426,0.57786 4.924881,1.05036 8.23636,1.05036 8.4432,0 7.23856,-2.87469 14.5091,-2.87469 7.27052,0 11.55298,4.69902 21.38182,4.69902 12.17418,0 14.96792,-7.57371 24.6,-7.57371 7.521261,0 8.08594,4.14619 16.363618,4.14619 5.59196,0 7.44904,-2.17815 10.9091,-3.59336 v -2.874702 c -3.0008,1.158902 -5.2042,2.985262 -10.36364,2.985262 -7.49026,0 -6.36546,-4.201472 -18.327258,-4.201472 z"
         id="rect3055-2-6-94-0-3"
         style="color:#000000;display:inline;overflow:visible;visibility:visible;opacity:0.3;fill:#ffffff;fill-opacity:1;fill-rule:nonzero;stroke:none;stroke-width:10;marker:none;enable-background:accumulate"
         inkscape:connector-curvature="0" />
      <path
         d="m 82.288162,70.459451 c -11.96184,0 -14.073219,6.633912 -23.45456,6.633912 -9.38134,0 -14.9776,-4.58845 -22.418179,-4.58845 -7.440581,0 -11.798401,3.64865 -16.25454,3.64865 -1.95128,0 -3.75636,-0.60532 -5.181821,-1.2715 v 3.81449 c 2.14426,0.57787 4.924881,1.05037 8.23636,1.05037 8.4432,0 7.23856,-2.87469 14.5091,-2.87469 7.27052,0 11.55298,4.69902 21.38182,4.69902 12.17418,0 14.96792,-7.57371 24.6,-7.57371 7.521261,0 8.08594,4.14619 16.363618,4.14619 5.59196,0 7.44904,-2.17815 10.9091,-3.59337 v -2.87469 c -3.0008,1.1589 -5.2042,2.98526 -10.36364,2.98526 -7.49026,0 -6.36546,-4.201482 -18.327258,-4.201482 z"
         id="rect3055-2-6-8-2"
         style="color:#000000;display:inline;overflow:visible;visibility:visible;fill:#ffffff;fill-opacity:1;fill-rule:nonzero;stroke:none;stroke-width:10;marker:none;enable-background:accumulate"
         inkscape:connector-curvature="0" />
      <path
         d="m 32.439808,83.392423 c -0.161349,-0.0125 -0.343429,-0.002 -0.520775,0.0579 -0.696901,0.23653 -0.823146,0.75259 -0.920061,1.10089 -0.09692,0.34829 -0.136922,0.69689 -0.1591,1.09894 -0.04436,0.80411 -0.01,1.78164 0.03344,2.75656 0.04341,0.97491 0.09827,1.94785 0.102757,2.70025 0.0022,0.3762 -0.0038,0.70144 -0.02693,0.91175 -0.0021,0.0191 -0.01252,0.0184 -0.01596,0.0358 -0.0081,0.004 -0.0053,0.008 -0.01384,0.0113 -0.195528,0.0734 -0.505224,0.17107 -0.873854,0.26476 -0.737266,0.18737 -1.71455,0.38372 -2.681514,0.59197 -0.966965,0.20824 -1.927671,0.41981 -2.70066,0.66456 -0.386496,0.12238 -0.723732,0.25323 -1.043395,0.43668 -0.159834,0.0917 -0.321687,0.18964 -0.48314,0.36956 -0.161454,0.17992 -0.328169,0.49115 -0.318346,0.85179 0.0193,0.70874 0.485081,0.97908 0.80151,1.17444 0.31643,0.19536 0.661884,0.33432 1.054893,0.47809 0.786019,0.28753 1.757269,0.56038 2.74042,0.82049 0.98315,0.26011 1.972507,0.505367 2.722196,0.732617 0.374845,0.11363 0.686357,0.23106 0.888254,0.3168 0.02524,0.0107 0.02794,0.0167 0.04912,0.0286 3.47e-4,0.006 -0.0014,0.007 -0.0011,0.0123 0.01244,0.20102 0.01,0.51089 -0.01095,0.87595 -0.04186,0.73011 -0.146555,1.67807 -0.238817,2.62401 -0.09214,0.94596 -0.169258,1.88663 -0.165158,2.66685 0.0021,0.39012 0.01693,0.73442 0.100232,1.08228 0.04165,0.17393 0.09383,0.35826 0.222497,0.56086 0.128665,0.2026 0.377571,0.44962 0.739047,0.55206 0.709122,0.20096 1.11958,-0.14319 1.411663,-0.37068 0.292084,-0.2275 0.539395,-0.48818 0.803999,-0.80128 0.529207,-0.62618 1.099886,-1.42646 1.662921,-2.2404 0.563034,-0.81394 1.11631,-1.64791 1.574319,-2.25971 0.229006,-0.3059 0.441826,-0.54973 0.589563,-0.70698 0.01704,-0.0181 0.02463,-0.0191 0.04157,-0.0338 0.0027,-0.002 0.01,0.003 0.01279,10e-4 0.203256,0.0504 0.510162,0.14681 0.865806,0.27798 0.711293,0.26234 1.619423,0.65189 2.529286,1.02619 0.909863,0.37431 1.823191,0.73406 2.598607,0.9699 0.387708,0.11792 0.729525,0.21607 1.100577,0.24703 0.185538,0.0154 0.381454,0.0174 0.622184,-0.0376 0.240731,-0.0549 0.564368,-0.19748 0.777594,-0.49461 0.418701,-0.58346 0.218835,-1.0776 0.08306,-1.41366 -0.135796,-0.33605 -0.330888,-0.64554 -0.560135,-0.98258 -0.458489,-0.67407 -1.084801,-1.43512 -1.719217,-2.19747 -0.634415,-0.762347 -1.272382,-1.520207 -1.738362,-2.124877 -0.23299,-0.30234 -0.431393,-0.56388 -0.541778,-0.7465 -0.01,-0.0165 -0.0018,-0.0219 -0.0096,-0.0378 0.0055,-0.01 -0.0043,-0.0149 0.0021,-0.0245 0.113172,-0.16962 0.309413,-0.41418 0.550082,-0.69773 0.481335,-0.56712 1.155127,-1.28079 1.809359,-1.99426 0.654232,-0.71347 1.288515,-1.426 1.763407,-2.05961 0.237446,-0.31681 0.437101,-0.6014 0.582958,-0.9298 0.07293,-0.1642 0.13304,-0.34444 0.153163,-0.58073 0.02012,-0.2363 -0.01907,-0.57312 -0.24838,-0.85929 -0.450145,-0.56175 -0.998187,-0.53503 -1.374041,-0.51551 -0.375853,0.0195 -0.73339,0.10259 -1.139657,0.20682 -0.812533,0.20845 -1.764459,0.54409 -2.719671,0.88535 -0.955212,0.34127 -1.912638,0.69024 -2.658799,0.9272 -0.37308,0.11847 -0.695116,0.20544 -0.911223,0.24947 -0.02432,0.005 -0.03001,0.006 -0.05229,0.008 -0.0059,-0.006 -0.0059,-0.006 -0.01173,-0.0133 -0.133132,-0.15512 -0.324388,-0.41466 -0.531083,-0.72096 -0.413388,-0.6126 -0.913316,-1.43286 -1.418292,-2.24792 -0.504977,-0.81506 -1.013634,-1.62652 -1.495141,-2.25396 -0.240754,-0.31372 -0.461575,-0.57757 -0.742483,-0.81167 -0.140454,-0.11705 -0.297964,-0.23423 -0.526458,-0.32541 -0.114243,-0.0456 -0.256037,-0.0821 -0.417386,-0.0945 z"
         id="path6173"
         style="color:#000000;display:inline;overflow:visible;visibility:visible;opacity:0.05;fill:#000000;fill-opacity:1;stroke:none;stroke-width:4.02454472;marker:none;enable-background:accumulate"
         inkscape:connector-curvature="0" />
      <path
         d="m 32.260148,84.374323 c 0.949265,-0.32218 4.01681,6.16494 4.971028,6.47266 0.988259,0.31871 7.758499,-2.95501 8.393298,-2.16282 0.612933,0.76491 -4.882593,5.56594 -4.893692,6.53026 -0.01149,0.99872 5.329155,6.152187 4.73835,6.975467 -0.57045,0.79492 -7.034417,-2.72499 -7.995491,-2.43674 -0.995362,0.29853 -4.464901,6.75727 -5.46484,6.47389 -0.96549,-0.27362 0.535085,-7.25007 -0.04779,-8.03624 -0.603677,-0.814207 -8.088615,-1.975957 -8.115806,-2.974387 -0.02626,-0.96402 7.36512,-1.75579 7.965953,-2.52992 0.62227,-0.80175 -0.534137,-7.9785 0.448992,-8.31217 z"
         id="path4468-0-0"
         style="color:#000000;display:inline;overflow:visible;visibility:visible;opacity:0.15;fill:#000000;fill-opacity:1;stroke:none;stroke-width:4.02454472;marker:none;enable-background:accumulate"
         inkscape:connector-curvature="0" />
      <path
         d="m 32.260148,83.374233 c 0.949265,-0.32218 4.01681,6.16494 4.971028,6.47266 0.988259,0.31871 7.758499,-2.95501 8.393298,-2.16282 0.612933,0.76491 -4.882593,5.56594 -4.893692,6.53026 -0.01149,0.99872 5.329155,6.152187 4.73835,6.975467 -0.57045,0.79492 -7.034417,-2.72499 -7.995491,-2.43674 -0.995362,0.29853 -4.464901,6.75728 -5.46484,6.4739 -0.96549,-0.27362 0.535085,-7.250077 -0.04779,-8.036247 -0.603677,-0.81421 -8.088615,-1.97596 -8.115806,-2.97439 -0.02626,-0.96402 7.36512,-1.75579 7.965953,-2.52992 0.62227,-0.80175 -0.534137,-7.9785 0.448992,-8.31217 z"
         id="path4468-0"
         style="color:#000000;display:inline;overflow:visible;visibility:visible;fill:url(#linearGradient5192-6-4);fill-opacity:1;stroke:none;stroke-width:4.02454472;marker:none;enable-background:accumulate"
         inkscape:connector-curvature="0" />
      <path
         d="m 32.324478,83.361913 -0.27826,0.26919 c -0.002,0.006 -0.01,0.008 -0.012,0.0122 -0.558621,1.35991 0.33628,7.31098 -0.22766,8.03755 -0.0236,0.0304 -0.0576,0.0722 -0.101201,0.10257 l 0.227681,0.15385 c 4.56142,1.37442 0.5689,-8.28979 0.45532,-8.56312 -0.0218,-0.004 -0.043,-0.0142 -0.0632,-0.0122 z"
         id="path4480-1"
         style="opacity:0.5;fill:#9d0f06;fill-opacity:1;stroke:none"
         inkscape:connector-curvature="0" />
      <path
         d="m 25.292118,94.053003 c -0.89732,0.008 -1.41658,0.0513 -1.41658,0.0513 v 0.0122 0.20511 c 0.5263,0.97316 7.50022,2.08658 8.082141,2.87147 0.58288,0.78616 -0.914881,7.763917 0.0506,8.037527 0.99994,0.2834 4.46864,-6.17508 5.464,-6.47362 0.95506,-0.28644 7.341319,3.18511 7.98098,2.44845 l -0.012,-0.0122 C 40.056019,94.551833 29.180418,94.019843 25.292058,94.053023 Z"
         id="path4517-5"
         style="opacity:0.75;fill:url(#linearGradient5194-7-3);fill-opacity:1;stroke:none"
         inkscape:connector-curvature="0" />
      <path
         d="m 48.229062,36.608101 -3.90625,1.34375 -17.1875,7.125 -12.15625,-1.46875 v 2.90625 c 1.63936,-0.95069 11.59375,0.09375 11.59375,0.09375 l 2.53125,5.4375 -4.625,2.21875 -1.8125,4.625 h -2.09375 l -0.84375,1.96875 -4.75,-0.34375 v 2.0625 l 9.5,0.375 1.96875,-1.40625 19.125,-0.6875 5.46875,-0.6875 5.15625,1.53125 0.4375,-0.5625 c 0.978085,-0.55891 8.9375,-1.5625 8.9375,-1.5625 1.676724,0 7.96875,1.40625 7.96875,1.40625 0.768099,2.30429 1.57588,9.16967 1.71875,10.406252 1.187801,-0.342732 2.52158,-0.591272 4,-0.750002 -1.137869,-1.28986 -2.59932,-4.18104 -2.25,-10.46875 l 4.0625,-0.15625 c 0,0 10.891163,-5.30316 13.406248,-6.28125 2.51508,-0.97809 13.99605,-0.41344 15.8125,-1.53125 l 0.125,-1.75 c -0.34713,0.41263 -2.62312,1.27936 -15.09375,1.59375 0,0 -14.128592,6.28484 -14.687498,6.84375 l -4.03125,0.15625 3.34375,-4.46875 9.09375,-4.90625 -6.71875,-9.09375 14.687498,-0.96875 6.59375,-3 h -3.9375 l -3.78125,1.34375 -11.437498,0.53125 -2.21875,-1.875 h -3.875 c 0.253021,0.59807 0.399405,1.1526 0.21875,1.46875 0,0 -4.473773,1.6875 -7.6875,1.6875 l -2.65625,-0.4375 c -2.28058,0 -9.299098,-1.96465 -11.90625,-2.71875 z m 56.437498,0 5.1875,0.34375 -0.0625,-0.34375 z m -52.937498,0.21875 1.6875,0.96875 17.75,3.90625 6.96875,-2.21875 2.5,1.53125 6.3125,8.375 -8.25,4.0625 -4.46875,5.3125 -8.09375,-0.5625 -10.21875,2.09375 -4.75,-1.53125 -26.25,0.96875 c 0.838364,-5.03017 5.875,-4.59375 5.875,-4.59375 l -1.84375,-8.8125 z m 58.687498,13.40625 v 0.1875 c 0.0905,-0.12581 0,-0.1875 0,-0.1875 z"
         id="path6200"
         style="opacity:0.03999999;fill:url(#linearGradient6278-0);fill-opacity:1;stroke:none"
         inkscape:connector-curvature="0" />
      <path
         d="m 45.572812,36.608101 -1.53125,0.53125 a 0.85907812,0.85907812 0 0 0 -0.0625,0.03125 l -16.96875,7.03125 -11.9375,-1.4375 a 0.85907812,0.85907812 0 0 0 -0.09375,0 v 4.625 a 0.85907812,0.85907812 0 0 0 0.4375,-0.125 c 0.02444,-0.0142 0.971465,-0.24675 2.09375,-0.28125 1.122286,-0.0345 2.510717,0.0233 3.84375,0.0937 2.406164,0.1271 4.2096,0.3014 4.625,0.34375 l 1.96875,4.21875 -3.84375,1.84375 a 0.85907812,0.85907812 0 0 0 -0.4375,0.46875 l -1.59375,4.09375 h -1.5 a 0.85907812,0.85907812 0 0 0 -0.78125,0.5 l -0.625,1.4375 -4.125,-0.3125 a 0.85907812,0.85907812 0 0 0 -0.0625,0 v 3.75 l 9.46875,0.375 a 0.85907812,0.85907812 0 0 0 0.53125,-0.1562 l 1.75,-1.25 18.875,-0.6875 a 0.85907812,0.85907812 0 0 0 0.0625,0 l 5.3125,-0.65625 4.96875,1.46875 a 0.85907812,0.85907812 0 0 0 0.9375,-0.28125 l 0.3125,-0.375 c 0.06094,-0.0214 0.107278,-0.0716 0.3125,-0.125 0.283465,-0.0737 0.662442,-0.13447 1.09375,-0.21875 0.862617,-0.16856 1.950663,-0.37189 3,-0.53125 2.051154,-0.3115 3.88197,-0.55153 3.96875,-0.5625 0.01234,0 0.08016,-2.8e-4 0.09375,0 0.644958,0.0135 2.610213,0.34561 4.34375,0.6875 1.487659,0.29339 2.422032,0.50749 2.8125,0.59375 0.315961,1.10203 0.680461,3.02922 0.96875,5 0.313612,2.14389 0.553947,4.16627 0.625,4.781252 a 0.85907812,0.85907812 0 0 0 0.03125,0.15625 c 1.616247,-0.53384 3.454485,-0.929972 5.65625,-1.093752 a 0.85907812,0.85907812 0 0 0 -0.1875,-0.46875 c -0.912744,-1.03466 -2.233782,-3.55524 -2.0625,-9.09375 l 3.25,-0.125 a 0.85907812,0.85907812 0 0 0 0.34375,-0.0625 c 0,0 2.716655,-1.33503 5.75,-2.78125 3.033345,-1.44622 6.434608,-3.01797 7.593748,-3.46875 0.397,-0.15439 1.59813,-0.3372 3.03125,-0.4375 1.43312,-0.1003 3.13619,-0.15828 4.84375,-0.21875 1.70756,-0.0605 3.40754,-0.12751 4.8125,-0.25 1.40496,-0.12249 2.42441,-0.2107 3.25,-0.71875 a 0.85907812,0.85907812 0 0 0 0.25,-0.21875 v -3.125 c -0.0328,-0.0265 -0.0937,-0.0625 -0.0937,-0.0625 a 0.85907812,0.85907812 0 0 0 -1.28125,0.4375 c -0.048,0.0267 0.0206,-0.003 -0.1875,0.0625 -0.38518,0.12152 -1.06844,0.25659 -2.125,0.40625 -2.11312,0.29933 -5.78325,0.62452 -12,0.78125 a 0.85907812,0.85907812 0 0 0 -0.31255,0.0625 c 0,0 -3.549679,1.5756 -7.156248,3.21875 -1.803283,0.82157 -3.619847,1.64077 -5.03125,2.3125 -0.705701,0.33586 -1.296501,0.64265 -1.75,0.875 -0.226748,0.11617 -0.408744,0.22457 -0.5625,0.3125 -0.03221,0.0184 -0.06669,0.0486 -0.09375,0.0625 l -2.03125,0.0937 2.15625,-2.90625 8.9375,-4.8125 a 0.85907812,0.85907812 0 0 0 0.28125,-1.25 l -5.8125,-7.84375 13.156248,-0.875 a 0.85907812,0.85907812 0 0 0 0.28125,-0.0625 l 6.59375,-3 a 0.85907812,0.85907812 0 0 0 0.1875,-0.125 0.85907812,0.85907812 0 0 0 0.0312,0 0.85907812,0.85907812 0 0 0 0.4375,0.1875 l 5.1875,0.34375 a 0.85907812,0.85907812 0 0 0 0.90625,-1 l -0.0312,-0.18745 H 97.07281 l -1.40625,0.5 -10.906248,0.5 -1.1875,-1 h -6.0625 a 0.85907812,0.85907812 0 0 0 0.0625,0.34375 c 0.08039,0.19003 0.117042,0.32807 0.15625,0.46875 -0.75649,0.26631 -4.165979,1.48166 -6.78125,1.5 l -2.59375,-0.4375 a 0.85907812,0.85907812 0 0 0 -0.125,0 c -0.893624,0 -3.27804,-0.48169 -5.625,-1.0625 -1.087496,-0.26913 -2.163944,-0.54351 -3.15625,-0.8125 z m 6.09375,1.1875 1.3125,0.75 a 0.85907812,0.85907812 0 0 0 0.25,0.0937 l 17.75,3.9063 a 0.85907812,0.85907812 0 0 0 0.4375,-0.0312 l 6.625,-2.09375 1.96875,1.1875 5.625,7.46875 -7.3125,3.59375 a 0.85907812,0.85907812 0 0 0 -0.28125,0.21875 l -4.21875,5 -7.625,-0.53125 a 0.85907812,0.85907812 0 0 0 -0.25,0 l -10,2.0625 -4.53125,-1.46875 a 0.85907812,0.85907812 0 0 0 -0.28125,-0.0312 l -24.90625,0.90615 c 0.53494,-1.30917 1.341582,-2.12264 2.25,-2.46875 1.162211,-0.4428 2.25,-0.375 2.25,-0.375 a 0.85907812,0.85907812 0 0 0 0.90625,-1.03125 l -1.6875,-8.125 z"
         id="path6314"
         style="opacity:0.02999998;fill:url(#linearGradient6393-2);fill-opacity:1;stroke:none"
         inkscape:connector-curvature="0" />
      <path
         d="m 15.479063,37.108101 c 21.769321,0 94.999897,0.005 94.999897,0.005 l 1e-4,73.994989 c 0,0 -63.333321,0 -94.999998,0 0,-24.666537 0,-49.333079 0,-73.999609 z"
         id="path4160-62-6"
         style="color:#000000;display:inline;overflow:visible;visibility:visible;opacity:0.3;fill:none;stroke:#000000;stroke-width:0.99999994;stroke-linecap:butt;stroke-linejoin:miter;stroke-miterlimit:4;stroke-dasharray:none;stroke-dashoffset:0;stroke-opacity:1;marker:none;enable-background:accumulate"
         inkscape:connector-curvature="0" />
    </g>
  </g>
  <g
     inkscape:groupmode="layer"
     id="layer2"
     inkscape:label="arrow">
    <path
       sodipodi:nodetypes="ccccccccccccc"
       inkscape:connector-curvature="0"
       id="path1212"
       d="m 87.5,40.500061 v 20 h 19.99991 l -6.99999,-7 v 0 l 16.0001,-16 6.99998,7 v -20 h -19.9999 l 6.99998,7 v 0 l -16.000099,16 z"
       style="opacity:1;vector-effect:none;fill:url(#linearGradient1298);fill-opacity:1;stroke:none;stroke-width:0.79069769;stroke-linecap:butt;stroke-linejoin:miter;stroke-miterlimit:4;stroke-dasharray:none;stroke-dashoffset:0;stroke-opacity:1;marker:none" />
    <path
       style="opacity:0.3;vector-effect:none;fill:none;fill-opacity:1;stroke:#000000;stroke-width:1;stroke-linecap:butt;stroke-linejoin:miter;stroke-miterlimit:4;stroke-dasharray:none;stroke-dashoffset:0;stroke-opacity:1;marker:none"
       d="m 87.5,40.500061 v 20 h 19.99991 l -6.99999,-7 v 0 l 16.0001,-16 6.99998,7 v -20 h -19.9999 l 6.99998,7 v 0 l -16.000099,16 z"
       id="path1282"
       inkscape:connector-curvature="0"
       sodipodi:nodetypes="ccccccccccccc" />
  </g>
</svg>
