<?xml version="1.0" encoding="UTF-8" standalone="no"?>
<svg
   xmlns:dc="http://purl.org/dc/elements/1.1/"
   xmlns:cc="http://creativecommons.org/ns#"
   xmlns:rdf="http://www.w3.org/1999/02/22-rdf-syntax-ns#"
   xmlns:svg="http://www.w3.org/2000/svg"
   xmlns="http://www.w3.org/2000/svg"
   xmlns:xlink="http://www.w3.org/1999/xlink"
   version="1.0"
   width="128"
   height="128"
   id="svg2453">
  <metadata
     id="metadata35">
    <rdf:RDF>
      <cc:Work
         rdf:about="">
        <dc:format>image/svg+xml</dc:format>
        <dc:type
           rdf:resource="http://purl.org/dc/dcmitype/StillImage" />
        <dc:title />
      </cc:Work>
    </rdf:RDF>
  </metadata>
  <defs
     id="defs2455">
    <linearGradient
       id="linearGradient3104-6">
      <stop
         id="stop3106-3"
         style="stop-color:#000000;stop-opacity:0.31782946"
         offset="0" />
      <stop
         id="stop3108-9"
         style="stop-color:#000000;stop-opacity:0.24031007"
         offset="1" />
    </linearGradient>
    <linearGradient
       id="linearGradient3977-4">
      <stop
         id="stop3979-7"
         style="stop-color:#ffffff;stop-opacity:1"
         offset="0" />
      <stop
         id="stop3981-6"
         style="stop-color:#ffffff;stop-opacity:0.23529412"
         offset="0.00440002" />
      <stop
         id="stop3983-5"
         style="stop-color:#ffffff;stop-opacity:0.15686275"
         offset="1" />
      <stop
         id="stop3985-6"
         style="stop-color:#ffffff;stop-opacity:0.39215687"
         offset="1" />
    </linearGradient>
    <linearGradient
       id="linearGradient3600-9">
      <stop
         id="stop3602-3"
         style="stop-color:#f4f4f4;stop-opacity:1"
         offset="0" />
      <stop
         id="stop3604-7"
         style="stop-color:#dbdbdb;stop-opacity:1"
         offset="1" />
    </linearGradient>
    <linearGradient
       x1="-51.786404"
       y1="50.786446"
       x2="-51.786404"
       y2="2.9062471"
       id="linearGradient3163"
       xlink:href="#linearGradient3104-6"
       gradientUnits="userSpaceOnUse"
       gradientTransform="matrix(2.6993422,0,0,1.8911044,182.37115,16.150211)" />
    <linearGradient
       x1="23.99999"
       y1="5.7032809"
       x2="23.99999"
       y2="42.296783"
       id="linearGradient3166"
       xlink:href="#linearGradient3977-4"
       gradientUnits="userSpaceOnUse"
       gradientTransform="matrix(3.1081081,0,0,2.4594529,-10.594575,10.973049)" />
    <linearGradient
       x1="25.132275"
       y1="0.98520643"
       x2="25.132275"
       y2="47.013336"
       id="linearGradient3169"
       xlink:href="#linearGradient3600-9"
       gradientUnits="userSpaceOnUse"
       gradientTransform="matrix(3.3142782,0,0,1.9989954,-15.542692,18.957175)" />
    <linearGradient
       id="linearGradient3242-59-5">
      <stop
         id="stop3244-9-4"
         style="stop-color:#f8b17e;stop-opacity:1"
         offset="0" />
      <stop
         id="stop3246-7-4"
         style="stop-color:#e35d4f;stop-opacity:1"
         offset="0.26238" />
      <stop
         id="stop3248-87-0"
         style="stop-color:#c6262e;stop-opacity:1"
         offset="0.66093999" />
      <stop
         id="stop3250-2-0"
         style="stop-color:#690b54;stop-opacity:1"
         offset="1" />
    </linearGradient>
    <linearGradient
       x1="229.00999"
       y1="600.00897"
       x2="229.00999"
       y2="635.00897"
       id="linearGradient3243"
       xlink:href="#linearGradient3242-59-5"
       gradientUnits="userSpaceOnUse"
       gradientTransform="matrix(-1,0,0,-1,456.02,1228.029)" />
    <linearGradient
       id="linearGradient3702-501-757-0">
      <stop
         id="stop2895-0"
         style="stop-color:#181818;stop-opacity:0"
         offset="0" />
      <stop
         id="stop2897-2"
         style="stop-color:#181818;stop-opacity:1"
         offset="0.5" />
      <stop
         id="stop2899-6"
         style="stop-color:#181818;stop-opacity:0"
         offset="1" />
    </linearGradient>
    <linearGradient
       id="linearGradient3688-464-309-8">
      <stop
         id="stop2889-9"
         style="stop-color:#181818;stop-opacity:1"
         offset="0" />
      <stop
         id="stop2891-4"
         style="stop-color:#181818;stop-opacity:0"
         offset="1" />
    </linearGradient>
    <radialGradient
       r="35.338131"
       fy="93.467628"
       fx="-4.0287771"
       cy="93.467628"
       cx="-4.0287771"
       gradientTransform="matrix(1.7403296,0,0,0.16978827,71.011391,100.33998)"
       gradientUnits="userSpaceOnUse"
       id="radialGradient5448-5"
       xlink:href="#linearGradient3688-464-309-8" />
    <radialGradient
       cx="4.9929786"
       cy="43.5"
       r="2.5"
       fx="4.9929786"
       fy="43.5"
       id="radialGradient4093-8"
       xlink:href="#linearGradient3688-464-309-8"
       gradientUnits="userSpaceOnUse"
       gradientTransform="matrix(2.003784,0,0,1.4,27.98813,-17.4)" />
    <radialGradient
       cx="4.9929786"
       cy="43.5"
       r="2.5"
       fx="4.9929786"
       fy="43.5"
       id="radialGradient4095-5"
       xlink:href="#linearGradient3688-464-309-8"
       gradientUnits="userSpaceOnUse"
       gradientTransform="matrix(2.003784,0,0,1.4,-20.01187,-104.4)" />
    <linearGradient
       x1="25.058096"
       y1="47.027729"
       x2="25.058096"
       y2="39.999443"
       id="linearGradient4097-9"
       xlink:href="#linearGradient3702-501-757-0"
       gradientUnits="userSpaceOnUse" />
    <linearGradient
       y2="41.993629"
       x2="37.068718"
       y1="11.344401"
       x1="37.068718"
       gradientTransform="matrix(1.1541888,0,0,1.1541889,64.215699,11.906479)"
       gradientUnits="userSpaceOnUse"
       id="linearGradient1298"
       xlink:href="#linearGradient4220-7" />
    <linearGradient
       id="linearGradient4220-7">
      <stop
         offset="0"
         style="stop-color:#fafafa;stop-opacity:1"
         id="stop4222-7" />
      <stop
         offset="1"
         style="stop-color:#abacae;stop-opacity:1"
         id="stop4224-0" />
    </linearGradient>
    <linearGradient
       y2="47.013336"
       x2="25.132275"
       y1="0.98520643"
       x1="25.132275"
       gradientTransform="matrix(2.8875628,0,0,1.676465,-12.833437,34.695344)"
       gradientUnits="userSpaceOnUse"
       id="linearGradient4208"
       xlink:href="#linearGradient3600-9" />
    <linearGradient
       y2="42.296783"
       x2="23.99999"
       y1="5.7032809"
       x1="23.99999"
       gradientTransform="matrix(2.7079372,0,0,2.0626294,-8.5223932,27.999427)"
       gradientUnits="userSpaceOnUse"
       id="linearGradient4212"
       xlink:href="#linearGradient3977-4" />
    <linearGradient
       y2="2.9062471"
       x2="-51.786404"
       y1="50.786446"
       x1="-51.786404"
       gradientTransform="matrix(2.3518002,0,0,1.5859818,159.59887,32.341273)"
       gradientUnits="userSpaceOnUse"
       id="linearGradient4214"
       xlink:href="#linearGradient3104-6" />
    <linearGradient
       gradientTransform="matrix(0.63152836,0,0,0.6401138,146.17378,45.031554)"
       gradientUnits="userSpaceOnUse"
       xlink:href="#linearGradient3825-5-8-1"
       id="linearGradient5351"
       y2="39.991924"
       x2="-96.557358"
       y1="110.92493"
       x1="-96.557358" />
    <linearGradient
       id="linearGradient3825-5-8-1">
      <stop
         offset="0"
         style="stop-color:#e89c42;stop-opacity:1"
         id="stop3827-2-3-5" />
      <stop
         offset="1"
         style="stop-color:#faca67;stop-opacity:1"
         id="stop3829-5-0-5" />
    </linearGradient>
    <linearGradient
       gradientTransform="matrix(0.63152836,0,0,0.6401138,146.17378,45.031554)"
       gradientUnits="userSpaceOnUse"
       xlink:href="#linearGradient3871-6-7"
       id="linearGradient5346"
       y2="38.561256"
       x2="-107.45584"
       y1="-37.385227"
       x1="-107.45584" />
    <linearGradient
       id="linearGradient3871-6-7">
      <stop
         offset="0"
         style="stop-color:#0b85e9;stop-opacity:1"
         id="stop3873-3-2" />
      <stop
         offset="1"
         style="stop-color:#69d1ef;stop-opacity:1"
         id="stop3875-4-0" />
    </linearGradient>
    <linearGradient
       gradientTransform="matrix(0.4098604,0.03221134,-0.03379884,0.39252612,125.95362,61.519684)"
       gradientUnits="userSpaceOnUse"
       xlink:href="#linearGradient4470-8-1"
       id="linearGradient5192-6"
       y2="75.190559"
       x2="-208.49672"
       y1="88.750069"
       x1="-211.28862" />
    <linearGradient
       id="linearGradient4470-8-1">
      <stop
         offset="0"
         style="stop-color:#ec4502;stop-opacity:1"
         id="stop4472-33-4" />
      <stop
         offset="1"
         style="stop-color:#fe7617;stop-opacity:1"
         id="stop4474-2-1" />
    </linearGradient>
    <linearGradient
       gradientTransform="matrix(0.40474014,0,0,0.4102096,107.85556,52.786854)"
       gradientUnits="userSpaceOnUse"
       xlink:href="#linearGradient4574-1-9"
       id="linearGradient5194-7"
       y2="88.801025"
       x2="-175.25337"
       y1="113.97943"
       x1="-184.92441" />
    <linearGradient
       id="linearGradient4574-1-9">
      <stop
         offset="0"
         style="stop-color:#7a0f01;stop-opacity:1"
         id="stop4576-8-3" />
      <stop
         offset="1"
         style="stop-color:#d31807;stop-opacity:1"
         id="stop4578-4-4" />
    </linearGradient>
    <linearGradient
       spreadMethod="reflect"
       gradientTransform="translate(-1.9999991,-73.00826)"
       gradientUnits="userSpaceOnUse"
       xlink:href="#linearGradient6272"
       id="linearGradient6278"
       y2="118.53167"
       x2="50.634743"
       y1="133.73186"
       x1="61.998196" />
    <linearGradient
       id="linearGradient6272">
      <stop
         offset="0"
         style="stop-color:#ffffff;stop-opacity:1"
         id="stop6274" />
      <stop
         offset="1"
         style="stop-color:#ffffff;stop-opacity:0.54320985"
         id="stop6276" />
    </linearGradient>
    <linearGradient
       spreadMethod="reflect"
       gradientTransform="translate(-1.9999991,-73.00826)"
       gradientUnits="userSpaceOnUse"
       xlink:href="#linearGradient6272"
       id="linearGradient6393"
       y2="121.53167"
       x2="67.634743"
       y1="138.73186"
       x1="61.998196" />
    <linearGradient
       y2="39.991924"
       x2="-96.557358"
       y1="110.92493"
       x1="-96.557358"
       gradientTransform="matrix(0.58359987,0,0,0.58890475,130.29452,55.916625)"
       gradientUnits="userSpaceOnUse"
       id="linearGradient4394"
       xlink:href="#linearGradient3825-5-8-1" />
    <linearGradient
       y2="38.561256"
       x2="-107.45584"
       y1="-37.385227"
       x1="-107.45584"
       gradientTransform="matrix(0.61179311,0,0,0.6030591,136.10585,56.232502)"
       gradientUnits="userSpaceOnUse"
       id="linearGradient4396"
       xlink:href="#linearGradient3871-6-7" />
    <linearGradient
       y2="75.190559"
       x2="-208.49672"
       y1="88.750069"
       x1="-211.28862"
       gradientTransform="matrix(0.37875493,0.02963444,-0.03123375,0.36112407,111.60893,71.085706)"
       gradientUnits="userSpaceOnUse"
       id="linearGradient4398"
       xlink:href="#linearGradient4470-8-1" />
    <linearGradient
       y2="88.801025"
       x2="-175.25337"
       y1="113.97943"
       x1="-184.92441"
       gradientTransform="matrix(0.37402326,0,0,0.37739287,94.884379,63.051501)"
       gradientUnits="userSpaceOnUse"
       id="linearGradient4400"
       xlink:href="#linearGradient4574-1-9" />
    <linearGradient
       y2="118.53167"
       x2="50.634743"
       y1="133.73186"
       x1="61.998196"
       spreadMethod="reflect"
       gradientTransform="matrix(0.96875002,0,0,0.94211234,-7.4375001,-54.974265)"
       gradientUnits="userSpaceOnUse"
       id="linearGradient4402"
       xlink:href="#linearGradient6272" />
    <linearGradient
       y2="121.53167"
       x2="67.634743"
       y1="138.73186"
       x1="61.998196"
       spreadMethod="reflect"
       gradientTransform="matrix(0.92410715,0,0,0.92000009,-6.6243056,-34.294386)"
       gradientUnits="userSpaceOnUse"
       id="linearGradient4404"
       xlink:href="#linearGradient6272" />
  </defs>
  <g
     transform="matrix(2.711458,0,0,-2.71642,-554.23954,1739.9212)"
     id="layer12-33"
     style="color:#000000;display:inline;overflow:visible;visibility:visible;opacity:0.3;fill:#000000;fill-opacity:1;fill-rule:nonzero;stroke:none;stroke-width:1.0024693;marker:none;enable-background:accumulate" />
  <g
     transform="matrix(2.711458,0,0,-2.71642,-554.23954,1738.9212)"
     id="layer12"
     style="color:#000000;display:inline;overflow:visible;visibility:visible;fill:url(#linearGradient3243);fill-opacity:1;fill-rule:nonzero;stroke:none;marker:none;enable-background:accumulate" />
  <g
     transform="matrix(2.7352941,0,0,2.7798907,-3.6764726,-43.673893)"
     id="g4293" />
  <g
     id="g4466">
    <path
       style="color:#000000;display:inline;overflow:visible;visibility:visible;opacity:0.2;fill:url(#radialGradient5448-5);fill-opacity:1;fill-rule:nonzero;stroke:none;stroke-width:1;marker:none;enable-background:accumulate"
       id="path3041"
       d="m 125.5,116.20969 a 61.500002,6.0000004 0 0 1 -122.9999995,0 61.500002,6.0000004 0 1 1 122.9999995,0 z" />
    <g
       style="display:inline"
       id="g2036"
       transform="matrix(3.0249988,0,0,0.55555607,-8.6000014,93.098572)">
      <g
         style="opacity:0.4"
         id="g3712"
         transform="matrix(1.052632,0,0,1.285713,-1.263158,-13.42854)">
        <rect
           style="fill:url(#radialGradient4093-8);fill-opacity:1;stroke:none"
           id="rect2801-5"
           y="40"
           x="38"
           height="7"
           width="5" />
        <rect
           style="fill:url(#radialGradient4095-5);fill-opacity:1;stroke:none"
           id="rect3696-7"
           transform="scale(-1,-1)"
           y="-47"
           x="-10"
           height="7"
           width="5" />
        <rect
           style="fill:url(#linearGradient4097-9);fill-opacity:1;stroke:none"
           id="rect3700-7"
           y="40"
           x="10"
           height="7.0000005"
           width="28" />
      </g>
    </g>
    <g
       id="g4445"
       style="opacity:0.5">
      <path
         d="m 5.9999856,24.000032 c 26.5814884,0 115.9998644,0.0064 115.9998644,0.0064 l 1.4e-4,91.993658 c 0,0 -77.333336,0 -116.0000044,0 0,-30.6667 0,-61.332924 0,-91.999494 z"
         id="path4160-6"
         style="display:inline;fill:url(#linearGradient3169);fill-opacity:1;stroke:none" />
      <g
         id="g4463"
         transform="matrix(1.125,0,0,1.1200001,-8.0000006,-6.7107579)"
         style="">
        <path
           style="color:#000000;display:inline;overflow:visible;visibility:visible;fill:url(#linearGradient5351);fill-opacity:1;fill-rule:nonzero;stroke:none;stroke-width:10;marker:none;enable-background:accumulate"
           id="rect3055-2-9-2"
           d="m 16.000001,30.991744 0,74.999996 95.999999,0 0,-74.999996 z" />
        <path
           style="color:#000000;display:inline;overflow:visible;visibility:visible;opacity:0.05;fill:#000000;fill-opacity:1;fill-rule:nonzero;stroke:none;stroke-width:10;marker:none;enable-background:accumulate"
           id="path4084-9-2"
           d="m 16.000001,31.258534 0,43.5258 c 2.2182,0.55868 4.97926,0.99508 8.23636,0.99508 4.43124,0 6.75498,-0.81346 8.45454,-1.54791 1.69958,-0.73445 2.66276,-1.32678 6.05456,-1.32678 3.23728,0 5.86366,1.07814 9.10908,2.26658 3.24544,1.18845 7.06392,2.43244 12.27274,2.43244 6.47014,0 10.66028,-2.06328 14.12726,-3.98035 3.46696,-1.91706 6.14084,-3.59336 10.47274,-3.59336 3.42118,0 4.95518,0.83342 7.0909,1.8796 2.1357,1.04619 4.82546,2.26659 9.272719,2.26659 5.59534,0 8.15014,-2.06662 10.9091,-3.37224 l 0,-39.54545 z" />
        <path
           style="color:#000000;display:inline;overflow:visible;visibility:visible;opacity:0.15;fill:#000000;fill-opacity:1;fill-rule:nonzero;stroke:none;stroke-width:10;marker:none;enable-background:accumulate"
           id="rect3055-2-6-9-0-5"
           d="m 16.000001,32.258704 0,41.59135 c 2.14426,0.57787 4.92488,1.05037 8.23636,1.05037 8.4432,0 7.23856,-2.87469 14.5091,-2.87469 7.27052,0 11.55298,4.69901 21.38182,4.69901 12.17418,0 14.96792,-7.57371 24.6,-7.57371 7.52126,0 8.08594,4.14619 16.363619,4.14619 5.59196,0 7.44904,-2.17815 10.9091,-3.59336 l 0,-37.44516 z" />
        <path
           style="fill:url(#linearGradient5346);fill-opacity:1;stroke:none"
           id="path3867-3-5-1"
           d="m 16.000001,30.991744 0,38.27396 c 1.42546,0.66618 3.23054,1.2715 5.18182,1.2715 4.45614,0 8.81396,-3.64865 16.25454,-3.64865 7.44058,0 13.03684,4.58845 22.41818,4.58845 9.38134,0 11.49272,-6.63391 23.45456,-6.63391 11.9618,0 10.837,4.20148 18.327259,4.20148 5.15944,0 7.36284,-1.82636 10.36364,-2.98526 l 0,-35.06757 z" />
        <path
           style="color:#000000;display:inline;overflow:visible;visibility:visible;opacity:0.1;fill:#ffffff;fill-opacity:1;fill-rule:nonzero;stroke:none;stroke-width:10;marker:none;enable-background:accumulate"
           id="path4213-1-3"
           d="m 83.309101,63.416004 c -6.28388,0 -10.23664,1.80338 -13.47274,3.4828 -3.2361,1.67942 -5.67744,3.1511 -9.98182,3.1511 -4.42348,0 -7.91956,-1.07118 -11.4,-2.2113 -3.48044,-1.14011 -6.96102,-2.37715 -11.01818,-2.37715 -3.98816,0 -7.19452,0.95076 -9.81818,1.87961 -2.62366,0.92884 -4.65558,1.76904 -6.43636,1.76904 -1.61236,0 -3.18402,-0.55867 -4.47272,-1.16093 a 1.6611221,1.6835697 0 0 0 -0.7091,-0.16585 l 0,7.24201 c 2.20876,0.56018 4.9795,0.99509 8.23636,0.99509 4.4076,0 6.65002,-0.81524 8.34546,-1.54792 1.69544,-0.73266 2.74436,-1.32678 6.16364,-1.32678 3.2822,0 5.9224,1.07969 9.16364,2.26659 3.2412,1.1869 7.04258,2.43243 12.21818,2.43243 6.42692,0 10.61058,-2.06594 14.07272,-3.98034 3.46214,-1.9144 6.14076,-3.59337 10.52728,-3.59337 3.45948,0 5.06648,0.88979 7.2,1.93489 2.13348,1.0451 4.75116,2.2113 9.163619,2.2113 5.61918,0 8.08214,-2.11303 10.9091,-3.42751 l 0,-6.3575 a 1.6611221,1.6835697 0 0 0 -0.6,0.11055 c -3.29058,1.27082 -4.99094,2.8747 -9.76364,2.8747 -3.438719,0 -4.511919,-0.83499 -6.763639,-1.93489 -2.25172,-1.0999 -5.39086,-2.26659 -11.56362,-2.26659 z" />
        <path
           style="color:#000000;display:inline;overflow:visible;visibility:visible;opacity:0.3;fill:#ffffff;fill-opacity:1;fill-rule:nonzero;stroke:none;stroke-width:10;marker:none;enable-background:accumulate"
           id="rect3055-2-6-94-0-3"
           d="m 83.309101,64.074954 c -11.96184,0 -14.07322,6.6339 -23.45456,6.6339 -9.38134,0 -14.9776,-4.58845 -22.41818,-4.58845 -7.44058,0 -11.7984,3.64865 -16.25454,3.64865 -1.95128,0 -3.75636,-0.60532 -5.18182,-1.2715 l 0,3.8145 c 2.14426,0.57786 4.92488,1.05036 8.23636,1.05036 8.4432,0 7.23856,-2.87469 14.5091,-2.87469 7.27052,0 11.55298,4.69902 21.38182,4.69902 12.17418,0 14.96792,-7.57371 24.6,-7.57371 7.52126,0 8.08594,4.14619 16.363619,4.14619 5.59196,0 7.44904,-2.17815 10.9091,-3.59336 l 0,-2.8747 c -3.0008,1.1589 -5.2042,2.98526 -10.36364,2.98526 -7.490259,0 -6.365459,-4.20147 -18.327259,-4.20147 z" />
        <path
           style="color:#000000;display:inline;overflow:visible;visibility:visible;fill:#ffffff;fill-opacity:1;fill-rule:nonzero;stroke:none;stroke-width:10;marker:none;enable-background:accumulate"
           id="rect3055-2-6-8-2"
           d="m 83.309101,64.843094 c -11.96184,0 -14.07322,6.63391 -23.45456,6.63391 -9.38134,0 -14.9776,-4.58845 -22.41818,-4.58845 -7.44058,0 -11.7984,3.64865 -16.25454,3.64865 -1.95128,0 -3.75636,-0.60532 -5.18182,-1.2715 l 0,3.81449 c 2.14426,0.57787 4.92488,1.05037 8.23636,1.05037 8.4432,0 7.23856,-2.87469 14.5091,-2.87469 7.27052,0 11.55298,4.69902 21.38182,4.69902 12.17418,0 14.96792,-7.57371 24.6,-7.57371 7.52126,0 8.08594,4.14619 16.363619,4.14619 5.59196,0 7.44904,-2.17815 10.9091,-3.59337 l 0,-2.87469 c -3.0008,1.1589 -5.2042,2.98526 -10.36364,2.98526 -7.490259,0 -6.365459,-4.20148 -18.327259,-4.20148 z" />
        <path
           style="color:#000000;display:inline;overflow:visible;visibility:visible;opacity:0.05;fill:#000000;fill-opacity:1;stroke:none;stroke-width:10;marker:none;enable-background:accumulate"
           id="path6173"
           d="m 33.460746,77.776063 c -0.161349,-0.01245 -0.343429,-0.0023 -0.520775,0.05787 -0.696901,0.23653 -0.823146,0.75259 -0.920061,1.100889 -0.09692,0.348298 -0.136922,0.696894 -0.1591,1.098947 -0.04436,0.804105 -0.01,1.78164 0.03344,2.756555 0.04341,0.974914 0.09827,1.947856 0.102757,2.700256 0.0022,0.376198 -0.0038,0.701437 -0.02693,0.911743 -0.0021,0.01906 -0.01252,0.01842 -0.01596,0.03579 -0.0081,0.0035 -0.0053,0.008 -0.01384,0.01126 -0.195528,0.07339 -0.505224,0.171073 -0.873854,0.264758 -0.737266,0.187371 -1.71455,0.383728 -2.681514,0.591972 -0.966965,0.208244 -1.927671,0.419814 -2.70066,0.664563 -0.386496,0.122375 -0.723732,0.253229 -1.043395,0.436676 -0.159834,0.09172 -0.321687,0.189641 -0.48314,0.369561 -0.161454,0.17992 -0.328169,0.491155 -0.318346,0.851792 0.0193,0.70874 0.485081,0.979079 0.80151,1.174442 0.31643,0.195363 0.661884,0.334323 1.054893,0.478087 0.786019,0.287529 1.757269,0.560386 2.74042,0.820496 0.98315,0.26011 1.972507,0.505365 2.722196,0.732617 0.374845,0.113626 0.686357,0.231054 0.888254,0.316798 0.02524,0.01072 0.02794,0.01673 0.04912,0.02856 3.47e-4,0.0056 -0.0014,0.0065 -0.0011,0.01227 0.01244,0.201017 0.01,0.510895 -0.01095,0.875951 -0.04186,0.730113 -0.146555,1.678068 -0.238817,2.624013 -0.09214,0.945955 -0.169258,1.886624 -0.165158,2.666851 0.0021,0.390116 0.01693,0.73442 0.100232,1.08228 0.04165,0.17393 0.09383,0.35826 0.222497,0.56086 0.128665,0.2026 0.377571,0.44962 0.739048,0.55206 0.709121,0.20096 1.119579,-0.14319 1.411663,-0.37068 0.292084,-0.2275 0.539395,-0.48818 0.803999,-0.80128 0.529207,-0.626185 1.099886,-1.42646 1.662921,-2.240401 0.563034,-0.81394 1.11631,-1.647917 1.574319,-2.259716 0.229006,-0.305902 0.441826,-0.549732 0.589563,-0.706982 0.01704,-0.01814 0.02463,-0.01907 0.04157,-0.03378 0.0027,-0.0025 0.01,0.0034 0.01279,10e-4 0.203256,0.05045 0.510162,0.146817 0.865806,0.277986 0.711293,0.262336 1.619423,0.651888 2.529286,1.026192 0.909863,0.374304 1.823191,0.734052 2.598607,0.969893 0.387708,0.11792 0.729525,0.216075 1.100577,0.247038 0.185538,0.01537 0.381454,0.01737 0.622184,-0.03755 0.240731,-0.05492 0.564368,-0.197481 0.777594,-0.494613 0.418701,-0.583464 0.218835,-1.077603 0.08306,-1.413659 -0.135796,-0.336057 -0.330888,-0.645543 -0.560135,-0.98258 -0.458489,-0.674073 -1.084801,-1.435122 -1.719217,-2.197473 -0.634415,-0.762351 -1.272382,-1.52021 -1.738362,-2.124881 -0.23299,-0.302336 -0.431393,-0.563881 -0.541778,-0.746498 -0.01,-0.01647 -0.0018,-0.02194 -0.0096,-0.0378 0.0055,-0.0095 -0.0043,-0.01488 0.0021,-0.02453 0.113172,-0.169625 0.309413,-0.414176 0.550082,-0.697735 0.481335,-0.567118 1.155127,-1.28079 1.809359,-1.994256 0.654232,-0.713466 1.288515,-1.425999 1.763407,-2.059614 0.237446,-0.316808 0.437101,-0.601392 0.582958,-0.929791 0.07293,-0.1642 0.13304,-0.34444 0.153163,-0.580737 0.02012,-0.236297 -0.01907,-0.573115 -0.24838,-0.859283 -0.450145,-0.561759 -0.998187,-0.535039 -1.374041,-0.515519 -0.375853,0.01952 -0.73339,0.102594 -1.139657,0.20682 -0.812533,0.208452 -1.764459,0.54409 -2.719671,0.885359 -0.955212,0.34127 -1.912639,0.690237 -2.658799,0.927192 -0.37308,0.118478 -0.695116,0.205447 -0.911223,0.249472 -0.02432,0.005 -0.03001,0.0059 -0.05229,0.0082 -0.0059,-0.0063 -0.0059,-0.0064 -0.01173,-0.01327 -0.133132,-0.155123 -0.324389,-0.414659 -0.531083,-0.720958 -0.413388,-0.612597 -0.913316,-1.432858 -1.418292,-2.247919 -0.504977,-0.815062 -1.013634,-1.626526 -1.495141,-2.25396 -0.240754,-0.313717 -0.461575,-0.577568 -0.742484,-0.811669 -0.140454,-0.11705 -0.297963,-0.234233 -0.526457,-0.325412 -0.114244,-0.04559 -0.256038,-0.0821 -0.417387,-0.09455 z" />
        <path
           style="color:#000000;display:inline;overflow:visible;visibility:visible;opacity:0.15;fill:#000000;fill-opacity:1;stroke:none;stroke-width:10;marker:none;enable-background:accumulate"
           id="path4468-0-0"
           d="m 33.281086,78.757963 c 0.949265,-0.322182 4.01681,6.164938 4.971028,6.472666 0.98826,0.318708 7.758499,-2.955018 8.393299,-2.162819 0.612932,0.76491 -4.882594,5.56594 -4.893692,6.530253 -0.01149,0.998718 5.329154,6.152193 4.73835,6.975475 -0.57045,0.794922 -7.034417,-2.724996 -7.995491,-2.436746 -0.995362,0.298533 -4.464901,6.757278 -5.46484,6.473898 -0.96549,-0.27362 0.535085,-7.250079 -0.04779,-8.036244 -0.603677,-0.814213 -8.088615,-1.975962 -8.115806,-2.974386 -0.02626,-0.964029 7.36512,-1.755799 7.965953,-2.529925 0.62227,-0.801745 -0.534137,-7.978495 0.448992,-8.312172 z" />
        <path
           style="color:#000000;display:inline;overflow:visible;visibility:visible;fill:url(#linearGradient5192-6);fill-opacity:1;stroke:none;stroke-width:10;marker:none;enable-background:accumulate"
           id="path4468-0"
           d="m 33.281086,77.757873 c 0.949265,-0.322182 4.01681,6.164938 4.971028,6.472666 0.98826,0.318708 7.758499,-2.955018 8.393299,-2.162819 0.612932,0.76491 -4.882594,5.56594 -4.893692,6.530253 -0.01149,0.998718 5.329154,6.152193 4.73835,6.975475 -0.57045,0.794922 -7.034417,-2.724996 -7.995491,-2.436746 -0.995362,0.298533 -4.464901,6.757282 -5.46484,6.4739 -0.96549,-0.27362 0.535085,-7.250081 -0.04779,-8.036246 -0.603677,-0.814213 -8.088615,-1.975962 -8.115806,-2.974386 -0.02626,-0.964029 7.36512,-1.755799 7.965953,-2.529925 0.62227,-0.801745 -0.534137,-7.978495 0.448992,-8.312172 z" />
        <path
           style="opacity:0.5;fill:#9d0f06;fill-opacity:1;stroke:none"
           id="path4480-1"
           d="m 33.345417,77.745554 -0.27826,0.26919 c -0.002,0.006 -0.01,0.008 -0.012,0.0122 -0.558621,1.35991 0.33628,7.31098 -0.22766,8.03755 -0.0236,0.0304 -0.0576,0.0722 -0.101201,0.10257 l 0.227681,0.15385 c 4.56142,1.37442 0.5689,-8.28979 0.45532,-8.56312 -0.0218,-0.004 -0.043,-0.0142 -0.0632,-0.0122 z" />
        <path
           style="opacity:0.75;fill:url(#linearGradient5194-7);fill-opacity:1;stroke:none"
           id="path4517-5"
           d="m 26.313056,88.436644 c -0.89732,0.008 -1.41658,0.0513 -1.41658,0.0513 l 0,0.0122 0,0.20511 c 0.5263,0.97316 7.50022,2.08658 8.082141,2.87147 0.58288,0.78616 -0.914881,7.76392 0.0506,8.03753 0.99994,0.2834 4.46864,-6.17508 5.464,-6.47362 0.95506,-0.28644 7.34132,3.18511 7.98098,2.44845 l -0.012,-0.0122 c -5.38524,-6.64141 -16.260841,-7.1734 -20.149201,-7.14022 z" />
        <path
           style="opacity:0.03999999;fill:url(#linearGradient6278);fill-opacity:1;stroke:none"
           id="path6200"
           d="m 49.250001,30.991744 -3.90625,1.34375 -17.1875,7.125 -12.15625,-1.46875 0,2.90625 c 1.63936,-0.95069 11.59375,0.09375 11.59375,0.09375 l 2.53125,5.4375 -4.625,2.21875 -1.8125,4.625 -2.09375,0 -0.84375,1.96875 -4.75,-0.34375 0,2.0625 9.5,0.375 1.96875,-1.40625 19.125,-0.6875 5.46875,-0.6875 5.15625,1.53125 0.4375,-0.5625 c 0.978085,-0.55891 8.9375,-1.5625 8.9375,-1.5625 1.676723,0 7.96875,1.40625 7.96875,1.40625 0.768099,2.30429 1.575879,9.16967 1.71875,10.40625 1.187801,-0.34273 2.52158,-0.59127 4,-0.75 -1.137869,-1.28986 -2.59932,-4.18104 -2.25,-10.46875 l 4.0625,-0.15625 c 0,0 10.891162,-5.30316 13.40625,-6.28125 2.51508,-0.97809 13.996049,-0.41344 15.812499,-1.53125 l 0.125,-1.75 c -0.34713,0.41263 -2.62312,1.27936 -15.093749,1.59375 0,0 -14.128594,6.28484 -14.6875,6.84375 l -4.03125,0.15625 3.34375,-4.46875 9.09375,-4.90625 -6.71875,-9.09375 14.6875,-0.96875 6.593749,-3 -3.9375,0 -3.781249,1.34375 -11.4375,0.53125 -2.21875,-1.875 -3.875,0 c 0.25302,0.59807 0.399405,1.1526 0.21875,1.46875 0,0 -4.473774,1.6875 -7.6875,1.6875 l -2.65625,-0.4375 c -2.280581,0 -9.299099,-1.96465 -11.90625,-2.71875 l -8.09375,0 z m 56.437499,0 5.1875,0.34375 -0.0625,-0.34375 -5.125,0 z m -52.937499,0.21875 1.6875,0.96875 17.75,3.90625 6.96875,-2.21875 2.5,1.53125 6.3125,8.375 -8.25,4.0625 -4.46875,5.3125 -8.09375,-0.5625 -10.21875,2.09375 -4.75,-1.53125 -26.25,0.96875 c 0.838364,-5.03017 5.875,-4.59375 5.875,-4.59375 l -1.84375,-8.8125 22.78125,-9.5 z m 58.687499,13.40625 0,0.1875 c 0.0905,-0.12581 0,-0.1875 0,-0.1875 z" />
        <path
           style="opacity:0.02999998;fill:url(#linearGradient6393);fill-opacity:1;stroke:none"
           id="path6314"
           d="m 46.593751,30.991744 -1.53125,0.53125 a 0.85907812,0.85907812 0 0 0 -0.0625,0.03125 l -16.96875,7.03125 -11.9375,-1.4375 a 0.85907812,0.85907812 0 0 0 -0.09375,0 l 0,4.625 a 0.85907812,0.85907812 0 0 0 0.4375,-0.125 c 0.02444,-0.0142 0.971465,-0.24675 2.09375,-0.28125 1.122285,-0.0345 2.510717,0.0233 3.84375,0.0937 2.406164,0.1271 4.209599,0.3014 4.625,0.34375 l 1.96875,4.21875 -3.84375,1.84375 a 0.85907812,0.85907812 0 0 0 -0.4375,0.46875 l -1.59375,4.09375 -1.5,0 a 0.85907812,0.85907812 0 0 0 -0.78125,0.5 l -0.625,1.4375 -4.125,-0.3125 a 0.85907812,0.85907812 0 0 0 -0.0625,0 l 0,3.75 9.46875,0.375 a 0.85907812,0.85907812 0 0 0 0.53125,-0.1562 l 1.75,-1.25 18.875,-0.6875 a 0.85907812,0.85907812 0 0 0 0.0625,0 l 5.3125,-0.65625 4.96875,1.46875 a 0.85907812,0.85907812 0 0 0 0.9375,-0.28125 l 0.3125,-0.375 c 0.06094,-0.0214 0.107277,-0.0716 0.3125,-0.125 0.283464,-0.0737 0.662442,-0.13447 1.09375,-0.21875 0.862616,-0.16856 1.950663,-0.37189 3,-0.53125 2.051154,-0.3115 3.88197,-0.55153 3.96875,-0.5625 0.01234,0 0.08016,-2.8e-4 0.09375,0 0.644958,0.0135 2.610212,0.34561 4.34375,0.6875 1.487658,0.29339 2.422032,0.50749 2.8125,0.59375 0.31596,1.10203 0.68046,3.02922 0.96875,5 0.313612,2.14389 0.553947,4.16627 0.625,4.78125 a 0.85907812,0.85907812 0 0 0 0.03125,0.15625 c 1.616246,-0.53384 3.454485,-0.92997 5.65625,-1.09375 a 0.85907812,0.85907812 0 0 0 -0.1875,-0.46875 c -0.912744,-1.03466 -2.233783,-3.55524 -2.0625,-9.09375 l 3.25,-0.125 a 0.85907812,0.85907812 0 0 0 0.34375,-0.0625 c 0,0 2.716655,-1.33503 5.75,-2.78125 3.033345,-1.44622 6.434612,-3.01797 7.59375,-3.46875 0.396997,-0.15439 1.598131,-0.3372 3.03125,-0.4375 1.433119,-0.1003 3.136189,-0.15828 4.843749,-0.21875 1.70756,-0.0605 3.40754,-0.12751 4.8125,-0.25 1.40496,-0.12249 2.42441,-0.2107 3.25,-0.71875 a 0.85907812,0.85907812 0 0 0 0.25,-0.21875 l 0,-3.125 c -0.0328,-0.0265 -0.0937,-0.0625 -0.0937,-0.0625 a 0.85907812,0.85907812 0 0 0 -1.28125,0.4375 c -0.048,0.0267 0.0206,-0.003 -0.1875,0.0625 -0.38518,0.12152 -1.06844,0.25659 -2.125,0.40625 -2.11312,0.29933 -5.78325,0.62452 -11.999999,0.78125 a 0.85907812,0.85907812 0 0 0 -0.31255,0.0625 c 0,0 -3.549681,1.5756 -7.15625,3.21875 -1.803284,0.82157 -3.619847,1.64077 -5.03125,2.3125 -0.705701,0.33586 -1.296501,0.64265 -1.75,0.875 -0.226749,0.11617 -0.408745,0.22457 -0.5625,0.3125 -0.03221,0.0184 -0.06669,0.0486 -0.09375,0.0625 l -2.03125,0.0937 2.15625,-2.90625 8.9375,-4.8125 a 0.85907812,0.85907812 0 0 0 0.28125,-1.25 l -5.8125,-7.84375 13.15625,-0.875 a 0.85907812,0.85907812 0 0 0 0.28125,-0.0625 l 6.593749,-3 a 0.85907812,0.85907812 0 0 0 0.1875,-0.125 0.85907812,0.85907812 0 0 0 0.0312,0 0.85907812,0.85907812 0 0 0 0.4375,0.1875 l 5.1875,0.34375 a 0.85907812,0.85907812 0 0 0 0.90625,-1 l -0.0312,-0.18745 -13.593749,0 -1.40625,0.5 -10.90625,0.5 -1.1875,-1 -6.0625,0 a 0.85907812,0.85907812 0 0 0 0.0625,0.34375 c 0.08039,0.19003 0.117042,0.32807 0.15625,0.46875 -0.756491,0.26631 -4.16598,1.48166 -6.78125,1.5 l -2.59375,-0.4375 a 0.85907812,0.85907812 0 0 0 -0.125,0 c -0.893625,0 -3.27804,-0.48169 -5.625,-1.0625 -1.087496,-0.26913 -2.163945,-0.54351 -3.15625,-0.8125 l -13.875,0 z m 6.09375,1.1875 1.3125,0.75 a 0.85907812,0.85907812 0 0 0 0.25,0.0937 l 17.75,3.9063 a 0.85907812,0.85907812 0 0 0 0.4375,-0.0312 l 6.625,-2.09375 1.96875,1.1875 5.625,7.46875 -7.3125,3.59375 a 0.85907812,0.85907812 0 0 0 -0.28125,0.21875 l -4.21875,5 -7.625,-0.53125 a 0.85907812,0.85907812 0 0 0 -0.25,0 l -10,2.0625 -4.53125,-1.46875 a 0.85907812,0.85907812 0 0 0 -0.28125,-0.0312 l -24.90625,0.90615 c 0.534939,-1.30917 1.341581,-2.12264 2.25,-2.46875 1.162211,-0.4428 2.25,-0.375 2.25,-0.375 a 0.85907812,0.85907812 0 0 0 0.90625,-1.03125 l -1.6875,-8.125 21.71875,-9.03125 z" />
      </g>
      <path
         d="m 121.5,115.5 -115.0000002,0 0,-91.000001 115.0000002,0 z"
         id="rect6741-1-8"
         style="fill:none;stroke:url(#linearGradient3166);stroke-width:0.99999994;stroke-linecap:round;stroke-linejoin:miter;stroke-miterlimit:4;stroke-dasharray:none;stroke-dashoffset:0;stroke-opacity:1" />
      <path
         d="m 5.4999611,23.499962 c 26.8106309,0 116.9999489,0.0063 116.9999489,0.0063 l 1.3e-4,92.993748 c 0,0 -78.000053,0 -117.0000791,0 0,-31.000113 0,-61.99991 0,-92.999659 z"
         id="path4160-6-1"
         style="display:inline;fill:none;stroke:url(#linearGradient3163);stroke-width:0.99992186;stroke-linecap:butt;stroke-linejoin:round;stroke-miterlimit:4;stroke-dasharray:none;stroke-dashoffset:0;stroke-opacity:1" />
      <rect
         style="color:#000000;display:inline;overflow:visible;visibility:visible;opacity:0.15;fill:none;fill-opacity:1;fill-rule:nonzero;stroke:#000000;stroke-width:1.00000072;stroke-linecap:round;stroke-linejoin:miter;stroke-miterlimit:4;stroke-dasharray:none;stroke-dashoffset:0;stroke-opacity:1;marker:none;enable-background:accumulate"
         id="rect4197"
         y="28.5"
         x="10.5"
         height="83"
         width="107" />
    </g>
    <g
       id="g4425">
      <path
         style="display:inline;fill:url(#linearGradient4208);fill-opacity:1;stroke:none"
         id="path4198"
         d="M 6,38.999763 C 29.159105,38.999763 107.00041,39 107.00041,39 L 107,116 6,116 6,39.000236 Z" />
      <path
         style="fill:none;stroke:url(#linearGradient4212);stroke-width:0.99999994;stroke-linecap:round;stroke-linejoin:miter;stroke-miterlimit:4;stroke-dasharray:none;stroke-dashoffset:0;stroke-opacity:1"
         id="path4202"
         d="m 106.5,115.5 -100,0 0,-76 100,1.04e-4 z" />
      <path
         style="display:inline;fill:none;stroke:url(#linearGradient4214);stroke-width:0.99992186;stroke-linecap:butt;stroke-linejoin:round;stroke-miterlimit:4;stroke-dasharray:none;stroke-dashoffset:0;stroke-opacity:1"
         id="path4204"
         d="M 5.4999611,38.499837 C 28.858706,38.499837 107.5,38.5 107.5,38.5 l 0,78.00001 -102.0000391,0 0,-77.999847 z" />
      <path
         style="color:#000000;display:inline;overflow:visible;visibility:visible;fill:url(#linearGradient4394);fill-opacity:1;fill-rule:nonzero;stroke:none;stroke-width:10;marker:none;enable-background:accumulate"
         id="path4366"
         d="m 10.000001,42.999998 0,69.000002 93.001119,0 0,-69.000002 z" />
      <path
         style="color:#000000;display:inline;overflow:visible;visibility:visible;opacity:0.05;fill:#000000;fill-opacity:1;fill-rule:nonzero;stroke:none;stroke-width:10;marker:none;enable-background:accumulate"
         id="path4368"
         d="m 10.000001,43.256769 0,41.006193 c 2.148881,0.52634 4.823657,0.937478 7.978974,0.937478 4.292763,0 6.543886,-0.766372 8.190335,-1.458305 1.646469,-0.691935 2.579549,-1.249976 5.865356,-1.249976 3.136114,0 5.680421,1.015729 8.824422,2.135372 3.144019,1.119654 6.843172,2.291632 11.889216,2.291632 6.267948,0 10.327146,-1.943841 13.685783,-3.749936 3.358619,-1.806086 5.948939,-3.385349 10.145467,-3.385349 3.314269,0 4.800332,0.785175 6.86931,1.770794 2.068959,0.985629 4.674665,2.135383 8.982947,2.135383 5.420485,0 7.895449,-1.946989 10.568189,-3.177029 l 0,-37.256257 z" />
      <path
         style="color:#000000;display:inline;overflow:visible;visibility:visible;opacity:0.15;fill:#000000;fill-opacity:1;fill-rule:nonzero;stroke:none;stroke-width:10;marker:none;enable-background:accumulate"
         id="path4370"
         d="m 10.000001,44.199042 0,39.183724 c 2.077252,0.544419 4.770977,0.989566 7.978974,0.989566 8.17935,0 7.012355,-2.70828 14.055691,-2.70828 7.043315,0 11.191949,4.426994 20.713638,4.426994 11.793737,0 14.500172,-7.135284 23.83125,-7.135284 7.286222,0 7.833255,3.906176 15.852257,3.906176 5.417211,0 7.216258,-2.052063 10.568189,-3.385349 l 0,-35.277547 z" />
      <path
         style="fill:url(#linearGradient4396);fill-opacity:1;stroke:none"
         id="path4372"
         d="m 10.000001,43.005423 0,36.058371 c 1.380913,0.627616 3.129585,1.197895 5.019888,1.197895 4.316886,0 8.538524,-3.437438 15.746586,-3.437438 7.208061,0 12.629439,4.322835 21.717612,4.322835 9.088173,0 11.133573,-6.249888 22.721605,-6.249888 11.587995,0 10.498344,3.958265 17.754533,3.958265 4.998209,0 7.132755,-1.720636 10.039775,-2.812449 l 0,-33.037591 z" />
      <path
         style="color:#000000;display:inline;overflow:visible;visibility:visible;opacity:0.1;fill:#ffffff;fill-opacity:1;fill-rule:nonzero;stroke:none;stroke-width:10;marker:none;enable-background:accumulate"
         id="path4374"
         d="m 75.205692,73.552718 c -6.087507,0 -9.916744,1.698987 -13.051717,3.28119 -3.134971,1.582201 -5.500019,2.968689 -9.669888,2.968689 -4.285247,0 -7.672074,-1.009171 -11.04375,-2.083293 -3.371677,-1.074111 -6.743488,-2.239541 -10.673862,-2.239541 -3.86353,0 -6.969691,0.895722 -9.511362,1.770803 -2.541671,0.875071 -4.510093,1.666634 -6.235224,1.666634 -1.561974,0 -3.084519,-0.52633 -4.332947,-1.093726 a 1.609212,1.5861118 0 0 0 -0.686941,-0.156249 l 0,6.822786 c 2.139735,0.527754 4.82389,0.937487 7.978974,0.937487 4.269862,0 6.442206,-0.768047 8.084664,-1.458314 1.642457,-0.690249 2.658599,-1.249976 5.971027,-1.249976 3.179631,0 5.737325,1.01719 8.877276,2.135383 3.139912,1.118193 6.8225,2.291621 11.836362,2.291621 6.226079,0 10.278999,-1.946346 13.632949,-3.749927 3.353947,-1.80358 5.94886,-3.385357 10.198301,-3.385357 3.351373,0 4.908154,0.83828 6.975001,1.822883 2.066809,0.984601 4.602687,2.083293 8.877256,2.083293 5.443581,0 7.829569,-1.990712 10.568189,-3.2291 l 0,-5.989479 a 1.609212,1.5861118 0 0 0 -0.58125,0.104151 c -3.187748,1.197254 -4.834972,2.70829 -9.458525,2.70829 -3.331259,0 -4.370921,-0.786655 -6.552275,-1.822884 C 84.226596,74.651853 81.185554,73.5527 75.205692,73.5527 Z" />
      <path
         style="color:#000000;display:inline;overflow:visible;visibility:visible;opacity:0.3;fill:#ffffff;fill-opacity:1;fill-rule:nonzero;stroke:none;stroke-width:10;marker:none;enable-background:accumulate"
         id="path4376"
         d="m 75.205692,74.173523 c -11.588032,0 -13.633432,6.24988 -22.721605,6.24988 -9.088173,0 -14.509551,-4.322835 -21.717612,-4.322835 -7.208062,0 -11.4297,3.437438 -15.746586,3.437438 -1.890303,0 -3.638975,-0.570279 -5.019888,-1.197896 l 0,3.593686 c 2.077252,0.54441 4.770977,0.989557 7.978974,0.989557 8.17935,0 7.012355,-2.70828 14.055691,-2.70828 7.043315,0 11.191949,4.427005 20.713638,4.427005 11.793737,0 14.500172,-7.135286 23.83125,-7.135286 7.286222,0 7.833255,3.906178 15.852257,3.906178 5.417211,0 7.216258,-2.052063 10.568189,-3.38535 l 0,-2.70829 c -2.90702,1.091814 -5.041566,2.81245 -10.039775,2.81245 -7.256189,0 -6.166538,-3.958257 -17.754533,-3.958257 z" />
      <path
         style="color:#000000;display:inline;overflow:visible;visibility:visible;fill:#ffffff;fill-opacity:1;fill-rule:nonzero;stroke:none;stroke-width:10;marker:none;enable-background:accumulate"
         id="path4378"
         d="m 75.205692,74.897198 c -11.588032,0 -13.633432,6.249888 -22.721605,6.249888 -9.088173,0 -14.509551,-4.322835 -21.717612,-4.322835 -7.208062,0 -11.4297,3.437438 -15.746586,3.437438 -1.890303,0 -3.638975,-0.570279 -5.019888,-1.197895 l 0,3.593677 c 2.077252,0.544419 4.770977,0.989567 7.978974,0.989567 8.17935,0 7.012355,-2.708281 14.055691,-2.708281 7.043315,0 11.191949,4.427004 20.713638,4.427004 11.793737,0 14.500172,-7.135286 23.83125,-7.135286 7.286222,0 7.833255,3.906178 15.852257,3.906178 5.417211,0 7.216258,-2.052062 10.568189,-3.385358 l 0,-2.708281 c -2.90702,1.091813 -5.041566,2.812449 -10.039775,2.812449 -7.256189,0 -6.166538,-3.958265 -17.754533,-3.958265 z" />
      <path
         style="color:#000000;display:inline;overflow:visible;visibility:visible;opacity:0.05;fill:#000000;fill-opacity:1;stroke:none;stroke-width:10;marker:none;enable-background:accumulate"
         id="path4380"
         d="m 26.1356,86.041576 c -0.149104,-0.01145 -0.317365,-0.0021 -0.481252,0.05324 -0.644011,0.217608 -0.760675,0.692383 -0.850235,1.012818 -0.08956,0.320435 -0.126531,0.641143 -0.147025,1.011032 -0.04099,0.739776 -0.0092,1.639109 0.0309,2.536031 0.04012,0.89692 0.09081,1.792027 0.09496,2.484235 0.002,0.346102 -0.0035,0.645322 -0.02489,0.838804 -0.0019,0.01754 -0.01157,0.01695 -0.01475,0.03293 -0.0075,0.0032 -0.0049,0.0074 -0.01279,0.01036 -0.180689,0.06752 -0.466882,0.157387 -0.807535,0.243577 -0.681313,0.172382 -1.584428,0.35303 -2.478006,0.544615 -0.89358,0.191584 -1.781375,0.386229 -2.4957,0.611398 -0.357163,0.112585 -0.668806,0.23297 -0.964208,0.401742 -0.147704,0.08438 -0.297274,0.174469 -0.446474,0.339996 -0.1492,0.165526 -0.303263,0.451862 -0.294185,0.783648 0.01783,0.652041 0.448266,0.900753 0.740681,1.080487 0.292415,0.179734 0.611651,0.307577 0.974834,0.43984 0.726366,0.264527 1.623905,0.515555 2.532442,0.754857 0.908536,0.239301 1.822807,0.464936 2.5156,0.674007 0.346397,0.104536 0.634268,0.212571 0.820842,0.291451 0.02332,0.01 0.02582,0.0154 0.04539,0.0263 3.21e-4,0.005 -0.0013,0.006 -0.001,0.0113 0.0115,0.18493 0.0092,0.47002 -0.01012,0.80587 -0.03868,0.67171 -0.135433,1.54382 -0.220693,2.41409 -0.08515,0.87028 -0.156412,1.7357 -0.152623,2.45351 0.0019,0.3589 0.01564,0.67566 0.09263,0.9957 0.03849,0.16001 0.08671,0.32959 0.205611,0.51599 0.1189,0.18639 0.348916,0.41365 0.682959,0.50789 0.655304,0.18488 1.034611,-0.13173 1.304528,-0.34102 0.269917,-0.2093 0.498459,-0.44913 0.742982,-0.73718 0.489044,-0.57609 1.016412,-1.31234 1.536717,-2.06117 0.520303,-0.74883 1.03159,-1.51608 1.454839,-2.07894 0.211626,-0.28143 0.408295,-0.50575 0.54482,-0.65042 0.01575,-0.0167 0.02276,-0.0175 0.03842,-0.0311 0.0025,-0.002 0.0092,0.003 0.01182,9.2e-4 0.18783,0.0464 0.471444,0.13507 0.800098,0.25575 0.657311,0.24135 1.49652,0.59973 2.337331,0.94409 0.840811,0.34436 1.684824,0.67533 2.401391,0.8923 0.358284,0.10849 0.674159,0.19879 1.017051,0.22728 0.171457,0.0141 0.352505,0.016 0.574965,-0.0345 0.222461,-0.0505 0.521536,-0.18168 0.71858,-0.45504 0.386925,-0.53679 0.202227,-0.9914 0.07676,-1.30057 -0.12549,-0.30917 -0.305776,-0.5939 -0.517624,-0.90397 -0.423693,-0.62015 -1.002473,-1.32031 -1.588741,-2.021676 -0.586268,-0.701363 -1.175817,-1.398593 -1.606433,-1.95489 -0.215308,-0.27815 -0.398653,-0.518771 -0.500661,-0.686779 -0.0092,-0.01515 -0.0017,-0.02018 -0.0089,-0.03478 0.0051,-0.0087 -0.004,-0.01369 0.0019,-0.02257 0.104584,-0.156055 0.285931,-0.381042 0.508335,-0.641916 0.444805,-0.521749 1.067461,-1.178327 1.672042,-1.834716 0.60458,-0.656389 1.190726,-1.311919 1.629577,-1.894845 0.219425,-0.291464 0.403928,-0.553281 0.538715,-0.855408 0.0674,-0.151064 0.122944,-0.316885 0.141539,-0.534278 0.01859,-0.217393 -0.01762,-0.527266 -0.229529,-0.790541 -0.415982,-0.516818 -0.922432,-0.492236 -1.269761,-0.474277 -0.347329,0.01796 -0.677731,0.09439 -1.053166,0.190274 -0.750867,0.191776 -1.630549,0.500563 -2.513267,0.814531 -0.882718,0.313968 -1.767483,0.635018 -2.457015,0.853016 -0.344766,0.109 -0.642362,0.189012 -0.842068,0.229515 -0.02247,0.0046 -0.02773,0.0054 -0.04832,0.0075 -0.0055,-0.0058 -0.0055,-0.0059 -0.01084,-0.01221 -0.123028,-0.142713 -0.29977,-0.381486 -0.490778,-0.663281 -0.382015,-0.563589 -0.844002,-1.31823 -1.310654,-2.068086 -0.466652,-0.749857 -0.936706,-1.496404 -1.38167,-2.073643 -0.222483,-0.28862 -0.426545,-0.531363 -0.686135,-0.746736 -0.129794,-0.107686 -0.27535,-0.215494 -0.486503,-0.299379 -0.105573,-0.04194 -0.236606,-0.07553 -0.38571,-0.08699 z" />
      <path
         style="color:#000000;display:inline;overflow:visible;visibility:visible;opacity:0.15;fill:#000000;fill-opacity:1;stroke:none;stroke-width:10;marker:none;enable-background:accumulate"
         id="path4382"
         d="m 25.969575,86.944924 c 0.877222,-0.296407 3.711963,5.671744 4.593762,5.954853 0.913258,0.293212 7.169685,-2.718616 7.756308,-1.989793 0.566415,0.703717 -4.51204,5.120665 -4.522296,6.007833 -0.01062,0.918821 4.924709,5.660023 4.378743,6.417433 -0.527157,0.73133 -6.500555,-2.50699 -7.38869,-2.2418 -0.919821,0.27465 -4.126047,6.21669 -5.050098,5.95598 -0.892216,-0.25173 0.494476,-6.67007 -0.04416,-7.39334 -0.557862,-0.749076 -7.474747,-1.817886 -7.499874,-2.736436 -0.02427,-0.886907 6.80616,-1.615335 7.361394,-2.327531 0.575044,-0.737605 -0.4936,-7.340216 0.414917,-7.647199 z" />
      <path
         style="color:#000000;display:inline;overflow:visible;visibility:visible;fill:url(#linearGradient4398);fill-opacity:1;stroke:none;stroke-width:10;marker:none;enable-background:accumulate"
         id="path4384"
         d="m 25.969575,86.024841 c 0.877222,-0.296407 3.711963,5.671744 4.593762,5.954853 0.913258,0.293212 7.169685,-2.718616 7.756308,-1.989793 0.566415,0.703717 -4.51204,5.120665 -4.522296,6.007833 -0.01062,0.918821 4.924709,5.660016 4.378743,6.417436 -0.527157,0.73133 -6.500555,-2.506995 -7.38869,-2.2418 -0.919821,0.27465 -4.126047,6.2167 -5.050098,5.95598 -0.892216,-0.25173 0.494476,-6.670071 -0.04416,-7.393343 -0.557862,-0.749076 -7.474747,-1.817885 -7.499874,-2.736436 -0.02427,-0.886906 6.80616,-1.615335 7.361394,-2.327531 0.575044,-0.737605 -0.4936,-7.340216 0.414917,-7.647199 z" />
      <path
         style="opacity:0.5;fill:#9d0f06;fill-opacity:1;stroke:none"
         id="path4386"
         d="m 26.029023,86.013508 -0.257142,0.247655 c -0.0018,0.0055 -0.0092,0.0074 -0.01109,0.01122 -0.516226,1.251117 0.310759,6.726102 -0.210382,7.394546 -0.02181,0.02797 -0.05323,0.06642 -0.09352,0.09436 l 0.210402,0.141542 c 4.215241,1.264466 0.525725,-7.626608 0.420764,-7.878072 -0.02014,-0.0037 -0.03974,-0.01306 -0.0584,-0.01122 z" />
      <path
         style="opacity:0.75;fill:url(#linearGradient4400);fill-opacity:1;stroke:none"
         id="path4388"
         d="m 19.530368,95.849311 c -0.829219,0.0074 -1.309071,0.0472 -1.309071,0.0472 l 0,0.01122 0,0.188702 c 0.486357,0.895307 6.931007,1.919653 7.468764,2.641752 0.538644,0.723268 -0.845448,7.142805 0.04676,7.394525 0.924051,0.26073 4.129502,-5.68107 5.049321,-5.95573 0.882578,-0.263522 6.784167,2.9303 7.375281,2.25258 l -0.01109,-0.0112 c -4.976539,-6.110095 -15.02676,-6.599526 -18.620021,-6.569 z" />
      <path
         style="opacity:0.03999999;fill:url(#linearGradient4402);fill-opacity:1;stroke:none"
         id="path4390"
         d="m 42.210938,43.005423 -3.784179,1.265963 -16.650391,6.712551 -11.776367,-1.383728 0,2.738015 c 1.58813,-0.895657 11.231445,0.08833 11.231445,0.08833 l 2.452148,5.122735 -4.480469,2.090312 -1.755859,4.35727 -2.02832,0 -0.817383,1.854783 -4.601562,-0.323851 0,1.943107 9.203124,0.353293 1.907227,-1.324846 18.527345,-0.647703 5.297852,-0.647702 4.995117,1.44261 0.423827,-0.529939 c 0.94752,-0.526556 8.658204,-1.472051 8.658204,-1.472051 1.624325,0 7.719726,1.324846 7.719726,1.324846 0.744096,2.1709 1.526634,8.63886 1.66504,9.803857 1.150683,-0.32289 2.442781,-0.557043 3.875,-0.706584 -1.102311,-1.215194 -2.518091,-3.93901 -2.179688,-9.862739 l 3.935547,-0.147205 c 0,0 10.550814,-4.996172 12.987305,-5.917643 2.436484,-0.921471 13.558673,-0.389507 15.318363,-1.442609 l 0.12109,-1.648696 c -0.33628,0.388743 -2.541147,1.2053 -14.622071,1.50149 0,0 -13.687074,5.921026 -14.228514,6.447582 l -3.905274,0.147204 3.239258,-4.210064 8.80957,-4.622239 -6.508789,-8.567333 14.228516,-0.912672 6.387695,-2.826337 -3.814454,0 -3.663084,1.265963 -11.08008,0.500497 -2.149414,-1.76646 -3.753906,0 c 0.245113,0.56345 0.386924,1.085878 0.211915,1.383727 0,0 -4.333969,1.589815 -7.447267,1.589815 l -2.573242,-0.412175 c -2.209313,0 -9.008502,-1.850922 -11.534179,-2.561369 l -7.840822,0 z m 54.67383,0 5.025382,0.323851 -0.0605,-0.323851 -4.964836,0 z m -51.283204,0.206087 1.634765,0.912671 17.195313,3.680127 6.750978,-2.090311 2.421875,1.442609 6.115234,7.89019 -7.992188,3.827332 -4.329102,5.004972 -7.84082,-0.529939 -9.899414,1.972548 -4.601563,-1.442609 -25.429689,0.91267 c 0.812165,-4.738985 5.691408,-4.327828 5.691408,-4.327828 L 23.532227,52.161577 45.601564,43.21151 Z m 56.853516,12.630193 0,0.176647 c 0.0877,-0.118528 0,-0.176647 0,-0.176647 z" />
      <path
         style="opacity:0.02999998;fill:url(#linearGradient4404);fill-opacity:1;stroke:none"
         id="path4392"
         d="m 38.281526,61.385627 -1.415039,0.48875 a 0.79388023,0.79035195 0 0 0 -0.05776,0.02875 L 21.127787,68.371878 10.096258,67.049377 a 0.79388023,0.79035195 0 0 0 -0.08664,0 l 0,4.255001 a 0.79388023,0.79035195 0 0 0 0.404297,-0.115 c 0.02259,-0.01306 0.897738,-0.22701 1.934849,-0.25875 1.037112,-0.03174 2.320172,0.02144 3.552037,0.0862 2.223554,0.116932 3.890121,0.277288 4.273996,0.31625 l 1.819336,3.88125 -3.552037,1.69625 a 0.79388023,0.79035195 0 0 0 -0.404297,0.43125 l -1.472796,3.766251 -1.38616,0 a 0.79388023,0.79035195 0 0 0 -0.721959,0.46 l -0.577567,1.3225 -3.811942,-0.2875 a 0.79388023,0.79035195 0 0 0 -0.05776,0 l 0,3.45 8.75014,0.345 a 0.79388023,0.79035195 0 0 0 0.490932,-0.143704 l 1.617187,-1.15 17.442523,-0.6325 a 0.79388023,0.79035195 0 0 0 0.05776,0 l 4.90932,-0.60375 4.591657,1.35125 a 0.79388023,0.79035195 0 0 0 0.866351,-0.25875 l 0.288783,-0.345 c 0.05631,-0.01969 0.09913,-0.06587 0.288783,-0.115 0.261952,-0.0678 0.612168,-0.123712 1.010743,-0.20125 0.797149,-0.155075 1.802621,-0.342139 2.772321,-0.48875 1.895486,-0.28658 3.587356,-0.507408 3.66755,-0.5175 0.0114,0 0.07408,-2.58e-4 0.08664,0 0.596011,0.01242 2.412116,0.317961 4.014091,0.6325 1.374755,0.269919 2.238217,0.466891 2.599051,0.54625 0.291981,1.013868 0.628818,2.786883 0.895229,4.600001 0.289811,1.972379 0.511906,3.832968 0.577567,4.39875 a 0.79388023,0.79035195 0 0 0 0.02888,0.14375 c 1.493585,-0.491133 3.192315,-0.855572 5.226981,-1.00625 a 0.79388023,0.79035195 0 0 0 -0.17327,-0.43125 C 69.175358,91.224993 67.954576,88.906059 68.11286,83.810629 l 3.003349,-0.115 a 0.79388023,0.79035195 0 0 0 0.317661,-0.0575 c 0,0 2.510481,-1.228228 5.313616,-2.55875 2.803136,-1.330523 5.946271,-2.776533 7.017439,-3.19125 0.366868,-0.142039 1.476844,-0.310225 2.8012,-0.402501 1.324353,-0.09228 2.898172,-0.145617 4.47614,-0.20125 1.577969,-0.05566 3.148932,-0.117309 4.447266,-0.23 1.298334,-0.11269 2.240415,-0.193844 3.003348,-0.66125 a 0.79388023,0.79035195 0 0 0 0.231027,-0.20125 l 0,-2.875 c -0.03031,-0.02438 -0.08659,-0.0575 -0.08659,-0.0575 a 0.79388023,0.79035195 0 0 0 -1.184012,0.4025 c -0.04436,0.02456 0.01904,-0.0028 -0.17327,0.0575 -0.355948,0.111799 -0.987353,0.236063 -1.963728,0.37375 -1.952749,0.275384 -5.344343,0.574559 -11.089282,0.71875 a 0.79388023,0.79035195 0 0 0 -0.28883,0.0575 c 0,0 -3.280285,1.449552 -6.613142,2.961251 -1.666427,0.755844 -3.345126,1.509508 -4.649414,2.1275 -0.652143,0.308991 -1.198105,0.591238 -1.617187,0.805 -0.209541,0.106876 -0.377724,0.206604 -0.51981,0.2875 -0.02977,0.01693 -0.06163,0.04471 -0.08664,0.0575 l -1.877093,0.0862 1.992606,-2.67375 8.259208,-4.427501 a 0.79388023,0.79035195 0 0 0 0.259905,-1.15 l -5.371373,-7.216251 12.157785,-0.805 a 0.79388023,0.79035195 0 0 0 0.259905,-0.0575 l 6.093328,-2.76 a 0.79388023,0.79035195 0 0 0 0.17327,-0.115 0.79388023,0.79035195 0 0 0 0.02883,0 0.79388023,0.79035195 0 0 0 0.404297,0.1725 l 4.793806,0.31625 a 0.79388023,0.79035195 0 0 0 0.837472,-0.92 l -0.02883,-0.172454 -12.562077,0 -1.299526,0.46 -10.078544,0.46 -1.097377,-0.92 -5.6024,0 a 0.79388023,0.79035195 0 0 0 0.05776,0.31625 c 0.07429,0.174828 0.10816,0.301824 0.144392,0.43125 -0.699079,0.245005 -3.849812,1.363127 -6.266602,1.38 l -2.396903,-0.4025 a 0.79388023,0.79035195 0 0 0 -0.115513,0 c -0.825805,0 -3.02926,-0.443155 -5.198103,-0.9775 -1.004963,-0.2476 -1.999717,-0.500029 -2.916713,-0.7475 l -12.821987,0 z m 5.631278,1.0925 1.212891,0.69 a 0.79388023,0.79035195 0 0 0 0.231027,0.0862 l 16.402902,3.593796 a 0.79388023,0.79035195 0 0 0 0.404297,-0.0287 l 6.122209,-1.92625 1.819336,1.0925 5.198103,6.871251 -6.757533,3.30625 a 0.79388023,0.79035195 0 0 0 -0.259906,0.20125 l -3.898577,4.600001 -7.046317,-0.48875 a 0.79388023,0.79035195 0 0 0 -0.231026,0 l -9.241072,1.8975 -4.18736,-1.35125 a 0.79388023,0.79035195 0 0 0 -0.259906,-0.0287 l -23.016043,0.833658 c 0.494341,-1.204437 1.239764,-1.952829 2.079241,-2.27125 1.074007,-0.407376 2.079241,-0.345 2.079241,-0.345 a 0.79388023,0.79035195 0 0 0 0.837472,-0.94875 l -1.559431,-7.475001 20.070452,-8.308751 z" />
      <rect
         width="92"
         height="68"
         x="10.509624"
         y="43.509445"
         id="rect4206"
         style="color:#000000;display:inline;overflow:visible;visibility:visible;opacity:0.3;fill:none;fill-opacity:1;fill-rule:nonzero;stroke:#000000;stroke-width:1.00000072;stroke-linecap:round;stroke-linejoin:miter;stroke-miterlimit:4;stroke-dasharray:none;stroke-dashoffset:0;stroke-opacity:1;marker:none;enable-background:accumulate" />
    </g>
    <g
       transform="translate(-0.99999907,-1.0000599)"
       id="g4285">
      <path
         style="opacity:1;fill:url(#linearGradient1298);fill-opacity:1;stroke:none;stroke-width:0.79069769;stroke-linecap:butt;stroke-linejoin:miter;stroke-miterlimit:4;stroke-dasharray:none;stroke-dashoffset:0;stroke-opacity:1;marker:none"
         d="m 87.5,40.500061 0,20 19.99991,0 -6.99999,-7 0,0 16.0001,-16 6.99998,7 0,-20 -19.9999,0 6.99998,7 0,0 -16.000099,16 z"
         id="path1212" />
      <path
         id="path1282"
         d="m 87.5,40.500061 0,20 19.99991,0 -6.99999,-7 0,0 16.0001,-16 6.99998,7 0,-20 -19.9999,0 6.99998,7 0,0 -16.000099,16 z"
         style="opacity:0.5;fill:none;fill-opacity:1;stroke:#555761;stroke-width:1;stroke-linecap:butt;stroke-linejoin:miter;stroke-miterlimit:4;stroke-dasharray:none;stroke-dashoffset:0;stroke-opacity:1;marker:none" />
    </g>
  </g>
</svg>
