<?xml version="1.0" encoding="UTF-8" standalone="no"?>
<svg
   xmlns:dc="http://purl.org/dc/elements/1.1/"
   xmlns:cc="http://creativecommons.org/ns#"
   xmlns:rdf="http://www.w3.org/1999/02/22-rdf-syntax-ns#"
   xmlns:svg="http://www.w3.org/2000/svg"
   xmlns="http://www.w3.org/2000/svg"
   xmlns:xlink="http://www.w3.org/1999/xlink"
   id="svg2453"
   height="24.000042"
   width="24.000042"
   version="1.0">
  <metadata
     id="metadata35">
    <rdf:RDF>
      <cc:Work
         rdf:about="">
        <dc:format>image/svg+xml</dc:format>
        <dc:type
           rdf:resource="http://purl.org/dc/dcmitype/StillImage" />
        <dc:title />
      </cc:Work>
    </rdf:RDF>
  </metadata>
  <defs
     id="defs2455">
    <linearGradient
       id="linearGradient4217">
      <stop
         id="stop4219"
         style="stop-color:#000000;stop-opacity:0.31764707"
         offset="0" />
      <stop
         id="stop4221"
         style="stop-color:#000000;stop-opacity:0.23921569"
         offset="1" />
    </linearGradient>
    <linearGradient
       id="linearGradient4324">
      <stop
         id="stop4326"
         style="stop-color:#ffffff;stop-opacity:1"
         offset="0" />
      <stop
         id="stop4328"
         style="stop-color:#ffffff;stop-opacity:0.23529412"
         offset="0" />
      <stop
         id="stop4330"
         style="stop-color:#ffffff;stop-opacity:0.15686275"
         offset="1" />
      <stop
         id="stop4332"
         style="stop-color:#ffffff;stop-opacity:0.39215687"
         offset="1" />
    </linearGradient>
    <radialGradient
       gradientTransform="matrix(0.01445833,0,0,0.00617648,13.486574,18.735459)"
       gradientUnits="userSpaceOnUse"
       xlink:href="#linearGradient5060"
       id="radialGradient19613"
       fy="486.64789"
       fx="605.71429"
       r="117.14286"
       cy="486.64789"
       cx="605.71429" />
    <linearGradient
       id="linearGradient5060">
      <stop
         offset="0"
         style="stop-color:#000000;stop-opacity:1"
         id="stop5062" />
      <stop
         offset="1"
         style="stop-color:#000000;stop-opacity:0"
         id="stop5064" />
    </linearGradient>
    <radialGradient
       gradientTransform="matrix(-0.01445832,0,0,0.00617648,10.513465,18.735459)"
       gradientUnits="userSpaceOnUse"
       xlink:href="#linearGradient5060"
       id="radialGradient19616"
       fy="486.64789"
       fx="605.71429"
       r="117.14286"
       cy="486.64789"
       cx="605.71429" />
    <linearGradient
       id="linearGradient5048">
      <stop
         offset="0"
         style="stop-color:#000000;stop-opacity:0"
         id="stop5050" />
      <stop
         offset="0.5"
         style="stop-color:#000000;stop-opacity:1"
         id="stop5056" />
      <stop
         offset="1"
         style="stop-color:#000000;stop-opacity:0"
         id="stop5052" />
    </linearGradient>
    <linearGradient
       gradientTransform="matrix(0.04224859,0,0,0.00617648,-3.2698284,18.735446)"
       gradientUnits="userSpaceOnUse"
       xlink:href="#linearGradient5048"
       id="linearGradient19619"
       y2="609.50507"
       x2="302.85715"
       y1="366.64789"
       x1="302.85715" />
    <linearGradient
       id="linearGradient3104">
      <stop
         offset="0"
         style="stop-color:#000000;stop-opacity:0.31764707"
         id="stop3106" />
      <stop
         offset="1"
         style="stop-color:#000000;stop-opacity:0.23921569"
         id="stop3108" />
    </linearGradient>
    <linearGradient
       id="linearGradient3600">
      <stop
         offset="0"
         style="stop-color:#f4f4f4;stop-opacity:1"
         id="stop3602" />
      <stop
         offset="1"
         style="stop-color:#dbdbdb;stop-opacity:1"
         id="stop3604" />
    </linearGradient>
    <linearGradient
       gradientTransform="matrix(0.51351353,0,0,0.4324324,-0.32432121,2.1216678)"
       gradientUnits="userSpaceOnUse"
       xlink:href="#linearGradient4324"
       id="linearGradient3138"
       y2="41.343742"
       x2="23.99999"
       y1="6.6562409"
       x1="23.99999" />
    <linearGradient
       gradientTransform="matrix(0.60000084,0,0,0.39111189,-2.400021,2.5134037)"
       gradientUnits="userSpaceOnUse"
       xlink:href="#linearGradient3600"
       id="linearGradient3141"
       y2="47.013336"
       x2="25.132275"
       y1="0.98520643"
       x1="25.132275" />
    <linearGradient
       gradientTransform="matrix(0.48449879,0,0,0.36602247,33.24617,2.0775167)"
       gradientUnits="userSpaceOnUse"
       xlink:href="#linearGradient4217"
       id="linearGradient3143"
       y2="2.9062471"
       x2="-51.786404"
       y1="50.786446"
       x1="-51.786404" />
    <linearGradient
       y2="28.909105"
       x2="27.161257"
       y1="-15.566356"
       x1="27.161257"
       gradientTransform="matrix(0.24732615,0,0,0.24732617,12.282311,7.3499671)"
       gradientUnits="userSpaceOnUse"
       id="linearGradient317"
       xlink:href="#linearGradient4220-7" />
    <linearGradient
       id="linearGradient4220-7">
      <stop
         offset="0"
         style="stop-color:#fafafa;stop-opacity:1"
         id="stop4222-7" />
      <stop
         offset="1"
         style="stop-color:#abacae;stop-opacity:1"
         id="stop4224-0" />
    </linearGradient>
    <linearGradient
       y2="47.013336"
       x2="25.132275"
       y1="0.98520643"
       x1="25.132275"
       gradientTransform="matrix(0.45369524,0,0,0.29501982,-1.4490404,7.1782327)"
       gradientUnits="userSpaceOnUse"
       id="linearGradient4212"
       xlink:href="#linearGradient3600" />
    <linearGradient
       y2="2.9062471"
       x2="-51.786404"
       y1="50.786446"
       x1="-51.786404"
       gradientTransform="matrix(0.36635748,0,0,0.27609461,25.505101,6.8494386)"
       gradientUnits="userSpaceOnUse"
       id="linearGradient4214"
       xlink:href="#linearGradient3104" />
    <linearGradient
       y2="41.343742"
       x2="23.99999"
       y1="6.6562409"
       x1="23.99999"
       gradientTransform="matrix(0.38826326,0,0,0.32622456,0.12133574,6.8818407)"
       gradientUnits="userSpaceOnUse"
       id="linearGradient4216"
       xlink:href="#linearGradient4324" />
    <linearGradient
       y2="39.991924"
       x2="-96.557358"
       y1="110.92493"
       x1="-96.557358"
       gradientTransform="matrix(0.11183314,0,0,0.11095306,26.051608,9.4335646)"
       gradientUnits="userSpaceOnUse"
       id="linearGradient3294"
       xlink:href="#linearGradient3825-5-8-9" />
    <linearGradient
       id="linearGradient3825-5-8-9">
      <stop
         offset="0"
         style="stop-color:#e89c42;stop-opacity:1"
         id="stop3827-2-3-55" />
      <stop
         offset="1"
         style="stop-color:#faca67;stop-opacity:1"
         id="stop3829-5-0-1" />
    </linearGradient>
    <linearGradient
       y2="38.561256"
       x2="-107.45584"
       y1="-37.385227"
       x1="-107.45584"
       gradientTransform="matrix(0.11183314,0,0,0.11948791,26.051608,9.6135161)"
       gradientUnits="userSpaceOnUse"
       id="linearGradient3289"
       xlink:href="#linearGradient3871-6-7" />
    <linearGradient
       id="linearGradient3871-6-7">
      <stop
         offset="0"
         style="stop-color:#0b85e9;stop-opacity:1"
         id="stop3873-3-2" />
      <stop
         offset="1"
         style="stop-color:#69d1ef;stop-opacity:1"
         id="stop3875-4-0" />
    </linearGradient>
    <linearGradient
       gradientTransform="matrix(0.07511055,0.00586778,-0.00619394,0.07150456,24.004891,11.546757)"
       y2="75.190559"
       x2="-208.49672"
       y1="88.750069"
       x1="-211.28862"
       gradientUnits="userSpaceOnUse"
       id="linearGradient3281"
       xlink:href="#linearGradient4470-86-9" />
    <linearGradient
       id="linearGradient4470-86-9">
      <stop
         offset="0"
         style="stop-color:#ec4502;stop-opacity:1"
         id="stop4472-0-4" />
      <stop
         offset="1"
         style="stop-color:#fe7617;stop-opacity:1"
         id="stop4474-9-9" />
    </linearGradient>
    <linearGradient
       y2="88.801025"
       x2="-175.25337"
       y1="113.97943"
       x1="-184.92441"
       gradientTransform="matrix(0.07502968,0,0,0.07558974,20.869769,9.8579913)"
       gradientUnits="userSpaceOnUse"
       id="linearGradient3277"
       xlink:href="#linearGradient4574-39-1" />
    <linearGradient
       id="linearGradient4574-39-1">
      <stop
         offset="0"
         style="stop-color:#7a0f01;stop-opacity:1"
         id="stop4576-75-8" />
      <stop
         offset="1"
         style="stop-color:#d31807;stop-opacity:1"
         id="stop4578-96-3" />
    </linearGradient>
    <linearGradient
       y2="39.991924"
       x2="-96.557358"
       y1="110.92493"
       x1="-96.557358"
       gradientTransform="matrix(0.08551946,0,0,0.08484646,20.6277,11.033232)"
       gradientUnits="userSpaceOnUse"
       id="linearGradient4368"
       xlink:href="#linearGradient3825-5-8-9" />
    <linearGradient
       y2="38.561256"
       x2="-107.45584"
       y1="-37.385227"
       x1="-107.45584"
       gradientTransform="matrix(0.08551946,0,0,0.07940774,20.6277,11.740279)"
       gradientUnits="userSpaceOnUse"
       id="linearGradient4370"
       xlink:href="#linearGradient3871-6-7" />
    <linearGradient
       y2="75.190559"
       x2="-208.49672"
       y1="88.750069"
       x1="-211.28862"
       gradientTransform="matrix(0.05743748,0.00448713,-0.00473654,0.05467996,19.062564,12.649202)"
       gradientUnits="userSpaceOnUse"
       id="linearGradient4372"
       xlink:href="#linearGradient4470-86-9" />
    <linearGradient
       y2="88.801025"
       x2="-175.25337"
       y1="113.97943"
       x1="-184.92441"
       gradientTransform="matrix(0.05737564,0,0,0.05780392,16.665118,11.357793)"
       gradientUnits="userSpaceOnUse"
       id="linearGradient4374"
       xlink:href="#linearGradient4574-39-1" />
  </defs>
  <g
     id="g4450">
    <g
       id="g4323">
      <rect
         width="20.400034"
         height="1.5000025"
         x="1.8000031"
         y="21.00004"
         id="rect2879"
         style="display:inline;overflow:visible;visibility:visible;opacity:0.075;fill:url(#linearGradient19619);fill-opacity:1;fill-rule:nonzero;stroke:none;stroke-width:1;marker:none" />
      <path
         d="m 1.8000031,21.000104 c 0,0 0,1.49992 0,1.49992 C 1.0554349,22.502848 0,22.163968 0,21.749968 c 0,-0.414 0.83088183,-0.749863 1.8000031,-0.749864 z"
         id="path2881"
         style="display:inline;overflow:visible;visibility:visible;opacity:0.075;fill:url(#radialGradient19616);fill-opacity:1;fill-rule:nonzero;stroke:none;stroke-width:1;marker:none" />
      <path
         d="m 22.200038,21.000104 c 0,0 0,1.49992 0,1.49992 0.744568,0.0028 1.800003,-0.336056 1.800003,-0.750056 0,-0.414 -0.830882,-0.749863 -1.800003,-0.749864 z"
         id="path2883"
         style="display:inline;overflow:visible;visibility:visible;opacity:0.075;fill:url(#radialGradient19613);fill-opacity:1;fill-rule:nonzero;stroke:none;stroke-width:1;marker:none" />
    </g>
    <g
       id="g4376"
       style="opacity:0.5">
      <path
         style="display:inline;fill:url(#linearGradient3141);fill-opacity:1;stroke:none;stroke-width:0.9999218;stroke-linecap:butt;stroke-linejoin:round;stroke-miterlimit:4;stroke-dasharray:none;stroke-dashoffset:0;stroke-opacity:1"
         id="path4160"
         d="m 2,4.0000645 c 4.8121841,0 19.999988,-2.25e-5 19.999988,-2.25e-5 l 2.4e-5,17 L 2,21.000042 2,4.0000195 Z" />
      <path
         style="fill:none;stroke:url(#linearGradient3138);stroke-width:1;stroke-linecap:round;stroke-linejoin:miter;stroke-miterlimit:4;stroke-dasharray:none;stroke-dashoffset:0;stroke-opacity:1"
         id="rect6741-1"
         d="m 21.5,20.500042 -19,0 0,-16 19,0 z" />
      <path
         d="m 1.4999609,3.5000577 c 4.8121841,0 21.0000541,0.0011 21.0000541,0.0011 l 2.4e-5,17.9989233 c 0,0 -14.0000513,0 -21.0000781,0 0,-6.000023 0,-12.0000459 0,-18.0000683 z"
         id="path4214"
         style="display:inline;fill:none;fill-opacity:1;stroke:url(#linearGradient3143);stroke-width:0.9999218;stroke-linecap:butt;stroke-linejoin:round;stroke-miterlimit:4;stroke-dasharray:none;stroke-dashoffset:0;stroke-opacity:1" />
      <g
         id="g4393"
         transform="matrix(1.0588235,0,0,1.0588235,-0.1766215,-2.4040215)"
         style="">
        <path
           style="color:#000000;display:inline;overflow:visible;visibility:visible;fill:url(#linearGradient3294);fill-opacity:1;fill-rule:nonzero;stroke:none;stroke-width:10;marker:none;enable-background:accumulate"
           id="rect3055-2-9-1"
           d="m 2.9999999,6.9999985 0,14.1593955 17.0000001,0 0,-14.1593955 z" />
        <path
           style="color:#000000;display:inline;overflow:visible;visibility:visible;opacity:0.05;fill:#000000;fill-opacity:1;fill-rule:nonzero;stroke:none;stroke-width:44.37043762;marker:none;enable-background:accumulate"
           id="path5297"
           d="m 7.108383,14.363051 c -0.072735,-0.0055 -0.1545133,9.6e-5 -0.2369661,0.02791 -0.3218422,0.108583 -0.3587506,0.322485 -0.3874877,0.425147 -0.028735,0.102661 -0.03468,0.182453 -0.039352,0.266639 -0.00934,0.16837 -0.00208,0.345343 0.00586,0.522198 0.00651,0.145267 0.012305,0.274201 0.015154,0.388068 -0.1109878,0.02573 -0.2333009,0.05337 -0.3741562,0.08352 -0.1765366,0.03779 -0.3550044,0.07562 -0.5196116,0.127425 -0.082303,0.02591 -0.1596166,0.05205 -0.2578436,0.108081 -0.049113,0.02801 -0.1056789,0.06133 -0.1719029,0.134692 -0.066224,0.07336 -0.1464577,0.211318 -0.1418904,0.37801 0.00892,0.325417 0.2104863,0.423818 0.3043152,0.481402 0.093829,0.05758 0.1695117,0.08689 0.2522818,0.116983 0.1655411,0.06019 0.3481483,0.108991 0.5275569,0.156173 0.1478643,0.03889 0.2774025,0.07553 0.3923923,0.108032 -0.00861,0.108299 -0.020522,0.227991 -0.033877,0.36434 -0.016818,0.171667 -0.033277,0.343048 -0.032406,0.508155 4.358e-4,0.08255 0.00232,0.161276 0.027923,0.267473 0.012793,0.0531 0.030065,0.114011 0.082828,0.196597 0.052764,0.08259 0.1634885,0.199626 0.3315883,0.246981 0.327506,0.09226 0.4885528,-0.05824 0.5751618,-0.125296 0.086609,-0.06705 0.1399475,-0.129181 0.195682,-0.194736 0.1114677,-0.131109 0.2153497,-0.280706 0.3180987,-0.428356 0.08451,-0.121437 0.159635,-0.228819 0.227664,-0.322673 0.105677,0.04112 0.221967,0.08844 0.354559,0.142659 0.16612,0.06793 0.334191,0.137202 0.4993305,0.18713 0.08257,0.02496 0.15975,0.0473 0.273754,0.05676 0.057,0.0047 0.125389,0.0089 0.224101,-0.01344 0.09871,-0.02238 0.247783,-0.0876 0.346922,-0.224925 0.193359,-0.267841 0.09361,-0.462656 0.05331,-0.561792 -0.0403,-0.09913 -0.08453,-0.16528 -0.132836,-0.235875 -0.09661,-0.14119 -0.214817,-0.28105 -0.330592,-0.419343 -0.09508,-0.113567 -0.177277,-0.214454 -0.249953,-0.304715 0.07386,-0.08297 0.156307,-0.173356 0.251541,-0.276592 0.119443,-0.12948 0.239503,-0.25933 0.340618,-0.393436 0.05056,-0.06705 0.09837,-0.131725 0.143176,-0.231999 0.0224,-0.05014 0.04672,-0.109408 0.05498,-0.205728 0.0083,-0.09632 -0.01097,-0.252744 -0.117596,-0.385017 -0.207895,-0.257896 -0.431564,-0.225033 -0.542991,-0.21928 -0.111427,0.0058 -0.192512,0.02499 -0.278081,0.04681 -0.1711355,0.04364 -0.3487155,0.105044 -0.5230345,0.166951 -0.143691,0.05103 -0.269999,0.0958 -0.38314,0.133665 -0.05991,-0.09235 -0.124539,-0.195955 -0.19807,-0.313929 -0.0922,-0.147923 -0.185361,-0.296418 -0.2879308,-0.429275 -0.051285,-0.06643 -0.098347,-0.128599 -0.1847,-0.200134 -0.043178,-0.03577 -0.096085,-0.07714 -0.1898116,-0.114313 -0.046863,-0.01859 -0.1118206,-0.03544 -0.1845559,-0.04095 z m 0.8407957,1.151171 c 0.0025,-3.58e-4 0.01724,0.0039 0.02057,0.0038 -0.0059,0.0015 -0.02274,0.0061 -0.02613,0.0068 -0.0083,0.0017 -0.01458,-0.0077 0.0056,-0.01062 z m 0.307236,0.09917 c 0.0256,0.02035 0.02393,0.02946 0.01886,0.02358 -0.0023,-0.0027 -0.01429,-0.01772 -0.01886,-0.02358 z m -1.5929124,0.319922 c 0.020658,-0.0093 0.022418,0.0032 0.015768,0.0057 -0.00348,0.0013 -0.023299,0.0062 -0.030936,0.0086 0.003,-0.0018 0.012711,-0.01318 0.015173,-0.01429 z m -0.1975606,0.243224 c -3.811e-4,0.0061 4.039e-4,0.02313 2.04e-5,0.02653 -0.00102,0.0091 -0.00917,0.0022 -2.04e-5,-0.02653 z m 2.6127193,0.480456 c -0.0047,-0.0078 0.0064,-0.0064 0.01674,0.02121 -0.0035,-0.0052 -0.01495,-0.01826 -0.01674,-0.02121 z m 0.008,0.31013 c -0.01235,0.02884 -0.02274,0.03152 -0.01843,0.02509 0.002,-0.003 0.01389,-0.01901 0.01843,-0.02509 z M 6.4859853,17.47361 c 2.138e-4,0.0035 -4.271e-4,0.02329 -3.604e-4,0.03092 -0.00801,-0.03061 -1.219e-4,-0.03857 3.604e-4,-0.03092 z m 0.1741897,0.267846 c 0.00559,0.0021 0.021678,0.0073 0.024803,0.0086 0.00882,0.0037 0.00116,0.0086 -0.024803,-0.0086 z m 1.6399797,0.289504 c 0.0065,-0.0069 0.0075,0.0045 -0.01824,0.02289 0.0046,-0.0053 0.01564,-0.02015 0.01824,-0.02289 z m -0.338006,0.09519 c 0.0038,9.19e-4 0.02335,0.0089 0.03153,0.01131 -0.03279,-0.0022 -0.03929,-0.01322 -0.03153,-0.01131 z" />
        <path
           style="color:#000000;display:inline;overflow:visible;visibility:visible;opacity:0.07000002;fill:#000000;fill-opacity:1;fill-rule:nonzero;stroke:none;stroke-width:10;marker:none;enable-background:accumulate"
           id="rect3055-2-6-9-0-6"
           d="m 2.9999999,6.9996716 0,7.7637184 c 0.379714,0.107869 0.872114,0.196069 1.45852,0.196069 1.49515,0 1.281828,-0.536609 2.569323,-0.536609 1.287486,0 2.0458371,0.877149 3.7863631,0.877149 2.155845,0 2.650569,-1.413759 4.35625,-1.413759 1.331888,0 1.431886,0.773956 2.897725,0.773956 0.990241,0 1.319101,-0.406589 1.931819,-0.670762 l 0,-6.9897624 z" />
        <path
           style="fill:url(#linearGradient3289);fill-opacity:1;stroke:none"
           id="path3867-3-5-3"
           d="m 2.9999999,6.9927526 0,7.1444704 c 0.252426,0.124353 0.572074,0.237347 0.917613,0.237347 0.789107,0 1.560808,-0.681081 2.878407,-0.681081 1.317604,0 2.3086091,0.856511 3.9698871,0.856511 1.661278,0 2.035169,-1.238329 4.153412,-1.238329 2.118237,0 1.919054,0.784275 3.245451,0.784275 0.913651,0 1.303838,-0.34092 1.83523,-0.557248 l 0,-6.5459454 z" />
        <path
           style="color:#000000;display:inline;overflow:visible;visibility:visible;opacity:0.1;fill:#ffffff;fill-opacity:1;fill-rule:nonzero;stroke:none;stroke-width:10;marker:none;enable-background:accumulate"
           id="path4213-1-6"
           d="m 14.919319,11.806635 c -1.112768,0 -1.812739,0.336631 -2.385799,0.650123 -0.573056,0.313491 -1.00538,0.588206 -1.767613,0.588206 -0.783322,0 -1.40242,-0.199955 -2.0187501,-0.412776 -0.616326,-0.212822 -1.23268,-0.443735 -1.951137,-0.443735 -0.706237,0 -1.274028,0.177476 -1.738633,0.35086 -0.46461,0.173384 -0.824429,0.330221 -1.139774,0.330221 -0.28552,0 -0.563838,-0.104285 -0.792044,-0.216707 a 0.29415704,0.31426635 0 0 0 -0.125569,-0.03096 l 0,1.351843 c 0.391132,0.104566 0.881785,0.185749 1.45852,0.185749 0.780512,0 1.177609,-0.152178 1.477843,-0.288944 0.300234,-0.136765 0.485983,-0.247665 1.09148,-0.247665 0.581221,0 1.048758,0.20154 1.622726,0.423095 C 9.224531,14.267501 9.897693,14.5 10.814206,14.5 c 1.138098,0 1.878958,-0.385644 2.492044,-0.742998 0.613086,-0.357354 1.087424,-0.670762 1.864206,-0.670762 0.612614,0 0.897189,0.166095 1.275,0.36118 0.377801,0.195085 0.841349,0.412776 1.622725,0.412776 0.995062,0 1.431212,-0.394433 1.931819,-0.639803 l 0,-1.186733 a 0.29415704,0.31426635 0 0 0 -0.10625,0.02064 c -0.582708,0.237219 -0.883811,0.53661 -1.72898,0.53661 -0.60894,0 -0.798986,-0.155864 -1.197726,-0.36118 -0.398744,-0.205315 -0.95463,-0.423096 -2.047725,-0.423096 z" />
        <path
           style="color:#000000;display:inline;overflow:visible;visibility:visible;opacity:0.3;fill:#ffffff;fill-opacity:1;fill-rule:nonzero;stroke:none;stroke-width:10;marker:none;enable-background:accumulate"
           id="rect3055-2-6-94-0-7"
           d="m 14.919319,12.425798 c -2.118243,0 -2.492134,1.238329 -4.153412,1.238329 -1.661278,0 -2.6522831,-0.856511 -3.9698871,-0.856511 -1.317599,0 -2.0893,0.681081 -2.878407,0.681081 -0.345539,0 -0.665187,-0.112993 -0.917613,-0.237346 l 0,0.712039 c 0.379714,0.107869 0.872114,0.196069 1.45852,0.196069 1.49515,0 1.281828,-0.536609 2.569323,-0.536609 1.287486,0 2.0458371,0.87715 3.7863631,0.87715 2.155845,0 2.650569,-1.41376 4.35625,-1.41376 1.331888,0 1.431886,0.773956 2.897725,0.773956 0.990241,0 1.319101,-0.406588 1.931819,-0.670761 l 0,-0.53661 c -0.531392,0.216329 -0.921579,0.557248 -1.83523,0.557248 -1.326397,0 -1.127214,-0.784275 -3.245451,-0.784275 z" />
        <path
           style="color:#000000;display:inline;overflow:visible;visibility:visible;fill:#ffffff;fill-opacity:1;fill-rule:nonzero;stroke:none;stroke-width:10;marker:none;enable-background:accumulate"
           id="rect3055-2-6-8-5"
           d="m 14.919319,12.925799 c -2.118243,0 -2.492134,1.238329 -4.153412,1.238329 -1.661278,0 -2.6522831,-0.856511 -3.9698871,-0.856511 -1.317599,0 -2.0893,0.681081 -2.878407,0.681081 -0.345539,0 -0.665187,-0.112993 -0.917613,-0.237346 l 0,0.712039 c 0.379714,0.107868 0.872114,0.196069 1.45852,0.196069 1.49515,0 1.281828,-0.536609 2.569323,-0.536609 C 8.3153289,14.122851 9.07368,15 10.814206,15 c 2.155845,0 2.650569,-1.413758 4.35625,-1.413758 1.331888,0 1.431886,0.773955 2.897725,0.773955 0.990241,0 1.319101,-0.406588 1.931819,-0.670761 l 0,-0.53661 c -0.531392,0.216329 -0.921579,0.557248 -1.83523,0.557248 -1.326397,0 -1.127214,-0.784275 -3.245451,-0.784275 z" />
        <path
           style="color:#000000;display:inline;overflow:visible;visibility:visible;opacity:0.15;fill:#000000;fill-opacity:1;fill-rule:nonzero;stroke:none;stroke-width:44.37043762;marker:none;enable-background:accumulate"
           id="path5640-3"
           d="m 6.9702405,14.845344 c -0.1801063,0.06076 0.030127,1.367687 -0.083875,1.513688 -0.1100705,0.140971 -1.464343,0.283889 -1.4595331,0.459442 0.00498,0.181816 1.3780039,0.393059 1.4885954,0.54133 0.1067819,0.143163 -0.1690945,1.414799 0.00778,1.464626 0.1831851,0.0516 0.8197981,-1.124468 1.0021461,-1.178833 C 8.1014189,17.593107 9.284915,18.233068 9.38942,18.08831 9.497652,17.938386 8.5192279,17.001462 8.5213329,16.819592 8.5233329,16.643988 9.53037,15.76957 9.418083,15.630278 9.301791,15.486016 8.0603509,16.080847 7.8793049,16.022809 7.7044959,15.966769 7.1441429,14.786674 6.9702414,14.845344 Z" />
        <path
           style="color:#000000;display:inline;overflow:visible;visibility:visible;fill:url(#linearGradient3281);fill-opacity:1;stroke:none;stroke-width:10;marker:none;enable-background:accumulate"
           id="path4468-6"
           d="m 7.0218294,14.504789 c 0.1739611,-0.05869 0.7361161,1.123036 0.9109851,1.179094 0.181107,0.05806 1.4218135,-0.538302 1.5381455,-0.39399 0.112325,0.139339 -0.8947775,1.013919 -0.8968115,1.189583 -0.0021,0.181932 0.9766135,1.120715 0.8683435,1.270688 -0.104539,0.144807 -1.2891185,-0.496399 -1.4652435,-0.44389 -0.182409,0.05438 -0.818233,1.230941 -1.0014803,1.179319 -0.1769347,-0.04984 0.098058,-1.320712 -0.00876,-1.463924 -0.110627,-0.148321 -1.4823083,-0.359951 -1.4872912,-0.541829 -0.00482,-0.175612 1.3497237,-0.319845 1.4598315,-0.460864 0.1140359,-0.14605 -0.097885,-1.453403 0.082282,-1.514187 z" />
        <path
           style="opacity:0.5;fill:#9d0f06;fill-opacity:1;stroke:none"
           id="path4480-14"
           d="m 7.039313,14.470596 -0.04821,0.04636 c -3.44e-4,0.0011 -0.0019,0.0014 -0.0019,0.0021 -0.096792,0.234217 0.058261,1.259164 -0.03946,1.3843 -0.0042,0.0052 -0.01001,0.01243 -0.017541,0.01766 l 0.039461,0.0265 c 0.7903285,0.236715 0.098571,-1.427744 0.07889,-1.474818 -0.0037,-6.98e-4 -0.0074,-0.0025 -0.01094,-0.0021 z" />
        <path
           style="opacity:0.75;fill:url(#linearGradient3277);fill-opacity:1;stroke:none"
           id="path4517-2"
           d="m 5.7536304,16.427205 c -0.1663436,0.0015 -0.262602,0.0094 -0.262602,0.0094 l 0,0.0022 0,0.0378 c 0.097563,0.179325 1.3903695,0.384497 1.4982481,0.529129 0.108053,0.144867 -0.1695997,1.430665 0.00936,1.481083 0.185362,0.05222 0.828383,-1.137887 1.012899,-1.192899 0.177047,-0.05278 1.3609145,0.586923 1.4794925,0.451177 l -0.002,-0.0022 C 8.4907355,16.519122 6.4746472,16.421091 5.7538346,16.427206 Z" />
      </g>
      <rect
         style="color:#000000;display:inline;overflow:visible;visibility:visible;opacity:0.2;fill:none;fill-opacity:1;fill-rule:nonzero;stroke:#000000;stroke-width:1.00000072;stroke-linecap:round;stroke-linejoin:miter;stroke-miterlimit:4;stroke-dasharray:none;stroke-dashoffset:0;stroke-opacity:1;marker:none;enable-background:accumulate"
         id="rect3180"
         y="5.5000696"
         x="3.4998493"
         height="13.999999"
         width="17.000301" />
    </g>
    <g
       id="g4432">
      <path
         d="m 2.0000027,8.9996441 c 3.63877,0 14.9999913,8.297e-4 14.9999913,8.297e-4 l 1.8e-5,11.9995682 -15.0000093,0 0,-12.0004319 z"
         id="path4204"
         style="display:inline;fill:url(#linearGradient4212);fill-opacity:1;stroke:none;stroke-width:1.32399023;stroke-linecap:butt;stroke-linejoin:round;stroke-miterlimit:4;stroke-dasharray:none;stroke-dashoffset:0;stroke-opacity:1" />
      <path
         d="m 16.499391,20.500654 -13.9987765,0 0,-11.0012228 13.9987765,0 z"
         id="path4206"
         style="fill:none;stroke:url(#linearGradient4216);stroke-width:1;stroke-linecap:round;stroke-linejoin:miter;stroke-miterlimit:4;stroke-dasharray:none;stroke-dashoffset:0;stroke-opacity:1" />
      <path
         style="display:inline;fill:none;fill-opacity:1;stroke:url(#linearGradient4214);stroke-width:0.99992186;stroke-linecap:butt;stroke-linejoin:round;stroke-miterlimit:4;stroke-dasharray:none;stroke-dashoffset:0;stroke-opacity:1"
         id="path4223"
         d="m 1.4999609,8.4996441 c 3.6387699,0 16.0000331,8.297e-4 16.0000331,8.297e-4 l 1.8e-5,12.9996102 -16.0000511,0 0,-13.0004739 z" />
      <g
         id="g4418">
        <path
           d="m 3.0000001,10.000042 0,10 12.9999999,0 0,-10 z"
           id="path4346"
           style="color:#000000;display:inline;overflow:visible;visibility:visible;fill:url(#linearGradient4368);fill-opacity:1;fill-rule:nonzero;stroke:none;stroke-width:10;marker:none;enable-background:accumulate" />
        <path
           d="m 6.1417048,14.802839 c -0.055621,-0.0042 -0.1181572,7.3e-5 -0.1812093,0.02134 -0.2461146,0.08303 -0.2743387,0.246606 -0.2963141,0.325112 -0.021974,0.07851 -0.02652,0.139523 -0.030093,0.203901 -0.00714,0.128753 -0.00159,0.264085 0.00448,0.399327 0.00498,0.111087 0.00941,0.209684 0.011588,0.296758 -0.084873,0.01968 -0.1784066,0.04081 -0.2861195,0.06387 -0.1349985,0.0289 -0.2714739,0.05783 -0.39735,0.09744 -0.062938,0.01981 -0.1220598,0.0398 -0.1971745,0.08265 -0.037557,0.02142 -0.080813,0.0469 -0.1314552,0.103 -0.050642,0.0561 -0.1119971,0.161596 -0.1085044,0.289067 0.00682,0.248848 0.1609601,0.324096 0.2327116,0.368131 0.071752,0.04403 0.1296266,0.06644 0.1929214,0.08946 0.1265902,0.04603 0.266231,0.08335 0.4034258,0.119427 0.1130727,0.02974 0.2121314,0.05776 0.3000647,0.08261 -0.00658,0.08282 -0.015693,0.174346 -0.025906,0.278613 -0.012861,0.131275 -0.025447,0.262331 -0.024781,0.388589 3.333e-4,0.06313 0.00177,0.123329 0.021353,0.204539 0.00978,0.0406 0.022991,0.08718 0.063339,0.150338 0.040349,0.06316 0.1250206,0.152656 0.2535675,0.188868 0.2504458,0.07055 0.3735992,-0.04454 0.4398296,-0.09581 0.06623,-0.05127 0.1070187,-0.09879 0.1496392,-0.148916 0.08524,-0.10026 0.1646792,-0.214658 0.2432519,-0.327566 0.064625,-0.09286 0.1220739,-0.17498 0.174096,-0.24675 0.080812,0.03144 0.1697395,0.06763 0.2711334,0.109092 0.1270329,0.05195 0.2555578,0.104919 0.381841,0.143099 0.063142,0.01909 0.1221617,0.03617 0.2093413,0.0434 0.043588,0.0036 0.095886,0.0068 0.1713713,-0.01028 0.075484,-0.01711 0.1894811,-0.06699 0.2652933,-0.172001 0.1478628,-0.20482 0.071584,-0.353796 0.040767,-0.429606 -0.030818,-0.0758 -0.064641,-0.12639 -0.1015805,-0.180375 -0.073878,-0.107969 -0.1642718,-0.21492 -0.2528056,-0.320674 -0.072708,-0.08685 -0.1355648,-0.163994 -0.1911406,-0.233017 0.056481,-0.06345 0.1195289,-0.132567 0.1923549,-0.211512 0.091339,-0.09901 0.1831494,-0.198311 0.2604726,-0.300863 0.038663,-0.05127 0.075224,-0.100731 0.1094875,-0.177411 0.017129,-0.03834 0.035727,-0.08367 0.042044,-0.157321 0.00635,-0.07366 -0.00839,-0.193275 -0.089926,-0.294425 -0.1589785,-0.197214 -0.3300195,-0.172084 -0.4152284,-0.167685 -0.085209,0.0044 -0.1472151,0.01911 -0.2126502,0.0358 -0.1308683,0.03337 -0.2666648,0.08033 -0.3999675,0.127669 -0.1098814,0.03902 -0.2064699,0.07326 -0.2929894,0.102214 -0.045814,-0.07062 -0.095236,-0.149848 -0.1514653,-0.240063 -0.070506,-0.113118 -0.1417467,-0.226673 -0.2201824,-0.328269 -0.039218,-0.0508 -0.075207,-0.09834 -0.1412412,-0.153044 -0.033018,-0.02735 -0.073477,-0.05899 -0.14515,-0.08742 -0.035836,-0.01422 -0.08551,-0.0271 -0.141131,-0.03131 z m 0.6429615,0.880307 c 0.00191,-2.74e-4 0.013184,0.003 0.01573,0.0029 -0.00451,0.0011 -0.017389,0.0047 -0.019982,0.0052 -0.00635,0.0013 -0.011149,-0.0059 0.00428,-0.0081 z m 0.2349451,0.07584 c 0.019577,0.01556 0.0183,0.02253 0.014422,0.01803 -0.00176,-0.0021 -0.010928,-0.01355 -0.014422,-0.01803 z M 5.801502,16.003628 c 0.015797,-0.0071 0.017143,0.0024 0.012058,0.0044 -0.00266,9.94e-4 -0.017817,0.0047 -0.023657,0.0066 0.00229,-0.0014 0.00972,-0.01008 0.011603,-0.01093 z m -0.1510758,0.185995 c -2.914e-4,0.0047 3.089e-4,0.01769 1.56e-5,0.02029 -7.8e-4,0.007 -0.00701,0.0017 -1.56e-5,-0.02029 z m 1.9979618,0.367408 c -0.00359,-0.006 0.00489,-0.0049 0.012801,0.01622 -0.00268,-0.004 -0.011432,-0.01396 -0.012801,-0.01622 z m 0.00612,0.237158 c -0.00944,0.02205 -0.017389,0.0241 -0.014094,0.01919 0.00153,-0.0023 0.010622,-0.01454 0.014094,-0.01919 z m -1.988752,0.387313 c 1.635e-4,0.0027 -3.266e-4,0.01781 -2.756e-4,0.02364 -0.00613,-0.02341 -9.33e-5,-0.02949 2.756e-4,-0.02364 z m 0.1332039,0.204823 c 0.00427,0.0016 0.016577,0.0056 0.018967,0.0066 0.00674,0.0028 8.87e-4,0.0066 -0.018967,-0.0066 z m 1.2541021,0.221385 c 0.00497,-0.0053 0.00574,0.0034 -0.013948,0.0175 0.00352,-0.0041 0.01196,-0.01541 0.013948,-0.0175 z m -0.2584752,0.07279 c 0.00291,7.03e-4 0.017856,0.0068 0.024111,0.0086 -0.025075,-0.0017 -0.030045,-0.01011 -0.024111,-0.0086 z"
           id="path4348"
           style="color:#000000;display:inline;overflow:visible;visibility:visible;opacity:0.05;fill:#000000;fill-opacity:1;fill-rule:nonzero;stroke:none;stroke-width:44.37043762;marker:none;enable-background:accumulate" />
        <path
           d="m 3.0000001,10.003203 0,5.159512 c 0.2903696,0.07169 0.6669107,0.130302 1.1153389,0.130302 1.14335,0 0.9802214,-0.356613 1.9647764,-0.356613 0.9845481,0 1.5644636,0.582924 2.8954541,0.582924 1.6485875,0 2.0269055,-0.939538 3.3312495,-0.939538 1.018503,0 1.094972,0.514346 2.215908,0.514346 0.757243,0 1.008724,-0.270206 1.477273,-0.445766 l 0,-4.645167 z"
           id="path4350"
           style="color:#000000;display:inline;overflow:visible;visibility:visible;opacity:0.07000002;fill:#000000;fill-opacity:1;fill-rule:nonzero;stroke:none;stroke-width:10;marker:none;enable-background:accumulate" />
        <path
           d="m 3.0000001,9.9986055 0,4.7479795 c 0.1930317,0.08264 0.4374684,0.157734 0.7017041,0.157734 0.6034348,0 1.193559,-0.452624 2.2011347,-0.452624 1.0075796,0 1.765407,0.569209 3.0357961,0.569209 1.270389,0 1.556306,-0.822954 3.176139,-0.822954 1.619828,0 1.467511,0.521205 2.481815,0.521205 0.698674,0 0.997053,-0.226565 1.403411,-0.370329 l 0,-4.3502205 z"
           id="path4352"
           style="fill:url(#linearGradient4370);fill-opacity:1;stroke:none" />
        <path
           d="m 12.114774,13.197754 c -0.850941,0 -1.386213,0.223713 -1.824435,0.432049 -0.4382193,0.208337 -0.76882,0.390903 -1.351704,0.390903 -0.599011,0 -1.0724389,-0.132884 -1.5437501,-0.274317 -0.4713081,-0.141434 -0.9426377,-0.294892 -1.492046,-0.294892 -0.5400635,0 -0.9742567,0.117945 -1.3295428,0.233171 -0.35529,0.115224 -0.6304457,0.219453 -0.8715919,0.219453 -0.2183388,0 -0.4311702,-0.06931 -0.6056807,-0.144016 a 0.22494362,0.20885111 0 0 0 -0.096023,-0.02058 l 0,0.898392 c 0.299101,0.06949 0.6743062,0.123441 1.1153389,0.123441 0.5968621,0 0.9005245,-0.101133 1.1301152,-0.192022 0.2295907,-0.09089 0.371634,-0.16459 0.8346612,-0.16459 0.4444631,0 0.8019914,0.133937 1.2409081,0.281175 0.4389122,0.147239 0.9536831,0.301751 1.654546,0.301751 0.8703102,0 1.4368501,-0.256288 1.9056801,-0.493773 0.468831,-0.237486 0.83156,-0.445767 1.425569,-0.445767 0.46847,0 0.686086,0.110382 0.975,0.240029 0.288907,0.129647 0.643385,0.274317 1.240908,0.274317 0.76093,0 1.094456,-0.262127 1.477273,-0.425192 l 0,-0.788664 a 0.22494362,0.20885111 0 0 0 -0.08125,0.01371 c -0.4456,0.157648 -0.675855,0.356613 -1.322161,0.356613 -0.46566,0 -0.610989,-0.103581 -0.915908,-0.240027 -0.304922,-0.136447 -0.730011,-0.281176 -1.565907,-0.281176 z"
           id="path4354"
           style="color:#000000;display:inline;overflow:visible;visibility:visible;opacity:0.1;fill:#ffffff;fill-opacity:1;fill-rule:nonzero;stroke:none;stroke-width:10;marker:none;enable-background:accumulate" />
        <path
           d="m 12.114774,13.609229 c -1.619833,0 -1.90575,0.822953 -3.176139,0.822953 -1.2703891,0 -2.0282165,-0.569209 -3.0357961,-0.569209 -1.0075757,0 -1.5976999,0.452624 -2.2011347,0.452624 -0.2642357,0 -0.5086724,-0.0751 -0.7017041,-0.157733 l 0,0.473198 c 0.2903696,0.07169 0.6669107,0.130301 1.1153389,0.130301 1.14335,0 0.9802214,-0.356612 1.9647764,-0.356612 0.9845481,0 1.5644636,0.582925 2.8954541,0.582925 1.6485875,0 2.0269055,-0.939539 3.3312495,-0.939539 1.018503,0 1.094972,0.514346 2.215908,0.514346 0.757243,0 1.008724,-0.270205 1.477273,-0.445766 l 0,-0.356614 c -0.406358,0.143766 -0.704737,0.37033 -1.403411,0.37033 -1.014304,0 -0.861987,-0.521204 -2.481815,-0.521204 z"
           id="path4356"
           style="color:#000000;display:inline;overflow:visible;visibility:visible;opacity:0.3;fill:#ffffff;fill-opacity:1;fill-rule:nonzero;stroke:none;stroke-width:10;marker:none;enable-background:accumulate" />
        <path
           d="m 12.114774,13.941513 c -1.619833,0 -1.90575,0.822953 -3.176139,0.822953 -1.2703891,0 -2.0282165,-0.56921 -3.0357961,-0.56921 -1.0075757,0 -1.5976999,0.452625 -2.2011347,0.452625 -0.2642357,0 -0.5086724,-0.0751 -0.7017041,-0.157732 l 0,0.473197 c 0.2903696,0.07169 0.6669107,0.130302 1.1153389,0.130302 1.14335,0 0.9802214,-0.356613 1.9647764,-0.356613 0.9845481,0 1.5644636,0.582925 2.8954541,0.582925 1.6485875,0 2.0269055,-0.939539 3.3312495,-0.939539 1.018503,0 1.094972,0.514345 2.215908,0.514345 0.757243,0 1.008724,-0.270204 1.477273,-0.445765 l 0,-0.356613 c -0.406358,0.143765 -0.704737,0.370329 -1.403411,0.370329 -1.014304,0 -0.861987,-0.521204 -2.481815,-0.521204 z"
           id="path4358"
           style="color:#000000;display:inline;overflow:visible;visibility:visible;fill:#ffffff;fill-opacity:1;fill-rule:nonzero;stroke:none;stroke-width:10;marker:none;enable-background:accumulate" />
        <path
           d="m 6.0360665,15.171651 c -0.1377284,0.04646 0.023038,1.045878 -0.06414,1.157526 -0.084172,0.107802 -1.1197917,0.217092 -1.1161136,0.351338 0.00381,0.139036 1.0537677,0.300575 1.1383377,0.413958 0.081657,0.109478 -0.1293076,1.081906 0.00595,1.120009 0.1400827,0.03946 0.6269044,-0.859888 0.766347,-0.901461 0.1346379,-0.04014 1.0396644,0.449243 1.11958,0.338545 0.082766,-0.114647 -0.6654411,-0.831119 -0.6638314,-0.970196 0.00153,-0.134285 0.7716166,-0.802958 0.6857501,-0.909475 -0.088929,-0.110318 -1.0382657,0.344553 -1.1767126,0.300171 -0.1336775,-0.04285 -0.5621827,-0.94528 -0.6951662,-0.900415 z"
           id="path4360"
           style="color:#000000;display:inline;overflow:visible;visibility:visible;opacity:0.15;fill:#000000;fill-opacity:1;fill-rule:nonzero;stroke:none;stroke-width:44.37043762;marker:none;enable-background:accumulate" />
        <path
           d="m 6.0755168,14.911227 c 0.1330291,-0.04488 0.5629123,0.858792 0.6966357,0.90166 0.1384936,0.0444 1.0872691,-0.411643 1.1762289,-0.301287 0.085896,0.106554 -0.6842416,0.77535 -0.6857971,0.909681 -0.00161,0.139125 0.7468221,0.857018 0.6640274,0.971703 -0.079942,0.110735 -0.9857965,-0.379599 -1.1204803,-0.339445 -0.1394892,0.04158 -0.6257076,0.941308 -0.7658379,0.901832 -0.135303,-0.03811 0.074986,-1.009956 -0.0067,-1.119471 C 5.9489976,16.722478 4.9000648,16.560643 4.8962544,16.42156 4.8925685,16.287268 5.928396,16.176972 6.0125961,16.069134 6.0998,15.957449 5.9377429,14.957709 6.0755176,14.911227 Z"
           id="path4362"
           style="color:#000000;display:inline;overflow:visible;visibility:visible;fill:url(#linearGradient4372);fill-opacity:1;stroke:none;stroke-width:10;marker:none;enable-background:accumulate" />
        <path
           d="m 6.0888866,14.885079 -0.036867,0.03545 c -2.63e-4,8.41e-4 -0.00145,0.0011 -0.00145,0.0016 -0.074017,0.179107 0.044552,0.96289 -0.030175,1.058582 -0.00321,0.004 -0.00765,0.0095 -0.013414,0.01351 l 0.030176,0.02027 c 0.6043688,0.181017 0.075378,-1.091805 0.060328,-1.127802 -0.00283,-5.34e-4 -0.00566,-0.0019 -0.00837,-0.0016 z"
           id="path4364"
           style="opacity:0.5;fill:#9d0f06;fill-opacity:1;stroke:none" />
        <path
           d="m 5.1057176,16.38131 c -0.127204,0.0011 -0.2008133,0.0072 -0.2008133,0.0072 l 0,0.0017 0,0.02891 c 0.074607,0.137131 1.0632237,0.294027 1.1457191,0.404628 0.082629,0.110781 -0.1296939,1.094038 0.00716,1.132593 0.1417474,0.03993 0.6334693,-0.870149 0.7745698,-0.912217 0.1353889,-0.04036 1.0406993,0.448824 1.1313766,0.345018 l -0.00153,-0.0017 C 7.1987979,16.451599 5.6570834,16.376634 5.1058737,16.38131 Z"
           id="path4366"
           style="opacity:0.75;fill:url(#linearGradient4374);fill-opacity:1;stroke:none" />
        <rect
           style="color:#000000;display:inline;overflow:visible;visibility:visible;opacity:0.3;fill:none;fill-opacity:1;fill-rule:nonzero;stroke:#000000;stroke-width:1.00000072;stroke-linecap:round;stroke-linejoin:miter;stroke-miterlimit:4;stroke-dasharray:none;stroke-dashoffset:0;stroke-opacity:1;marker:none;enable-background:accumulate"
           id="rect4210"
           y="10.500043"
           x="3.5000005"
           height="8.999999"
           width="12" />
      </g>
    </g>
    <g
       transform="translate(-1.0000001,9.6800647e-5)"
       id="g4283">
      <path
         style="opacity:1;fill:url(#linearGradient317);fill-opacity:1;stroke:none;stroke-width:0.79069757;stroke-linecap:butt;stroke-linejoin:miter;stroke-miterlimit:4;stroke-dasharray:none;stroke-dashoffset:0;stroke-opacity:1;marker:none"
         d="m 12.5,9.5 0,5 5,0 -1.5,-1.5 6,-6 1.5,1.5 0,-5 -5,0 1.5,1.5 -6,6 z"
         id="path290" />
      <path
         id="path356"
         d="m 12.5,9.5 0,5 5,0 -1.5,-1.5 6,-6 1.5,1.5 0,-5 -5,0 1.5,1.5 -6,6 z"
         style="opacity:0.6;fill:none;fill-opacity:1;stroke:#555761;stroke-width:1;stroke-linecap:butt;stroke-linejoin:miter;stroke-miterlimit:4;stroke-dasharray:none;stroke-dashoffset:0;stroke-opacity:1;marker:none" />
    </g>
  </g>
</svg>
