<?xml version="1.0" encoding="UTF-8" standalone="no"?>
<svg
   xmlns:dc="http://purl.org/dc/elements/1.1/"
   xmlns:cc="http://creativecommons.org/ns#"
   xmlns:rdf="http://www.w3.org/1999/02/22-rdf-syntax-ns#"
   xmlns:svg="http://www.w3.org/2000/svg"
   xmlns="http://www.w3.org/2000/svg"
   xmlns:xlink="http://www.w3.org/1999/xlink"
   xmlns:sodipodi="http://sodipodi.sourceforge.net/DTD/sodipodi-0.dtd"
   xmlns:inkscape="http://www.inkscape.org/namespaces/inkscape"
   version="1.1"
   width="24"
   height="24"
   id="svg6436"
   inkscape:version="0.92.2 (unknown)"
   sodipodi:docname="resizer-24.svg">
  <sodipodi:namedview
     pagecolor="#ffffff"
     bordercolor="#666666"
     borderopacity="1"
     objecttolerance="10"
     gridtolerance="10"
     guidetolerance="10"
     inkscape:pageopacity="0"
     inkscape:pageshadow="2"
     inkscape:window-width="1923"
     inkscape:window-height="2044"
     id="namedview84"
     showgrid="true"
     inkscape:zoom="64"
     inkscape:cx="16.613175"
     inkscape:cy="8.3502188"
     inkscape:window-x="0"
     inkscape:window-y="60"
     inkscape:window-maximized="0"
     inkscape:current-layer="svg6436"
     showguides="true"
     inkscape:guide-bbox="true">
    <inkscape:grid
       type="xygrid"
       id="grid4282"
       empspacing="4" />
    <inkscape:grid
       type="xygrid"
       id="grid4284"
       empspacing="2"
       color="#ff3fff"
       opacity="0.1254902"
       empcolor="#3fffff"
       empopacity="0.1372549"
       spacingy="0.5"
       spacingx="0.5" />
    <sodipodi:guide
       position="-6.5,2"
       orientation="0,1"
       id="guide109"
       inkscape:locked="false"
       inkscape:label=""
       inkscape:color="rgb(0,0,255)" />
    <sodipodi:guide
       position="-4.5,12"
       orientation="0,1"
       id="guide111"
       inkscape:locked="false"
       inkscape:label=""
       inkscape:color="rgb(0,255,27)" />
    <sodipodi:guide
       position="-2.5,20"
       orientation="0,1"
       id="guide113"
       inkscape:locked="false"
       inkscape:label=""
       inkscape:color="rgb(255,5,0)" />
  </sodipodi:namedview>
  <defs
     id="defs6438">
    <linearGradient
       id="linearGradient5747">
      <stop
         id="stop5749"
         style="stop-color:#000000;stop-opacity:1"
         offset="0" />
      <stop
         id="stop5751"
         style="stop-color:#000000;stop-opacity:0"
         offset="1" />
    </linearGradient>
    <radialGradient
       cx="4.993"
       cy="43.5"
       r="2.5"
       id="radialGradient4358-2"
       xlink:href="#linearGradient5747"
       gradientUnits="userSpaceOnUse"
       gradientTransform="matrix(1.2022704,0,0,0.59999988,14.99287,-4.59993)" />
    <radialGradient
       cx="4.993"
       cy="43.5"
       r="2.5"
       id="radialGradient4360-3"
       xlink:href="#linearGradient5747"
       gradientUnits="userSpaceOnUse"
       gradientTransform="matrix(1.2022704,0,0,0.59999988,-9.00712,-47.60006)" />
    <linearGradient
       x1="25.058001"
       y1="43.528"
       x2="25.058001"
       y2="39.999001"
       id="linearGradient4362-5"
       xlink:href="#linearGradient5747"
       gradientUnits="userSpaceOnUse"
       gradientTransform="matrix(0.6428571,0,0,0.42857134,-3.42854,2.85721)"
       spreadMethod="reflect" />
    <radialGradient
       cx="7.4956999"
       cy="8.4497995"
       r="20"
       id="radialGradient3164-9"
       gradientUnits="userSpaceOnUse"
       gradientTransform="matrix(1.273594e-7,3.2957553,-5.3809239,0,77.467708,-19.382411)">
      <stop
         id="stop3244-8"
         style="stop-color:#f8b17e;stop-opacity:1"
         offset="0" />
      <stop
         id="stop3246-8"
         style="stop-color:#e35d4f;stop-opacity:1"
         offset="0.26238" />
      <stop
         id="stop3248-2"
         style="stop-color:#c6262e;stop-opacity:1"
         offset="0.66093999" />
      <stop
         id="stop3250-1"
         style="stop-color:#690b54;stop-opacity:1"
         offset="1" />
    </radialGradient>
    <linearGradient
       gradientTransform="translate(0,-8.1000629)"
       xlink:href="#linearGradient4215-8-4-07-7"
       id="linearGradient4355"
       x1="17"
       y1="29"
       x2="17"
       y2="26"
       gradientUnits="userSpaceOnUse" />
    <linearGradient
       id="linearGradient4215-8-4-07-7">
      <stop
         id="stop4217-1-2-1-2"
         offset="0"
         style="stop-color:#2b3235;stop-opacity:1" />
      <stop
         id="stop4219-3-4-0-96"
         offset="1"
         style="stop-color:#374044;stop-opacity:1" />
    </linearGradient>
    <linearGradient
       x1="27.914288"
       y1="16.188311"
       x2="27.914288"
       y2="41.663456"
       id="linearGradient3217"
       xlink:href="#linearGradient3462"
       gradientUnits="userSpaceOnUse"
       gradientTransform="matrix(0.78378379,0,0,0.62162162,-2.810815,-6.0189808)" />
    <linearGradient
       id="linearGradient3462">
      <stop
         id="stop3464"
         style="stop-color:#ffffff;stop-opacity:1"
         offset="0" />
      <stop
         id="stop3466"
         style="stop-color:#ffffff;stop-opacity:0.23529412"
         offset="0.00850883" />
      <stop
         id="stop3468"
         style="stop-color:#ffffff;stop-opacity:0.15686275"
         offset="0.9969551" />
      <stop
         id="stop3470"
         style="stop-color:#ffffff;stop-opacity:0.39215687"
         offset="1" />
    </linearGradient>
    <linearGradient
       id="linearGradient3242-8">
      <stop
         offset="0"
         style="stop-color:#f8b17e;stop-opacity:1"
         id="stop3244-2" />
      <stop
         offset="0.26238"
         style="stop-color:#e35d4f;stop-opacity:1"
         id="stop3246-9" />
      <stop
         offset="0.66093999"
         style="stop-color:#c6262e;stop-opacity:1"
         id="stop3248-10" />
      <stop
         offset="1"
         style="stop-color:#690b54;stop-opacity:1"
         id="stop3250-2" />
    </linearGradient>
    <linearGradient
       id="linearGradient4011-6-3-8">
      <stop
         offset="0"
         style="stop-color:#ffffff;stop-opacity:1"
         id="stop4013-0-0-6" />
      <stop
         offset="0.507761"
         style="stop-color:#ffffff;stop-opacity:0.23529412"
         id="stop4015-7-9-1" />
      <stop
         offset="0.83456558"
         style="stop-color:#ffffff;stop-opacity:0.15686275"
         id="stop4017-6-8-4" />
      <stop
         offset="1"
         style="stop-color:#ffffff;stop-opacity:0.39215687"
         id="stop4019-8-2-1" />
    </linearGradient>
    <linearGradient
       xlink:href="#linearGradient4011-6-3-8"
       id="linearGradient3154"
       gradientUnits="userSpaceOnUse"
       gradientTransform="matrix(0.24324325,0,0,0.24324325,13.818181,5.1538441)"
       x1="71.204407"
       y1="6.2375584"
       x2="71.204407"
       y2="44.340794" />
    <radialGradient
       xlink:href="#linearGradient3242-8"
       id="radialGradient3157"
       gradientUnits="userSpaceOnUse"
       gradientTransform="matrix(0,0.78112576,-1.0310721,0,35.380857,-13.066462)"
       cx="21.994528"
       cy="4.0384412"
       fx="21.994528"
       fy="4.0384412"
       r="20.397499" />
    <linearGradient
       id="linearGradient3702-501-757-1">
      <stop
         offset="0"
         style="stop-color:#181818;stop-opacity:0"
         id="stop2895-2" />
      <stop
         offset="0.5"
         style="stop-color:#181818;stop-opacity:1"
         id="stop2897-89" />
      <stop
         offset="1"
         style="stop-color:#181818;stop-opacity:0"
         id="stop2899-36" />
    </linearGradient>
    <linearGradient
       gradientUnits="userSpaceOnUse"
       xlink:href="#linearGradient3702-501-757-1"
       id="linearGradient3086-8"
       y2="39.999443"
       x2="25.058096"
       y1="47.027729"
       x1="25.058096" />
    <linearGradient
       id="linearGradient3688-464-309-7-6">
      <stop
         offset="0"
         style="stop-color:#181818;stop-opacity:1"
         id="stop2889-75" />
      <stop
         offset="1"
         style="stop-color:#181818;stop-opacity:0"
         id="stop2891-4-9" />
    </linearGradient>
    <radialGradient
       gradientTransform="matrix(2.003784,0,0,1.4,-20.01187,-104.4)"
       gradientUnits="userSpaceOnUse"
       xlink:href="#linearGradient3688-464-309-7-6"
       id="radialGradient3084-4"
       fy="43.5"
       fx="4.9929786"
       r="2.5"
       cy="43.5"
       cx="4.9929786" />
    <linearGradient
       id="linearGradient3688-166-749-9">
      <stop
         offset="0"
         style="stop-color:#181818;stop-opacity:1"
         id="stop2883-2" />
      <stop
         offset="1"
         style="stop-color:#181818;stop-opacity:0"
         id="stop2885-2" />
    </linearGradient>
    <radialGradient
       gradientTransform="matrix(2.003784,0,0,1.4,27.98813,-17.4)"
       gradientUnits="userSpaceOnUse"
       xlink:href="#linearGradient3688-166-749-9"
       id="radialGradient3082-6"
       fy="43.5"
       fx="4.9929786"
       r="2.5"
       cy="43.5"
       cx="4.9929786" />
    <linearGradient
       id="linearGradient2867-449-88-871-390-598-476-591-434-148-57-177-8-3-3-6-4-8-8-8">
      <stop
         offset="0"
         style="stop-color:#ffcd7d;stop-opacity:1"
         id="stop3750-1-0-7-6-6-1-3-9" />
      <stop
         offset="0.26238"
         style="stop-color:#fc8f36;stop-opacity:1"
         id="stop3752-3-7-4-0-32-8-923-0" />
      <stop
         offset="0.704952"
         style="stop-color:#e23a0e;stop-opacity:1"
         id="stop3754-1-8-5-2-7-6-7-1" />
      <stop
         offset="1"
         style="stop-color:#ac441f;stop-opacity:1"
         id="stop3756-1-6-2-6-6-1-96-6" />
    </linearGradient>
    <radialGradient
       gradientTransform="matrix(0,4.6270127,-5.6804933,0,68.966159,-30.745064)"
       gradientUnits="userSpaceOnUse"
       xlink:href="#linearGradient2867-449-88-871-390-598-476-591-434-148-57-177-8-3-3-6-4-8-8-8"
       id="radialGradient5679-7"
       fy="9.9571075"
       fx="6.2001843"
       r="12.671875"
       cy="9.9571075"
       cx="6.7304144" />
    <linearGradient
       id="linearGradient5803-0">
      <stop
         offset="0"
         style="stop-color:#fff5ef;stop-opacity:1"
         id="stop5805-3" />
      <stop
         offset="1"
         style="stop-color:#fef8dd;stop-opacity:1"
         id="stop5807-4" />
    </linearGradient>
    <linearGradient
       gradientTransform="translate(-214,-49.99999)"
       gradientUnits="userSpaceOnUse"
       xlink:href="#linearGradient5803-0"
       id="linearGradient5874-6"
       y2="76.996925"
       x2="227.20357"
       y1="63.106243"
       x1="227.20357" />
    <linearGradient
       id="linearGradient3924-64">
      <stop
         offset="0"
         style="stop-color:#ffffff;stop-opacity:1"
         id="stop3926-3-6" />
      <stop
         offset="0.06316455"
         style="stop-color:#ffffff;stop-opacity:0.23529412"
         id="stop3928-0" />
      <stop
         offset="0.95056331"
         style="stop-color:#ffffff;stop-opacity:0.15686275"
         id="stop3930-3-59" />
      <stop
         offset="1"
         style="stop-color:#ffffff;stop-opacity:0.39215687"
         id="stop3932-0" />
    </linearGradient>
    <linearGradient
       gradientTransform="matrix(0.45945947,0,0,0.45945947,0.9742189,8.9717503)"
       gradientUnits="userSpaceOnUse"
       xlink:href="#linearGradient3924-64"
       id="linearGradient5397"
       y2="43"
       x2="23.99999"
       y1="4.999989"
       x1="23.99999" />
    <linearGradient
       xlink:href="#linearGradient3924-64"
       id="linearGradient4123"
       gradientUnits="userSpaceOnUse"
       gradientTransform="matrix(0.45945947,0,0,0.45945947,-35.047699,0.2740813)"
       x1="23.99999"
       y1="4.999989"
       x2="23.99999"
       y2="43" />
    <linearGradient
       xlink:href="#linearGradient5803-0"
       id="linearGradient4126"
       gradientUnits="userSpaceOnUse"
       gradientTransform="translate(-250.02192,-58.697659)"
       x1="227.20357"
       y1="63.106243"
       x2="227.20357"
       y2="76.996925" />
    <radialGradient
       xlink:href="#linearGradient2867-449-88-871-390-598-476-591-434-148-57-177-8-3-3-6-4-8-8-8"
       id="radialGradient4131"
       gradientUnits="userSpaceOnUse"
       gradientTransform="matrix(0,4.6270127,-5.6804933,0,68.966158,-38.745092)"
       cx="6.7304144"
       cy="9.9571075"
       fx="6.2001843"
       fy="9.9571075"
       r="12.671875" />
    <radialGradient
       xlink:href="#radialGradient3164-9"
       id="radialGradient4131-8"
       gradientUnits="userSpaceOnUse"
       gradientTransform="matrix(0,4.6270127,-5.6804933,0,68.966158,-38.745092)"
       cx="6.7304144"
       cy="9.9571075"
       fx="6.2001843"
       fy="9.9571075"
       r="12.671875" />
    <linearGradient
       x1="27.914288"
       y1="16.188311"
       x2="27.914288"
       y2="41.663456"
       id="linearGradient3217-3"
       xlink:href="#linearGradient3462"
       gradientUnits="userSpaceOnUse"
       gradientTransform="matrix(0.78378379,0,0,0.62162162,12.323338,5.0735721)" />
    <linearGradient
       x1="27.914288"
       y1="16.188311"
       x2="27.914288"
       y2="41.663456"
       id="linearGradient3217-3-5"
       xlink:href="#linearGradient3462"
       gradientUnits="userSpaceOnUse"
       gradientTransform="matrix(0.78378379,0,0,0.62162162,-4.8246791,-9.014742)" />
    <radialGradient
       gradientTransform="matrix(0,4.6270127,-5.6804933,0,66.466161,-41.245089)"
       gradientUnits="userSpaceOnUse"
       xlink:href="#linearGradient2867-449-88-871-390-598-476-591-434-148-57-177-8-3-3-6-4-8-8-8-5"
       id="radialGradient3215"
       fy="9.9571075"
       fx="6.2001843"
       r="12.671875"
       cy="9.9571075"
       cx="6.7304144" />
    <linearGradient
       id="linearGradient2867-449-88-871-390-598-476-591-434-148-57-177-8-3-3-6-4-8-8-8-5">
      <stop
         offset="0"
         style="stop-color:#95a3ab;stop-opacity:1"
         id="stop3750-1-0-7-6-6-1-3-9-3" />
      <stop
         offset="0.26238"
         style="stop-color:#667885;stop-opacity:1"
         id="stop3752-3-7-4-0-32-8-923-0-7" />
      <stop
         offset="0.704952"
         style="stop-color:#485a6c;stop-opacity:1"
         id="stop3754-1-8-5-2-7-6-7-1-9" />
      <stop
         offset="1"
         style="stop-color:#273445;stop-opacity:1"
         id="stop3756-1-6-2-6-6-1-96-6-0" />
    </linearGradient>
    <linearGradient
       x1="302.85715"
       y1="366.64789"
       x2="302.85715"
       y2="609.50507"
       id="linearGradient3028"
       xlink:href="#linearGradient5048"
       gradientUnits="userSpaceOnUse"
       gradientTransform="matrix(2.774389,0,0,1.969706,-1892.179,-872.8854)" />
    <linearGradient
       id="linearGradient5048">
      <stop
         id="stop5050"
         style="stop-color:#000000;stop-opacity:0"
         offset="0" />
      <stop
         id="stop5056"
         style="stop-color:#000000;stop-opacity:1"
         offset="0.5" />
      <stop
         id="stop5052"
         style="stop-color:#000000;stop-opacity:0"
         offset="1" />
    </linearGradient>
    <radialGradient
       cx="605.71429"
       cy="486.64789"
       r="117.14286"
       fx="605.71429"
       fy="486.64789"
       id="radialGradient3030"
       xlink:href="#linearGradient5747"
       gradientUnits="userSpaceOnUse"
       gradientTransform="matrix(2.774389,0,0,1.969706,-1891.633,-872.8854)" />
    <radialGradient
       cx="605.71429"
       cy="486.64789"
       r="117.14286"
       fx="605.71429"
       fy="486.64789"
       id="radialGradient3032"
       xlink:href="#linearGradient5747"
       gradientUnits="userSpaceOnUse"
       gradientTransform="matrix(-2.774389,0,0,1.969706,112.7623,-872.8854)" />
    <linearGradient
       xlink:href="#linearGradient4623-7-15"
       id="linearGradient3303"
       gradientUnits="userSpaceOnUse"
       gradientTransform="matrix(0.48625742,2.7191503e-4,9.9659804e-5,0.34755305,58.859833,3.2421617)"
       x1="-76.834877"
       y1="6.6805849"
       x2="-76.844345"
       y2="52.887863" />
    <linearGradient
       id="linearGradient4623-7-15">
      <stop
         id="stop4625-3-7"
         style="stop-color:#000000;stop-opacity:0.27058825"
         offset="0" />
      <stop
         id="stop4627-1-42"
         style="stop-color:#000000;stop-opacity:0.368"
         offset="1" />
    </linearGradient>
    <linearGradient
       xlink:href="#linearGradient3600-9-51"
       id="linearGradient3300"
       gradientUnits="userSpaceOnUse"
       gradientTransform="matrix(0.54285589,0,0,0.3259251,-1.528541,5.1777881)"
       x1="25.132275"
       y1="0.98520643"
       x2="25.132275"
       y2="47.013336" />
    <linearGradient
       id="linearGradient3600-9-51">
      <stop
         id="stop3602-0-0"
         style="stop-color:#f4f4f4;stop-opacity:1"
         offset="0" />
      <stop
         id="stop3604-9-04"
         style="stop-color:#dbdbdb;stop-opacity:1"
         offset="1" />
    </linearGradient>
    <linearGradient
       xlink:href="#linearGradient3977-7-61"
       id="linearGradient3297"
       gradientUnits="userSpaceOnUse"
       gradientTransform="matrix(0.48648651,0,0,0.37837838,-0.17567104,4.4189213)"
       x1="23.99999"
       y1="5.5641499"
       x2="23.99999"
       y2="43" />
    <linearGradient
       id="linearGradient3977-7-61">
      <stop
         id="stop3979-6-49"
         style="stop-color:#ffffff;stop-opacity:1"
         offset="0" />
      <stop
         id="stop3981-3-78"
         style="stop-color:#ffffff;stop-opacity:0.23529412"
         offset="0.03626217" />
      <stop
         id="stop3983-8-86"
         style="stop-color:#ffffff;stop-opacity:0.15686275"
         offset="0.95056331" />
      <stop
         id="stop3985-2-07"
         style="stop-color:#ffffff;stop-opacity:0.39215687"
         offset="1" />
    </linearGradient>
    <linearGradient
       xlink:href="#linearGradient3825-5-8-9"
       id="linearGradient3294"
       gradientUnits="userSpaceOnUse"
       gradientTransform="matrix(0.11183314,0,0,0.11095306,26.051608,9.4335646)"
       x1="-96.557358"
       y1="110.92493"
       x2="-96.557358"
       y2="39.991924" />
    <linearGradient
       id="linearGradient3825-5-8-9">
      <stop
         id="stop3827-2-3-55"
         style="stop-color:#e89c42;stop-opacity:1"
         offset="0" />
      <stop
         id="stop3829-5-0-1"
         style="stop-color:#faca67;stop-opacity:1"
         offset="1" />
    </linearGradient>
    <linearGradient
       xlink:href="#linearGradient3871-6-7"
       id="linearGradient3289"
       gradientUnits="userSpaceOnUse"
       gradientTransform="matrix(0.11183314,0,0,0.11948791,26.051608,9.6135161)"
       x1="-107.45584"
       y1="-37.385227"
       x2="-107.45584"
       y2="38.561256" />
    <linearGradient
       id="linearGradient3871-6-7">
      <stop
         id="stop3873-3-2"
         style="stop-color:#0b85e9;stop-opacity:1"
         offset="0" />
      <stop
         id="stop3875-4-0"
         style="stop-color:#69d1ef;stop-opacity:1"
         offset="1" />
    </linearGradient>
    <linearGradient
       xlink:href="#linearGradient4470-86-9"
       id="linearGradient3281"
       gradientUnits="userSpaceOnUse"
       x1="-211.28862"
       y1="88.750069"
       x2="-208.49672"
       y2="75.190559"
       gradientTransform="matrix(0.07511055,0.00586778,-0.00619394,0.07150456,24.004891,11.546757)" />
    <linearGradient
       id="linearGradient4470-86-9">
      <stop
         id="stop4472-0-4"
         style="stop-color:#ec4502;stop-opacity:1"
         offset="0" />
      <stop
         id="stop4474-9-9"
         style="stop-color:#fe7617;stop-opacity:1"
         offset="1" />
    </linearGradient>
    <linearGradient
       xlink:href="#linearGradient4574-39-1"
       id="linearGradient3277"
       gradientUnits="userSpaceOnUse"
       gradientTransform="matrix(0.07502968,0,0,0.07558974,20.869769,9.8579913)"
       x1="-184.92441"
       y1="113.97943"
       x2="-175.25337"
       y2="88.801025" />
    <linearGradient
       id="linearGradient4574-39-1">
      <stop
         id="stop4576-75-8"
         style="stop-color:#7a0f01;stop-opacity:1"
         offset="0" />
      <stop
         id="stop4578-96-3"
         style="stop-color:#d31807;stop-opacity:1"
         offset="1" />
    </linearGradient>
    <linearGradient
       id="linearGradient4220-7">
      <stop
         id="stop4222-7"
         style="stop-color:#7a8498;stop-opacity:1"
         offset="0" />
      <stop
         id="stop4224-0"
         style="stop-color:#34405c;stop-opacity:1"
         offset="1" />
    </linearGradient>
    <linearGradient
       id="linearGradient4316-5">
      <stop
         id="stop4318-1"
         style="stop-color:#ffffff;stop-opacity:1"
         offset="0" />
      <stop
         id="stop4320-9"
         style="stop-color:#ffffff;stop-opacity:0.23529412"
         offset="0.33799788" />
      <stop
         id="stop4322-42"
         style="stop-color:#ffffff;stop-opacity:0.15686275"
         offset="0.61996669" />
      <stop
         id="stop4324-9"
         style="stop-color:#ffffff;stop-opacity:0.39215687"
         offset="1" />
    </linearGradient>
    <linearGradient
       inkscape:collect="always"
       xlink:href="#linearGradient4220-7"
       id="linearGradient188-3"
       gradientUnits="userSpaceOnUse"
       gradientTransform="matrix(0.1923648,0,0,0.19236481,2.81159,-1.406623)"
       x1="91.566116"
       y1="16.542858"
       x2="91.566116"
       y2="48.631081" />
    <linearGradient
       inkscape:collect="always"
       xlink:href="#linearGradient4220-7"
       id="linearGradient283-2"
       gradientUnits="userSpaceOnUse"
       gradientTransform="matrix(0.24732615,0,0,0.24732617,3.35374,-12.435747)"
       x1="4.6346059"
       y1="50.280754"
       x2="4.6346059"
       y2="86.669945" />
    <linearGradient
       inkscape:collect="always"
       xlink:href="#linearGradient4220-7"
       id="linearGradient317"
       gradientUnits="userSpaceOnUse"
       gradientTransform="matrix(0.24732615,0,0,0.24732617,12.282311,7.3499671)"
       x1="27.161257"
       y1="-15.566356"
       x2="27.161257"
       y2="20.822838" />
  </defs>
  <metadata
     id="metadata6441">
    <rdf:RDF>
      <cc:Work
         rdf:about="">
        <dc:format>image/svg+xml</dc:format>
        <dc:type
           rdf:resource="http://purl.org/dc/dcmitype/StillImage" />
        <dc:title />
      </cc:Work>
    </rdf:RDF>
  </metadata>
  <g
     transform="translate(-9e-7,1e-6)"
     id="g287">
    <g
       style="stroke-width:1.88256383;stroke-miterlimit:4;stroke-dasharray:none"
       id="g3490"
       transform="matrix(0.5459263,0,0,0.5168524,-0.96573178,-1.0781821)">
      <g
         style="display:inline;stroke-width:104.96237946;stroke-miterlimit:4;stroke-dasharray:none"
         id="g5022"
         transform="matrix(0.02165152,0,0,0.01485743,43.0076,42.68539)">
        <rect
           style="display:inline;overflow:visible;visibility:visible;opacity:0.40206185;fill:url(#linearGradient3028);fill-opacity:1;fill-rule:nonzero;stroke:none;stroke-width:104.96237946;marker:none"
           id="rect4173-4"
           y="-150.69685"
           x="-1559.2523"
           height="478.35718"
           width="1339.6335" />
        <path
           inkscape:connector-curvature="0"
           style="display:inline;overflow:visible;visibility:visible;opacity:0.40206185;fill:url(#radialGradient3030);fill-opacity:1;fill-rule:nonzero;stroke:none;stroke-width:104.96237946;marker:none"
           id="path5058-9"
           d="m -219.61876,-150.68038 c 0,0 0,478.33079 0,478.33079 142.874166,0.90045 345.40022,-107.16966 345.40014,-239.196175 0,-132.026537 -159.436816,-239.134595 -345.40014,-239.134615 z" />
        <path
           inkscape:connector-curvature="0"
           style="display:inline;overflow:visible;visibility:visible;opacity:0.40206185;fill:url(#radialGradient3032);fill-opacity:1;fill-rule:nonzero;stroke:none;stroke-width:104.96237946;marker:none"
           id="path5018-53"
           d="m -1559.2523,-150.68038 c 0,0 0,478.33079 0,478.33079 -142.8742,0.90045 -345.4002,-107.16966 -345.4002,-239.196175 0,-132.026537 159.4368,-239.134595 345.4002,-239.134615 z" />
      </g>
    </g>
    <path
       inkscape:connector-curvature="0"
       d="M 21.500039,21.500039 H 1.4999609 V 5.4999612 H 21.500039 Z"
       id="rect6741-1-2-0-3"
       style="color:#000000;display:inline;overflow:visible;visibility:visible;fill:none;stroke:url(#linearGradient3303);stroke-width:0.99992186;stroke-linecap:butt;stroke-linejoin:round;stroke-miterlimit:4;stroke-dasharray:none;stroke-dashoffset:0;stroke-opacity:1;marker:none;enable-background:accumulate" />
    <path
       inkscape:connector-curvature="0"
       d="m 2.0000009,5.999999 c 4.353864,0 18.9999761,9.375e-4 18.9999761,9.375e-4 l 2.4e-5,14.9990625 c 0,0 -12.6666681,0 -19.0000001,0 0,-4.999997 0,-9.999994 0,-14.9999859 z"
       id="path4160-9-1"
       style="display:inline;fill:url(#linearGradient3300);fill-opacity:1;stroke:none" />
    <path
       inkscape:connector-curvature="0"
       d="M 20.500001,20.499999 H 2.5000009 v -14 H 20.500001 Z"
       id="rect6741-1-2-1"
       style="fill:none;stroke:url(#linearGradient3297);stroke-width:1;stroke-linecap:round;stroke-linejoin:miter;stroke-miterlimit:4;stroke-dasharray:none;stroke-dashoffset:0;stroke-opacity:1" />
    <path
       inkscape:connector-curvature="0"
       d="M 2.9999999,6.9999985 V 19.999998 H 20 V 6.9999985 Z"
       id="rect3055-2-9-1"
       style="color:#000000;display:inline;overflow:visible;visibility:visible;fill:url(#linearGradient3294);fill-opacity:1;fill-rule:nonzero;stroke:none;stroke-width:10;marker:none;enable-background:accumulate" />
    <path
       inkscape:connector-curvature="0"
       d="m 7.108383,14.363051 c -0.072735,-0.0055 -0.1545133,9.6e-5 -0.2369661,0.02791 -0.3218422,0.108583 -0.3587506,0.322485 -0.3874877,0.425147 -0.028735,0.102661 -0.03468,0.182453 -0.039352,0.266639 -0.00934,0.16837 -0.00208,0.345343 0.00586,0.522198 0.00651,0.145267 0.012305,0.274201 0.015154,0.388068 -0.1109878,0.02573 -0.2333009,0.05337 -0.3741562,0.08352 -0.1765366,0.03779 -0.3550044,0.07562 -0.5196116,0.127425 -0.082303,0.02591 -0.1596166,0.05205 -0.2578436,0.108081 -0.049113,0.02801 -0.1056789,0.06133 -0.1719029,0.134692 -0.066224,0.07336 -0.1464577,0.211318 -0.1418904,0.37801 0.00892,0.325417 0.2104863,0.423818 0.3043152,0.481402 0.093829,0.05758 0.1695117,0.08689 0.2522818,0.116983 0.1655411,0.06019 0.3481483,0.108991 0.5275569,0.156173 0.1478643,0.03889 0.2774025,0.07553 0.3923923,0.108032 -0.00861,0.108299 -0.020522,0.227991 -0.033877,0.36434 -0.016818,0.171667 -0.033277,0.343048 -0.032406,0.508155 4.358e-4,0.08255 0.00232,0.161276 0.027923,0.267473 0.012793,0.0531 0.030065,0.114011 0.082828,0.196597 0.052764,0.08259 0.1634885,0.199626 0.3315883,0.246981 0.327506,0.09226 0.4885528,-0.05824 0.5751618,-0.125296 0.086609,-0.06705 0.1399475,-0.129181 0.195682,-0.194736 0.1114677,-0.131109 0.2153497,-0.280706 0.3180987,-0.428356 0.08451,-0.121437 0.159635,-0.228819 0.227664,-0.322673 0.105677,0.04112 0.221967,0.08844 0.354559,0.142659 0.16612,0.06793 0.334191,0.137202 0.4993305,0.18713 0.08257,0.02496 0.15975,0.0473 0.273754,0.05676 0.057,0.0047 0.125389,0.0089 0.224101,-0.01344 0.09871,-0.02238 0.247783,-0.0876 0.346922,-0.224925 0.193359,-0.267841 0.09361,-0.462656 0.05331,-0.561792 -0.0403,-0.09913 -0.08453,-0.16528 -0.132836,-0.235875 -0.09661,-0.14119 -0.214817,-0.28105 -0.330592,-0.419343 -0.09508,-0.113567 -0.177277,-0.214454 -0.249953,-0.304715 0.07386,-0.08297 0.156307,-0.173356 0.251541,-0.276592 0.119443,-0.12948 0.239503,-0.25933 0.340618,-0.393436 0.05056,-0.06705 0.09837,-0.131725 0.143176,-0.231999 0.0224,-0.05014 0.04672,-0.109408 0.05498,-0.205728 0.0083,-0.09632 -0.01097,-0.252744 -0.117596,-0.385017 -0.207895,-0.257896 -0.431564,-0.225033 -0.542991,-0.21928 -0.111427,0.0058 -0.192512,0.02499 -0.278081,0.04681 -0.1711355,0.04364 -0.3487155,0.105044 -0.5230345,0.166951 -0.143691,0.05103 -0.269999,0.0958 -0.38314,0.133665 -0.05991,-0.09235 -0.124539,-0.195955 -0.19807,-0.313929 -0.0922,-0.147923 -0.185361,-0.296418 -0.2879308,-0.429275 -0.051285,-0.06643 -0.098347,-0.128599 -0.1847,-0.200134 -0.043178,-0.03577 -0.096085,-0.07714 -0.1898116,-0.114313 -0.046863,-0.01859 -0.1118206,-0.03544 -0.1845559,-0.04095 z m 0.8407957,1.151171 c 0.0025,-3.58e-4 0.01724,0.0039 0.02057,0.0038 -0.0059,0.0015 -0.02274,0.0061 -0.02613,0.0068 -0.0083,0.0017 -0.01458,-0.0077 0.0056,-0.01062 z m 0.307236,0.09917 c 0.0256,0.02035 0.02393,0.02946 0.01886,0.02358 -0.0023,-0.0027 -0.01429,-0.01772 -0.01886,-0.02358 z m -1.5929124,0.319922 c 0.020658,-0.0093 0.022418,0.0032 0.015768,0.0057 -0.00348,0.0013 -0.023299,0.0062 -0.030936,0.0086 0.003,-0.0018 0.012711,-0.01318 0.015173,-0.01429 z m -0.1975606,0.243224 c -3.811e-4,0.0061 4.039e-4,0.02313 2.04e-5,0.02653 -0.00102,0.0091 -0.00917,0.0022 -2.04e-5,-0.02653 z m 2.6127193,0.480456 c -0.0047,-0.0078 0.0064,-0.0064 0.01674,0.02121 -0.0035,-0.0052 -0.01495,-0.01826 -0.01674,-0.02121 z m 0.008,0.31013 c -0.01235,0.02884 -0.02274,0.03152 -0.01843,0.02509 0.002,-0.003 0.01389,-0.01901 0.01843,-0.02509 z M 6.4859853,17.47361 c 2.138e-4,0.0035 -4.271e-4,0.02329 -3.604e-4,0.03092 -0.00801,-0.03061 -1.219e-4,-0.03857 3.604e-4,-0.03092 z m 0.1741897,0.267846 c 0.00559,0.0021 0.021678,0.0073 0.024803,0.0086 0.00882,0.0037 0.00116,0.0086 -0.024803,-0.0086 z m 1.6399797,0.289504 c 0.0065,-0.0069 0.0075,0.0045 -0.01824,0.02289 0.0046,-0.0053 0.01564,-0.02015 0.01824,-0.02289 z m -0.338006,0.09519 c 0.0038,9.19e-4 0.02335,0.0089 0.03153,0.01131 -0.03279,-0.0022 -0.03929,-0.01322 -0.03153,-0.01131 z"
       id="path5297"
       style="color:#000000;display:inline;overflow:visible;visibility:visible;opacity:0.05;fill:#000000;fill-opacity:1;fill-rule:nonzero;stroke:none;stroke-width:44.37043762;marker:none;enable-background:accumulate" />
    <path
       inkscape:connector-curvature="0"
       d="M 2.9999999,6.9996716 V 14.76339 c 0.379714,0.107869 0.872114,0.196069 1.45852,0.196069 1.49515,0 1.281828,-0.536609 2.569323,-0.536609 1.287486,0 2.0458371,0.877149 3.7863631,0.877149 2.155845,0 2.650569,-1.413759 4.35625,-1.413759 1.331888,0 1.431886,0.773956 2.897725,0.773956 0.990241,0 1.319101,-0.406589 1.931819,-0.670762 V 6.9996716 Z"
       id="rect3055-2-6-9-0-6"
       style="color:#000000;display:inline;overflow:visible;visibility:visible;opacity:0.07000002;fill:#000000;fill-opacity:1;fill-rule:nonzero;stroke:none;stroke-width:10;marker:none;enable-background:accumulate" />
    <path
       inkscape:connector-curvature="0"
       d="m 2.9999999,6.9927526 v 7.1444704 c 0.252426,0.124353 0.572074,0.237347 0.917613,0.237347 0.789107,0 1.560808,-0.681081 2.878407,-0.681081 1.317604,0 2.3086091,0.856511 3.9698871,0.856511 1.661278,0 2.035169,-1.238329 4.153412,-1.238329 2.118237,0 1.919054,0.784275 3.245451,0.784275 0.913651,0 1.303838,-0.34092 1.83523,-0.557248 V 6.9927526 Z"
       id="path3867-3-5-3"
       style="fill:url(#linearGradient3289);fill-opacity:1;stroke:none" />
    <path
       inkscape:connector-curvature="0"
       d="m 14.919319,11.806635 c -1.112768,0 -1.812739,0.336631 -2.385799,0.650123 -0.573056,0.313491 -1.00538,0.588206 -1.767613,0.588206 -0.783322,0 -1.40242,-0.199955 -2.0187501,-0.412776 -0.616326,-0.212822 -1.23268,-0.443735 -1.951137,-0.443735 -0.706237,0 -1.274028,0.177476 -1.738633,0.35086 -0.46461,0.173384 -0.824429,0.330221 -1.139774,0.330221 -0.28552,0 -0.563838,-0.104285 -0.792044,-0.216707 a 0.29415704,0.31426635 0 0 0 -0.125569,-0.03096 v 1.351843 c 0.391132,0.104566 0.881785,0.185749 1.45852,0.185749 0.780512,0 1.177609,-0.152178 1.477843,-0.288944 0.300234,-0.136765 0.485983,-0.247665 1.09148,-0.247665 0.581221,0 1.048758,0.20154 1.622726,0.423095 C 9.224531,14.267501 9.897693,14.5 10.814206,14.5 c 1.138098,0 1.878958,-0.385644 2.492044,-0.742998 0.613086,-0.357354 1.087424,-0.670762 1.864206,-0.670762 0.612614,0 0.897189,0.166095 1.275,0.36118 0.377801,0.195085 0.841349,0.412776 1.622725,0.412776 0.995062,0 1.431212,-0.394433 1.931819,-0.639803 V 12.03366 a 0.29415704,0.31426635 0 0 0 -0.10625,0.02064 c -0.582708,0.237219 -0.883811,0.53661 -1.72898,0.53661 -0.60894,0 -0.798986,-0.155864 -1.197726,-0.36118 -0.398744,-0.205315 -0.95463,-0.423096 -2.047725,-0.423095 z"
       id="path4213-1-6"
       style="color:#000000;display:inline;overflow:visible;visibility:visible;opacity:0.1;fill:#ffffff;fill-opacity:1;fill-rule:nonzero;stroke:none;stroke-width:10;marker:none;enable-background:accumulate" />
    <path
       inkscape:connector-curvature="0"
       d="m 14.919319,12.425798 c -2.118243,0 -2.492134,1.238329 -4.153412,1.238329 -1.661278,0 -2.6522831,-0.856511 -3.9698871,-0.856511 -1.317599,0 -2.0893,0.681081 -2.878407,0.681081 -0.345539,0 -0.665187,-0.112993 -0.917613,-0.237346 v 0.712039 c 0.379714,0.107869 0.872114,0.196069 1.45852,0.196069 1.49515,0 1.281828,-0.536609 2.569323,-0.536609 1.287486,0 2.0458371,0.87715 3.7863631,0.87715 2.155845,0 2.650569,-1.41376 4.35625,-1.41376 1.331888,0 1.431886,0.773956 2.897725,0.773956 0.990241,0 1.319101,-0.406588 1.931819,-0.670761 v -0.53661 c -0.531392,0.216329 -0.921579,0.557248 -1.83523,0.557248 -1.326397,0 -1.127214,-0.784275 -3.245451,-0.784275 z"
       id="rect3055-2-6-94-0-7"
       style="color:#000000;display:inline;overflow:visible;visibility:visible;opacity:0.3;fill:#ffffff;fill-opacity:1;fill-rule:nonzero;stroke:none;stroke-width:10;marker:none;enable-background:accumulate" />
    <path
       inkscape:connector-curvature="0"
       d="m 14.919319,12.925799 c -2.118243,0 -2.492134,1.238329 -4.153412,1.238329 -1.661278,0 -2.6522831,-0.856511 -3.9698871,-0.856511 -1.317599,0 -2.0893,0.681081 -2.878407,0.681081 -0.345539,0 -0.665187,-0.112993 -0.917613,-0.237346 v 0.712039 c 0.379714,0.107868 0.872114,0.196069 1.45852,0.196069 1.49515,0 1.281828,-0.536609 2.569323,-0.536609 C 8.3153289,14.122851 9.07368,15 10.814206,15 c 2.155845,0 2.650569,-1.413758 4.35625,-1.413758 1.331888,0 1.431886,0.773955 2.897725,0.773955 0.990241,0 1.319101,-0.406588 1.931819,-0.670761 v -0.53661 c -0.531392,0.216329 -0.921579,0.557248 -1.83523,0.557248 -1.326397,0 -1.127214,-0.784275 -3.245451,-0.784275 z"
       id="rect3055-2-6-8-5"
       style="color:#000000;display:inline;overflow:visible;visibility:visible;fill:#ffffff;fill-opacity:1;fill-rule:nonzero;stroke:none;stroke-width:10;marker:none;enable-background:accumulate" />
    <path
       inkscape:connector-curvature="0"
       d="m 3.4999999,7.5000056 c 3.666411,0 15.9999821,7.556e-4 15.9999821,7.556e-4 L 19.5,19.499999 c 0,0 -10.6666661,0 -16.0000001,0 0,-4.000001 0,-8 0,-11.9999996 z"
       id="path4160-62-8"
       style="color:#000000;display:inline;overflow:visible;visibility:visible;opacity:0.3;fill:none;stroke:#000000;stroke-width:0.99999982;stroke-linecap:butt;stroke-linejoin:miter;stroke-miterlimit:4;stroke-dasharray:none;stroke-dashoffset:0;stroke-opacity:1;marker:none;enable-background:accumulate" />
    <path
       inkscape:connector-curvature="0"
       d="m 6.9702405,14.845344 c -0.1801063,0.06076 0.030127,1.367687 -0.083875,1.513688 -0.1100705,0.140971 -1.464343,0.283889 -1.4595331,0.459442 0.00498,0.181816 1.3780039,0.393059 1.4885954,0.54133 0.1067819,0.143163 -0.1690945,1.414799 0.00778,1.464626 0.1831851,0.0516 0.8197981,-1.124468 1.0021461,-1.178833 C 8.1014189,17.593107 9.284915,18.233068 9.38942,18.08831 9.497652,17.938386 8.5192279,17.001462 8.5213329,16.819592 8.5233329,16.643988 9.53037,15.76957 9.418083,15.630278 9.301791,15.486016 8.0603509,16.080847 7.8793049,16.022809 7.7044959,15.966769 7.1441429,14.786674 6.9702405,14.845344 Z"
       id="path5640-3"
       style="color:#000000;display:inline;overflow:visible;visibility:visible;opacity:0.15;fill:#000000;fill-opacity:1;fill-rule:nonzero;stroke:none;stroke-width:44.37043762;marker:none;enable-background:accumulate" />
    <path
       inkscape:connector-curvature="0"
       d="m 7.0218294,14.504789 c 0.1739611,-0.05869 0.7361161,1.123036 0.9109851,1.179094 0.181107,0.05806 1.4218135,-0.538302 1.5381455,-0.39399 0.112325,0.139339 -0.8947775,1.013919 -0.8968115,1.189583 -0.0021,0.181932 0.9766135,1.120715 0.8683435,1.270688 -0.104539,0.144807 -1.2891185,-0.496399 -1.4652435,-0.44389 -0.182409,0.05438 -0.818233,1.230941 -1.0014803,1.179319 -0.1769347,-0.04984 0.098058,-1.320712 -0.00876,-1.463924 -0.110627,-0.148321 -1.4823083,-0.359951 -1.4872912,-0.541829 -0.00482,-0.175612 1.3497237,-0.319845 1.4598315,-0.460864 0.1140359,-0.14605 -0.097885,-1.453403 0.082282,-1.514187 z"
       id="path4468-6"
       style="color:#000000;display:inline;overflow:visible;visibility:visible;fill:url(#linearGradient3281);fill-opacity:1;stroke:none;stroke-width:10;marker:none;enable-background:accumulate" />
    <path
       inkscape:connector-curvature="0"
       d="m 7.039313,14.470596 -0.04821,0.04636 c -3.44e-4,0.0011 -0.0019,0.0014 -0.0019,0.0021 -0.096792,0.234217 0.058261,1.259164 -0.03946,1.3843 -0.0042,0.0052 -0.01001,0.01243 -0.017541,0.01766 l 0.039461,0.0265 c 0.7903285,0.236715 0.098571,-1.427744 0.07889,-1.474818 -0.0037,-6.98e-4 -0.0074,-0.0025 -0.01094,-0.0021 z"
       id="path4480-14"
       style="opacity:0.5;fill:#9d0f06;fill-opacity:1;stroke:none" />
    <path
       inkscape:connector-curvature="0"
       d="m 5.7536304,16.427205 c -0.1663436,0.0015 -0.262602,0.0094 -0.262602,0.0094 v 0.0022 0.0378 c 0.097563,0.179325 1.3903695,0.384497 1.4982481,0.529129 0.108053,0.144867 -0.1695997,1.430665 0.00936,1.481083 0.185362,0.05222 0.828383,-1.137887 1.012899,-1.192899 0.177047,-0.05278 1.3609145,0.586923 1.4794925,0.451177 l -0.002,-0.0022 C 8.4907355,16.519122 6.4746472,16.421091 5.7538346,16.427206 Z"
       id="path4517-2"
       style="opacity:0.75;fill:url(#linearGradient3277);fill-opacity:1;stroke:none" />
  </g>
  <path
     sodipodi:nodetypes="ccccccccccc"
     inkscape:connector-curvature="0"
     id="path290"
     d="m 12.5,9.5 v 5 h 5 L 16,13 22,7 23.5,8.5 v -5 h -5 L 20,5 14,11 Z"
     style="opacity:1;vector-effect:none;fill:url(#linearGradient317);fill-opacity:1;stroke:none;stroke-width:0.79069757;stroke-linecap:butt;stroke-linejoin:miter;stroke-miterlimit:4;stroke-dasharray:none;stroke-dashoffset:0;stroke-opacity:1;marker:none" />
  <path
     style="opacity:0.3;vector-effect:none;fill:none;fill-opacity:1;stroke:#000000;stroke-width:1;stroke-linecap:butt;stroke-linejoin:miter;stroke-miterlimit:4;stroke-dasharray:none;stroke-dashoffset:0;stroke-opacity:1;marker:none"
     d="m 25.28125,24.5 v 5 h 5 l -1.5,-1.5 4,-4 1.5,1.5 v -5 h -5 l 1.5,1.5 -4,4 z"
     id="path319"
     inkscape:connector-curvature="0"
     sodipodi:nodetypes="ccccccccccc" />
  <path
     style="opacity:0.3;vector-effect:none;fill:none;fill-opacity:1;stroke:#000000;stroke-width:1;stroke-linecap:butt;stroke-linejoin:miter;stroke-miterlimit:4;stroke-dasharray:none;stroke-dashoffset:0;stroke-opacity:1;marker:none;font-variant-east_asian:normal"
     d="m 12.5,9.5 v 5 h 5 L 16,13 22,7 23.5,8.5 v -5 h -5 L 20,5 14,11 Z"
     id="path356"
     inkscape:connector-curvature="0"
     sodipodi:nodetypes="ccccccccccc" />
</svg>
