<?xml version="1.0" encoding="UTF-8" standalone="no"?>
<svg
   xmlns:dc="http://purl.org/dc/elements/1.1/"
   xmlns:cc="http://creativecommons.org/ns#"
   xmlns:rdf="http://www.w3.org/1999/02/22-rdf-syntax-ns#"
   xmlns:svg="http://www.w3.org/2000/svg"
   xmlns="http://www.w3.org/2000/svg"
   xmlns:xlink="http://www.w3.org/1999/xlink"
   version="1.0"
   width="48"
   height="48"
   id="svg2453">
  <metadata
     id="metadata35">
    <rdf:RDF>
      <cc:Work
         rdf:about="">
        <dc:format>image/svg+xml</dc:format>
        <dc:type
           rdf:resource="http://purl.org/dc/dcmitype/StillImage" />
        <dc:title />
      </cc:Work>
    </rdf:RDF>
  </metadata>
  <defs
     id="defs2455">
    <radialGradient
       cx="605.71429"
       cy="486.64789"
       r="117.14286"
       fx="605.71429"
       fy="486.64789"
       id="radialGradient19613"
       xlink:href="#linearGradient5060"
       gradientUnits="userSpaceOnUse"
       gradientTransform="matrix(0.02891661,0,0,0.01235294,26.973101,38.470848)" />
    <linearGradient
       id="linearGradient5060">
      <stop
         id="stop5062"
         style="stop-color:#000000;stop-opacity:1"
         offset="0" />
      <stop
         id="stop5064"
         style="stop-color:#000000;stop-opacity:0"
         offset="1" />
    </linearGradient>
    <radialGradient
       cx="605.71429"
       cy="486.64789"
       r="117.14286"
       fx="605.71429"
       fy="486.64789"
       id="radialGradient19616"
       xlink:href="#linearGradient5060"
       gradientUnits="userSpaceOnUse"
       gradientTransform="matrix(-0.0289166,0,0,0.01235294,21.026894,38.470848)" />
    <linearGradient
       id="linearGradient5048">
      <stop
         id="stop5050"
         style="stop-color:#000000;stop-opacity:0"
         offset="0" />
      <stop
         id="stop5056"
         style="stop-color:#000000;stop-opacity:1"
         offset="0.5" />
      <stop
         id="stop5052"
         style="stop-color:#000000;stop-opacity:0"
         offset="1" />
    </linearGradient>
    <linearGradient
       x1="302.85715"
       y1="366.64789"
       x2="302.85715"
       y2="609.50507"
       id="linearGradient19619"
       xlink:href="#linearGradient5048"
       gradientUnits="userSpaceOnUse"
       gradientTransform="matrix(0.08449704,0,0,0.01235294,-6.5396456,38.470822)" />
    <linearGradient
       id="linearGradient3600">
      <stop
         id="stop3602"
         style="stop-color:#f4f4f4;stop-opacity:1"
         offset="0" />
      <stop
         id="stop3604"
         style="stop-color:#dbdbdb;stop-opacity:1"
         offset="1" />
    </linearGradient>
    <linearGradient
       id="linearGradient3977">
      <stop
         id="stop3979"
         style="stop-color:#ffffff;stop-opacity:1"
         offset="0" />
      <stop
         id="stop3981"
         style="stop-color:#ffffff;stop-opacity:0.23529412"
         offset="0.03626217" />
      <stop
         id="stop3983"
         style="stop-color:#ffffff;stop-opacity:0.15686275"
         offset="0.95056331" />
      <stop
         id="stop3985"
         style="stop-color:#ffffff;stop-opacity:0.39215687"
         offset="1" />
    </linearGradient>
    <linearGradient
       x1="23.99999"
       y1="5.5641499"
       x2="23.99999"
       y2="43"
       id="linearGradient3138"
       xlink:href="#linearGradient3977"
       gradientUnits="userSpaceOnUse"
       gradientTransform="matrix(1.1621622,0,0,0.91891889,-3.8918883,4.4459543)" />
    <linearGradient
       x1="25.132275"
       y1="0.98520643"
       x2="25.132275"
       y2="47.013336"
       id="linearGradient3141"
       xlink:href="#linearGradient3600"
       gradientUnits="userSpaceOnUse"
       gradientTransform="matrix(1.2571399,0,0,0.76049252,-6.1713598,7.0815133)" />
    <linearGradient
       id="linearGradient3104-6">
      <stop
         offset="0"
         style="stop-color:#000000;stop-opacity:0.31782946"
         id="stop3106-3" />
      <stop
         offset="1"
         style="stop-color:#000000;stop-opacity:0.24031007"
         id="stop3108-9" />
    </linearGradient>
    <linearGradient
       xlink:href="#linearGradient3104-6"
       id="linearGradient3144"
       gradientUnits="userSpaceOnUse"
       gradientTransform="matrix(1.0382097,0,0,0.73204138,69.527413,5.6548677)"
       x1="-51.786404"
       y1="50.786446"
       x2="-51.786404"
       y2="2.9062471" />
    <linearGradient
       y2="38.502998"
       x2="0.97943717"
       y1="7.3122649"
       x1="0.97943717"
       gradientTransform="matrix(0.4167904,0,0,0.41679043,38.59178,5.452318)"
       gradientUnits="userSpaceOnUse"
       id="linearGradient1298"
       xlink:href="#linearGradient4220-7" />
    <linearGradient
       id="linearGradient4220-7">
      <stop
         offset="0"
         style="stop-color:#fafafa;stop-opacity:1"
         id="stop4222-7" />
      <stop
         offset="1"
         style="stop-color:#abacae;stop-opacity:1"
         id="stop4224-0" />
    </linearGradient>
    <linearGradient
       y2="47.013336"
       x2="25.132275"
       y1="0.98520643"
       x1="25.132275"
       gradientTransform="matrix(1.0028333,0,0,0.60581662,-4.6195252,14.692039)"
       gradientUnits="userSpaceOnUse"
       id="linearGradient4231"
       xlink:href="#linearGradient3600" />
    <linearGradient
       y2="43"
       x2="23.99999"
       y1="5.5641499"
       x1="23.99999"
       gradientTransform="matrix(0.92706863,0,0,0.73202079,-2.8011676,12.592524)"
       gradientUnits="userSpaceOnUse"
       id="linearGradient4233"
       xlink:href="#linearGradient3977" />
    <linearGradient
       y2="2.9062471"
       x2="-51.786404"
       y1="50.786446"
       x1="-51.786404"
       gradientTransform="matrix(0.82819046,0,0,0.58315214,55.766157,13.555557)"
       gradientUnits="userSpaceOnUse"
       id="linearGradient4235"
       xlink:href="#linearGradient3104-6" />
    <linearGradient
       x1="-96.557358"
       y1="110.92493"
       x2="-96.557358"
       y2="39.991924"
       id="linearGradient6790"
       xlink:href="#linearGradient3825-5-8-9"
       gradientUnits="userSpaceOnUse"
       gradientTransform="matrix(0.23682313,0,0,0.23897582,54.815171,19.241158)" />
    <linearGradient
       id="linearGradient3825-5-8-9">
      <stop
         id="stop3827-2-3-55"
         style="stop-color:#e89c42;stop-opacity:1"
         offset="0" />
      <stop
         id="stop3829-5-0-1"
         style="stop-color:#faca67;stop-opacity:1"
         offset="1" />
    </linearGradient>
    <linearGradient
       x1="-107.45584"
       y1="-37.385227"
       x2="-107.45584"
       y2="38.561256"
       id="linearGradient6785"
       xlink:href="#linearGradient3871-6-7"
       gradientUnits="userSpaceOnUse"
       gradientTransform="matrix(0.23682313,0,0,0.23897582,54.815171,19.241158)" />
    <linearGradient
       id="linearGradient3871-6-7">
      <stop
         id="stop3873-3-2"
         style="stop-color:#0b85e9;stop-opacity:1"
         offset="0" />
      <stop
         id="stop3875-4-0"
         style="stop-color:#69d1ef;stop-opacity:1"
         offset="1" />
    </linearGradient>
    <linearGradient
       x1="-211.28862"
       y1="88.750069"
       x2="-208.49672"
       y2="75.190559"
       id="linearGradient4478-4-9"
       xlink:href="#linearGradient4470-86-9"
       gradientUnits="userSpaceOnUse"
       gradientTransform="matrix(0.15260753,0.011922,-0.01258467,0.14528099,47.067821,25.419296)" />
    <linearGradient
       id="linearGradient4470-86-9">
      <stop
         id="stop4472-0-4"
         style="stop-color:#ec4502;stop-opacity:1"
         offset="0" />
      <stop
         id="stop4474-9-9"
         style="stop-color:#fe7617;stop-opacity:1"
         offset="1" />
    </linearGradient>
    <linearGradient
       x1="-184.92441"
       y1="113.97943"
       x2="-175.25337"
       y2="88.801025"
       id="linearGradient6598-5"
       xlink:href="#linearGradient4574-39-1"
       gradientUnits="userSpaceOnUse"
       gradientTransform="matrix(0.15070105,0,0,0.15182597,40.329191,22.187115)" />
    <linearGradient
       id="linearGradient4574-39-1">
      <stop
         id="stop4576-75-8"
         style="stop-color:#7a0f01;stop-opacity:1"
         offset="0" />
      <stop
         id="stop4578-96-3"
         style="stop-color:#d31807;stop-opacity:1"
         offset="1" />
    </linearGradient>
    <linearGradient
       y2="39.991924"
       x2="-96.557358"
       y1="110.92493"
       x1="-96.557358"
       gradientTransform="matrix(0.21050945,0,0,0.21166431,47.391268,21.842493)"
       gradientUnits="userSpaceOnUse"
       id="linearGradient4368"
       xlink:href="#linearGradient3825-5-8-9" />
    <linearGradient
       y2="38.561256"
       x2="-107.45584"
       y1="-37.385227"
       x1="-107.45584"
       gradientTransform="matrix(0.21050945,0,0,0.20099642,47.391268,22.404006)"
       gradientUnits="userSpaceOnUse"
       id="linearGradient4370"
       xlink:href="#linearGradient3871-6-7" />
    <linearGradient
       y2="75.190559"
       x2="-208.49672"
       y1="88.750069"
       x1="-211.28862"
       gradientTransform="matrix(0.13565114,0.01055949,-0.01118637,0.12867745,40.504734,27.314558)"
       gradientUnits="userSpaceOnUse"
       id="linearGradient4372"
       xlink:href="#linearGradient4470-86-9" />
    <linearGradient
       y2="88.801025"
       x2="-175.25337"
       y1="113.97943"
       x1="-184.92441"
       gradientTransform="matrix(0.13395649,0,0,0.13447444,34.514841,24.451769)"
       gradientUnits="userSpaceOnUse"
       id="linearGradient4374"
       xlink:href="#linearGradient4574-39-1" />
  </defs>
  <g
     id="g4435">
    <g
       id="g4304">
      <rect
         style="display:inline;overflow:visible;visibility:visible;opacity:0.15;fill:url(#linearGradient19619);fill-opacity:1;fill-rule:nonzero;stroke:none;stroke-width:1;marker:none"
         id="rect2879"
         y="43"
         x="3.5999999"
         height="2.9999998"
         width="40.799999" />
      <path
         style="display:inline;overflow:visible;visibility:visible;opacity:0.15;fill:url(#radialGradient19616);fill-opacity:1;fill-rule:nonzero;stroke:none;stroke-width:1;marker:none"
         id="path2881"
         d="m 3.6,43.00013 c 0,0 0,2.999835 0,2.999835 C 2.1108662,46.005612 0,45.327854 0,44.499854 0,43.671856 1.6617608,43.000131 3.6,43.00013 Z" />
      <path
         style="display:inline;overflow:visible;visibility:visible;opacity:0.15;fill:url(#radialGradient19613);fill-opacity:1;fill-rule:nonzero;stroke:none;stroke-width:1;marker:none"
         id="path2883"
         d="m 44.4,43.00013 c 0,0 0,2.999835 0,2.999835 1.489133,0.0056 3.6,-0.672111 3.6,-1.500111 0,-0.827998 -1.661761,-1.499723 -3.6,-1.499724 z" />
    </g>
    <g
       id="g4376"
       style="opacity:0.5">
      <path
         d="m 2,9.0000015 c 10.082633,0 43.999947,0.00223 43.999947,0.00223 L 46,44 C 46,44 16.666668,44 2,44 2,32.333334 2,20.666667 2,9 Z"
         id="path4160"
         style="display:inline;fill:url(#linearGradient3141);fill-opacity:1;stroke:none" />
      <path
         d="m 45.499997,43.499999 -43.0000003,0 0,-34.0000001 43.0000003,0 z"
         id="rect6741-1"
         style="fill:none;stroke:url(#linearGradient3138);stroke-width:1;stroke-linecap:round;stroke-linejoin:round;stroke-miterlimit:4;stroke-dasharray:none;stroke-dashoffset:0;stroke-opacity:1" />
      <path
         d="m 1.4999552,8.4999357 c 10.3117928,0 45.0000318,0.0025 45.0000318,0.0025 l 4.7e-5,35.9976273 c 0,0 -30.000052,0 -45.0000788,0 0,-12.000058 0,-23.999996 0,-35.9999143 z"
         id="path4160-6-1"
         style="display:inline;fill:none;stroke:url(#linearGradient3144);stroke-width:0.9999218;stroke-linecap:butt;stroke-linejoin:round;stroke-miterlimit:4;stroke-dasharray:none;stroke-dashoffset:0;stroke-opacity:1" />
      <g
         id="g4322"
         transform="matrix(1.1111111,0,0,1.1071429,-2.6667037,-4.4995936)"
         style="">
        <path
           d="m 6.0000009,13.999631 0,28 36.0000001,0 0,-28 z"
           id="rect3055-2-9-1"
           style="color:#000000;display:inline;overflow:visible;visibility:visible;fill:url(#linearGradient6790);fill-opacity:1;fill-rule:nonzero;stroke:none;stroke-width:10;marker:none;enable-background:accumulate" />
        <path
           d="m 12.683615,31.378889 c -0.150379,-0.01138 -0.319456,1.99e-4 -0.489927,0.05771 -0.665408,0.224494 -0.741716,0.666737 -0.80113,0.878989 -0.05941,0.212252 -0.0717,0.377223 -0.08136,0.551276 -0.01932,0.348105 -0.0043,0.713997 0.01211,1.079644 0.01345,0.300339 0.02544,0.566911 0.03133,0.802329 -0.229457,0.0532 -0.482339,0.110335 -0.773557,0.172676 -0.364989,0.07814 -0.7339705,0.156339 -1.074296,0.263452 -0.170162,0.05356 -0.3300071,0.107609 -0.5330912,0.223457 -0.101542,0.05792 -0.2184909,0.126807 -0.3554091,0.278476 -0.1369182,0.151668 -0.3028012,0.436899 -0.293358,0.781535 0.018436,0.672799 0.43518,0.876243 0.6291717,0.995298 0.1939918,0.119055 0.3504643,0.179635 0.5215914,0.241861 0.3422558,0.124451 0.7197962,0.225339 1.0907232,0.322888 0.305709,0.0804 0.573529,0.156153 0.81127,0.223355 -0.01781,0.223909 -0.04243,0.471372 -0.07004,0.753273 -0.03477,0.354921 -0.0688,0.70925 -0.067,1.05061 9.01e-4,0.17068 0.0048,0.333437 0.05773,0.553 0.02645,0.109782 0.06216,0.235716 0.171246,0.406463 0.109089,0.170747 0.338012,0.412726 0.685558,0.510632 0.677118,0.190749 1.010082,-0.120417 1.189146,-0.259049 0.179063,-0.138632 0.289341,-0.267081 0.404572,-0.402616 0.23046,-0.271068 0.445236,-0.580359 0.657668,-0.885626 0.174715,-0.251069 0.330046,-0.473081 0.470696,-0.667125 0.218487,0.08502 0.458915,0.182844 0.73305,0.294947 0.343453,0.140449 0.690938,0.283666 1.032366,0.386891 0.170714,0.05161 0.330282,0.0978 0.565985,0.117348 0.11785,0.0098 0.259242,0.01848 0.463329,-0.02779 0.204087,-0.04628 0.51229,-0.181112 0.71726,-0.465032 0.39977,-0.55376 0.193534,-0.956541 0.110215,-1.161503 -0.08332,-0.204961 -0.174769,-0.341717 -0.274639,-0.487672 -0.199744,-0.291909 -0.444133,-0.58107 -0.683498,-0.86699 -0.19657,-0.234801 -0.366521,-0.443384 -0.516777,-0.629999 0.152712,-0.171547 0.323163,-0.358412 0.520059,-0.571853 0.246949,-0.267701 0.495172,-0.536164 0.704227,-0.813428 0.104528,-0.138632 0.203384,-0.272341 0.296016,-0.479657 0.04632,-0.103659 0.0966,-0.226202 0.113665,-0.425342 0.0171,-0.199138 -0.02267,-0.522549 -0.243128,-0.796022 -0.429824,-0.5332 -0.892258,-0.465256 -1.122633,-0.453363 -0.230375,0.01189 -0.398019,0.05166 -0.574932,0.09678 -0.353824,0.09023 -0.72097,0.217178 -1.081375,0.345171 -0.297081,0.105505 -0.558222,0.198072 -0.79214,0.276353 -0.123854,-0.190933 -0.257475,-0.405133 -0.4095,-0.649043 -0.190617,-0.30583 -0.383233,-0.612843 -0.595296,-0.887524 -0.106031,-0.137341 -0.203333,-0.265879 -0.381867,-0.413776 -0.08927,-0.07395 -0.198656,-0.159477 -0.392435,-0.236342 -0.09689,-0.03843 -0.231189,-0.07328 -0.381569,-0.08466 z m 1.738343,2.380043 c 0.0051,-7.4e-4 0.03564,0.0081 0.04253,0.0079 -0.01226,0.003 -0.04702,0.01264 -0.05403,0.01406 -0.01725,0.0035 -0.03015,-0.01594 0.0115,-0.02195 z m 0.63521,0.205029 c 0.05292,0.04207 0.04947,0.0609 0.03899,0.04875 -0.0047,-0.0055 -0.02954,-0.03663 -0.03899,-0.04875 z M 11.763825,34.6254 c 0.04271,-0.01926 0.04635,0.0066 0.0326,0.01169 -0.0072,0.0027 -0.04817,0.01282 -0.06396,0.01786 0.0062,-0.0037 0.02628,-0.02725 0.03137,-0.02954 z m -0.408456,0.502869 c -7.88e-4,0.01264 8.35e-4,0.04783 4.2e-5,0.05485 -0.0021,0.01891 -0.01895,0.0046 -4.2e-5,-0.05485 z m 5.401792,0.993343 c -0.0098,-0.01618 0.01321,-0.01332 0.03461,0.04384 -0.0072,-0.01069 -0.03091,-0.03776 -0.03461,-0.04384 z m 0.01648,0.641193 c -0.02554,0.05963 -0.04702,0.06516 -0.0381,0.05187 0.0041,-0.0061 0.02871,-0.0393 0.0381,-0.05187 z m -5.376892,1.047158 c 4.42e-4,0.0073 -8.83e-4,0.04815 -7.45e-4,0.06393 -0.01656,-0.06328 -2.52e-4,-0.07974 7.45e-4,-0.06393 z m 0.360137,0.553772 c 0.01156,0.0044 0.04482,0.015 0.05128,0.01771 0.01823,0.0077 0.0024,0.01773 -0.05128,-0.01771 z m 3.390654,0.598549 c 0.01343,-0.01421 0.01548,0.0093 -0.03771,0.04733 0.0095,-0.01095 0.03234,-0.04165 0.03771,-0.04733 z m -0.698826,0.196798 c 0.0078,0.0019 0.04828,0.01831 0.06519,0.02338 -0.0678,-0.0046 -0.08123,-0.02733 -0.06519,-0.02338 z"
           id="path5297"
           style="color:#000000;display:inline;overflow:visible;visibility:visible;opacity:0.05;fill:#000000;fill-opacity:1;fill-rule:nonzero;stroke:none;stroke-width:6.62903976;marker:none;enable-background:accumulate" />
        <path
           d="m 6.0000009,15.219188 0,15.527438 c 0.8041,0.215737 1.84683,0.392137 3.08863,0.392137 3.1662001,0 2.7144601,-1.073218 5.4409201,-1.073218 2.72644,0 4.33236,1.754299 8.01818,1.754299 4.56532,0 5.61297,-2.827518 9.225,-2.827518 2.82047,0 3.03223,1.547912 6.13636,1.547912 2.09698,0 2.79339,-0.813178 4.09091,-1.341524 l 0,-13.979526 z"
           id="rect3055-2-6-9-0-6"
           style="color:#000000;display:inline;overflow:visible;visibility:visible;opacity:0.07000002;fill:#000000;fill-opacity:1;fill-rule:nonzero;stroke:none;stroke-width:10;marker:none;enable-background:accumulate" />
        <path
           d="m 6.0000009,13.999631 0,14.288943 c 0.53455,0.248706 1.21145,0.474693 1.94318,0.474693 1.67105,0 3.3052401,-1.362162 6.0954501,-1.362162 2.79022,0 4.88882,1.713022 8.40682,1.713022 3.518,0 4.30977,-2.476658 8.79546,-2.476658 4.48568,0 4.06388,1.56855 6.87272,1.56855 1.93479,0 2.76107,-0.681839 3.88637,-1.114496 l 0,-13.091892 z"
           id="path3867-3-5-3"
           style="fill:url(#linearGradient6785);fill-opacity:1;stroke:none" />
        <path
           d="m 31.240911,24.531294 c -2.35645,0 -3.83874,0.673262 -5.05228,1.300246 -1.21353,0.626983 -2.12904,1.176412 -3.74318,1.176412 -1.6588,0 -2.96983,-0.399909 -4.275,-0.825552 -1.30516,-0.425644 -2.61038,-0.88747 -4.13182,-0.88747 -1.49556,0 -2.69794,0.354952 -3.68181,0.701721 -0.9838801,0.346767 -1.7458501,0.660442 -2.4136401,0.660442 -0.60463,0 -1.19401,-0.208571 -1.67727,-0.433415 a 0.6229208,0.6285327 0 0 0 -0.26591,-0.06192 l 0,2.703686 c 0.82828,0.209133 1.86731,0.371499 3.08863,0.371499 1.6528501,0 2.4937601,-0.304357 3.1295501,-0.577888 0.63579,-0.27353 1.02914,-0.495331 2.31137,-0.495331 1.23082,0 2.2209,0.403081 3.43636,0.846191 1.21545,0.443111 2.64097,0.908109 4.58182,0.908109 2.41009,0 3.97897,-0.771287 5.27727,-1.485996 1.2983,-0.714708 2.30278,-1.341523 3.94773,-1.341523 1.2973,0 1.89993,0.332189 2.7,0.722359 0.80005,0.39017 1.78168,0.825553 3.43636,0.825553 2.10719,0 3.0308,-0.788867 4.09091,-1.279607 l 0,-2.373465 a 0.6229208,0.6285327 0 0 0 -0.225,0.04127 c -1.23397,0.474437 -1.8716,1.073219 -3.66137,1.073219 -1.28952,0 -1.69197,-0.311728 -2.53636,-0.722359 -0.8444,-0.41063 -2.02157,-0.846192 -4.33636,-0.846192 z"
           id="path4213-1-6"
           style="color:#000000;display:inline;overflow:visible;visibility:visible;opacity:0.1;fill:#ffffff;fill-opacity:1;fill-rule:nonzero;stroke:none;stroke-width:10;marker:none;enable-background:accumulate" />
        <path
           d="m 31.240911,25.65784 c -4.48569,0 -5.27746,2.476658 -8.79546,2.476658 -3.518,0 -5.6166,-1.713022 -8.40682,-1.713022 -2.79021,0 -4.4244001,1.362162 -6.0954501,1.362162 -0.73173,0 -1.40863,-0.225987 -1.94318,-0.474693 l 0,1.424079 c 0.8041,0.215737 1.84683,0.392137 3.08863,0.392137 3.1662001,0 2.7144601,-1.073218 5.4409201,-1.073218 2.72644,0 4.33236,1.7543 8.01818,1.7543 4.56532,0 5.61297,-2.827519 9.225,-2.827519 2.82047,0 3.03223,1.547912 6.13636,1.547912 2.09698,0 2.79339,-0.813177 4.09091,-1.341523 l 0,-1.073219 c -1.1253,0.432657 -1.95158,1.114496 -3.88637,1.114496 -2.80884,0 -2.38704,-1.56855 -6.87272,-1.56855 z"
           id="rect3055-2-6-94-0-7"
           style="color:#000000;display:inline;overflow:visible;visibility:visible;opacity:0.3;fill:#ffffff;fill-opacity:1;fill-rule:nonzero;stroke:none;stroke-width:10;marker:none;enable-background:accumulate" />
        <path
           d="m 31.240911,26.637469 c -4.48569,0 -5.27746,2.476658 -8.79546,2.476658 -3.518,0 -5.6166,-1.713022 -8.40682,-1.713022 -2.79021,0 -4.4244001,1.362162 -6.0954501,1.362162 -0.73173,0 -1.40863,-0.225987 -1.94318,-0.474693 l 0,1.424079 c 0.8041,0.215737 1.84683,0.392138 3.08863,0.392138 3.1662001,0 2.7144601,-1.073219 5.4409201,-1.073219 2.72644,0 4.33236,1.7543 8.01818,1.7543 4.56532,0 5.61297,-2.827518 9.225,-2.827518 2.82047,0 3.03223,1.547911 6.13636,1.547911 2.09698,0 2.79339,-0.813177 4.09091,-1.341523 l 0,-1.073219 c -1.1253,0.432657 -1.95158,1.114496 -3.88637,1.114496 -2.80884,0 -2.38704,-1.56855 -6.87272,-1.56855 z"
           id="rect3055-2-6-8-5"
           style="color:#000000;display:inline;overflow:visible;visibility:visible;fill:#ffffff;fill-opacity:1;fill-rule:nonzero;stroke:none;stroke-width:10;marker:none;enable-background:accumulate" />
        <path
           d="m 12.563762,32.429941 c -0.366059,0.123499 0.06123,2.779771 -0.170472,3.076512 -0.223714,0.286518 -2.9762203,0.576993 -2.9664439,0.933798 0.010126,0.369534 2.8007389,0.798876 3.0255119,1.100231 0.217031,0.290974 -0.343678,2.875524 0.01581,2.976796 0.372317,0.104885 1.666208,-2.285438 2.036822,-2.395931 0.357847,-0.106686 2.763256,1.19401 2.975657,0.899795 0.219979,-0.304713 -1.768631,-2.208975 -1.764353,-2.578618 0.0041,-0.35691 2.05083,-2.134129 1.822611,-2.417236 -0.236362,-0.293208 -2.759541,0.915764 -3.12751,0.797805 -0.355292,-0.113896 -1.494187,-2.512398 -1.847636,-2.393152 z"
           id="path5640-3"
           style="color:#000000;display:inline;overflow:visible;visibility:visible;opacity:0.15;fill:#000000;fill-opacity:1;fill-rule:nonzero;stroke:none;stroke-width:6.62903976;marker:none;enable-background:accumulate" />
        <path
           d="m 12.562105,31.429342 c 0.35345,-0.119246 1.49562,2.281754 1.850914,2.39565 0.367969,0.11796 2.888802,-1.093705 3.125163,-0.800498 0.228219,0.283107 -1.817986,2.060055 -1.822119,2.416964 -0.0043,0.369644 1.984259,2.277038 1.764279,2.581749 -0.212401,0.294215 -2.619197,-1.00857 -2.977043,-0.901884 -0.370614,0.110493 -1.662463,2.500992 -2.03478,2.396108 -0.359491,-0.101272 0.199233,-2.683386 -0.0178,-2.97436 -0.224774,-0.301355 -3.0117177,-0.731339 -3.0218418,-1.100874 -0.00978,-0.356804 2.7423308,-0.649852 2.9660448,-0.936371 0.231696,-0.29674 -0.19888,-2.952984 0.167178,-3.076484 z"
           id="path4468-6"
           style="color:#000000;display:inline;overflow:visible;visibility:visible;fill:url(#linearGradient4478-4-9);fill-opacity:1;stroke:none;stroke-width:1.49402165;marker:none;enable-background:accumulate" />
        <path
           d="m 12.586061,31.424781 -0.10361,0.09963 c -7.4e-4,0.0023 -0.004,0.003 -0.004,0.0045 -0.20799,0.503328 0.12521,2.705925 -0.0848,2.974841 -0.009,0.01125 -0.0215,0.02671 -0.0377,0.03796 l 0.0848,0.05694 c 1.6984,0.5087 0.21182,-3.068201 0.16953,-3.169363 -0.008,-0.0015 -0.016,-0.0053 -0.0235,-0.0045 z"
           id="path4480-14"
           style="opacity:0.5;fill:#9d0f06;fill-opacity:1;stroke:none" />
        <path
           d="m 9.9676309,35.381745 c -0.33411,0.003 -0.52745,0.01898 -0.52745,0.01898 l 0,0.0045 0,0.07592 c 0.19596,0.360184 2.7926301,0.772283 3.0093101,1.062783 0.21703,0.290973 -0.34065,2.873566 0.0188,2.974834 0.37231,0.104891 1.66385,-2.285507 2.03446,-2.396002 0.35561,-0.106016 2.73347,1.178866 2.97164,0.906214 l -0.004,-0.0045 c -2.00514,-2.458108 -6.05456,-2.655008 -7.5023501,-2.642727 z"
           id="path4517-2"
           style="opacity:0.75;fill:url(#linearGradient6598-5);fill-opacity:1;stroke:none" />
      </g>
      <rect
         width="39.000061"
         height="30"
         x="4.4999642"
         y="11.499999"
         id="rect3180"
         style="color:#000000;display:inline;overflow:visible;visibility:visible;opacity:0.15;fill:none;fill-opacity:1;fill-rule:nonzero;stroke:#000000;stroke-width:1.00000072;stroke-linecap:round;stroke-linejoin:miter;stroke-miterlimit:4;stroke-dasharray:none;stroke-dashoffset:0;stroke-opacity:1;marker:none;enable-background:accumulate" />
    </g>
    <g
       id="g4418">
      <path
         style="display:inline;fill:url(#linearGradient4231);fill-opacity:1;stroke:none"
         id="path4211"
         d="m 2.0000057,15.999112 c 8.0430193,0 35.9999793,0.0018 35.9999793,0.0018 L 38.000027,44 2.0000057,44 Z" />
      <path
         style="fill:none;stroke:url(#linearGradient4233);stroke-width:0.99999994;stroke-linecap:round;stroke-linejoin:round;stroke-miterlimit:4;stroke-dasharray:none;stroke-dashoffset:0;stroke-opacity:1"
         id="path4213"
         d="m 37.500006,43.5 -35.0000003,0 0,-27 35.0000003,0 z" />
      <path
         style="display:inline;fill:none;stroke:url(#linearGradient4235);stroke-width:0.99992186;stroke-linecap:butt;stroke-linejoin:round;stroke-miterlimit:4;stroke-dasharray:none;stroke-dashoffset:0;stroke-opacity:1"
         id="path4215"
         d="m 1.4999609,15.499915 c 8.2258222,0 37.0000261,8.5e-5 37.0000261,8.5e-5 l 3.7e-5,29.000063 -37.0000631,0 0,-28.999978 z" />
      <path
         d="m 4.0000053,18 0,23.999998 31.9999997,0 0,-23.999998 z"
         id="path4346"
         style="color:#000000;display:inline;overflow:visible;visibility:visible;fill:url(#linearGradient4368);fill-opacity:1;fill-rule:nonzero;stroke:none;stroke-width:10;marker:none;enable-background:accumulate" />
      <path
         d="m 9.9409957,32.593055 c -0.1336703,-0.01008 -0.2839609,1.76e-4 -0.4354907,0.05112 -0.5914738,0.198837 -0.6593031,0.590538 -0.7121156,0.778533 -0.052809,0.187994 -0.063733,0.334112 -0.07232,0.488273 -0.017173,0.308321 -0.00382,0.632397 0.010765,0.956256 0.011956,0.266015 0.022613,0.502121 0.027849,0.710634 -0.2039618,0.04712 -0.4287458,0.09773 -0.6876063,0.152942 -0.3244346,0.06921 -0.6524182,0.138472 -0.9549297,0.233343 -0.1512551,0.04744 -0.2933397,0.09531 -0.4738589,0.197919 -0.09026,0.0513 -0.1942141,0.112315 -0.3159192,0.24665 -0.121705,0.134335 -0.2691566,0.386968 -0.2607626,0.692217 0.016388,0.595908 0.3868266,0.776101 0.5592637,0.88155 0.1724371,0.105449 0.3115238,0.159105 0.4636368,0.21422 0.3042274,0.110228 0.6398188,0.199586 0.9695317,0.285986 0.2717414,0.07121 0.5098036,0.138307 0.7211289,0.197829 -0.015831,0.198319 -0.037715,0.417501 -0.062258,0.667184 -0.030907,0.314359 -0.061155,0.628193 -0.059556,0.930541 8.009e-4,0.151174 0.00427,0.29533 0.051315,0.4898 0.023511,0.09723 0.055253,0.208777 0.1522187,0.36001 0.096968,0.151233 0.3004551,0.365557 0.6093849,0.452274 0.601883,0.168949 0.897851,-0.106655 1.057019,-0.229443 0.159167,-0.122789 0.257192,-0.236558 0.359619,-0.356603 0.204854,-0.240089 0.395766,-0.514032 0.584594,-0.784412 0.155302,-0.222375 0.293374,-0.419014 0.418396,-0.590882 0.194211,0.0753 0.407925,0.161948 0.6516,0.261239 0.305292,0.124398 0.614168,0.251247 0.917659,0.342675 0.151746,0.04571 0.293584,0.08662 0.503098,0.103937 0.104755,0.0087 0.230437,0.01637 0.411848,-0.02461 0.181411,-0.04099 0.455369,-0.160414 0.637564,-0.411886 0.355351,-0.490473 0.172031,-0.847222 0.09797,-1.02876 -0.07406,-0.181537 -0.15535,-0.302663 -0.244123,-0.431938 -0.177551,-0.258548 -0.394785,-0.514662 -0.607554,-0.767905 -0.174729,-0.207967 -0.325797,-0.392712 -0.459357,-0.557999 0.135744,-0.151942 0.287256,-0.317451 0.462274,-0.506499 0.21951,-0.237107 0.440153,-0.474888 0.62598,-0.720465 0.09291,-0.122788 0.180786,-0.241216 0.263125,-0.424839 0.04117,-0.09181 0.08587,-0.20035 0.101036,-0.376731 0.0152,-0.17638 -0.02015,-0.462829 -0.216114,-0.705048 -0.382066,-0.472263 -0.793118,-0.412084 -0.997896,-0.401551 -0.204778,0.01053 -0.353795,0.04576 -0.511051,0.08572 -0.31451,0.07992 -0.640862,0.192358 -0.961222,0.305723 -0.264072,0.09345 -0.496197,0.175435 -0.704124,0.24477 -0.110093,-0.169112 -0.228867,-0.358832 -0.364,-0.574867 -0.169438,-0.270878 -0.340652,-0.542804 -0.529152,-0.786093 -0.09425,-0.121645 -0.180741,-0.235493 -0.339438,-0.366487 -0.07935,-0.0655 -0.176583,-0.141251 -0.348831,-0.209332 -0.08612,-0.03404 -0.205501,-0.06491 -0.3391723,-0.07498 z m 1.5451933,2.108038 c 0.0045,-6.55e-4 0.03168,0.0072 0.03781,0.007 -0.0109,0.0027 -0.0418,0.0112 -0.04803,0.01245 -0.01533,0.0031 -0.0268,-0.01412 0.01022,-0.01944 z m 0.564632,0.181597 c 0.04704,0.03726 0.04397,0.05394 0.03466,0.04318 -0.0042,-0.0049 -0.02626,-0.03244 -0.03466,-0.04318 z m -2.9274165,0.585846 c 0.037965,-0.01706 0.0412,0.0058 0.028978,0.01035 -0.0064,0.0024 -0.042818,0.01136 -0.056853,0.01582 0.00551,-0.0033 0.02336,-0.02414 0.027884,-0.02616 z m -0.363072,0.445399 c -7.004e-4,0.0112 7.423e-4,0.04236 3.74e-5,0.04858 -0.00187,0.01675 -0.016845,0.0041 -3.74e-5,-0.04858 z m 4.8015925,0.879818 c -0.0087,-0.01433 0.01174,-0.0118 0.03076,0.03883 -0.0064,-0.0095 -0.02748,-0.03344 -0.03076,-0.03883 z m 0.01465,0.567914 c -0.0227,0.05282 -0.0418,0.05771 -0.03387,0.04594 0.0036,-0.0054 0.02552,-0.03481 0.03387,-0.04594 z m -4.7794592,0.927482 c 3.929e-4,0.0065 -7.849e-4,0.04265 -6.623e-4,0.05662 -0.01472,-0.05605 -2.24e-4,-0.07063 6.623e-4,-0.05662 z m 0.3201217,0.490484 c 0.010276,0.0039 0.03984,0.01329 0.045582,0.01569 0.016204,0.0068 0.00213,0.0157 -0.045582,-0.01569 z m 3.0139145,0.530144 c 0.01194,-0.01259 0.01376,0.0082 -0.03352,0.04192 0.0084,-0.0097 0.02875,-0.03689 0.03352,-0.04192 z m -0.621178,0.174306 c 0.0069,0.0017 0.04291,0.01622 0.05795,0.02071 -0.06027,-0.0041 -0.0722,-0.02421 -0.05795,-0.02071 z"
         id="path4348"
         style="color:#000000;display:inline;overflow:visible;visibility:visible;opacity:0.05;fill:#000000;fill-opacity:1;fill-rule:nonzero;stroke:none;stroke-width:6.62903976;marker:none;enable-background:accumulate" />
      <path
         d="m 4.0000053,19.02123 0,13.059729 c 0.7147556,0.181451 1.6416267,0.329816 2.7454489,0.329816 2.8144001,0 2.4128535,-0.902656 4.8363738,-0.902656 2.423502,0 3.850986,1.475496 7.127271,1.475496 4.058062,0 4.989306,-2.378152 8.2,-2.378152 2.507084,0 2.695315,1.301909 5.454542,1.301909 1.863982,0 2.483013,-0.683944 3.636364,-1.128322 l 0,-11.75782 z"
         id="path4350"
         style="color:#000000;display:inline;overflow:visible;visibility:visible;opacity:0.07000002;fill:#000000;fill-opacity:1;fill-rule:nonzero;stroke:none;stroke-width:10;marker:none;enable-background:accumulate" />
      <path
         d="m 4.0000053,17.995492 0,12.018063 c 0.4751556,0.20918 1.0768445,0.399252 1.7272712,0.399252 1.4853777,0 2.9379912,-1.145679 5.4181775,-1.145679 2.480196,0 4.345618,1.440778 7.472729,1.440778 3.127111,0 3.830907,-2.083054 7.818187,-2.083054 3.987271,0 3.612338,1.319268 6.109084,1.319268 1.719814,0 2.454285,-0.573477 3.454551,-0.937374 l 0,-11.011254 z"
         id="path4352"
         style="fill:url(#linearGradient4370);fill-opacity:1;stroke:none" />
      <path
         d="m 26.43637,26.853403 c -2.094622,0 -3.412213,0.566264 -4.490916,1.093604 -1.078693,0.527339 -1.89248,0.98945 -3.327271,0.98945 -1.474489,0 -2.639849,-0.336354 -3.8,-0.694351 -1.160142,-0.357998 -2.320338,-0.746429 -3.672729,-0.746429 -1.3293863,0 -2.3981686,0.298541 -3.2727197,0.590201 -0.8745601,0.291656 -1.5518667,0.55548 -2.1454578,0.55548 -0.5374489,0 -1.0613423,-0.175424 -1.4909067,-0.364534 a 0.55370738,0.52864269 0 0 0 -0.2363645,-0.05208 l 0,2.274001 c 0.7362489,0.175897 1.6598312,0.312459 2.7454489,0.312459 1.4692001,0 2.2166757,-0.255988 2.7818223,-0.486047 0.5651465,-0.230059 0.9147915,-0.416611 2.0545515,-0.416611 1.094062,0 1.974133,0.339022 3.054542,0.71171 1.0804,0.37269 2.347529,0.763787 4.072729,0.763787 2.142302,0 3.536862,-0.64871 4.690906,-1.249833 1.154045,-0.601122 2.046916,-1.12832 3.509094,-1.12832 1.153155,0 1.688826,0.279395 2.4,0.607558 0.711155,0.328161 1.583715,0.694351 3.054542,0.694351 1.873058,0 2.694044,-0.663496 3.636364,-1.076245 l 0,-1.99626 a 0.55370738,0.52864269 0 0 0 -0.2,0.03471 c -1.096862,0.399037 -1.663644,0.902656 -3.254551,0.902656 -1.14624,0 -1.503973,-0.262186 -2.254542,-0.607556 -0.750578,-0.345371 -1.796951,-0.711711 -3.854542,-0.711711 z"
         id="path4354"
         style="color:#000000;display:inline;overflow:visible;visibility:visible;opacity:0.1;fill:#ffffff;fill-opacity:1;fill-rule:nonzero;stroke:none;stroke-width:10;marker:none;enable-background:accumulate" />
      <path
         d="m 26.43637,27.800912 c -3.98728,0 -4.691076,2.083053 -7.818187,2.083053 -3.127111,0 -4.992533,-1.440779 -7.472729,-1.440779 -2.4801863,0 -3.9327998,1.14568 -5.4181775,1.14568 -0.6504267,0 -1.2521156,-0.190072 -1.7272712,-0.399252 l 0,1.197757 c 0.7147556,0.18145 1.6416267,0.329816 2.7454489,0.329816 2.8144001,0 2.4128535,-0.902657 4.8363738,-0.902657 2.423502,0 3.850986,1.475497 7.127271,1.475497 4.058062,0 4.989306,-2.378153 8.2,-2.378153 2.507084,0 2.695315,1.301909 5.454542,1.301909 1.863982,0 2.483013,-0.683943 3.636364,-1.12832 l 0,-0.902658 c -1.000266,0.363897 -1.734737,0.937374 -3.454551,0.937374 -2.496746,0 -2.121813,-1.319267 -6.109084,-1.319267 z"
         id="path4356"
         style="color:#000000;display:inline;overflow:visible;visibility:visible;opacity:0.3;fill:#ffffff;fill-opacity:1;fill-rule:nonzero;stroke:none;stroke-width:10;marker:none;enable-background:accumulate" />
      <path
         d="m 26.43637,28.624852 c -3.98728,0 -4.691076,2.083054 -7.818187,2.083054 -3.127111,0 -4.992533,-1.440778 -7.472729,-1.440778 -2.4801863,0 -3.9327998,1.145679 -5.4181775,1.145679 -0.6504267,0 -1.2521156,-0.190072 -1.7272712,-0.399252 l 0,1.197756 c 0.7147556,0.181451 1.6416267,0.329817 2.7454489,0.329817 2.8144001,0 2.4128535,-0.902656 4.8363738,-0.902656 2.423502,0 3.850986,1.475496 7.127271,1.475496 4.058062,0 4.989306,-2.378153 8.2,-2.378153 2.507084,0 2.695315,1.301908 5.454542,1.301908 1.863982,0 2.483013,-0.683941 3.636364,-1.12832 l 0,-0.902657 c -1.000266,0.363897 -1.734737,0.937374 -3.454551,0.937374 -2.496746,0 -2.121813,-1.319268 -6.109084,-1.319268 z"
         id="path4358"
         style="color:#000000;display:inline;overflow:visible;visibility:visible;fill:#ffffff;fill-opacity:1;fill-rule:nonzero;stroke:none;stroke-width:10;marker:none;enable-background:accumulate" />
      <path
         d="m 9.8344597,33.523987 c -0.3253858,0.109385 0.054427,2.462083 -0.1515307,2.724911 -0.1988569,0.253773 -2.6455292,0.511051 -2.636839,0.827078 0.009,0.327301 2.4895457,0.707576 2.6893439,0.97449 0.1929164,0.25772 -0.3054916,2.546893 0.014053,2.636591 0.3309488,0.0929 1.4810738,-2.024245 1.8105088,-2.12211 0.318086,-0.09449 2.456227,1.057551 2.645028,0.796961 0.195537,-0.269889 -1.572116,-1.956521 -1.568314,-2.283919 0.0036,-0.31612 1.82296,-1.890229 1.620099,-2.14098 -0.2101,-0.259699 -2.452925,0.811105 -2.780009,0.706627 -0.315815,-0.100879 -1.328166,-2.225267 -1.642343,-2.119649 z"
         id="path4360"
         style="color:#000000;display:inline;overflow:visible;visibility:visible;opacity:0.15;fill:#000000;fill-opacity:1;fill-rule:nonzero;stroke:none;stroke-width:6.62903976;marker:none;enable-background:accumulate" />
      <path
         d="m 9.8329868,32.637742 c 0.3141782,-0.105618 1.3294402,2.020982 1.6452572,2.121862 0.327083,0.104478 2.567824,-0.968711 2.777922,-0.709013 0.202862,0.250752 -1.615987,1.82462 -1.619661,2.14074 -0.0038,0.327399 1.763786,2.016805 1.568248,2.286692 -0.188801,0.26059 -2.328175,-0.893305 -2.64626,-0.798812 -0.329435,0.09786 -1.477745,2.215165 -1.8086938,2.122267 -0.3195475,-0.0897 0.177096,-2.376713 -0.015822,-2.634433 -0.1997991,-0.266914 -2.6770824,-0.647757 -2.6860816,-0.97506 -0.00869,-0.316026 2.4376274,-0.575583 2.6364843,-0.829357 0.205952,-0.262827 -0.1767823,-2.6155 0.1486026,-2.724886 z"
         id="path4362"
         style="color:#000000;display:inline;overflow:visible;visibility:visible;fill:url(#linearGradient4372);fill-opacity:1;stroke:none;stroke-width:1.49402165;marker:none;enable-background:accumulate" />
      <path
         d="m 9.854281,32.633702 -0.092098,0.08824 c -6.578e-4,0.002 -0.00356,0.0027 -0.00356,0.004 -0.18488,0.445805 0.1112977,2.396676 -0.075378,2.634859 -0.008,0.01 -0.019111,0.02366 -0.033511,0.03362 l 0.075378,0.05043 c 1.5096885,0.450563 0.1882845,-2.717549 0.1506934,-2.80715 -0.00711,-0.0013 -0.014222,-0.0047 -0.020889,-0.004 z"
         id="path4364"
         style="opacity:0.5;fill:#9d0f06;fill-opacity:1;stroke:none" />
      <path
         d="m 7.5267876,36.138442 c -0.2969867,0.0027 -0.4688445,0.01681 -0.4688445,0.01681 l 0,0.004 0,0.06724 c 0.1741867,0.31902 2.4823379,0.684022 2.6749423,0.941322 0.1929156,0.257719 -0.3028,2.545159 0.016711,2.634853 0.3309425,0.0929 1.4789775,-2.024306 1.8084085,-2.122173 0.316098,-0.0939 2.429752,1.044138 2.641458,0.802647 l -0.0036,-0.004 C 12.413561,36.301963 8.8140765,36.127566 7.527152,36.138444 Z"
         id="path4366"
         style="opacity:0.75;fill:url(#linearGradient4374);fill-opacity:1;stroke:none" />
      <rect
         style="color:#000000;display:inline;overflow:visible;visibility:visible;opacity:0.3;fill:none;fill-opacity:1;fill-rule:nonzero;stroke:#000000;stroke-width:1.00000072;stroke-linecap:round;stroke-linejoin:miter;stroke-miterlimit:4;stroke-dasharray:none;stroke-dashoffset:0;stroke-opacity:1;marker:none;enable-background:accumulate"
         id="rect4229"
         y="18.499998"
         x="4.5000057"
         height="23"
         width="31" />
    </g>
    <g
       transform="translate(0.9999949,-2.5199353e-5)"
       id="g4259">
      <path
         id="path1007"
         d="m 30.5,16.5 0,7 7,0 -2.5,-2.5 8,-8 2.5,2.5 0,-7 -7,0 2.5,2.5 -8,8 z"
         style="opacity:1;fill:url(#linearGradient1298);fill-opacity:1;stroke:none;stroke-width:0.79069769;stroke-linecap:butt;stroke-linejoin:miter;stroke-miterlimit:4;stroke-dasharray:none;stroke-dashoffset:0;stroke-opacity:1;marker:none" />
      <path
         style="opacity:0.5;fill:none;fill-opacity:1;stroke:#555761;stroke-width:1;stroke-linecap:butt;stroke-linejoin:miter;stroke-miterlimit:4;stroke-dasharray:none;stroke-dashoffset:0;stroke-opacity:1;marker:none"
         d="m 30.5,16.5 0,7 7,0 -2.5,-2.5 8,-8 2.5,2.5 0,-7 -7,0 2.5,2.5 -8,8 z"
         id="path1189" />
    </g>
  </g>
</svg>
