<?xml version="1.0" encoding="UTF-8" standalone="no"?>
<svg
   xmlns:dc="http://purl.org/dc/elements/1.1/"
   xmlns:cc="http://creativecommons.org/ns#"
   xmlns:rdf="http://www.w3.org/1999/02/22-rdf-syntax-ns#"
   xmlns:svg="http://www.w3.org/2000/svg"
   xmlns="http://www.w3.org/2000/svg"
   xmlns:xlink="http://www.w3.org/1999/xlink"
   xmlns:sodipodi="http://sodipodi.sourceforge.net/DTD/sodipodi-0.dtd"
   xmlns:inkscape="http://www.inkscape.org/namespaces/inkscape"
   version="1.0"
   width="64"
   height="64"
   id="svg2453"
   inkscape:version="0.92.2 (unknown)"
   sodipodi:docname="resizer-64.svg"
   inkscape:export-filename="/home/peteruithoven/Projects/elementary/resizer icon/resizer-64.svg.png"
   inkscape:export-xdpi="96"
   inkscape:export-ydpi="96">
  <sodipodi:namedview
     pagecolor="#ffffff"
     bordercolor="#666666"
     borderopacity="1"
     objecttolerance="10"
     gridtolerance="10"
     guidetolerance="10"
     inkscape:pageopacity="0"
     inkscape:pageshadow="2"
     inkscape:window-width="2560"
     inkscape:window-height="2044"
     id="namedview40"
     showgrid="true"
     inkscape:zoom="20"
     inkscape:cx="35.1987"
     inkscape:cy="33.060761"
     inkscape:window-x="0"
     inkscape:window-y="60"
     inkscape:window-maximized="0"
     inkscape:current-layer="svg2453"
     inkscape:showpageshadow="false"
     showborder="true"
     borderlayer="true"
     showguides="true"
     inkscape:guide-bbox="true">
    <inkscape:grid
       type="xygrid"
       id="grid4176"
       empspacing="4"
       enabled="true" />
    <inkscape:grid
       type="xygrid"
       id="grid4178"
       spacingx="0.5"
       spacingy="0.5"
       color="#ff3fff"
       opacity="0.1254902"
       empcolor="#3fffff"
       empopacity="0.1372549"
       empspacing="2"
       enabled="true" />
    <sodipodi:guide
       position="-22,4"
       orientation="0,1"
       id="guide242"
       inkscape:locked="false"
       inkscape:label=""
       inkscape:color="rgb(0,0,255)" />
    <sodipodi:guide
       position="-29,32"
       orientation="0,1"
       id="guide244"
       inkscape:locked="false"
       inkscape:label=""
       inkscape:color="rgb(0,255,5)" />
    <sodipodi:guide
       position="-23,56"
       orientation="0,1"
       id="guide246"
       inkscape:locked="false"
       inkscape:label=""
       inkscape:color="rgb(255,0,14)" />
  </sodipodi:namedview>
  <metadata
     id="metadata35">
    <rdf:RDF>
      <cc:Work
         rdf:about="">
        <dc:format>image/svg+xml</dc:format>
        <dc:type
           rdf:resource="http://purl.org/dc/dcmitype/StillImage" />
        <dc:title />
      </cc:Work>
    </rdf:RDF>
  </metadata>
  <defs
     id="defs2455">
    <linearGradient
       id="linearGradient3462">
      <stop
         id="stop3464"
         style="stop-color:#ffffff;stop-opacity:1"
         offset="0" />
      <stop
         id="stop3466"
         style="stop-color:#ffffff;stop-opacity:0.23529412"
         offset="0.03457849" />
      <stop
         id="stop3468"
         style="stop-color:#ffffff;stop-opacity:0.15686275"
         offset="0.96375686" />
      <stop
         id="stop3470"
         style="stop-color:#ffffff;stop-opacity:0.39215687"
         offset="1" />
    </linearGradient>
    <linearGradient
       id="linearGradient5060-2">
      <stop
         id="stop5062-3"
         style="stop-color:#000000;stop-opacity:1"
         offset="0" />
      <stop
         id="stop5064-1"
         style="stop-color:#000000;stop-opacity:0"
         offset="1" />
    </linearGradient>
    <linearGradient
       id="linearGradient5048-8">
      <stop
         id="stop5050-4"
         style="stop-color:#000000;stop-opacity:0"
         offset="0" />
      <stop
         id="stop5056-5"
         style="stop-color:#000000;stop-opacity:1"
         offset="0.5" />
      <stop
         id="stop5052-1"
         style="stop-color:#000000;stop-opacity:0"
         offset="1" />
    </linearGradient>
    <radialGradient
       cx="605.71429"
       cy="486.64789"
       r="117.14286"
       fx="605.71429"
       fy="486.64789"
       id="radialGradient3172"
       xlink:href="#linearGradient5060-2"
       gradientUnits="userSpaceOnUse"
       gradientTransform="matrix(0.03212956,0,0,0.02058823,40.136784,48.451416)" />
    <radialGradient
       cx="605.71429"
       cy="486.64789"
       r="117.14286"
       fx="605.71429"
       fy="486.64789"
       id="radialGradient3175"
       xlink:href="#linearGradient5060-2"
       gradientUnits="userSpaceOnUse"
       gradientTransform="matrix(-0.03212956,0,0,0.02058823,23.863217,48.451416)" />
    <linearGradient
       x1="302.85715"
       y1="366.64789"
       x2="302.85715"
       y2="609.50507"
       id="linearGradient3178"
       xlink:href="#linearGradient5048-8"
       gradientUnits="userSpaceOnUse"
       gradientTransform="matrix(0.11390532,0,0,0.02058823,-9.1686406,48.451416)" />
    <linearGradient
       xlink:href="#linearGradient3462"
       id="linearGradient3133"
       gradientUnits="userSpaceOnUse"
       gradientTransform="matrix(1.5405405,0,0,1.2162162,-4.9729751,5.8820652)"
       x1="40.290417"
       y1="5.4143372"
       x2="40.290417"
       y2="42.437775" />
    <radialGradient
       xlink:href="#linearGradient2867-449-88-871-390-598-476-591-434-148-57-177-8-3-3-6-4-8-8-8-5"
       id="radialGradient3136"
       gradientUnits="userSpaceOnUse"
       gradientTransform="matrix(0,10.304933,-18.623921,0,218.8197,-83.936968)"
       cx="7.1183529"
       cy="10.031169"
       fx="7.1183529"
       fy="10.031169"
       r="12.671875" />
    <linearGradient
       id="linearGradient3680-6-6-6-3-7-1-8">
      <stop
         offset="0"
         style="stop-color:#dcdcdc;stop-opacity:1"
         id="stop3682-4-6-1-3-7-7-4" />
      <stop
         offset="1"
         style="stop-color:#ffffff;stop-opacity:1"
         id="stop3684-8-5-8-0-2-6-8" />
    </linearGradient>
    <linearGradient
       id="linearGradient2867-449-88-871-390-598-476-591-434-148-57-177-8-3-3-6-4-8-8-8-5">
      <stop
         offset="0"
         style="stop-color:#95a3ab;stop-opacity:1"
         id="stop3750-1-0-7-6-6-1-3-9-3" />
      <stop
         offset="0.26238"
         style="stop-color:#667885;stop-opacity:1"
         id="stop3752-3-7-4-0-32-8-923-0-7" />
      <stop
         offset="0.704952"
         style="stop-color:#485a6c;stop-opacity:1"
         id="stop3754-1-8-5-2-7-6-7-1-9" />
      <stop
         offset="1"
         style="stop-color:#273445;stop-opacity:1"
         id="stop3756-1-6-2-6-6-1-96-6-0" />
    </linearGradient>
    <linearGradient
       y2="-0.99998766"
       x2="59.485085"
       y1="35"
       x1="59.485085"
       gradientTransform="matrix(1.4249998,0,0,0.95454575,-49.705617,12.870897)"
       gradientUnits="userSpaceOnUse"
       id="linearGradient4565"
       xlink:href="#linearGradient3680-6-6-6-3-7-1-8" />
    <radialGradient
       cx="19.53446"
       cy="40.430397"
       r="23.929714"
       fx="19.53446"
       fy="40.430397"
       id="radialGradient4291"
       xlink:href="#linearGradient5060-2"
       gradientUnits="userSpaceOnUse"
       gradientTransform="matrix(1.3372494,0,0,0.0835781,3.877554,56.6209)" />
    <linearGradient
       x1="-76.834877"
       y1="6.6805849"
       x2="-76.844345"
       y2="52.887863"
       id="linearGradient4288"
       xlink:href="#linearGradient4623-7-4"
       gradientUnits="userSpaceOnUse"
       gradientTransform="matrix(1.3372048,7.4776901e-4,2.7406382e-4,0.95576794,160.23925,9.29103)" />
    <linearGradient
       id="linearGradient4623-7-4">
      <stop
         id="stop4625-3-2"
         style="stop-color:#000000;stop-opacity:0.27058825"
         offset="0" />
      <stop
         id="stop4627-1-5"
         style="stop-color:#000000;stop-opacity:0.368"
         offset="1" />
    </linearGradient>
    <linearGradient
       x1="25.132275"
       y1="0.98520643"
       x2="25.132275"
       y2="47.013336"
       id="linearGradient4285"
       xlink:href="#linearGradient3600-9-8"
       gradientUnits="userSpaceOnUse"
       gradientTransform="matrix(1.5428538,0,0,0.93431845,-7.02849,13.643)" />
    <linearGradient
       id="linearGradient3600-9-8">
      <stop
         id="stop3602-0-0"
         style="stop-color:#f4f4f4;stop-opacity:1"
         offset="0" />
      <stop
         id="stop3604-9-1"
         style="stop-color:#dbdbdb;stop-opacity:1"
         offset="1" />
    </linearGradient>
    <linearGradient
       x1="41.19519"
       y1="5.5395665"
       x2="41.19519"
       y2="42.37582"
       id="linearGradient4277"
       xlink:href="#linearGradient3977-7-7"
       gradientUnits="userSpaceOnUse"
       gradientTransform="matrix(1.4324324,0,0,1.135135,-4.37837,10.25677)" />
    <linearGradient
       id="linearGradient3977-7-7">
      <stop
         id="stop3979-6-5"
         style="stop-color:#ffffff;stop-opacity:1"
         offset="0" />
      <stop
         id="stop3981-3-2"
         style="stop-color:#ffffff;stop-opacity:0.23529412"
         offset="0.00515018" />
      <stop
         id="stop3983-8-2"
         style="stop-color:#ffffff;stop-opacity:0.15686275"
         offset="0.99146652" />
      <stop
         id="stop3985-2-1"
         style="stop-color:#ffffff;stop-opacity:0.39215687"
         offset="1" />
    </linearGradient>
    <linearGradient
       x1="-96.557358"
       y1="110.92493"
       x2="-96.557358"
       y2="39.991924"
       id="linearGradient4442"
       xlink:href="#linearGradient3825-5-8"
       gradientUnits="userSpaceOnUse"
       gradientTransform="matrix(0.31576418,0,0,0.31578948,71.086892,25.926303)" />
    <linearGradient
       id="linearGradient3825-5-8">
      <stop
         id="stop3827-2-3"
         style="stop-color:#e89c42;stop-opacity:1"
         offset="0" />
      <stop
         id="stop3829-5-0"
         style="stop-color:#faca67;stop-opacity:1"
         offset="1" />
    </linearGradient>
    <linearGradient
       x1="-107.45584"
       y1="-86.626892"
       x2="-107.45584"
       y2="38.561256"
       id="linearGradient4444"
       xlink:href="#linearGradient3871-6-7"
       gradientUnits="userSpaceOnUse"
       gradientTransform="matrix(0.31576418,0,0,0.31578948,71.086892,25.926304)" />
    <linearGradient
       id="linearGradient3871-6-7">
      <stop
         id="stop3873-3-2"
         style="stop-color:#0b85e9;stop-opacity:1"
         offset="0" />
      <stop
         id="stop3875-4-0"
         style="stop-color:#69d1ef;stop-opacity:1"
         offset="1" />
    </linearGradient>
    <linearGradient
       x1="-211.28862"
       y1="88.750069"
       x2="-208.49672"
       y2="75.190559"
       id="linearGradient4478"
       xlink:href="#linearGradient4470"
       gradientUnits="userSpaceOnUse"
       gradientTransform="matrix(0.2049302,0.01589093,-0.01689942,0.19364622,60.976812,34.06045)" />
    <linearGradient
       id="linearGradient4470">
      <stop
         id="stop4472"
         style="stop-color:#ec4502;stop-opacity:1"
         offset="0" />
      <stop
         id="stop4474"
         style="stop-color:#fe7617;stop-opacity:1"
         offset="1" />
    </linearGradient>
    <linearGradient
       x1="-184.92441"
       y1="113.97943"
       x2="-175.25337"
       y2="88.801025"
       id="linearGradient4580"
       xlink:href="#linearGradient4574"
       gradientUnits="userSpaceOnUse"
       gradientTransform="matrix(0.20237007,0,0,0.20237007,51.927782,29.75225)" />
    <linearGradient
       id="linearGradient4574">
      <stop
         id="stop4576"
         style="stop-color:#7a0f01;stop-opacity:1"
         offset="0" />
      <stop
         id="stop4578"
         style="stop-color:#d31807;stop-opacity:1"
         offset="1" />
    </linearGradient>
    <linearGradient
       x1="61.998196"
       y1="138.73186"
       x2="67.634743"
       y2="121.53167"
       id="linearGradient6374"
       xlink:href="#linearGradient6272-5-0"
       gradientUnits="userSpaceOnUse"
       gradientTransform="matrix(0.50000049,0,0,0.50000049,-3.00008,-33.000046)"
       spreadMethod="reflect" />
    <linearGradient
       id="linearGradient6272-5-0">
      <stop
         id="stop6274-4-0"
         style="stop-color:#ffffff;stop-opacity:1"
         offset="0" />
      <stop
         id="stop6276-8-0"
         style="stop-color:#ffffff;stop-opacity:0.54320985"
         offset="1" />
    </linearGradient>
    <linearGradient
       id="linearGradient4316-5">
      <stop
         id="stop4318-1"
         style="stop-color:#ffffff;stop-opacity:1"
         offset="0" />
      <stop
         id="stop4320-9"
         style="stop-color:#ffffff;stop-opacity:0.23529412"
         offset="0.33799788" />
      <stop
         id="stop4322-42"
         style="stop-color:#ffffff;stop-opacity:0.15686275"
         offset="0.61996669" />
      <stop
         id="stop4324-9"
         style="stop-color:#ffffff;stop-opacity:0.39215687"
         offset="1" />
    </linearGradient>
    <linearGradient
       id="linearGradient4220-7">
      <stop
         offset="0"
         style="stop-color:#34405c;stop-opacity:1"
         id="stop4224-0" />
      <stop
         offset="1"
         style="stop-color:#7a8498;stop-opacity:1"
         id="stop4222-7" />
    </linearGradient>
    <linearGradient
       inkscape:collect="always"
       xlink:href="#linearGradient4316-5"
       id="linearGradient1338-6"
       gradientUnits="userSpaceOnUse"
       gradientTransform="matrix(0.53073626,0,0,0.53073626,-7.7829509,-5.8451529)"
       x1="92.696327"
       y1="16.554602"
       x2="92.696327"
       y2="48.983677" />
    <linearGradient
       inkscape:collect="always"
       xlink:href="#linearGradient4220-7"
       id="linearGradient159"
       gradientUnits="userSpaceOnUse"
       gradientTransform="matrix(-0.561064,0,0,-0.56106405,69.318758,38.62188)"
       x1="34.432362"
       y1="12.693524"
       x2="34.432362"
       y2="46.5728" />
  </defs>
  <path
     inkscape:connector-curvature="0"
     style="color:#000000;display:inline;overflow:visible;visibility:visible;opacity:0.2;fill:url(#radialGradient4291);fill-opacity:1;fill-rule:nonzero;stroke:none;stroke-width:0.99992174;marker:none;enable-background:accumulate"
     id="path5050-1"
     d="M 61.999998,60 A 31.999999,2.0000002 0 0 1 -2,60 31.999999,2.0000002 0 1 1 61.999998,60 Z" />
  <path
     inkscape:connector-curvature="0"
     style="color:#000000;display:inline;overflow:visible;visibility:visible;fill:none;stroke:url(#linearGradient4288);stroke-width:0.99992192;stroke-linecap:butt;stroke-linejoin:round;stroke-miterlimit:4;stroke-dasharray:none;stroke-dashoffset:0;stroke-opacity:1;marker:none;enable-background:accumulate"
     id="rect6741-1-2-0-9"
     d="M 57.500042,59.50004 H 2.49996 V 15.49996 h 55.000082 z" />
  <path
     inkscape:connector-curvature="0"
     style="display:inline;fill:url(#linearGradient4285);fill-opacity:1;stroke:none"
     id="path4160-9-48"
     d="m 3,16 c 12.37414,0 53.999942,0.003 53.999942,0.003 l 6e-5,42.997 C 57.000002,59 21,59 3,59 3,44.66668 3,30.33336 3,16.00004 Z" />
  <path
     inkscape:connector-curvature="0"
     style="fill:none;stroke:url(#linearGradient4277);stroke-width:1;stroke-linecap:round;stroke-linejoin:miter;stroke-miterlimit:4;stroke-dasharray:none;stroke-dashoffset:0;stroke-opacity:1"
     id="rect6741-1-2-3"
     d="M 56.500002,58.5 H 3.5 v -42 h 53.000002 z" />
  <path
     inkscape:connector-curvature="0"
     style="color:#000000;display:inline;overflow:visible;visibility:visible;fill:url(#linearGradient4442);fill-opacity:1;fill-rule:nonzero;stroke:none;stroke-width:10;marker:none;enable-background:accumulate"
     id="rect3055-2-9"
     d="M 6,19 V 56 H 54.000002 V 19 Z" />
  <path
     inkscape:connector-curvature="0"
     style="color:#000000;display:inline;overflow:visible;visibility:visible;opacity:0.02999998;fill:#000000;fill-opacity:1;fill-rule:nonzero;stroke:none;stroke-width:10;marker:none;enable-background:accumulate"
     id="path4084-9"
     d="m 6,20.118182 v 21.472727 c 1.1091,0.275618 2.48963,0.490909 4.11818,0.490909 2.21562,0 3.37749,-0.401307 4.22727,-0.763636 0.84979,-0.362329 1.33138,-0.654546 3.02728,-0.654546 1.61864,0 2.93183,0.531881 4.55454,1.118182 1.62272,0.586302 3.53196,1.2 6.13637,1.2 3.23507,0 5.33014,-1.017883 7.06363,-1.963636 1.733482,-0.945753 3.070422,-1.772727 5.236372,-1.772727 1.71059,0 2.47759,0.411154 3.54545,0.927272 1.06785,0.516118 2.41273,1.118182 4.63636,1.118182 2.79767,0 4.07507,-1.019534 5.45455,-1.663636 V 20.118182 Z" />
  <path
     inkscape:connector-curvature="0"
     style="color:#000000;display:inline;overflow:visible;visibility:visible;opacity:0.1;fill:#000000;fill-opacity:1;fill-rule:nonzero;stroke:none;stroke-width:10;marker:none;enable-background:accumulate"
     id="rect3055-2-6-9-0"
     d="m 6,20.118182 v 20.5184 c 1.07213,0.285081 2.46244,0.518182 4.11818,0.518182 4.2216,0 3.61928,-1.418182 7.25455,-1.418182 3.63526,0 5.77649,2.318182 10.69091,2.318182 6.08709,0 7.48396,-3.736364 12.300002,-3.736364 3.76063,0 4.04297,2.045455 8.18181,2.045455 2.79598,0 3.72452,-1.074556 5.45455,-1.772728 V 20.118182 Z" />
  <path
     inkscape:connector-curvature="0"
     style="fill:url(#linearGradient4444);fill-opacity:1;stroke:none"
     id="path3867-3-5"
     d="m 6,19 v 18.881818 c 0.71273,0.328647 1.61527,0.627273 2.59091,0.627273 2.22807,0 4.40698,-1.8 8.12727,-1.8 3.72029,0 6.51842,2.263636 11.20909,2.263636 4.69067,0 5.74636,-3.272727 11.727282,-3.272727 5.9809,0 5.4185,2.072727 9.16363,2.072727 2.57972,0 3.68142,-0.901002 5.18182,-1.472727 V 19 Z" />
  <path
     inkscape:connector-curvature="0"
     style="color:#000000;display:inline;overflow:visible;visibility:visible;opacity:0.1;fill:#ffffff;fill-opacity:1;fill-rule:nonzero;stroke:none;stroke-width:10;marker:none;enable-background:accumulate"
     id="path4213-1"
     d="m 39.654552,34.009091 c -3.14194,0 -5.118322,0.889668 -6.736372,1.718182 -1.61805,0.828514 -2.83872,1.554545 -4.99091,1.554545 -2.21174,0 -3.95978,-0.528452 -5.7,-1.090909 -1.74022,-0.562457 -3.48051,-1.172727 -5.50909,-1.172727 -1.99408,0 -3.59726,0.469043 -4.90909,0.927273 -1.31183,0.458229 -2.32779,0.872727 -3.21818,0.872727 -0.80618,0 -1.59201,-0.275611 -2.23636,-0.572727 A 0.83056107,0.83056107 0 0 0 6,36.163635 v 3.572728 c 1.10438,0.276354 2.48975,0.490909 4.11818,0.490909 2.2038,0 3.32501,-0.402186 4.17273,-0.763637 0.84772,-0.36145 1.37218,-0.654545 3.08182,-0.654545 1.6411,0 2.9612,0.532643 4.58182,1.118182 1.6206,0.585539 3.52129,1.2 6.10909,1.2 3.21346,0 5.30529,-1.0192 7.03636,-1.963637 1.731072,-0.944436 3.070382,-1.772727 5.263642,-1.772727 1.72974,0 2.53324,0.438964 3.6,0.954546 1.06674,0.515582 2.37558,1.090909 4.58181,1.090909 2.80959,0 4.04107,-1.042431 5.45455,-1.690909 V 34.60909 a 0.83056107,0.83056107 0 0 0 -0.3,0.05454 c -1.64529,0.626935 -2.49547,1.418182 -4.88182,1.418182 -1.71936,0 -2.25596,-0.411926 -3.38182,-0.954545 -1.12586,-0.542619 -2.69543,-1.118182 -5.78181,-1.118182 z" />
  <path
     inkscape:connector-curvature="0"
     style="color:#000000;display:inline;overflow:visible;visibility:visible;opacity:0.3;fill:#ffffff;fill-opacity:1;fill-rule:nonzero;stroke:none;stroke-width:10;marker:none;enable-background:accumulate"
     id="rect3055-2-6-94-0"
     d="m 39.654552,34.827491 c -5.980922,0 -7.036612,3.272727 -11.727282,3.272727 -4.69067,0 -7.4888,-2.263636 -11.20909,-2.263636 -3.72029,0 -5.8992,1.8 -8.12727,1.8 -0.97564,0 -1.87818,-0.298626 -2.59091,-0.627273 v 1.881818 c 1.07213,0.285081 2.46244,0.518182 4.11818,0.518182 4.2216,0 3.61928,-1.418182 7.25455,-1.418182 3.63526,0 5.77649,2.318182 10.69091,2.318182 6.08709,0 7.48396,-3.736364 12.300002,-3.736364 3.76063,0 4.04297,2.045455 8.18181,2.045455 2.79598,0 3.72452,-1.074555 5.45455,-1.772727 v -1.418182 c -1.5004,0.571725 -2.6021,1.472727 -5.18182,1.472727 -3.74513,0 -3.18273,-2.072727 -9.16363,-2.072727 z" />
  <path
     inkscape:connector-curvature="0"
     style="color:#000000;display:inline;overflow:visible;visibility:visible;fill:#ffffff;fill-opacity:1;fill-rule:nonzero;stroke:none;stroke-width:10;marker:none;enable-background:accumulate"
     id="rect3055-2-6-8"
     d="m 39.654552,35.7 c -5.980922,0 -7.036612,3.272727 -11.727282,3.272727 -4.69067,0 -7.4888,-2.263636 -11.20909,-2.263636 -3.72029,0 -5.8992,1.8 -8.12727,1.8 -0.97564,0 -1.87818,-0.298626 -2.59091,-0.627273 v 1.881818 c 1.07213,0.285081 2.46244,0.518182 4.11818,0.518182 4.2216,0 3.61928,-1.418182 7.25455,-1.418182 3.63526,0 5.77649,2.318182 10.69091,2.318182 6.08709,0 7.48396,-3.736363 12.300002,-3.736363 3.76063,0 4.04297,2.045454 8.18181,2.045454 2.79598,0 3.72452,-1.074555 5.45455,-1.772727 V 36.3 c -1.5004,0.571725 -2.6021,1.472727 -5.18182,1.472727 -3.74513,0 -3.18273,-2.072727 -9.16363,-2.072727 z" />
  <path
     inkscape:connector-curvature="0"
     style="color:#000000;display:inline;overflow:visible;visibility:visible;opacity:0.3;fill:none;stroke:#000000;stroke-width:0.99999994;stroke-linecap:butt;stroke-linejoin:miter;stroke-miterlimit:4;stroke-dasharray:none;stroke-dashoffset:0;stroke-opacity:1;marker:none;enable-background:accumulate"
     id="path4160-62-91"
     d="m 6.5,19.5 c 10.77009,0 46.999952,0.0023 46.999952,0.0023 l 5e-5,35.9977 c 0,0 -31.333332,0 -47.000002,0 0,-11.999999 0,-23.999993 0,-35.999986 z" />
  <path
     inkscape:connector-curvature="0"
     style="color:#000000;display:inline;overflow:visible;visibility:visible;opacity:0.05;fill:#000000;fill-opacity:1;fill-rule:nonzero;stroke:none;stroke-width:8.86881733;marker:none;enable-background:accumulate"
     id="path5640-1"
     d="m 14.774208,41.971166 c -0.147198,-0.01108 -0.316743,0.0046 -0.482351,0.06007 -0.647479,0.216826 -0.733471,0.649589 -0.799112,0.882356 -0.06564,0.232766 -0.08334,0.43377 -0.09546,0.650576 -0.02425,0.433612 -0.0024,0.91828 0.01943,1.402757 0.02187,0.484478 0.05084,0.962519 0.05296,1.313972 2.66e-4,0.04329 -0.0015,0.05836 -0.0021,0.09732 -0.03044,0.0081 -0.03946,0.01044 -0.07256,0.01874 -0.347868,0.08723 -0.833887,0.183969 -1.321016,0.287478 -0.48713,0.103509 -0.971566,0.209702 -1.396743,0.342529 -0.212589,0.06641 -0.406631,0.13033 -0.628387,0.255893 -0.110878,0.06278 -0.236506,0.142942 -0.37381,0.293911 -0.137303,0.150969 -0.300914,0.424891 -0.29174,0.757204 0.01794,0.64979 0.434408,0.857973 0.648735,0.988534 0.214328,0.130561 0.411445,0.208646 0.626215,0.286162 0.429538,0.155032 0.919354,0.28505 1.41451,0.414305 0.495156,0.129256 0.986974,0.253785 1.341886,0.359935 0.04222,0.01263 0.05602,0.01958 0.09395,0.03165 -0.0012,0.02809 0.0024,0.03685 5.85e-4,0.06706 -0.01976,0.339948 -0.07139,0.806176 -0.117825,1.276359 -0.04642,0.470184 -0.08905,0.940698 -0.0868,1.364058 0.0011,0.211682 0.0085,0.406823 0.06623,0.644837 0.02888,0.119007 0.06655,0.251864 0.175951,0.421834 0.109402,0.16997 0.334687,0.402473 0.6723,0.496877 0.658863,0.184232 0.999392,-0.120675 1.197227,-0.272707 0.197834,-0.152031 0.334699,-0.299672 0.479309,-0.468501 0.289219,-0.33766 0.577199,-0.741162 0.860774,-1.14564 0.283574,-0.404478 0.555936,-0.811856 0.772767,-1.097632 0.02641,-0.03481 0.04008,-0.04326 0.0645,-0.0742 0.02881,0.01003 0.03793,0.01236 0.06886,0.02361 0.335632,0.122136 0.787584,0.31266 1.245959,0.498714 0.458375,0.186054 0.916539,0.366058 1.343076,0.49406 0.213268,0.064 0.413526,0.122218 0.67091,0.14341 0.128694,0.01056 0.275031,0.01626 0.47971,-0.02982 0.204679,-0.04607 0.504333,-0.177347 0.703452,-0.451121 0.389001,-0.534849 0.18702,-0.937665 0.095,-1.162373 -0.09203,-0.224709 -0.198592,-0.391651 -0.323907,-0.573432 -0.250629,-0.363563 -0.568934,-0.744036 -0.88846,-1.122879 -0.319526,-0.378842 -0.643281,-0.753295 -0.863833,-1.035675 -0.02448,-0.03134 -0.03005,-0.04213 -0.05183,-0.07104 0.01949,-0.02337 0.02221,-0.03254 0.0437,-0.05754 0.227136,-0.264047 0.554827,-0.618586 0.884411,-0.97322 0.329584,-0.354633 0.655701,-0.706058 0.916892,-1.049902 0.130597,-0.171921 0.250529,-0.332873 0.35169,-0.557599 0.05058,-0.112362 0.09882,-0.243612 0.115929,-0.441847 0.01711,-0.198236 -0.02135,-0.510025 -0.235506,-0.773719 -0.418238,-0.514982 -0.87984,-0.460458 -1.134383,-0.447415 -0.254543,0.01304 -0.458786,0.06159 -0.68081,0.117795 -0.444046,0.112399 -0.931553,0.281368 -1.412652,0.450959 -0.481099,0.16959 -0.956393,0.342163 -1.30966,0.452852 -0.04085,0.0128 -0.05503,0.01232 -0.0923,0.02331 -0.01614,-0.02288 -0.02364,-0.02708 -0.0406,-0.05189 -0.195031,-0.285162 -0.442994,-0.690739 -0.697394,-1.095878 -0.254399,-0.405139 -0.511522,-0.810166 -0.776422,-1.150745 -0.132451,-0.17029 -0.25911,-0.325767 -0.454033,-0.486044 -0.09746,-0.08014 -0.209862,-0.168067 -0.404185,-0.244576 -0.09716,-0.03825 -0.225891,-0.07267 -0.373087,-0.08376 z" />
  <path
     inkscape:connector-curvature="0"
     style="color:#000000;display:inline;overflow:visible;visibility:visible;opacity:0.15;fill:#000000;fill-opacity:1;fill-rule:nonzero;stroke:none;stroke-width:8.86881733;marker:none;enable-background:accumulate"
     id="path5640"
     d="m 14.64277,42.960126 c -0.491565,0.164615 0.08222,3.705181 -0.228919,4.100709 -0.300416,0.381902 -3.996641,0.769079 -3.983513,1.244666 0.0136,0.492556 3.760994,1.064829 4.062833,1.466508 0.291441,0.387841 -0.461511,3.83281 0.02123,3.967796 0.499969,0.139802 2.237481,-3.046279 2.735162,-3.193556 0.480537,-0.142203 3.710659,1.591505 3.995884,1.199343 0.2954,-0.406153 -2.37502,-2.944359 -2.369275,-3.43706 0.0055,-0.475728 2.753973,-2.844599 2.447507,-3.221954 -0.3174,-0.390819 -3.70567,1.220629 -4.1998,1.0634 -0.477107,-0.151812 -2.006481,-3.348795 -2.481113,-3.189852 z" />
  <path
     inkscape:connector-curvature="0"
     style="color:#000000;display:inline;overflow:visible;visibility:visible;fill:url(#linearGradient4478);fill-opacity:1;stroke:none;stroke-width:1.99881232;marker:none;enable-background:accumulate"
     id="path4468"
     d="m 14.640545,42.071289 c 0.474633,-0.158943 2.008405,3.04137 2.485514,3.193182 0.49413,0.157229 3.87925,-1.457809 4.196649,-1.06699 0.306466,0.377355 -2.441296,2.745863 -2.446846,3.221591 -0.0057,0.492701 2.664578,3.035082 2.369176,3.441234 -0.285225,0.392162 -3.517209,-1.344331 -3.997746,-1.202128 -0.497681,0.147277 -2.232451,3.333593 -2.73242,3.193791 -0.482745,-0.134986 0.267542,-3.576707 -0.0239,-3.964548 -0.301839,-0.401678 -4.044308,-0.974808 -4.057903,-1.467364 -0.01313,-0.475588 3.68256,-0.866194 3.982976,-1.248096 0.311135,-0.395528 -0.267068,-3.936057 0.224496,-4.100672 z" />
  <path
     inkscape:connector-curvature="0"
     style="opacity:0.5;fill:#9d0f06;fill-opacity:1;stroke:none"
     id="path4480"
     d="m 14.67271,42.06521 -0.13913,0.1328 c -0.001,0.003 -0.005,0.004 -0.006,0.006 -0.27931,0.67089 0.16814,3.60675 -0.11383,3.96519 -0.0118,0.015 -0.0288,0.0356 -0.0506,0.0506 l 0.11384,0.0759 c 2.28071,0.67805 0.28445,-4.08963 0.22766,-4.22447 -0.0109,-0.002 -0.0215,-0.007 -0.0316,-0.006 z" />
  <path
     inkscape:connector-curvature="0"
     style="opacity:0.75;fill:url(#linearGradient4580);fill-opacity:1;stroke:none"
     id="path4517"
     d="m 11.15653,47.33948 c -0.44866,0.004 -0.70829,0.0253 -0.70829,0.0253 v 0.006 0.10119 c 0.26315,0.48009 3.75011,1.02938 4.04107,1.41659 0.29144,0.38784 -0.45744,3.8302 0.0253,3.96518 0.49997,0.13981 2.23432,-3.04637 2.732,-3.19365 0.47753,-0.14131 3.67066,1.57132 3.99049,1.2079 l -0.006,-0.006 C 18.53848,47.58556 13.10068,47.32311 11.1565,47.33948 Z" />
  <path
     inkscape:connector-curvature="0"
     style="opacity:0.07000002;fill:url(#linearGradient6374);fill-opacity:1;stroke:none"
     id="path6314-4"
     d="m 21.29682,19 -0.76563,0.26563 a 0.42953949,0.42953949 0 0 0 -0.0312,0.0156 l -8.48438,3.51563 -5.96876,-0.71875 a 0.42953949,0.42953949 0 0 0 -0.0469,0 v 2.3125 a 0.42953949,0.42953949 0 0 0 0.21875,-0.0625 c 0.0122,-0.007 0.48573,-0.12338 1.04688,-0.14063 0.56114,-0.0172 1.25536,0.0117 1.92187,0.0469 1.20309,0.0635 2.1048,0.1507 2.3125,0.17188 l 0.98438,2.10938 -1.92188,0.92187 a 0.42953949,0.42953949 0 0 0 -0.21875,0.23438 l -0.79687,2.04687 h -0.75 a 0.42953949,0.42953949 0 0 0 -0.39063,0.25 L 8.0937,30.68751 6.0312,30.53126 a 0.42953949,0.42953949 0 0 0 -0.0312,0 v 1.87501 l 4.73438,0.1875 A 0.42953949,0.42953949 0 0 0 11,32.51567 l 0.87501,-0.625 9.4375,-0.34375 a 0.42953949,0.42953949 0 0 0 0.0312,0 l 2.65626,-0.32813 2.48437,0.73438 a 0.42953949,0.42953949 0 0 0 0.46875,-0.14063 l 0.15625,-0.1875 c 0.0305,-0.0107 0.0536,-0.0358 0.15625,-0.0625 0.14173,-0.0369 0.33122,-0.0672 0.54688,-0.10938 0.4313,-0.0843 0.97533,-0.18594 1.5,-0.26562 1.02559,-0.15575 1.94099,-0.27577 1.98438,-0.28125 0.006,0 0.0401,-1.4e-4 0.0469,0 0.32247,0.007 1.3051,0.1728 2.17187,0.34375 0.74383,0.14669 1.21102,0.25375 1.40626,0.29688 0.15798,0.55101 0.34024,1.51461 0.48437,2.5 0.15681,1.07194 0.27697,2.08313 0.3125,2.39062 a 0.42953949,0.42953949 0 0 0 0.0156,0.0781 c 0.808132,-0.26692 1.727242,-0.46499 2.828142,-0.54688 a 0.42953949,0.42953949 0 0 0 -0.0937,-0.23437 c -0.45638,-0.51733 -1.1169,-1.77762 -1.03125,-4.54688 l 1.625,-0.0625 a 0.42953949,0.42953949 0 0 0 0.17188,-0.0312 c 0,0 1.35832,-0.66752 2.875,-1.39063 1.51667,-0.72311 3.21731,-1.50898 3.79688,-1.73437 0.19849,-0.0772 0.79906,-0.1686 1.51562,-0.21875 0.71656,-0.0502 1.56809,-0.0791 2.42187,-0.10938 0.85378,-0.0302 1.70377,-0.0637 2.40625,-0.125 0.70249,-0.0612 1.21221,-0.10535 1.625,-0.35937 a 0.42953949,0.42953949 0 0 0 0.125,-0.10938 v -1.5625 c -0.0164,-0.0132 -0.0469,-0.0312 -0.0469,-0.0312 a 0.42953949,0.42953949 0 0 0 -0.64062,0.21875 c -0.024,0.0134 0.0103,-0.001 -0.0937,0.0312 -0.19259,0.0608 -0.53422,0.12829 -1.0625,0.20312 -1.05656,0.14967 -2.89163,0.31226 -6.00001,0.39063 a 0.42953949,0.42953949 0 0 0 -0.15627,0.0312 c 0,0 -1.77485,0.7878 -3.57813,1.60938 -0.90165,0.41078 -1.80993,0.82038 -2.51563,1.15625 -0.35285,0.16793 -0.64825,0.32132 -0.875,0.4375 -0.11337,0.0581 -0.20438,0.11228 -0.28125,0.15625 -0.0161,0.009 -0.0333,0.0243 -0.0468,0.0312 l -1.01563,0.0469 1.07813,-1.45313 4.46875,-2.40625 a 0.42953949,0.42953949 0 0 0 0.14063,-0.625 l -2.90625,-3.92188 6.57813,-0.4375 a 0.42953949,0.42953949 0 0 0 0.14062,-0.0312 l 3.29688,-1.5 a 0.42953949,0.42953949 0 0 0 0.0937,-0.0625 0.42953949,0.42953949 0 0 0 0.0156,0 0.42953949,0.42953949 0 0 0 0.21875,0.0937 l 2.59375,0.17187 a 0.42953949,0.42953949 0 0 0 0.45313,-0.5 l -0.0156,-0.0937 h -6.79688 l -0.70313,0.25 -5.45313,0.25 -0.59375,-0.5 h -3.03125 a 0.42953949,0.42953949 0 0 0 0.0312,0.17187 c 0.0402,0.095 0.0585,0.16404 0.0781,0.23438 -0.37825,0.13315 -2.082992,0.74083 -3.390622,0.75 l -1.29688,-0.21875 a 0.42953949,0.42953949 0 0 0 -0.0625,0 c -0.44682,0 -1.63902,-0.24085 -2.8125,-0.53125 -0.54375,-0.13457 -1.08198,-0.27176 -1.57813,-0.40625 h -6.93751 z m 3.04688,0.59375 0.65625,0.375 a 0.42953949,0.42953949 0 0 0 0.125,0.0469 l 8.87501,1.95316 a 0.42953949,0.42953949 0 0 0 0.21875,-0.0156 l 3.312502,-1.04688 0.98437,0.59375 2.81251,3.73438 -3.65626,1.79688 a 0.42953949,0.42953949 0 0 0 -0.14062,0.10937 l -2.109382,2.5 -3.8125,-0.26562 a 0.42953949,0.42953949 0 0 0 -0.125,0 l -5.00001,1.03125 -2.26562,-0.73438 a 0.42953949,0.42953949 0 0 0 -0.14063,-0.0156 l -12.45314,0.45308 c 0.26747,-0.65459 0.67079,-1.06132 1.125,-1.23438 0.58111,-0.2214 1.125,-0.1875 1.125,-0.1875 a 0.42953949,0.42953949 0 0 0 0.45313,-0.51562 L 13.48431,24.10943 24.3437,19.5938 Z" />
  <path
     style="opacity:1;vector-effect:none;fill:url(#linearGradient159);fill-opacity:1;stroke:none;stroke-width:0.79069769;stroke-linecap:butt;stroke-linejoin:miter;stroke-miterlimit:4;stroke-dasharray:none;stroke-dashoffset:0;stroke-opacity:1;marker:none"
     d="m 41.5,21.5 v 10 h 10 L 48,28 l 9,-9 3.5,3.5 v -10 h -10 L 54,16 45,25 Z"
     id="path157"
     inkscape:connector-curvature="0"
     sodipodi:nodetypes="ccccccccccc" />
  <path
     sodipodi:nodetypes="ccccccccccc"
     inkscape:connector-curvature="0"
     id="path163"
     d="m 41.5,21.5 v 10 h 10 L 48,28 l 9,-9 3.5,3.5 v -10 h -10 L 54,16 45,25 Z"
     style="opacity:0.3;vector-effect:none;fill:none;fill-opacity:1;stroke:#000000;stroke-width:1;stroke-linecap:butt;stroke-linejoin:miter;stroke-miterlimit:4;stroke-dasharray:none;stroke-dashoffset:0;stroke-opacity:1;marker:none;font-variant-east_asian:normal" />
</svg>
