<?xml version="1.0" encoding="UTF-8" standalone="no"?>
<svg
   xmlns:dc="http://purl.org/dc/elements/1.1/"
   xmlns:cc="http://creativecommons.org/ns#"
   xmlns:rdf="http://www.w3.org/1999/02/22-rdf-syntax-ns#"
   xmlns:svg="http://www.w3.org/2000/svg"
   xmlns="http://www.w3.org/2000/svg"
   xmlns:xlink="http://www.w3.org/1999/xlink"
   version="1.0"
   width="64"
   height="64"
   id="svg2453">
  <metadata
     id="metadata35">
    <rdf:RDF>
      <cc:Work
         rdf:about="">
        <dc:format>image/svg+xml</dc:format>
        <dc:type
           rdf:resource="http://purl.org/dc/dcmitype/StillImage" />
        <dc:title />
      </cc:Work>
    </rdf:RDF>
  </metadata>
  <defs
     id="defs2455">
    <linearGradient
       id="linearGradient3104-6">
      <stop
         id="stop3106-3"
         style="stop-color:#000000;stop-opacity:0.31782946"
         offset="0" />
      <stop
         id="stop3108-9"
         style="stop-color:#000000;stop-opacity:0.24031007"
         offset="1" />
    </linearGradient>
    <linearGradient
       id="linearGradient3977-4">
      <stop
         id="stop3979-7"
         style="stop-color:#ffffff;stop-opacity:1"
         offset="0" />
      <stop
         id="stop3981-6"
         style="stop-color:#ffffff;stop-opacity:0.23529412"
         offset="0.01214366" />
      <stop
         id="stop3983-5"
         style="stop-color:#ffffff;stop-opacity:0.15686275"
         offset="0.98781353" />
      <stop
         id="stop3985-6"
         style="stop-color:#ffffff;stop-opacity:0.39215687"
         offset="1" />
    </linearGradient>
    <linearGradient
       id="linearGradient3600-9">
      <stop
         id="stop3602-3"
         style="stop-color:#f4f4f4;stop-opacity:1"
         offset="0" />
      <stop
         id="stop3604-7"
         style="stop-color:#dbdbdb;stop-opacity:1"
         offset="1" />
    </linearGradient>
    <linearGradient
       id="linearGradient5060-2">
      <stop
         id="stop5062-3"
         style="stop-color:#000000;stop-opacity:1"
         offset="0" />
      <stop
         id="stop5064-1"
         style="stop-color:#000000;stop-opacity:0"
         offset="1" />
    </linearGradient>
    <linearGradient
       id="linearGradient5048-8">
      <stop
         id="stop5050-4"
         style="stop-color:#000000;stop-opacity:0"
         offset="0" />
      <stop
         id="stop5056-5"
         style="stop-color:#000000;stop-opacity:1"
         offset="0.5" />
      <stop
         id="stop5052-1"
         style="stop-color:#000000;stop-opacity:0"
         offset="1" />
    </linearGradient>
    <linearGradient
       x1="-51.786404"
       y1="50.786446"
       x2="-51.786404"
       y2="2.9062471"
       id="linearGradient3163"
       xlink:href="#linearGradient3104-6"
       gradientUnits="userSpaceOnUse"
       gradientTransform="matrix(1.3612077,0,0,0.95572049,91.691477,7.7856436)" />
    <linearGradient
       x1="23.99999"
       y1="5.8641062"
       x2="23.99999"
       y2="42.100208"
       id="linearGradient3166"
       xlink:href="#linearGradient3977-4"
       gradientUnits="userSpaceOnUse"
       gradientTransform="matrix(1.5405406,0,0,1.216213,-4.9729707,5.8108651)" />
    <linearGradient
       x1="25.132275"
       y1="0.98520643"
       x2="25.132275"
       y2="47.013336"
       id="linearGradient3169"
       xlink:href="#linearGradient3600-9"
       gradientUnits="userSpaceOnUse"
       gradientTransform="matrix(1.6571391,0,0,0.99949772,-7.7713459,9.4785876)" />
    <radialGradient
       cx="605.71429"
       cy="486.64789"
       r="117.14286"
       fx="605.71429"
       fy="486.64789"
       id="radialGradient3172"
       xlink:href="#linearGradient5060-2"
       gradientUnits="userSpaceOnUse"
       gradientTransform="matrix(0.03212956,0,0,0.02058823,40.136784,48.451416)" />
    <radialGradient
       cx="605.71429"
       cy="486.64789"
       r="117.14286"
       fx="605.71429"
       fy="486.64789"
       id="radialGradient3175"
       xlink:href="#linearGradient5060-2"
       gradientUnits="userSpaceOnUse"
       gradientTransform="matrix(-0.03212956,0,0,0.02058823,23.863217,48.451416)" />
    <linearGradient
       x1="302.85715"
       y1="366.64789"
       x2="302.85715"
       y2="609.50507"
       id="linearGradient3178"
       xlink:href="#linearGradient5048-8"
       gradientUnits="userSpaceOnUse"
       gradientTransform="matrix(0.11390532,0,0,0.02058823,-9.1686406,48.451416)" />
    <linearGradient
       y2="2.9062471"
       x2="-51.786404"
       y1="50.786446"
       x1="-51.786404"
       gradientTransform="matrix(0.89977878,0,0,0.6303671,61.456896,25.050229)"
       gradientUnits="userSpaceOnUse"
       id="linearGradient4195"
       xlink:href="#linearGradient3104-6" />
    <linearGradient
       y2="42.100208"
       x2="23.99999"
       y1="5.8641062"
       x1="23.99999"
       gradientTransform="matrix(1.0000001,0,0,0.78378175,-2.0000631,24.041054)"
       gradientUnits="userSpaceOnUse"
       id="linearGradient4199"
       xlink:href="#linearGradient3977-4" />
    <linearGradient
       y2="47.013336"
       x2="25.132275"
       y1="0.98520643"
       x1="25.132275"
       gradientTransform="matrix(1.0857118,0,0,0.65184558,-4.0571522,26.355764)"
       gradientUnits="userSpaceOnUse"
       id="linearGradient4203"
       xlink:href="#linearGradient3600-9" />
    <linearGradient
       y2="46.5728"
       x2="34.432362"
       y1="12.693524"
       x1="34.432362"
       gradientTransform="matrix(-0.561064,0,0,-0.56106405,70.318758,37.62188)"
       gradientUnits="userSpaceOnUse"
       id="linearGradient159"
       xlink:href="#linearGradient4220-7" />
    <linearGradient
       id="linearGradient4220-7">
      <stop
         id="stop4224-0"
         style="stop-color:#abacae;stop-opacity:1"
         offset="0" />
      <stop
         id="stop4222-7"
         style="stop-color:#fafafa;stop-opacity:1"
         offset="1" />
    </linearGradient>
    <linearGradient
       gradientTransform="matrix(0.35523401,0,0,0.35591306,83.614356,23.546762)"
       gradientUnits="userSpaceOnUse"
       xlink:href="#linearGradient3825-5-8"
       id="linearGradient4442"
       y2="39.991924"
       x2="-96.557358"
       y1="110.92493"
       x1="-96.557358" />
    <linearGradient
       id="linearGradient3825-5-8">
      <stop
         offset="0"
         style="stop-color:#e89c42;stop-opacity:1"
         id="stop3827-2-3" />
      <stop
         offset="1"
         style="stop-color:#faca67;stop-opacity:1"
         id="stop3829-5-0" />
    </linearGradient>
    <linearGradient
       gradientTransform="matrix(0.35523401,0,0,0.35591306,83.614356,23.546763)"
       gradientUnits="userSpaceOnUse"
       xlink:href="#linearGradient3871-6-7"
       id="linearGradient4444"
       y2="38.561256"
       x2="-107.45584"
       y1="-37.385227"
       x1="-107.45584" />
    <linearGradient
       id="linearGradient3871-6-7">
      <stop
         offset="0"
         style="stop-color:#0b85e9;stop-opacity:1"
         id="stop3873-3-2" />
      <stop
         offset="1"
         style="stop-color:#69d1ef;stop-opacity:1"
         id="stop3875-4-0" />
    </linearGradient>
    <linearGradient
       gradientTransform="matrix(0.23054602,0.01791,-0.01901181,0.21825052,72.240538,32.714418)"
       gradientUnits="userSpaceOnUse"
       xlink:href="#linearGradient4470"
       id="linearGradient4478"
       y2="75.190559"
       x2="-208.49672"
       y1="88.750069"
       x1="-211.28862" />
    <linearGradient
       id="linearGradient4470">
      <stop
         offset="0"
         style="stop-color:#ec4502;stop-opacity:1"
         id="stop4472" />
      <stop
         offset="1"
         style="stop-color:#fe7617;stop-opacity:1"
         id="stop4474" />
    </linearGradient>
    <linearGradient
       gradientTransform="matrix(0.22766588,0,0,0.22808281,62.060399,27.858826)"
       gradientUnits="userSpaceOnUse"
       xlink:href="#linearGradient4574"
       id="linearGradient4580"
       y2="88.801025"
       x2="-175.25337"
       y1="113.97943"
       x1="-184.92441" />
    <linearGradient
       id="linearGradient4574">
      <stop
         offset="0"
         style="stop-color:#7a0f01;stop-opacity:1"
         id="stop4576" />
      <stop
         offset="1"
         style="stop-color:#d31807;stop-opacity:1"
         id="stop4578" />
    </linearGradient>
    <linearGradient
       spreadMethod="reflect"
       gradientTransform="matrix(0.56249945,0,0,0.56352955,0.26667545,-42.866651)"
       gradientUnits="userSpaceOnUse"
       xlink:href="#linearGradient6272-5-0"
       id="linearGradient6374"
       y2="121.53167"
       x2="67.634743"
       y1="138.73186"
       x1="61.998196" />
    <linearGradient
       id="linearGradient6272-5-0">
      <stop
         offset="0"
         style="stop-color:#ffffff;stop-opacity:1"
         id="stop6274-4-0" />
      <stop
         offset="1"
         style="stop-color:#ffffff;stop-opacity:0.54320985"
         id="stop6276-8-0" />
    </linearGradient>
    <linearGradient
       y2="39.991924"
       x2="-96.557358"
       y1="110.92493"
       x1="-96.557358"
       gradientTransform="matrix(0.30239072,0,0,0.30241495,67.330335,27.200003)"
       gradientUnits="userSpaceOnUse"
       id="linearGradient4388"
       xlink:href="#linearGradient3825-5-8" />
    <linearGradient
       y2="38.561256"
       x2="-107.45584"
       y1="-37.385227"
       x1="-107.45584"
       gradientTransform="matrix(0.30239072,0,0,0.27040808,67.330335,28.928667)"
       gradientUnits="userSpaceOnUse"
       id="linearGradient4390"
       xlink:href="#linearGradient3871-6-7" />
    <linearGradient
       y2="75.190559"
       x2="-208.49672"
       y1="88.750069"
       x1="-211.28862"
       gradientTransform="matrix(0.19625086,0.01521791,-0.01618368,0.18544479,57.648444,34.989647)"
       gradientUnits="userSpaceOnUse"
       id="linearGradient4392"
       xlink:href="#linearGradient4470" />
    <linearGradient
       y2="88.801025"
       x2="-175.25337"
       y1="113.97943"
       x1="-184.92441"
       gradientTransform="matrix(0.19379916,0,0,0.19379916,48.982664,30.863911)"
       gradientUnits="userSpaceOnUse"
       id="linearGradient4394"
       xlink:href="#linearGradient4574" />
    <linearGradient
       y2="121.53167"
       x2="67.634743"
       y1="138.73186"
       x1="61.998196"
       spreadMethod="reflect"
       gradientTransform="matrix(0.47882413,0,0,0.42814653,-3.618856,-21.529509)"
       gradientUnits="userSpaceOnUse"
       id="linearGradient4396"
       xlink:href="#linearGradient6272-5-0" />
  </defs>
  <g
     id="g4517">
    <g
       id="g4205">
      <rect
         width="55"
         height="5"
         x="4.5"
         y="56"
         id="rect2879-0"
         style="display:inline;overflow:visible;visibility:visible;opacity:0.15;fill:url(#linearGradient3178);fill-opacity:1;fill-rule:nonzero;stroke:none;stroke-width:1;marker:none" />
      <path
         d="m 4.5,56.000216 c 0,0 0,4.9997 0,4.9997 -1.654593,0.01 -4,-1.1202 -4,-2.5002 0,-1.38 1.8464008,-2.4995 4,-2.4995 z"
         id="path2881-4"
         style="display:inline;overflow:visible;visibility:visible;opacity:0.15;fill:url(#radialGradient3175);fill-opacity:1;fill-rule:nonzero;stroke:none;stroke-width:1;marker:none" />
      <path
         d="m 59.5,56.000216 c 0,0 0,4.9997 0,4.9997 1.654592,0.01 4,-1.1202 4,-2.5002 0,-1.38 -1.846401,-2.4995 -4,-2.4995 z"
         id="path2883-6"
         style="display:inline;overflow:visible;visibility:visible;opacity:0.15;fill:url(#radialGradient3172);fill-opacity:1;fill-rule:nonzero;stroke:none;stroke-width:1;marker:none" />
    </g>
    <g
       id="g4437"
       style="opacity:0.5">
      <path
         d="m 2.9999928,12.000016 c 13.2907442,0 57.9999312,0.0032 57.9999312,0.0032 l 6.9e-5,45.996828 c 0,0 -38.666666,0 -58.0000002,0 0,-15.333349 0,-30.666461 0,-45.999746 z"
         id="path4160-6"
         style="display:inline;fill:url(#linearGradient3169);fill-opacity:1;stroke:none" />
      <path
         d="m 60.499993,57.500016 -57.0000004,0 0,-45 57.0000004,0 z"
         id="rect6741-1-8"
         style="fill:none;stroke:url(#linearGradient3166);stroke-width:1;stroke-linecap:round;stroke-linejoin:miter;stroke-miterlimit:4;stroke-dasharray:none;stroke-dashoffset:0;stroke-opacity:1" />
      <path
         d="m 2.499962,11.500038 c 13.5199,0 59.000015,0.0032 59.000015,0.0032 l 6.1e-5,46.996892 c 0,0 -39.333383,0 -59.0000761,0 0,-15.66674 0,-31.333322 0,-46.999879 z"
         id="path4160-6-1"
         style="display:inline;fill:none;stroke:url(#linearGradient3163);stroke-width:0.9999218;stroke-linecap:butt;stroke-linejoin:round;stroke-miterlimit:4;stroke-dasharray:none;stroke-dashoffset:0;stroke-opacity:1" />
      <g
         transform="translate(-5.3916919,-1.7404174)"
         id="g4422"
         style="">
        <path
           style="color:#000000;display:inline;overflow:visible;visibility:visible;fill:url(#linearGradient4442);fill-opacity:1;fill-rule:nonzero;stroke:none;stroke-width:10;marker:none;enable-background:accumulate"
           id="rect3055-2-9"
           d="m 10.391746,15.740417 0,42 53.999896,0 0,-42 z" />
        <path
           style="color:#000000;display:inline;overflow:visible;visibility:visible;opacity:0.02999998;fill:#000000;fill-opacity:1;fill-rule:nonzero;stroke:none;stroke-width:10;marker:none;enable-background:accumulate"
           id="path4084-9"
           d="m 10.391746,17.000673 0,24.201009 c 1.247735,0.310637 2.800828,0.553283 4.632943,0.553283 2.492567,0 3.799669,-0.452297 4.755669,-0.860663 0.956012,-0.408365 1.4978,-0.737711 3.405684,-0.737711 1.820966,0 3.298302,0.599461 5.123847,1.260256 1.825557,0.660796 3.973447,1.35247 6.903403,1.35247 3.639446,0 5.996396,-1.147213 7.946568,-2.213132 1.950163,-1.065918 3.454218,-1.997966 5.890907,-1.997966 1.92441,0 2.787283,0.463394 3.988623,1.045089 1.201329,0.581695 2.714316,1.260256 5.215895,1.260256 3.147373,0 4.584445,-1.149074 6.136357,-1.875014 l 0,-21.987877 z" />
        <path
           style="color:#000000;display:inline;overflow:visible;visibility:visible;opacity:0.1;fill:#000000;fill-opacity:1;fill-rule:nonzero;stroke:none;stroke-width:10;marker:none;enable-background:accumulate"
           id="rect3055-2-6-9-0"
           d="m 10.391746,17.000673 0,23.125427 c 1.206144,0.321303 2.770239,0.584021 4.632943,0.584021 4.749291,0 4.071682,-1.598373 8.161353,-1.598373 4.089659,0 6.498538,2.612725 12.02725,2.612725 6.847963,0 8.419438,-4.211099 13.837475,-4.211099 4.230701,0 4.548332,2.305347 9.204518,2.305347 3.145472,0 4.190077,-1.211087 6.136357,-1.997968 l 0,-20.82008 z" />
        <path
           style="fill:url(#linearGradient4444);fill-opacity:1;stroke:none"
           id="path3867-3-5"
           d="m 10.391746,15.740417 0,21.280904 c 0.801819,0.370404 1.817175,0.706973 2.914768,0.706973 2.506573,0 4.957842,-2.028704 9.14316,-2.028704 4.185318,0 7.333208,2.551249 12.610202,2.551249 5.276993,0 6.464642,-3.688554 13.193166,-3.688554 6.7285,0 6.095801,2.336084 10.309064,2.336084 2.902179,0 4.141589,-1.015481 5.829536,-1.659849 l 0,-19.498103 z" />
        <path
           style="color:#000000;display:inline;overflow:visible;visibility:visible;opacity:0.1;fill:#ffffff;fill-opacity:1;fill-rule:nonzero;stroke:none;stroke-width:10;marker:none;enable-background:accumulate"
           id="path4213-1"
           d="m 48.253042,32.656533 c -3.534675,0 -5.758101,1.002707 -7.578403,1.936491 -1.820303,0.933783 -3.193554,1.752062 -5.614763,1.752062 -2.488203,0 -4.454744,-0.595596 -6.412488,-1.229518 -1.957743,-0.633921 -3.915566,-1.321731 -6.197714,-1.321731 -2.243335,0 -4.046909,0.528639 -5.522715,1.045091 -1.475806,0.51645 -2.618759,0.983613 -3.620445,0.983613 -0.906951,0 -1.791008,-0.310629 -2.5159,-0.645496 a 0.93437938,0.9360905 0 0 0 -0.398868,-0.09222 l 0,4.026672 c 1.242425,0.311467 2.800963,0.553283 4.632943,0.553283 2.47927,0 3.740629,-0.453287 4.694312,-0.860664 0.953683,-0.407375 1.543699,-0.73771 3.467041,-0.73771 1.846233,0 3.331343,0.60032 5.154537,1.260256 1.823171,0.659937 3.961444,1.35247 6.872713,1.35247 3.615135,0 5.968439,-1.148698 7.915889,-2.213133 1.947453,-1.064434 3.454173,-1.997966 5.921586,-1.997966 1.945954,0 2.849889,0.494738 4.049992,1.075829 1.20008,0.58109 2.672522,1.229517 5.154526,1.229517 3.160783,0 4.546195,-1.17488 6.136357,-1.905752 l 0,-3.534864 a 0.93437938,0.9360905 0 0 0 -0.337499,0.06147 c -1.850948,0.706593 -2.807399,1.598374 -5.492037,1.598374 -1.934276,0 -2.53795,-0.464265 -3.80454,-1.075828 -1.26659,-0.611563 -3.032353,-1.260256 -6.504524,-1.260256 z" />
        <path
           style="color:#000000;display:inline;overflow:visible;visibility:visible;opacity:0.3;fill:#ffffff;fill-opacity:1;fill-rule:nonzero;stroke:none;stroke-width:10;marker:none;enable-background:accumulate"
           id="rect3055-2-6-94-0"
           d="m 48.253042,33.578917 c -6.728524,0 -7.916173,3.688553 -13.193166,3.688553 -5.276994,0 -8.424884,-2.551249 -12.610202,-2.551249 -4.185318,0 -6.636587,2.028705 -9.14316,2.028705 -1.097593,0 -2.112949,-0.336569 -2.914768,-0.706973 l 0,2.120918 c 1.206144,0.321303 2.770239,0.584021 4.632943,0.584021 4.749291,0 4.071682,-1.598373 8.161353,-1.598373 4.089659,0 6.498538,2.612725 12.02725,2.612725 6.847963,0 8.419438,-4.211099 13.837475,-4.211099 4.230701,0 4.548332,2.305347 9.204518,2.305347 3.145472,0 4.190077,-1.211086 6.136357,-1.997967 l 0,-1.598373 c -1.687947,0.644367 -2.927357,1.659849 -5.829536,1.659849 -4.213263,0 -3.580564,-2.336084 -10.309064,-2.336084 z" />
        <path
           style="color:#000000;display:inline;overflow:visible;visibility:visible;fill:#ffffff;fill-opacity:1;fill-rule:nonzero;stroke:none;stroke-width:10;marker:none;enable-background:accumulate"
           id="rect3055-2-6-8"
           d="m 48.253042,34.562286 c -6.728524,0 -7.916173,3.688553 -13.193166,3.688553 -5.276994,0 -8.424884,-2.551249 -12.610202,-2.551249 -4.185318,0 -6.636587,2.028704 -9.14316,2.028704 -1.097593,0 -2.112949,-0.336569 -2.914768,-0.706973 l 0,2.120918 c 1.206144,0.321303 2.770239,0.584021 4.632943,0.584021 4.749291,0 4.071682,-1.598373 8.161353,-1.598373 4.089659,0 6.498538,2.612725 12.02725,2.612725 6.847963,0 8.419438,-4.211097 13.837475,-4.211097 4.230701,0 4.548332,2.305345 9.204518,2.305345 3.145472,0 4.190077,-1.211086 6.136357,-1.997966 l 0,-1.598374 c -1.687947,0.644368 -2.927357,1.659849 -5.829536,1.659849 -4.213263,0 -3.580564,-2.336083 -10.309064,-2.336083 z" />
        <path
           style="color:#000000;display:inline;overflow:visible;visibility:visible;opacity:0.05;fill:#000000;fill-opacity:1;fill-rule:nonzero;stroke:none;stroke-width:8.86881733;marker:none;enable-background:accumulate"
           id="path5640-1"
           d="m 20.26271,41.630253 c -0.165597,-0.01249 -0.356335,0.0052 -0.542644,0.0677 -0.728412,0.244375 -0.825153,0.732124 -0.898999,0.994466 -0.07385,0.262341 -0.09376,0.488884 -0.107392,0.733237 -0.02728,0.488706 -0.0027,1.034955 0.02186,1.580988 0.0246,0.546035 0.0572,1.084815 0.05958,1.480923 3e-4,0.04879 -0.0017,0.06578 -0.0024,0.109685 -0.03425,0.0091 -0.04439,0.01177 -0.08163,0.02112 -0.391351,0.09831 -0.938121,0.207344 -1.48614,0.324005 -0.54802,0.11666 -1.09301,0.236346 -1.571333,0.38605 -0.239162,0.07485 -0.457459,0.146889 -0.706934,0.288406 -0.124737,0.07076 -0.266069,0.161104 -0.420535,0.331255 -0.154466,0.170151 -0.338528,0.478877 -0.328207,0.853413 0.02018,0.732351 0.488708,0.966985 0.729825,1.114135 0.241119,0.14715 0.462875,0.235156 0.704491,0.322521 0.483229,0.17473 1.034271,0.321268 1.59132,0.466946 0.55705,0.145679 1.110344,0.28603 1.509619,0.405667 0.0475,0.01423 0.06302,0.02207 0.105694,0.03567 -0.0014,0.03166 0.0027,0.04153 6.58e-4,0.07558 -0.02223,0.383141 -0.08031,0.908607 -0.132553,1.438531 -0.05222,0.529925 -0.100181,1.060221 -0.09765,1.537372 0.0012,0.238578 0.0096,0.458514 0.07451,0.726769 0.03249,0.134128 0.07487,0.283865 0.197944,0.475432 0.123077,0.191566 0.376522,0.45361 0.756336,0.560009 0.74122,0.20764 1.124314,-0.136008 1.346878,-0.307357 0.222563,-0.171348 0.376536,-0.337748 0.539222,-0.528028 0.32537,-0.380562 0.649347,-0.835332 0.968368,-1.291202 0.319021,-0.455871 0.625427,-0.915009 0.869362,-1.237095 0.02971,-0.03923 0.04509,-0.04876 0.07256,-0.08363 0.03241,0.0113 0.04267,0.01393 0.07747,0.02661 0.377586,0.137654 0.886031,0.352386 1.401701,0.562079 0.515671,0.209694 1.031105,0.412569 1.510958,0.556835 0.239926,0.07213 0.465216,0.137746 0.754772,0.161631 0.144781,0.0119 0.30941,0.01833 0.539673,-0.03361 0.230263,-0.05192 0.567374,-0.19988 0.791382,-0.508439 0.437625,-0.602806 0.210397,-1.056803 0.106875,-1.310062 -0.103534,-0.25326 -0.223416,-0.441414 -0.364395,-0.646291 -0.281957,-0.409757 -0.640049,-0.838572 -0.999515,-1.26555 -0.359467,-0.426977 -0.72369,-0.849007 -0.971811,-1.167266 -0.02754,-0.03532 -0.03381,-0.04748 -0.05831,-0.08007 0.02193,-0.02634 0.02499,-0.03667 0.04916,-0.06485 0.255528,-0.297596 0.624179,-0.697182 0.99496,-1.096875 0.370782,-0.399692 0.737663,-0.795769 1.031502,-1.183301 0.146921,-0.193765 0.281845,-0.375167 0.39565,-0.628446 0.0569,-0.126639 0.111173,-0.274565 0.13042,-0.497987 0.01925,-0.223424 -0.02402,-0.574828 -0.264943,-0.872027 -0.470517,-0.580414 -0.989818,-0.518962 -1.276179,-0.504262 -0.28636,0.0147 -0.516133,0.06941 -0.76591,0.132762 -0.49955,0.12668 -1.047995,0.317118 -1.58923,0.508257 -0.541235,0.191137 -1.07594,0.385637 -1.473365,0.51039 -0.04596,0.01443 -0.06191,0.01388 -0.103837,0.02627 -0.01816,-0.02579 -0.0266,-0.03052 -0.04568,-0.05848 -0.219409,-0.321394 -0.498367,-0.778503 -0.784566,-1.235118 -0.286199,-0.456616 -0.575462,-0.913104 -0.873474,-1.296957 -0.149007,-0.191926 -0.291498,-0.367158 -0.510786,-0.5478 -0.109642,-0.09032 -0.236094,-0.189421 -0.454707,-0.275651 -0.109305,-0.04311 -0.254127,-0.0819 -0.419722,-0.0944 z" />
        <path
           style="color:#000000;display:inline;overflow:visible;visibility:visible;opacity:0.15;fill:#000000;fill-opacity:1;fill-rule:nonzero;stroke:none;stroke-width:8.86881733;marker:none;enable-background:accumulate"
           id="path5640"
           d="m 20.114843,42.744869 c -0.55301,0.18553 0.0925,4.175953 -0.257534,4.621736 -0.337967,0.430426 -4.496212,0.866797 -4.481443,1.402811 0.0153,0.555139 4.23111,1.200124 4.570678,1.65284 0.327871,0.437119 -0.519199,4.319799 0.02388,4.471936 0.562464,0.157565 2.517161,-3.433333 3.077051,-3.599323 0.540603,-0.160271 4.174483,1.793719 4.495361,1.351729 0.332324,-0.457758 -2.671893,-3.318463 -2.665429,-3.873766 0.0062,-0.536173 3.098213,-3.206028 2.75344,-3.631329 -0.357075,-0.440475 -4.168871,1.37572 -4.724766,1.198514 -0.536745,-0.171101 -2.257287,-3.774286 -2.791247,-3.595148 z" />
        <path
           style="color:#000000;display:inline;overflow:visible;visibility:visible;fill:url(#linearGradient4478);fill-opacity:1;stroke:none;stroke-width:1.99881232;marker:none;enable-background:accumulate"
           id="path4468"
           d="m 20.112339,41.743098 c 0.533962,-0.179138 2.259452,3.4278 2.796198,3.598901 0.555895,0.177206 4.364148,-1.643035 4.721221,-1.20256 0.344774,0.425301 -2.746452,3.094747 -2.752696,3.63092 -0.0064,0.555303 2.997644,3.420714 2.665318,3.878471 -0.320878,0.441989 -3.956853,-1.515139 -4.497456,-1.354868 -0.55989,0.165989 -2.511502,3.757152 -3.073966,3.599587 -0.543087,-0.152137 0.300984,-4.031156 -0.02689,-4.468275 -0.339568,-0.452715 -4.549837,-1.098665 -4.565132,-1.653804 -0.01477,-0.536016 4.142872,-0.976251 4.480839,-1.406677 0.350027,-0.445783 -0.30045,-4.436165 0.252558,-4.621695 z" />
        <path
           style="opacity:0.5;fill:#9d0f06;fill-opacity:1;stroke:none"
           id="path4480"
           d="m 20.148525,41.736246 -0.156521,0.149674 c -0.0011,0.0034 -0.0056,0.0045 -0.0068,0.0068 -0.314223,0.756132 0.189157,4.065016 -0.128058,4.468999 -0.01328,0.01691 -0.0324,0.04012 -0.05692,0.05703 l 0.128069,0.08554 c 2.565794,0.764202 0.320006,-4.60925 0.256117,-4.761223 -0.01226,-0.0023 -0.02419,-0.0079 -0.03555,-0.0068 z" />
        <path
           style="opacity:0.75;fill:url(#linearGradient4580);fill-opacity:1;stroke:none"
           id="path4517"
           d="m 16.19283,47.680655 c -0.504741,0.0045 -0.796824,0.02851 -0.796824,0.02851 l 0,0.0068 0,0.114047 c 0.296043,0.54109 4.218865,1.160171 4.546194,1.59658 0.32787,0.437118 -0.514619,4.316857 0.02846,4.468987 0.562465,0.157574 2.513605,-3.433435 3.073494,-3.599428 0.53722,-0.159265 4.129484,1.770968 4.489292,1.361373 l -0.0068,-0.0068 C 24.497508,47.958001 18.379995,47.662205 16.192797,47.680655 Z" />
        <path
           style="opacity:0.07000002;fill:url(#linearGradient6374);fill-opacity:1;stroke:none"
           id="path6314-4"
           d="m 27.600634,15.740417 -0.861332,0.29938 a 0.48323098,0.48411592 0 0 0 -0.0351,0.01758 l -9.544909,3.962319 -6.714841,-0.810073 a 0.48323098,0.48411592 0 0 0 -0.05276,0 l 0,2.606322 a 0.48323098,0.48411592 0 0 0 0.246093,-0.07044 c 0.01372,-0.0079 0.546445,-0.139057 1.177738,-0.158498 0.631281,-0.01939 1.412277,0.01319 2.162099,0.05286 1.353474,0.07157 2.367896,0.169847 2.601558,0.193718 l 1.107425,2.377394 -2.16211,1.039001 a 0.48323098,0.48411592 0 0 0 -0.246094,0.26416 l -0.896477,2.306941 -0.843748,0 a 0.48323098,0.48411592 0 0 0 -0.439459,0.281765 l -0.351561,0.810073 -2.320308,-0.176103 a 0.48323098,0.48411592 0 0 0 -0.0351,0 l 0,2.113245 5.326166,0.211323 a 0.48323098,0.48411592 0 0 0 0.298822,-0.08802 l 0.984385,-0.704411 10.617166,-0.387427 a 0.48323098,0.48411592 0 0 0 0.0351,0 l 2.988287,-0.369821 2.794911,0.827689 a 0.48323098,0.48411592 0 0 0 0.527343,-0.158498 l 0.17578,-0.211324 c 0.03431,-0.01206 0.0603,-0.04035 0.175781,-0.07044 0.159446,-0.04159 0.372622,-0.07574 0.615239,-0.123277 0.485212,-0.09501 1.097244,-0.209566 1.687497,-0.29937 1.153786,-0.175539 2.183609,-0.310808 2.232423,-0.316985 0.0068,0 0.04511,-1.57e-4 0.05276,0 0.362778,0.0079 1.468235,0.194756 2.443349,0.387426 0.836807,0.165329 1.362395,0.285991 1.58204,0.334601 0.177727,0.621021 0.382769,1.707054 0.544915,2.817645 0.176411,1.208139 0.311591,2.347809 0.351562,2.694368 a 0.48323098,0.48411592 0 0 0 0.01755,0.08802 c 0.909146,-0.300834 1.943143,-0.524071 3.181653,-0.616365 a 0.48323098,0.48411592 0 0 0 -0.105412,-0.264149 c -0.513427,-0.583061 -1.25651,-2.003481 -1.160154,-5.124597 l 1.828121,-0.07044 a 0.48323098,0.48411592 0 0 0 0.193365,-0.03516 c 0,0 1.528107,-0.752334 3.234369,-1.56732 1.70625,-0.814987 3.619466,-1.700708 4.271481,-1.954736 0.223301,-0.08701 0.898941,-0.190022 1.705069,-0.246544 0.806129,-0.05658 1.764098,-0.08915 2.724599,-0.123278 0.960501,-0.03404 1.916737,-0.07179 2.707026,-0.140882 0.7903,-0.06898 1.363733,-0.118735 1.828121,-0.405031 a 0.48323098,0.48411592 0 0 0 0.140625,-0.123277 l 0,-1.761028 c -0.01845,-0.01488 -0.05276,-0.03516 -0.05276,-0.03516 a 0.48323098,0.48411592 0 0 0 -0.720696,0.246544 c -0.027,0.0151 0.01159,-0.0011 -0.105413,0.03516 -0.216663,0.06853 -0.600996,0.14459 -1.19531,0.228928 -1.188628,0.168686 -3.253077,0.351935 -6.749998,0.440262 a 0.48323098,0.48411592 0 0 0 -0.175803,0.03516 c 0,0 -1.996703,0.887897 -4.025389,1.813865 -1.014354,0.462973 -2.036167,0.924616 -2.830078,1.303161 -0.396955,0.189267 -0.72928,0.362146 -0.984373,0.493088 -0.127541,0.06548 -0.229927,0.126546 -0.316406,0.176103 -0.01811,0.01014 -0.03746,0.02739 -0.05265,0.03516 l -1.142581,0.05286 1.212894,-1.637762 5.027334,-2.711983 a 0.48323098,0.48411592 0 0 0 0.158208,-0.704412 l -3.269525,-4.420186 7.400382,-0.493088 a 0.48323098,0.48411592 0 0 0 0.158197,-0.03516 l 3.708983,-1.690587 a 0.48323098,0.48411592 0 0 0 0.105412,-0.07044 0.48323098,0.48411592 0 0 0 0.01755,0 0.48323098,0.48411592 0 0 0 0.246094,0.105605 l 2.917963,0.193708 a 0.48323098,0.48411592 0 0 0 0.50977,-0.563529 l -0.01755,-0.105606 -7.646475,0 -0.79102,0.281765 -6.134759,0.281764 -0.667968,-0.563529 -3.410149,0 a 0.48323098,0.48411592 0 0 0 0.0351,0.193708 c 0.04523,0.10707 0.06581,0.184882 0.08786,0.26416 -0.42553,0.150068 -2.343361,0.834958 -3.814442,0.845293 l -1.458985,-0.246549 a 0.48323098,0.48411592 0 0 0 -0.07031,0 c -0.502671,0 -1.843894,-0.271452 -3.164056,-0.598749 -0.611718,-0.151668 -1.217225,-0.30629 -1.775393,-0.457868 l -7.804683,0 z m 3.427734,0.669191 0.738279,0.422646 a 0.48323098,0.48411592 0 0 0 0.140625,0.05286 l 9.984367,2.201325 a 0.48323098,0.48411592 0 0 0 0.246093,-0.01758 l 3.726558,-1.179895 1.107414,0.669191 3.164067,4.208863 -4.113284,2.025188 a 0.48323098,0.48411592 0 0 0 -0.158197,0.123266 l -2.373051,2.817645 -4.289054,-0.299369 a 0.48323098,0.48411592 0 0 0 -0.140624,0 l -5.625001,1.162279 -2.548817,-0.827689 a 0.48323098,0.48411592 0 0 0 -0.158209,-0.01758 L 16.719779,28.2614 c 0.300903,-0.737761 0.754638,-1.196169 1.265623,-1.391218 0.653747,-0.24953 1.265622,-0.211323 1.265622,-0.211323 a 0.48323098,0.48411592 0 0 0 0.509771,-0.581134 l -0.949217,-4.578684 12.21679,-5.089377 z" />
      </g>
      <rect
         width="53"
         height="41"
         x="5.5000005"
         y="14.5"
         id="rect3180"
         style="color:#000000;display:inline;overflow:visible;visibility:visible;opacity:0.225;fill:none;fill-opacity:1;fill-rule:nonzero;stroke:#000000;stroke-width:1.00000072;stroke-linecap:round;stroke-linejoin:miter;stroke-miterlimit:4;stroke-dasharray:none;stroke-dashoffset:0;stroke-opacity:1;marker:none;enable-background:accumulate" />
    </g>
    <g
       id="g4496">
      <g
         transform="translate(-1.100647e-6,0)"
         id="g4210">
        <path
           d="M 2.9999317,19.99895 C 11.707659,19.99895 52.999977,20 52.999977,20 l 4.5e-5,38 -50.0000903,1.83e-4 0,-38.001024 z"
           id="path4201"
           style="display:inline;fill:url(#linearGradient4203);fill-opacity:1;stroke:none" />
        <path
           d="m 2.4999621,19.4989 c 8.9368579,0 50.9998979,0.0015 50.9998979,0.0015 l 4.1e-5,38.999106 -50.999939,6.53e-4 0,-39.001076 z"
           id="path4193"
           style="display:inline;opacity:0.6;fill:none;stroke:url(#linearGradient4195);stroke-width:0.9999218;stroke-linecap:butt;stroke-linejoin:round;stroke-miterlimit:4;stroke-dasharray:none;stroke-dashoffset:0;stroke-opacity:1" />
        <path
           d="m 52.5,57.5 -49.0000692,0 0,-37 L 52.5,20.5 Z"
           id="path4197"
           style="fill:none;stroke:url(#linearGradient4199);stroke-width:0.99999982;stroke-linecap:round;stroke-linejoin:miter;stroke-miterlimit:4;stroke-dasharray:none;stroke-dashoffset:0;stroke-opacity:1" />
      </g>
      <g
         id="g4480">
        <path
           d="m 5.0000466,23 0,32.999998 45.9670734,0 0,-32.999998 z"
           id="path4362"
           style="color:#000000;display:inline;overflow:visible;visibility:visible;fill:url(#linearGradient4388);fill-opacity:1;fill-rule:nonzero;stroke:none;stroke-width:10;marker:none;enable-background:accumulate" />
        <path
           d="m 5.0000466,23.955217 0,18.38693 c 1.0621266,0.236009 2.3841876,0.420362 3.9437641,0.420362 2.1217823,0 3.2344443,-0.343637 4.0482343,-0.653896 0.813799,-0.31026 1.274992,-0.560483 2.899066,-0.560483 1.550086,0 2.807659,0.455446 4.361643,0.95749 1.553994,0.502046 3.382372,1.027551 5.876479,1.027551 3.098056,0 5.104394,-0.871605 6.764466,-1.681446 1.660064,-0.809841 2.940381,-1.517973 5.014598,-1.517973 1.638142,0 2.372657,0.352069 3.39529,0.794017 1.022624,0.441947 2.310545,0.95749 4.439998,0.95749 2.679181,0 3.90248,-0.873019 5.223535,-1.424559 l 0,-16.705483 z"
           id="path4364"
           style="color:#000000;display:inline;overflow:visible;visibility:visible;opacity:0.02999998;fill:#000000;fill-opacity:1;fill-rule:nonzero;stroke:none;stroke-width:10;marker:none;enable-background:accumulate" />
        <path
           d="m 5.0000466,23.955217 0,17.569747 c 1.0267224,0.244112 2.3581491,0.443715 3.9437641,0.443715 4.0428043,0 3.4659943,-1.214378 6.9473003,-1.214378 3.481297,0 5.53184,1.985041 10.238122,1.985041 5.829285,0 7.166994,-3.19942 11.779064,-3.19942 3.601357,0 3.871739,1.751508 7.835288,1.751508 2.677563,0 3.566777,-0.920134 5.223535,-1.517973 l 0,-15.81824 z"
           id="path4366"
           style="color:#000000;display:inline;overflow:visible;visibility:visible;opacity:0.1;fill:#000000;fill-opacity:1;fill-rule:nonzero;stroke:none;stroke-width:10;marker:none;enable-background:accumulate" />
        <path
           d="m 5.0000466,22.997727 0,16.168354 c 0.6825439,0.281418 1.546859,0.537129 2.4811781,0.537129 2.1337053,0 4.2203323,-1.541326 7.7830583,-1.541326 3.562726,0 6.242348,1.938334 10.734355,1.938334 4.492008,0 5.502987,-2.802411 11.230601,-2.802411 5.727592,0 5.189012,1.77486 8.775525,1.77486 2.470462,0 3.525502,-0.771521 4.962356,-1.261085 l 0,-14.813855 z"
           id="path4368"
           style="fill:url(#linearGradient4390);fill-opacity:1;stroke:none" />
        <path
           d="m 37.229239,35.849895 c -3.008871,0 -4.901548,0.761815 -6.451069,1.471266 -1.549521,0.70945 -2.718493,1.331144 -4.779532,1.331144 -2.118067,0 -3.792073,-0.452509 -5.45859,-0.934137 -1.666517,-0.481627 -3.333101,-1.004197 -5.275765,-1.004197 -1.909625,0 -3.444906,0.401638 -4.701177,0.794017 -1.2562703,0.392378 -2.2292017,0.74731 -3.0818813,0.74731 -0.7720362,0 -1.5245842,-0.236004 -2.1416443,-0.490422 a 0.79538459,0.71120299 0 0 0 -0.3395338,-0.07006 l 0,3.059299 c 1.0576065,0.23664 2.3843025,0.420362 3.9437641,0.420362 2.1104633,0 3.1841873,-0.34439 3.9960033,-0.653897 0.811817,-0.309507 1.314065,-0.560482 2.951297,-0.560482 1.571595,0 2.835785,0.456099 4.387768,0.95749 1.551963,0.501393 3.372154,1.027551 5.850354,1.027551 3.077361,0 5.080596,-0.872733 6.738351,-1.681447 1.657756,-0.808713 2.940343,-1.517972 5.040713,-1.517972 1.656481,0 2.42595,0.375882 3.44753,0.817371 1.021561,0.441488 2.274968,0.934136 4.387758,0.934136 2.690597,0 3.86992,-0.892626 5.223535,-1.447912 l 0,-2.685644 a 0.79538459,0.71120299 0 0 0 -0.287294,0.0467 c -1.575607,0.536839 -2.38978,1.214378 -4.675062,1.214378 -1.64654,0 -2.160414,-0.352729 -3.238591,-0.81737 -1.078176,-0.464639 -2.581271,-0.95749 -5.536934,-0.95749 z"
           id="path4370"
           style="color:#000000;display:inline;overflow:visible;visibility:visible;opacity:0.1;fill:#ffffff;fill-opacity:1;fill-rule:nonzero;stroke:none;stroke-width:10;marker:none;enable-background:accumulate" />
        <path
           d="m 37.229239,36.550685 c -5.727614,0 -6.738593,2.80241 -11.230601,2.80241 -4.492007,0 -7.171629,-1.938334 -10.734355,-1.938334 -3.562726,0 -5.649353,1.541326 -7.7830583,1.541326 -0.9343191,0 -1.7986342,-0.255711 -2.4811781,-0.537129 l 0,1.611386 c 1.0267224,0.244113 2.3581491,0.443716 3.9437641,0.443716 4.0428043,0 3.4659943,-1.214379 6.9473003,-1.214379 3.481297,0 5.53184,1.985041 10.238122,1.985041 5.829285,0 7.166994,-3.199419 11.779064,-3.199419 3.601357,0 3.871739,1.751508 7.835288,1.751508 2.677563,0 3.566777,-0.920134 5.223535,-1.517973 l 0,-1.214378 c -1.436854,0.489563 -2.491894,1.261084 -4.962356,1.261084 -3.586513,0 -3.047933,-1.774859 -8.775525,-1.774859 z"
           id="path4372"
           style="color:#000000;display:inline;overflow:visible;visibility:visible;opacity:0.3;fill:#ffffff;fill-opacity:1;fill-rule:nonzero;stroke:none;stroke-width:10;marker:none;enable-background:accumulate" />
        <path
           d="m 37.229239,37.297807 c -5.727614,0 -6.738593,2.802411 -11.230601,2.802411 -4.492007,0 -7.171629,-1.938334 -10.734355,-1.938334 -3.562726,0 -5.649353,1.541326 -7.7830583,1.541326 -0.9343191,0 -1.7986342,-0.255711 -2.4811781,-0.537129 l 0,1.611386 c 1.0267224,0.244113 2.3581491,0.443715 3.9437641,0.443715 4.0428043,0 3.4659943,-1.214378 6.9473003,-1.214378 3.481297,0 5.53184,1.985041 10.238122,1.985041 5.829285,0 7.166994,-3.199418 11.779064,-3.199418 3.601357,0 3.871739,1.751506 7.835288,1.751506 2.677563,0 3.566777,-0.920133 5.223535,-1.517973 l 0,-1.214378 c -1.436854,0.489564 -2.491894,1.261085 -4.962356,1.261085 -3.586513,0 -3.047933,-1.77486 -8.775525,-1.77486 z"
           id="path4374"
           style="color:#000000;display:inline;overflow:visible;visibility:visible;fill:#ffffff;fill-opacity:1;fill-rule:nonzero;stroke:none;stroke-width:10;marker:none;enable-background:accumulate" />
        <path
           d="m 13.402644,42.565323 c -0.140964,-0.01061 -0.303329,0.0044 -0.461923,0.05753 -0.620056,0.207643 -0.702406,0.622077 -0.765267,0.844986 -0.06286,0.222908 -0.07981,0.415398 -0.09142,0.623022 -0.02322,0.415248 -0.0023,0.879389 0.01861,1.343347 0.02094,0.463959 0.04869,0.921753 0.05072,1.258321 2.55e-4,0.04146 -0.0014,0.05589 -0.002,0.0932 -0.02915,0.0078 -0.03779,0.01 -0.06949,0.01795 -0.333135,0.08354 -0.79857,0.176177 -1.265067,0.275303 -0.466499,0.09913 -0.930418,0.20082 -1.3375876,0.328022 -0.2035853,0.0636 -0.3894091,0.12481 -0.6017732,0.245055 -0.106182,0.06012 -0.2264893,0.136888 -0.3579781,0.281463 -0.1314879,0.144575 -0.2881695,0.406896 -0.279384,0.725134 0.01718,0.62227 0.4160096,0.821636 0.6212593,0.946667 0.2052506,0.125032 0.3940192,0.199809 0.5996931,0.274042 0.4113459,0.148466 0.8804165,0.272978 1.3546015,0.396759 0.474185,0.123781 0.945173,0.243036 1.285054,0.34469 0.04043,0.0121 0.05365,0.01875 0.08997,0.03031 -0.0011,0.0269 0.0023,0.03529 5.6e-4,0.06422 -0.01892,0.32555 -0.06837,0.772032 -0.112835,1.222301 -0.04445,0.450271 -0.08528,0.900857 -0.08312,1.306287 0.0011,0.202717 0.0081,0.389593 0.06343,0.617526 0.02766,0.113967 0.06373,0.241197 0.168499,0.403969 0.104769,0.162771 0.320513,0.385427 0.643827,0.475833 0.630958,0.176429 0.957065,-0.115565 1.146521,-0.261158 0.189455,-0.145592 0.320524,-0.28698 0.459009,-0.448658 0.27697,-0.32336 0.552753,-0.709772 0.824318,-1.097119 0.271564,-0.387348 0.53239,-0.777472 0.740038,-1.051145 0.02529,-0.03333 0.03838,-0.04143 0.06177,-0.07106 0.02759,0.0096 0.03632,0.01184 0.06594,0.02261 0.321417,0.116963 0.754228,0.299418 1.193189,0.477592 0.438962,0.178174 0.877721,0.350554 1.286193,0.473135 0.204236,0.06129 0.396012,0.117042 0.642496,0.137336 0.123243,0.01011 0.263382,0.01557 0.459393,-0.02856 0.19601,-0.04412 0.482973,-0.169835 0.673658,-0.432014 0.372526,-0.512197 0.1791,-0.897953 0.09098,-1.113144 -0.08813,-0.215192 -0.190181,-0.375063 -0.310189,-0.549145 -0.240014,-0.348166 -0.544838,-0.712525 -0.850831,-1.075323 -0.305993,-0.362797 -0.616036,-0.72139 -0.827247,-0.991811 -0.02344,-0.03001 -0.02878,-0.04035 -0.04963,-0.06803 0.01866,-0.02238 0.02127,-0.03116 0.04185,-0.0551 0.217516,-0.252864 0.531329,-0.592387 0.846954,-0.932002 0.315625,-0.339613 0.62793,-0.676154 0.878059,-1.005436 0.125066,-0.164639 0.239918,-0.318775 0.336795,-0.533983 0.04844,-0.107603 0.09464,-0.233294 0.111019,-0.423133 0.01638,-0.189841 -0.02045,-0.488424 -0.225532,-0.74095 -0.400524,-0.493171 -0.842576,-0.440957 -1.086339,-0.428466 -0.243762,0.01249 -0.439355,0.05898 -0.651975,0.112806 -0.42524,0.107639 -0.8921,0.269451 -1.352823,0.43186 -0.460723,0.162407 -0.915887,0.327671 -1.254192,0.433672 -0.03912,0.01226 -0.0527,0.0118 -0.08839,0.02232 -0.01546,-0.02191 -0.02264,-0.02593 -0.03888,-0.04969 -0.18677,-0.273085 -0.424232,-0.661485 -0.667857,-1.049465 -0.243625,-0.38798 -0.489858,-0.775853 -0.743539,-1.102008 -0.126841,-0.163078 -0.248136,-0.31197 -0.434803,-0.465459 -0.09333,-0.07675 -0.200974,-0.160949 -0.387067,-0.234217 -0.09305,-0.03663 -0.216324,-0.06959 -0.357285,-0.08021 z"
           id="path4376"
           style="color:#000000;display:inline;overflow:visible;visibility:visible;opacity:0.05;fill:#000000;fill-opacity:1;fill-rule:nonzero;stroke:none;stroke-width:8.86881733;marker:none;enable-background:accumulate" />
        <path
           d="m 13.276772,43.512398 c -0.470746,0.157643 0.07874,3.548257 -0.219223,3.927033 -0.287693,0.365727 -3.827373,0.736506 -3.814801,1.191951 0.013024,0.471695 3.601706,1.019731 3.890761,1.404398 0.279098,0.371414 -0.441965,3.67048 0.02033,3.799749 0.478794,0.133881 2.142718,-2.917261 2.619321,-3.058301 0.460185,-0.13618 3.553502,1.524101 3.826647,1.148548 0.282889,-0.388951 -2.274431,-2.819658 -2.26893,-3.291491 0.0053,-0.45558 2.637335,-2.724123 2.343849,-3.085496 -0.303957,-0.374267 -3.548725,1.168932 -4.021927,1.018362 -0.456901,-0.145382 -1.921501,-3.206964 -2.376032,-3.054753 z"
           id="path4378"
           style="color:#000000;display:inline;overflow:visible;visibility:visible;opacity:0.15;fill:#000000;fill-opacity:1;fill-rule:nonzero;stroke:none;stroke-width:8.86881733;marker:none;enable-background:accumulate" />
        <path
           d="m 13.274642,42.661206 c 0.454531,-0.152212 1.923343,2.912559 2.380245,3.057942 0.473203,0.15057 3.714954,-1.396067 4.01891,-1.0218 0.293486,0.361373 -2.337901,2.629568 -2.343215,3.085148 -0.0055,0.471833 2.551726,2.906538 2.268835,3.295488 -0.273145,0.375553 -3.368246,-1.287395 -3.828431,-1.151214 -0.476603,0.141039 -2.137901,3.192406 -2.616695,3.058525 -0.462299,-0.129269 0.256211,-3.425224 -0.02289,-3.796639 -0.289055,-0.384666 -3.8730204,-0.933522 -3.8860397,-1.405217 -0.012574,-0.455446 3.5265937,-0.829508 3.8142867,-1.195236 0.297957,-0.378776 -0.255757,-3.769354 0.214988,-3.926997 z"
           id="path4380"
           style="color:#000000;display:inline;overflow:visible;visibility:visible;fill:url(#linearGradient4392);fill-opacity:1;stroke:none;stroke-width:1.99881232;marker:none;enable-background:accumulate" />
        <path
           d="m 13.305444,42.655384 -0.133237,0.127176 c -9.58e-4,0.0029 -0.0048,0.0038 -0.0057,0.0057 -0.267481,0.642477 0.161019,3.453995 -0.109009,3.797254 -0.0113,0.01436 -0.02758,0.03409 -0.04846,0.04846 l 0.109018,0.07268 c 2.184116,0.649333 0.272403,-3.916423 0.218018,-4.045552 -0.01044,-0.0019 -0.02059,-0.0067 -0.03026,-0.0057 z"
           id="path4382"
           style="opacity:0.5;fill:#9d0f06;fill-opacity:1;stroke:none" />
        <path
           d="m 9.9381838,47.706275 c -0.429658,0.0038 -0.678292,0.02423 -0.678292,0.02423 l 0,0.0057 0,0.0969 c 0.2520049,0.459757 3.5912832,0.985783 3.8699202,1.356594 0.279096,0.371414 -0.438066,3.667981 0.02423,3.797244 0.478795,0.133889 2.139691,-2.917348 2.616293,-3.05839 0.457305,-0.135326 3.515197,1.50477 3.821482,1.156742 l -0.0057,-0.0057 c -2.57858,-3.137665 -7.786075,-3.388999 -9.6479139,-3.373322 z"
           id="path4384"
           style="opacity:0.75;fill:url(#linearGradient4394);fill-opacity:1;stroke:none" />
        <path
           d="m 19.649005,22.997727 -0.733203,0.227457 a 0.41134735,0.36781133 0 0 0 -0.02988,0.01336 l -8.125042,3.010406 -5.7159677,-0.61546 a 0.41134735,0.36781133 0 0 0 -0.044914,0 l 0,1.980177 a 0.41134735,0.36781133 0 0 0 0.2094853,-0.05352 c 0.011683,-0.006 0.4651581,-0.10565 1.0025419,-0.12042 0.5373742,-0.01473 1.2021922,0.01001 1.8404737,0.04016 1.152136,0.05437 2.0156568,0.129044 2.2145598,0.14718 l 0.942689,1.806246 -1.8404837,0.78939 a 0.41134735,0.36781133 0 0 0 -0.2094849,0.200698 l -0.7631205,1.752719 -0.7182355,0 a 0.41134735,0.36781133 0 0 0 -0.3740857,0.214073 l -0.2992648,0.61546 -1.9751477,-0.133796 a 0.41134735,0.36781133 0 0 0 -0.029879,0 l 0,1.605557 4.5338664,0.160555 a 0.41134735,0.36781133 0 0 0 0.2543703,-0.06688 l 0.8379511,-0.535183 9.037797,-0.29435 a 0.41134735,0.36781133 0 0 0 0.02988,0 l 2.54376,-0.280975 2.37915,0.628843 a 0.41134735,0.36781133 0 0 0 0.448897,-0.12042 l 0.149633,-0.160555 c 0.02921,-0.0092 0.05133,-0.03065 0.149632,-0.05352 0.135727,-0.0316 0.317192,-0.05754 0.523718,-0.09366 0.413034,-0.07219 0.934022,-0.159219 1.436471,-0.227449 0.982154,-0.133367 1.858784,-0.23614 1.900337,-0.240832 0.0057,0 0.0384,-1.2e-4 0.04491,0 0.308813,0.006 1.249826,0.147968 2.079886,0.29435 0.712326,0.12561 1.15973,0.217284 1.346701,0.254217 0.151289,0.471825 0.32583,1.296948 0.463855,2.14073 0.150169,0.917894 0.26524,1.783768 0.299265,2.047069 a 0.41134735,0.36781133 0 0 0 0.01494,0.06688 c 0.773905,-0.228562 1.654088,-0.398167 2.708362,-0.468289 a 0.41134735,0.36781133 0 0 0 -0.08973,-0.20069 C 35.656647,36.884272 35.024101,35.805095 35.106124,33.4338 l 1.556177,-0.05352 a 0.41134735,0.36781133 0 0 0 0.1646,-0.02672 c 0,0 1.300792,-0.571593 2.753236,-1.190786 1.452435,-0.619193 3.081049,-1.292128 3.636072,-1.485128 0.190084,-0.06611 0.765218,-0.14437 1.45143,-0.187313 0.686211,-0.04298 1.501677,-0.06773 2.319297,-0.09366 0.81762,-0.02586 1.631611,-0.05454 2.304339,-0.107037 0.672738,-0.05241 1.16087,-0.09021 1.556177,-0.307725 a 0.41134735,0.36781133 0 0 0 0.119706,-0.09366 l 0,-1.337957 c -0.01571,-0.0113 -0.04491,-0.02672 -0.04491,-0.02672 a 0.41134735,0.36781133 0 0 0 -0.613488,0.187314 c -0.02298,0.01147 0.0099,-8.57e-4 -0.08973,0.02672 -0.184433,0.05207 -0.511594,0.109853 -1.0175,0.173929 -1.011812,0.128162 -2.769162,0.267386 -5.745893,0.334494 a 0.41134735,0.36781133 0 0 0 -0.149652,0.02672 c 0,0 -1.69968,0.674587 -3.426587,1.3781 -0.863462,0.351747 -1.733274,0.702485 -2.409086,0.990088 -0.337906,0.143796 -0.620795,0.275143 -0.837941,0.374627 -0.108569,0.04975 -0.195724,0.09614 -0.269339,0.133796 -0.01542,0.0077 -0.03189,0.02081 -0.04482,0.02672 l -0.972615,0.04016 1.032468,-1.244304 4.279487,-2.060454 a 0.41134735,0.36781133 0 0 0 0.134674,-0.535183 l -2.783163,-3.358275 6.299529,-0.374627 a 0.41134735,0.36781133 0 0 0 0.134664,-0.02672 l 3.157249,-1.284438 a 0.41134735,0.36781133 0 0 0 0.08973,-0.05352 0.41134735,0.36781133 0 0 0 0.01494,0 0.41134735,0.36781133 0 0 0 0.209486,0.08023 l 2.483898,0.147172 a 0.41134735,0.36781133 0 0 0 0.433938,-0.428147 l -0.01494,-0.08023 -6.509014,0 -0.67335,0.214073 -5.222176,0.214073 -0.568603,-0.428146 -2.902868,0 a 0.41134735,0.36781133 0 0 0 0.02988,0.147171 c 0.0385,0.08135 0.05602,0.140467 0.07479,0.200698 -0.36223,0.114015 -1.994771,0.634367 -3.24702,0.642219 l -1.241953,-0.187314 a 0.41134735,0.36781133 0 0 0 -0.05985,0 c -0.427896,0 -1.569603,-0.206238 -2.693383,-0.454905 -0.520721,-0.115231 -1.036156,-0.232706 -1.511292,-0.347869 l -6.643688,0 z m 2.917837,0.508423 0.628456,0.32111 a 0.41134735,0.36781133 0 0 0 0.119706,0.04016 l 8.49913,1.672475 a 0.41134735,0.36781133 0 0 0 0.209485,-0.01336 l 3.172209,-0.896435 0.942679,0.508423 2.693393,3.197721 -3.501408,1.538655 a 0.41134735,0.36781133 0 0 0 -0.134664,0.09365 l -2.020044,2.140731 -3.651031,-0.227448 a 0.41134735,0.36781133 0 0 0 -0.119706,0 l -4.788246,0.88305 -2.169665,-0.628843 a 0.41134735,0.36781133 0 0 0 -0.134674,-0.01336 l -11.925716,0.387969 c 0.256142,-0.560521 0.64238,-0.9088 1.077353,-1.056991 0.556499,-0.189583 1.077353,-0.160554 1.077353,-0.160554 a 0.41134735,0.36781133 0 0 0 0.433939,-0.441522 l -0.808015,-3.478696 10.399466,-3.866698 z"
           id="path4386"
           style="opacity:0.07000002;fill:url(#linearGradient4396);fill-opacity:1;stroke:none" />
        <rect
           width="45"
           height="31.999998"
           x="5.499999"
           y="23.5"
           id="rect4552"
           style="color:#000000;display:inline;overflow:visible;visibility:visible;opacity:0.225;fill:none;fill-opacity:1;fill-rule:nonzero;stroke:#000000;stroke-width:1.00000072;stroke-linecap:round;stroke-linejoin:miter;stroke-miterlimit:4;stroke-dasharray:none;stroke-dashoffset:0;stroke-opacity:1;marker:none;enable-background:accumulate" />
      </g>
    </g>
    <g
       id="g4405"
       transform="translate(-1.1006474e-6,7.7100647e-5)">
      <path
         id="path157"
         d="m 42.5,20.5 0,10 10,0 -3.5,-3.5 9,-9 3.5,3.5 0,-10 -10,0 3.5,3.5 -9,9 z"
         style="opacity:1;fill:url(#linearGradient159);fill-opacity:1;stroke:none;stroke-width:0.79069769;stroke-linecap:butt;stroke-linejoin:miter;stroke-miterlimit:4;stroke-dasharray:none;stroke-dashoffset:0;stroke-opacity:1;marker:none" />
      <path
         style="opacity:0.5;fill:none;fill-opacity:1;stroke:#555761;stroke-width:1;stroke-linecap:butt;stroke-linejoin:miter;stroke-miterlimit:4;stroke-dasharray:none;stroke-dashoffset:0;stroke-opacity:1;marker:none"
         d="m 42.5,20.5 0,10 10,0 -3.5,-3.5 9,-9 3.5,3.5 0,-10 -10,0 3.5,3.5 -9,9 z"
         id="path163" />
    </g>
  </g>
</svg>
