<?xml version="1.0" encoding="UTF-8" standalone="no"?>
<svg
   xmlns:dc="http://purl.org/dc/elements/1.1/"
   xmlns:cc="http://creativecommons.org/ns#"
   xmlns:rdf="http://www.w3.org/1999/02/22-rdf-syntax-ns#"
   xmlns:svg="http://www.w3.org/2000/svg"
   xmlns="http://www.w3.org/2000/svg"
   xmlns:xlink="http://www.w3.org/1999/xlink"
   version="1.0"
   width="64"
   height="64"
   id="svg2453">
  <metadata
     id="metadata35">
    <rdf:RDF>
      <cc:Work
         rdf:about="">
        <dc:format>image/svg+xml</dc:format>
        <dc:type
           rdf:resource="http://purl.org/dc/dcmitype/StillImage" />
        <dc:title />
      </cc:Work>
    </rdf:RDF>
  </metadata>
  <defs
     id="defs2455">
    <linearGradient
       id="linearGradient4512">
      <stop
         id="stop4514"
         offset="0"
         style="stop-color:#68b723;stop-opacity:1" />
      <stop
         id="stop4516"
         offset="1"
         style="stop-color:#d1ff82;stop-opacity:1" />
    </linearGradient>
    <linearGradient
       id="linearGradient4504">
      <stop
         id="stop4506"
         offset="0"
         style="stop-color:#abacae;stop-opacity:1" />
      <stop
         id="stop4508"
         offset="1"
         style="stop-color:#7e8087;stop-opacity:1" />
    </linearGradient>
    <linearGradient
       id="linearGradient4487">
      <stop
         id="stop4489"
         style="stop-color:#fafafa;stop-opacity:1"
         offset="0" />
      <stop
         id="stop4491"
         style="stop-color:#8cd5ff;stop-opacity:1"
         offset="1" />
    </linearGradient>
    <linearGradient
       id="linearGradient3104-6">
      <stop
         id="stop3106-3"
         style="stop-color:#000000;stop-opacity:0.31782946"
         offset="0" />
      <stop
         id="stop3108-9"
         style="stop-color:#000000;stop-opacity:0.24031007"
         offset="1" />
    </linearGradient>
    <linearGradient
       id="linearGradient3977-4">
      <stop
         id="stop3979-7"
         style="stop-color:#ffffff;stop-opacity:1"
         offset="0" />
      <stop
         id="stop3981-6"
         style="stop-color:#ffffff;stop-opacity:0.23529412"
         offset="0.01214366" />
      <stop
         id="stop3983-5"
         style="stop-color:#ffffff;stop-opacity:0.15686275"
         offset="0.98781353" />
      <stop
         id="stop3985-6"
         style="stop-color:#ffffff;stop-opacity:0.39215687"
         offset="1" />
    </linearGradient>
    <linearGradient
       id="linearGradient3600-9">
      <stop
         id="stop3602-3"
         style="stop-color:#f4f4f4;stop-opacity:1"
         offset="0" />
      <stop
         id="stop3604-7"
         style="stop-color:#dbdbdb;stop-opacity:1"
         offset="1" />
    </linearGradient>
    <linearGradient
       id="linearGradient5060-2">
      <stop
         id="stop5062-3"
         style="stop-color:#000000;stop-opacity:1"
         offset="0" />
      <stop
         id="stop5064-1"
         style="stop-color:#000000;stop-opacity:0"
         offset="1" />
    </linearGradient>
    <linearGradient
       id="linearGradient5048-8">
      <stop
         id="stop5050-4"
         style="stop-color:#000000;stop-opacity:0"
         offset="0" />
      <stop
         id="stop5056-5"
         style="stop-color:#000000;stop-opacity:1"
         offset="0.5" />
      <stop
         id="stop5052-1"
         style="stop-color:#000000;stop-opacity:0"
         offset="1" />
    </linearGradient>
    <linearGradient
       x1="-51.786404"
       y1="50.786446"
       x2="-51.786404"
       y2="2.9062471"
       id="linearGradient3163"
       xlink:href="#linearGradient3104-6"
       gradientUnits="userSpaceOnUse"
       gradientTransform="matrix(1.3612077,0,0,0.95572049,91.691477,7.7856436)" />
    <linearGradient
       x1="23.99999"
       y1="5.8641062"
       x2="23.99999"
       y2="42.100208"
       id="linearGradient3166"
       xlink:href="#linearGradient3977-4"
       gradientUnits="userSpaceOnUse"
       gradientTransform="matrix(1.5405406,0,0,1.216213,-4.9729707,5.8108651)" />
    <linearGradient
       x1="25.132275"
       y1="0.98520643"
       x2="25.132275"
       y2="47.013336"
       id="linearGradient3169"
       xlink:href="#linearGradient3600-9"
       gradientUnits="userSpaceOnUse"
       gradientTransform="matrix(1.6571391,0,0,0.99949772,-7.7713459,9.4785876)" />
    <radialGradient
       cx="605.71429"
       cy="486.64789"
       r="117.14286"
       fx="605.71429"
       fy="486.64789"
       id="radialGradient3172"
       xlink:href="#linearGradient5060-2"
       gradientUnits="userSpaceOnUse"
       gradientTransform="matrix(0.03212956,0,0,0.02058823,40.136784,48.451416)" />
    <radialGradient
       cx="605.71429"
       cy="486.64789"
       r="117.14286"
       fx="605.71429"
       fy="486.64789"
       id="radialGradient3175"
       xlink:href="#linearGradient5060-2"
       gradientUnits="userSpaceOnUse"
       gradientTransform="matrix(-0.03212956,0,0,0.02058823,23.863217,48.451416)" />
    <linearGradient
       x1="302.85715"
       y1="366.64789"
       x2="302.85715"
       y2="609.50507"
       id="linearGradient3178"
       xlink:href="#linearGradient5048-8"
       gradientUnits="userSpaceOnUse"
       gradientTransform="matrix(0.11390532,0,0,0.02058823,-9.1686406,48.451416)" />
    <linearGradient
       x1="164.28023"
       y1="241.65149"
       x2="164.28023"
       y2="156.78416"
       id="linearGradient3077-9-7"
       xlink:href="#linearGradient4487"
       gradientUnits="userSpaceOnUse"
       gradientTransform="matrix(0.63433879,0,0,0.49146613,-74.223948,-62.829154)" />
    <linearGradient
       y2="2.9062471"
       x2="-51.786404"
       y1="50.786446"
       x1="-51.786404"
       gradientTransform="matrix(0.89977878,0,0,0.6303671,61.456896,25.050229)"
       gradientUnits="userSpaceOnUse"
       id="linearGradient4195"
       xlink:href="#linearGradient3104-6" />
    <linearGradient
       y2="42.100208"
       x2="23.99999"
       y1="5.8641062"
       x1="23.99999"
       gradientTransform="matrix(1.0000001,0,0,0.78378175,-2.0000631,24.041054)"
       gradientUnits="userSpaceOnUse"
       id="linearGradient4199"
       xlink:href="#linearGradient3977-4" />
    <linearGradient
       y2="47.013336"
       x2="25.132275"
       y1="0.98520643"
       x1="25.132275"
       gradientTransform="matrix(1.0857118,0,0,0.65184558,-4.0571522,26.355764)"
       gradientUnits="userSpaceOnUse"
       id="linearGradient4203"
       xlink:href="#linearGradient3600-9" />
    <linearGradient
       gradientUnits="userSpaceOnUse"
       y2="55.952728"
       x2="29.9375"
       y1="32.890228"
       x1="29.9375"
       id="linearGradient4510"
       xlink:href="#linearGradient4504" />
    <linearGradient
       gradientUnits="userSpaceOnUse"
       y2="55.99979"
       x2="31.875"
       y1="43.87479"
       x1="31.875"
       id="linearGradient4518"
       xlink:href="#linearGradient4512" />
    <linearGradient
       y2="156.78416"
       x2="164.28023"
       y1="241.65149"
       x1="164.28023"
       gradientTransform="matrix(0.39646175,0,0,0.30716634,-44.514968,-18.268222)"
       gradientUnits="userSpaceOnUse"
       id="linearGradient4554"
       xlink:href="#linearGradient4487" />
    <linearGradient
       gradientTransform="matrix(0.62500001,0,0,0.61908619,1.875,21.331174)"
       y2="55.952728"
       x2="29.9375"
       y1="32.890228"
       x1="29.9375"
       gradientUnits="userSpaceOnUse"
       id="linearGradient4556"
       xlink:href="#linearGradient4504" />
    <linearGradient
       gradientTransform="matrix(0.62500001,0,0,0.60603943,1.875,22.061793)"
       y2="55.99979"
       x2="31.875"
       y1="43.87479"
       x1="31.875"
       gradientUnits="userSpaceOnUse"
       id="linearGradient4558"
       xlink:href="#linearGradient4512" />
    <linearGradient
       y2="46.5728"
       x2="34.432362"
       y1="12.693524"
       x1="34.432362"
       gradientTransform="matrix(-0.561064,0,0,-0.56106405,70.318758,37.62188)"
       gradientUnits="userSpaceOnUse"
       id="linearGradient159"
       xlink:href="#linearGradient4220-7" />
    <linearGradient
       id="linearGradient4220-7">
      <stop
         id="stop4224-0"
         style="stop-color:#f9c440;stop-opacity:1"
         offset="0" />
      <stop
         id="stop4222-7"
         style="stop-color:#fff394;stop-opacity:1"
         offset="1" />
    </linearGradient>
  </defs>
  <g
     id="g4302">
    <g
       id="g4205">
      <rect
         width="55"
         height="5"
         x="4.5"
         y="56"
         id="rect2879-0"
         style="opacity:0.15;fill:url(#linearGradient3178);fill-opacity:1;fill-rule:nonzero;stroke:none;stroke-width:1;marker:none;visibility:visible;display:inline;overflow:visible" />
      <path
         d="m 4.5,56.000216 c 0,0 0,4.9997 0,4.9997 -1.654593,0.01 -4,-1.1202 -4,-2.5002 0,-1.38 1.8464008,-2.4995 4,-2.4995 z"
         id="path2881-4"
         style="opacity:0.15;fill:url(#radialGradient3175);fill-opacity:1;fill-rule:nonzero;stroke:none;stroke-width:1;marker:none;visibility:visible;display:inline;overflow:visible" />
      <path
         d="m 59.5,56.000216 c 0,0 0,4.9997 0,4.9997 1.654592,0.01 4,-1.1202 4,-2.5002 0,-1.38 -1.846401,-2.4995 -4,-2.4995 z"
         id="path2883-6"
         style="opacity:0.15;fill:url(#radialGradient3172);fill-opacity:1;fill-rule:nonzero;stroke:none;stroke-width:1;marker:none;visibility:visible;display:inline;overflow:visible" />
    </g>
    <g
       id="g4580"
       style="opacity:0.5">
      <path
         d="m 2.9999928,12.000016 c 13.2907442,0 57.9999312,0.0032 57.9999312,0.0032 l 6.9e-5,45.996828 c 0,0 -38.666666,0 -58.0000002,0 0,-15.333349 0,-30.666461 0,-45.999746 z"
         id="path4160-6"
         style="display:inline;fill:url(#linearGradient3169);fill-opacity:1;stroke:none" />
      <path
         d="m 60.499993,57.500016 -57.0000004,0 0,-45 57.0000004,0 z"
         id="rect6741-1-8"
         style="fill:none;stroke:url(#linearGradient3166);stroke-width:1;stroke-linecap:round;stroke-linejoin:miter;stroke-miterlimit:4;stroke-dasharray:none;stroke-dashoffset:0;stroke-opacity:1" />
      <path
         d="m 2.499962,11.500038 c 13.5199,0 59.000015,0.0032 59.000015,0.0032 l 6.1e-5,46.996892 c 0,0 -39.333383,0 -59.0000761,0 0,-15.66674 0,-31.333322 0,-46.999879 z"
         id="path4160-6-1"
         style="display:inline;fill:none;stroke:url(#linearGradient3163);stroke-width:0.9999218;stroke-linecap:butt;stroke-linejoin:round;stroke-miterlimit:4;stroke-dasharray:none;stroke-dashoffset:0;stroke-opacity:1" />
      <g
         id="g4523"
         style="">
        <rect
           style="color:#000000;display:inline;overflow:visible;visibility:visible;fill:url(#linearGradient3077-9-7);fill-opacity:1;fill-rule:nonzero;stroke:none;stroke-width:1.00000072;stroke-linecap:round;stroke-linejoin:miter;stroke-miterlimit:4;stroke-dasharray:none;stroke-dashoffset:0;stroke-opacity:1;marker:none;enable-background:accumulate"
           id="rect3180-1"
           y="14"
           x="5"
           height="42"
           width="54" />
        <path
           id="path3338"
           d="m 43.693847,30.157213 c -0.188144,-0.01002 -0.371483,0.02291 -0.698729,0.09668 -0.654493,0.147549 -1.647646,0.712137 -2.291749,1.204101 -0.644104,0.491962 -0.988838,1.32008 -1.549072,1.66333 -0.560232,0.343249 -1.138196,0.312247 -1.606201,0.457032 -0.468004,0.144782 -0.540278,0.110801 -1.204102,0.402099 -0.663824,0.291302 -1.803228,1.082865 -2.696045,1.491944 -0.892816,0.40908 -1.747736,0.517895 -2.636718,0.973388 -0.888981,0.455493 -1.909122,1.423256 -2.638916,1.777588 -0.729794,0.354333 -1.111347,0.519058 -1.604005,0.516358 -0.492657,-0.0027 -0.228377,0.03311 -1.204101,-0.399903 -0.975724,-0.433017 -3.359232,-1.867767 -4.473633,-2.524658 -1.114402,-0.656891 -1.638257,-1.143373 -2.236816,-1.375488 -0.59856,-0.232083 -0.669328,-0.290912 -1.204101,-0.230713 -0.534775,0.0602 -1.279911,0.504169 -1.834718,0.804199 -0.554803,0.300031 -0.790153,0.935041 -1.491943,0.975586 -0.701791,0.04055 -1.684209,-1.054631 -2.179688,-1.089844 -0.495477,-0.03521 -0.253308,0.03315 -0.51416,0.171387 -0.260852,0.138231 -0.458723,0.522189 -0.975585,0.744873 -0.516862,0.222683 -1.2558106,0.12911 -2.122559,0.344971 C 7.664261,36.376004 6.3809757,36.801139 5.4921875,37.192859 5.3100196,37.27315 5.153405,37.365178 5,37.458728 L 5,56 59,56 59,37.665271 c -0.289443,-0.2215 -0.579765,-0.44773 -1.208496,-0.874512 -1.25485,-0.85179 -3.933534,-2.758563 -5.161377,-3.326661 -1.227841,-0.568056 -1.420324,-0.634517 -1.891846,-0.573486 -0.471521,0.06103 -0.515648,0.381829 -0.744872,0.459229 -0.229225,0.0774 -0.0081,0.215969 -0.573487,0.05713 -0.56543,-0.158841 -1.518252,-1.25927 -2.353272,-1.777588 -0.83502,-0.518319 -1.929087,-1.136305 -2.636718,-1.318359 -0.353816,-0.09104 -0.54794,-0.143792 -0.736085,-0.153811 z"
           style="fill:url(#linearGradient4510);fill-rule:evenodd;stroke:none;stroke-width:1px;stroke-linecap:butt;stroke-linejoin:miter;stroke-opacity:1;fill-opacity:1" />
        <path
           style="fill:#fafafa;fill-rule:evenodd;stroke:none;stroke-width:1px;stroke-linecap:butt;stroke-linejoin:miter;stroke-opacity:1"
           d="m 43.5625,30.78125 c -0.560219,-0.0067 -0.436138,0.138523 -0.8125,0.28125 -0.376362,0.142727 -1.03077,0.290543 -1.4375,0.59375 -0.40673,0.303207 -0.648503,0.72852 -0.9375,1.15625 -0.288997,0.42773 -0.325955,1.042262 -0.78125,1.40625 -0.455295,0.363988 -1.287069,0.215268 -1.8125,0.53125 -0.525431,0.315982 -1.28125,1.1875 -1.25,1.28125 0.03125,0.09375 -0.34375,2.40625 -0.75,2.6875 C 35.375,39 34.289059,40.35118 33.875,41.09375 c -0.414059,0.74257 -0.568896,1.424921 -0.6875,1.9375 -0.118604,0.512579 -0.125,1.09375 -0.125,1.09375 0,0 0.298031,-1.106659 0.53125,-1.59375 0.233219,-0.487091 0.497055,-0.855488 0.84375,-1.3125 0.346695,-0.457012 1.15625,-1.1875 1.25,-1.40625 0.09375,-0.21875 0.936904,-0.758213 1.21875,-1.28125 0.281846,-0.523037 0.03811,-1.279287 0.40625,-1.75 0.368136,-0.470713 1.077581,-0.568276 1.59375,-0.8125 0.516169,-0.244224 1.00563,-0.624646 1.5,-0.65625 0.49437,-0.0316 1.071105,-0.16825 1.28125,0.375 0.210145,0.54325 -0.96875,1.75 -1.125,1.84375 -0.15625,0.09375 -0.870035,0.52044 -1.15625,0.96875 -0.286215,0.44831 -0.4375,1.5 -0.4375,1.625 0,0.125 0.125,1.25 0.125,1.25 0,0 -0.01071,-1.028547 0.1875,-1.5 0.198206,-0.471453 0.78125,-1.09375 0.96875,-1.21875 0.1875,-0.125 1.21875,-0.8125 1.40625,-1 0.1875,-0.1875 1.3125,-0.90625 1.625,-1.125 0.3125,-0.21875 0.71875,-0.6875 1.15625,-0.9375 0.4375,-0.25 0.78125,-0.9375 0.9375,-1.125 0.15625,-0.1875 0.34375,-0.65625 0.90625,-0.5 C 46.84375,34.125 47.75,34.75 48.1875,35.09375 48.625,35.4375 49.375,36 49.5,36.4375 c 0.125,0.4375 0.1875,0.65625 0.375,1.25 0.1875,0.59375 0.375,1.4375 0.625,1.75 0.25,0.3125 0.9375,0.8125 1.09375,0.90625 0.15625,0.09375 1.5,0.78125 1.5,0.78125 0,0 -1.155042,-0.96775 -1.5625,-1.53125 C 51.123792,39.03025 50.8125,38.1875 50.65625,37.8125 50.5,37.4375 50.375,36.5625 50.21875,36.34375 50.0625,36.125 49.75,35.625 49.65625,35.34375 49.5625,35.0625 49.375,34.28125 49.09375,34 48.8125,33.71875 48.0625,33.21875 47.75,32.9375 c -0.3125,-0.28125 -1.53125,-1.15625 -1.84375,-1.28125 -0.3125,-0.125 -1.783531,-0.868259 -2.34375,-0.875 z"
           id="path4271" />
        <path
           style="fill:#fafafa;fill-rule:evenodd;stroke:none;stroke-width:1px;stroke-linecap:butt;stroke-linejoin:miter;stroke-opacity:1;fill-opacity:1"
           d="m 51.1875,33.25 c -0.247087,-0.0433 -0.354966,0.04762 -0.5,0.15625 -0.145034,0.108625 -0.246114,0.265518 -0.3125,0.46875 -0.06639,0.203232 -0.115005,0.359066 -0.03125,0.71875 0.08375,0.359684 0.5625,1.21875 0.71875,1.3125 0.15625,0.09375 1.46875,1.09375 1.75,1.3125 0.28125,0.21875 1.5625,1.3125 1.84375,1.5 C 54.9375,38.90625 55.875,39.75 56,40.0625 c 0.125,0.3125 0.53125,1 0.75,1.59375 0.21875,0.59375 0.625,1.3125 0.71875,1.71875 0.09375,0.40625 0.28125,0.5625 0.25,0.40625 -0.03125,-0.15625 -0.40625,-2.25 -0.375,-2.40625 0.03125,-0.15625 -0.03125,-1.21875 -0.15625,-1.46875 -0.125,-0.25 -0.5625,-1.125 -0.65625,-1.5 -0.09375,-0.375 -0.5,-1.25 -0.5,-1.40625 0,-0.15625 -0.28125,-0.53125 -0.46875,-0.78125 -0.1875,-0.25 -0.784312,-0.658339 -1.125,-0.90625 C 54.096812,35.064589 54.03125,35.125 53.53125,34.71875 53.03125,34.3125 52.125,34 51.96875,33.84375 51.8125,33.6875 51.434587,33.293303 51.1875,33.25 Z"
           id="path4273" />
        <path
           style="fill:#fafafa;fill-rule:evenodd;stroke:none;stroke-width:1px;stroke-linecap:butt;stroke-linejoin:miter;stroke-opacity:1"
           d="m 17.75,35.125 c -0.596561,0.03974 -1.5625,0.6875 -1.75,0.9375 -0.1875,0.25 -0.832952,0.864915 -1.3125,1.375 -0.479548,0.510085 -1.007032,1.186717 -1.5625,1.6875 -0.555468,0.500783 -1.206234,0.635878 -1.75,1.3125 -0.543766,0.676622 -1.043822,2.141547 -1.25,2.75 C 9.9188219,43.795953 9.9375,44 9.9375,44 c 0,0 0.982096,-2.291389 1.5,-2.875 0.517904,-0.583611 0.75,-0.6875 1.1875,-0.8125 0.4375,-0.125 2,-1.375 2.3125,-1.625 0.3125,-0.25 1.25,-0.8125 1.5625,-0.9375 0.3125,-0.125 0.593838,-0.129567 1.0625,-0.1875 0.468662,-0.05793 1.197033,-0.116337 1.75,-0.125 0.552967,-0.0087 1.072154,-0.0686 1.5625,0.0625 0.490346,0.131097 1.3125,0.6875 1.3125,0.6875 0,0 -0.694346,-1.011038 -1.1875,-1.4375 -0.493154,-0.426462 -1.202921,-0.796736 -1.75,-1.0625 -0.547079,-0.265764 -0.903439,-0.602241 -1.5,-0.5625 z"
           id="path4275" />
        <path
           style="color:#000000;clip-rule:nonzero;display:inline;overflow:visible;visibility:visible;opacity:0.8;isolation:auto;mix-blend-mode:normal;color-interpolation:sRGB;color-interpolation-filters:linearRGB;solid-color:#000000;solid-opacity:1;fill:#206b00;fill-opacity:1;fill-rule:nonzero;stroke:none;stroke-width:0.9999218;stroke-linecap:butt;stroke-linejoin:round;stroke-miterlimit:4;stroke-dasharray:none;stroke-dashoffset:0;stroke-opacity:1;marker:none;color-rendering:auto;image-rendering:auto;shape-rendering:auto;text-rendering:auto;enable-background:accumulate"
           d="m 5.0000005,44 c 0,0 2.0673038,-2 3.375,-2 3.2151895,3.362765 4.1123695,0.145883 6.7499995,0 7.578756,4.633804 15.72072,-0.624238 20.25,-1 3.21519,3.362765 4.11237,0.145883 6.75,0 2.33795,0.01497 9.231424,1.950578 10.125,2 3.108934,-1.452307 3.495667,-2.823634 6.75,0 l 0,13 -53.9999995,0 z"
           id="rect4520" />
        <path
           style="fill:#fafafa;fill-rule:evenodd;stroke:none;stroke-width:1px;stroke-linecap:butt;stroke-linejoin:miter;stroke-opacity:1"
           d="m 12,35.5 c -0.398827,0.01945 -0.98009,0.921716 -1.84375,1.15625 C 9.29259,36.890784 9.03125,39 9.03125,39 c 0,0 1.730714,-1.60788 2.28125,-1.9375 0.550536,-0.32962 1.0625,-0.125 1.375,-0.125 l 0.75,0 c 0,0 -0.383387,-0.570887 -0.625,-0.8125 C 12.570887,35.883387 12.398827,35.480551 12,35.5 Z"
           id="path4277" />
        <path
           style="color:#000000;clip-rule:nonzero;display:inline;overflow:visible;visibility:visible;opacity:1;isolation:auto;mix-blend-mode:normal;color-interpolation:sRGB;color-interpolation-filters:linearRGB;solid-color:#000000;solid-opacity:1;fill:url(#linearGradient4518);fill-opacity:1;fill-rule:nonzero;stroke:none;stroke-width:0.9999218;stroke-linecap:butt;stroke-linejoin:round;stroke-miterlimit:4;stroke-dasharray:none;stroke-dashoffset:0;stroke-opacity:1;marker:none;color-rendering:auto;image-rendering:auto;shape-rendering:auto;text-rendering:auto;enable-background:accumulate"
           d="m 5.0000005,46 c 0,0 6.1081665,0 13.4999995,0 7.391833,0 20.436641,-2.034014 27,-2 6.563359,0.03401 13.5,1 13.5,1 l 0,11 -53.9999995,0 z"
           id="rect4254" />
        <rect
           style="color:#000000;display:inline;overflow:visible;visibility:visible;opacity:0.225;fill:none;fill-opacity:1;fill-rule:nonzero;stroke:#000000;stroke-width:1.00000072;stroke-linecap:round;stroke-linejoin:miter;stroke-miterlimit:4;stroke-dasharray:none;stroke-dashoffset:0;stroke-opacity:1;marker:none;enable-background:accumulate"
           id="rect3180"
           y="14.5"
           x="5.5000005"
           height="41"
           width="53" />
      </g>
    </g>
    <g
       id="g4210">
      <path
         style="display:inline;fill:url(#linearGradient4203);fill-opacity:1;stroke:none"
         id="path4201"
         d="M 2.9999317,19.99895 C 11.707659,19.99895 52.999977,20 52.999977,20 l 4.5e-5,38 -50.0000903,1.83e-4 0,-38.001024 z" />
      <path
         style="display:inline;opacity:0.6;fill:none;stroke:url(#linearGradient4195);stroke-width:0.9999218;stroke-linecap:butt;stroke-linejoin:round;stroke-miterlimit:4;stroke-dasharray:none;stroke-dashoffset:0;stroke-opacity:1"
         id="path4193"
         d="m 2.4999621,19.4989 c 8.9368579,0 50.9998979,0.0015 50.9998979,0.0015 l 4.1e-5,38.999106 -50.999939,6.53e-4 0,-39.001076 z" />
      <path
         style="fill:none;stroke:url(#linearGradient4199);stroke-width:0.99999982;stroke-linecap:round;stroke-linejoin:miter;stroke-miterlimit:4;stroke-dasharray:none;stroke-dashoffset:0;stroke-opacity:1"
         id="path4197"
         d="m 52.5,57.5 -49.0000692,0 0,-37 L 52.5,20.5 Z" />
    </g>
    <rect
       width="46"
       height="33"
       x="5"
       y="23"
       id="rect4536"
       style="color:#000000;display:inline;overflow:visible;visibility:visible;fill:url(#linearGradient4554);fill-opacity:1;fill-rule:nonzero;stroke:none;stroke-width:1.00000072;stroke-linecap:round;stroke-linejoin:miter;stroke-miterlimit:4;stroke-dasharray:none;stroke-dashoffset:0;stroke-opacity:1;marker:none;enable-background:accumulate" />
    <g
       id="g4293"
       transform="matrix(1.3529412,0,0,1.3749997,-1.7647065,-20.99999)">
      <path
         id="path4538"
         d="m 29.183655,40.001088 c -0.11759,-0.0062 -0.232177,0.01418 -0.436706,0.05986 -0.409058,0.09135 -1.029779,0.440874 -1.432343,0.745442 -0.402565,0.304567 -0.618024,0.817243 -0.96817,1.029745 -0.350145,0.212501 -0.711372,0.193307 -1.003876,0.282942 -0.292502,0.08963 -0.337673,0.0686 -0.752563,0.248934 -0.41489,0.180341 -1.127018,0.670386 -1.685029,0.923641 -0.55801,0.253257 -1.092335,0.320622 -1.647948,0.602612 -0.555613,0.281989 -1.193202,0.881118 -1.649323,1.10048 -0.456121,0.219363 -0.694592,0.321342 -1.002503,0.31967 -0.307911,-0.0017 -0.142736,0.0205 -0.752563,-0.247574 -0.609828,-0.268075 -2.09952,-1.156309 -2.796021,-1.562981 -0.696501,-0.406672 -1.02391,-0.707847 -1.39801,-0.851546 -0.3741,-0.143679 -0.41833,-0.180099 -0.752563,-0.142831 -0.334234,0.03727 -0.799944,0.312124 -1.146699,0.497869 -0.346752,0.185745 -0.493845,0.57887 -0.932464,0.603971 -0.438619,0.02511 -1.0526307,-0.652907 -1.3623051,-0.674707 -0.3096732,-0.0218 -0.1583175,0.02052 -0.32135,0.106103 -0.1630325,0.08558 -0.2867019,0.32328 -0.6097407,0.461141 -0.3230387,0.137857 -0.7848816,0.07993 -1.3265994,0.213564 -0.5417156,0.133636 -1.3437689,0.396832 -1.8992616,0.63934 -0.1138549,0.04971 -0.211739,0.106681 -0.3076171,0.164596 l 0,11.478646 33.9999999,0 0,-11.350778 c -0.180902,-0.137128 -0.612353,-0.277183 -1.005309,-0.541398 -0.784282,-0.527332 -2.458459,-1.707788 -3.225861,-2.05949 -0.767401,-0.351676 -0.887703,-0.392821 -1.182404,-0.355037 -0.2947,0.03778 -0.32228,0.236385 -0.465545,0.284302 -0.143266,0.04792 -0.0051,0.133703 -0.358429,0.03537 -0.353394,-0.09834 -0.948908,-0.779596 -1.470795,-1.10048 -0.521888,-0.320884 -1.20568,-0.703471 -1.647949,-0.816178 -0.221135,-0.05636 -0.342463,-0.08902 -0.460053,-0.09522 z"
         style="fill:url(#linearGradient4556);fill-opacity:1;fill-rule:evenodd;stroke:none;stroke-width:1px;stroke-linecap:butt;stroke-linejoin:miter;stroke-opacity:1" />
      <path
         style="fill:#fafafa;fill-rule:evenodd;stroke:none;stroke-width:1px;stroke-linecap:butt;stroke-linejoin:miter;stroke-opacity:1"
         d="m 29.101563,40.660156 c -0.350137,-0.0042 -0.272586,0.08658 -0.507813,0.175781 -0.235226,0.0892 -0.644231,0.18159 -0.898437,0.371094 -0.254206,0.189504 -0.405314,0.455325 -0.585938,0.722656 -0.180623,0.267331 -0.203721,0.651414 -0.488281,0.878906 -0.284559,0.227493 -0.804418,0.134543 -1.132812,0.332032 -0.328395,0.197488 -0.800782,0.742187 -0.78125,0.800781 0.01953,0.05859 -0.214844,1.503906 -0.46875,1.679688 -0.253907,0.175781 -0.93262,1.020268 -1.191407,1.484375 -0.258787,0.464106 -0.35556,0.890575 -0.429687,1.210937 C 22.54306,48.636768 22.539063,49 22.539063,49 c 0,0 0.186269,-0.691662 0.332031,-0.996094 0.145762,-0.304432 0.310659,-0.53468 0.527344,-0.820312 0.216684,-0.285633 0.722656,-0.742188 0.78125,-0.878907 0.05859,-0.136718 0.585565,-0.473883 0.761719,-0.800781 0.176153,-0.326898 0.02382,-0.799554 0.253906,-1.09375 0.230085,-0.294196 0.673488,-0.355173 0.996094,-0.507813 0.322605,-0.15264 0.628518,-0.390403 0.9375,-0.410156 0.308981,-0.01975 0.66944,-0.105156 0.800781,0.234375 0.131341,0.339531 -0.605469,1.09375 -0.703125,1.152344 -0.09766,0.05859 -0.543772,0.325275 -0.722656,0.605469 -0.178885,0.280194 -0.273438,0.9375 -0.273438,1.015625 0,0.07813 0.07813,0.78125 0.07813,0.78125 0,0 -0.0067,-0.642842 0.117188,-0.9375 0.123878,-0.294658 0.488281,-0.683594 0.605468,-0.761719 0.117188,-0.07813 0.761719,-0.507812 0.878907,-0.625 0.117187,-0.117187 0.820312,-0.566406 1.015625,-0.703125 0.195312,-0.136719 0.449218,-0.429688 0.722656,-0.585938 0.273437,-0.15625 0.488281,-0.585937 0.585937,-0.703125 0.09766,-0.117187 0.214844,-0.410156 0.566407,-0.3125 0.351562,0.09766 0.917968,0.488282 1.191406,0.703125 0.273437,0.214844 0.742187,0.566407 0.820312,0.839844 0.07813,0.273438 0.117188,0.410157 0.234375,0.78125 0.117188,0.371094 0.234376,0.898438 0.390626,1.09375 0.15625,0.195313 0.585937,0.507813 0.683593,0.566407 0.09766,0.05859 0.9375,0.488281 0.9375,0.488281 0,0 -0.721901,-0.604844 -0.976562,-0.957031 -0.254661,-0.352188 -0.449219,-0.878907 -0.546875,-1.113282 -0.09766,-0.234375 -0.175781,-0.78125 -0.273438,-0.917969 C 33.164063,44 32.96875,43.6875 32.910157,43.511718 32.851563,43.335937 32.734375,42.847656 32.558594,42.671875 32.382813,42.496093 31.914063,42.183593 31.71875,42.007812 31.523438,41.832031 30.761719,41.285156 30.566407,41.207031 30.371094,41.128906 29.4517,40.664369 29.101563,40.660156 Z"
         id="path4540" />
      <path
         style="fill:#fafafa;fill-opacity:1;fill-rule:evenodd;stroke:none;stroke-width:1px;stroke-linecap:butt;stroke-linejoin:miter;stroke-opacity:1"
         d="m 33.867188,42.203125 c -0.154429,-0.02706 -0.221854,0.02976 -0.3125,0.09766 -0.09065,0.06789 -0.153821,0.165949 -0.195312,0.292969 -0.04149,0.12702 -0.07188,0.224416 -0.01953,0.449218 0.05234,0.224803 0.351563,0.761719 0.449219,0.820313 0.09766,0.05859 0.917969,0.683594 1.09375,0.820313 0.175781,0.136718 0.976563,0.820312 1.152344,0.9375 0.175781,0.117187 0.761719,0.644531 0.839844,0.839843 0.07813,0.195313 0.332031,0.625 0.46875,0.996094 0.136718,0.371094 0.390625,0.820313 0.449218,1.074219 0.05859,0.253906 0.175782,0.351562 0.15625,0.253906 -0.01953,-0.09766 -0.253906,-1.40625 -0.234375,-1.503906 0.01953,-0.09766 -0.01953,-0.761719 -0.09766,-0.917969 -0.07813,-0.15625 -0.351562,-0.703125 -0.410156,-0.9375 -0.05859,-0.234375 -0.3125,-0.78125 -0.3125,-0.878906 0,-0.09766 -0.175781,-0.332032 -0.292969,-0.488282 -0.117187,-0.15625 -0.490195,-0.411461 -0.703125,-0.566406 -0.21293,-0.154944 -0.253906,-0.117187 -0.566406,-0.371094 -0.3125,-0.253906 -0.878906,-0.449218 -0.976563,-0.546875 -0.09766,-0.09766 -0.333852,-0.344029 -0.488281,-0.371093 z"
         id="path4542" />
      <path
         style="fill:#fafafa;fill-rule:evenodd;stroke:none;stroke-width:1px;stroke-linecap:butt;stroke-linejoin:miter;stroke-opacity:1"
         d="m 12.96875,43.375 c -0.37285,0.02484 -0.976562,0.429687 -1.09375,0.585937 -0.117187,0.15625 -0.520595,0.540572 -0.820312,0.859375 -0.299718,0.318803 -0.629395,0.741698 -0.976563,1.054688 -0.3471674,0.312989 -0.7538961,0.397424 -1.0937499,0.820312 -0.3398537,0.422889 -0.6523887,1.338467 -0.78125,1.71875 -0.1288613,0.380283 -0.1171875,0.507813 -0.1171875,0.507813 0,0 0.61381,-1.432118 0.9375,-1.796875 0.32369,-0.364757 0.46875,-0.429688 0.7421875,-0.507813 0.2734379,-0.07813 1.2499999,-0.859375 1.4453129,-1.015625 0.195312,-0.15625 0.78125,-0.507812 0.976562,-0.585937 0.195313,-0.07813 0.371149,-0.08098 0.664063,-0.117188 0.292913,-0.03621 0.748145,-0.07271 1.09375,-0.07813 0.345604,-0.0054 0.670096,-0.04288 0.976562,0.03906 0.306466,0.08194 0.820313,0.429687 0.820313,0.429687 0,0 -0.433967,-0.631898 -0.742188,-0.898437 -0.308221,-0.266539 -0.751825,-0.49796 -1.09375,-0.664063 -0.341924,-0.166102 -0.564649,-0.3764 -0.9375,-0.351562 z"
         id="path4544" />
      <path
         style="color:#000000;clip-rule:nonzero;display:inline;overflow:visible;visibility:visible;opacity:0.8;isolation:auto;mix-blend-mode:normal;color-interpolation:sRGB;color-interpolation-filters:linearRGB;solid-color:#000000;solid-opacity:1;fill:#206b00;fill-opacity:1;fill-rule:nonzero;stroke:none;stroke-width:0.9999218;stroke-linecap:butt;stroke-linejoin:round;stroke-miterlimit:4;stroke-dasharray:none;stroke-dashoffset:0;stroke-opacity:1;marker:none;color-rendering:auto;image-rendering:auto;shape-rendering:auto;text-rendering:auto;enable-background:accumulate"
         d="m 5.0000004,48.436363 c 0,0 1.2920649,-1.260606 2.109375,-1.260606 2.0094935,2.119562 2.570231,0.09195 4.2187496,0 4.736723,2.920701 9.82545,-0.393459 12.65625,-0.630304 2.009494,2.119563 2.570232,0.09195 4.21875,0 1.461219,0.0095 5.769641,1.229456 6.328126,1.260607 1.943083,-0.915393 2.434791,-1.779745 4.468749,0 l 0,8.193941 -33.9999996,0 z"
         id="path4546" />
      <path
         style="fill:#fafafa;fill-rule:evenodd;stroke:none;stroke-width:1px;stroke-linecap:butt;stroke-linejoin:miter;stroke-opacity:1"
         d="m 9.3750001,43.609375 c -0.2492669,0.01216 -0.6125562,0.576072 -1.1523437,0.722656 -0.5397876,0.146584 -0.7031251,1.464844 -0.7031251,1.464844 0,0 1.0816963,-1.004925 1.4257813,-1.210938 0.344085,-0.206012 0.6640625,-0.07813 0.859375,-0.07813 l 0.4687504,0 c 0,0 -0.239617,-0.356804 -0.3906254,-0.507812 C 9.7318045,43.848992 9.624267,43.597219 9.3750001,43.609375 Z"
         id="path4548" />
      <path
         style="color:#000000;clip-rule:nonzero;display:inline;overflow:visible;visibility:visible;opacity:1;isolation:auto;mix-blend-mode:normal;color-interpolation:sRGB;color-interpolation-filters:linearRGB;solid-color:#000000;solid-opacity:1;fill:url(#linearGradient4558);fill-opacity:1;fill-rule:nonzero;stroke:none;stroke-width:0.9999218;stroke-linecap:butt;stroke-linejoin:round;stroke-miterlimit:4;stroke-dasharray:none;stroke-dashoffset:0;stroke-opacity:1;marker:none;color-rendering:auto;image-rendering:auto;shape-rendering:auto;text-rendering:auto;enable-background:accumulate"
         d="m 5.0000004,49.939606 8.4374996,0 c 4.619896,0 12.772901,-1.232692 16.875,-1.212078 C 34.4146,48.748138 39,49.333566 39,49.333566 l 0,6.666435 -33.9999996,0 z"
         id="path4550" />
    </g>
    <rect
       width="45"
       height="31.999998"
       x="5.5"
       y="23.5"
       id="rect4552"
       style="color:#000000;display:inline;overflow:visible;visibility:visible;opacity:0.225;fill:none;fill-opacity:1;fill-rule:nonzero;stroke:#000000;stroke-width:1.00000072;stroke-linecap:round;stroke-linejoin:miter;stroke-miterlimit:4;stroke-dasharray:none;stroke-dashoffset:0;stroke-opacity:1;marker:none;enable-background:accumulate" />
    <path
       style="opacity:1;fill:url(#linearGradient159);fill-opacity:1;stroke:none;stroke-width:0.79069769;stroke-linecap:butt;stroke-linejoin:miter;stroke-miterlimit:4;stroke-dasharray:none;stroke-dashoffset:0;stroke-opacity:1;marker:none"
       d="m 42.5,20.5 0,10 10,0 -3.5,-3.5 9,-9 3.5,3.5 0,-10 -10,0 3.5,3.5 -9,9 z"
       id="path157" />
    <path
       id="path163"
       d="m 42.5,20.5 0,10 10,0 -3.5,-3.5 9,-9 3.5,3.5 0,-10 -10,0 3.5,3.5 -9,9 z"
       style="opacity:0.5;fill:none;fill-opacity:1;stroke:#ad5f00;stroke-width:1;stroke-linecap:butt;stroke-linejoin:miter;stroke-miterlimit:4;stroke-dasharray:none;stroke-dashoffset:0;stroke-opacity:1;marker:none" />
  </g>
</svg>
